%TF.GenerationSoftware,KiCad,Pcbnew,7.0.6*%
%TF.CreationDate,2024-02-06T14:07:08+09:00*%
%TF.ProjectId,CO2_sensor,434f325f-7365-46e7-936f-722e6b696361,rev?*%
%TF.SameCoordinates,Original*%
%TF.FileFunction,Copper,L1,Top*%
%TF.FilePolarity,Positive*%
%FSLAX46Y46*%
G04 Gerber Fmt 4.6, Leading zero omitted, Abs format (unit mm)*
G04 Created by KiCad (PCBNEW 7.0.6) date 2024-02-06 14:07:08*
%MOMM*%
%LPD*%
G01*
G04 APERTURE LIST*
G04 Aperture macros list*
%AMRoundRect*
0 Rectangle with rounded corners*
0 $1 Rounding radius*
0 $2 $3 $4 $5 $6 $7 $8 $9 X,Y pos of 4 corners*
0 Add a 4 corners polygon primitive as box body*
4,1,4,$2,$3,$4,$5,$6,$7,$8,$9,$2,$3,0*
0 Add four circle primitives for the rounded corners*
1,1,$1+$1,$2,$3*
1,1,$1+$1,$4,$5*
1,1,$1+$1,$6,$7*
1,1,$1+$1,$8,$9*
0 Add four rect primitives between the rounded corners*
20,1,$1+$1,$2,$3,$4,$5,0*
20,1,$1+$1,$4,$5,$6,$7,0*
20,1,$1+$1,$6,$7,$8,$9,0*
20,1,$1+$1,$8,$9,$2,$3,0*%
G04 Aperture macros list end*
%TA.AperFunction,SMDPad,CuDef*%
%ADD10RoundRect,0.200000X0.200000X0.275000X-0.200000X0.275000X-0.200000X-0.275000X0.200000X-0.275000X0*%
%TD*%
%TA.AperFunction,SMDPad,CuDef*%
%ADD11RoundRect,0.225000X-0.225000X-0.250000X0.225000X-0.250000X0.225000X0.250000X-0.225000X0.250000X0*%
%TD*%
%TA.AperFunction,SMDPad,CuDef*%
%ADD12RoundRect,0.225000X-0.250000X0.225000X-0.250000X-0.225000X0.250000X-0.225000X0.250000X0.225000X0*%
%TD*%
%TA.AperFunction,SMDPad,CuDef*%
%ADD13RoundRect,0.225000X0.250000X-0.225000X0.250000X0.225000X-0.250000X0.225000X-0.250000X-0.225000X0*%
%TD*%
%TA.AperFunction,SMDPad,CuDef*%
%ADD14R,1.300000X0.300000*%
%TD*%
%TA.AperFunction,SMDPad,CuDef*%
%ADD15R,2.200000X1.800000*%
%TD*%
%TA.AperFunction,SMDPad,CuDef*%
%ADD16RoundRect,0.225000X0.225000X0.375000X-0.225000X0.375000X-0.225000X-0.375000X0.225000X-0.375000X0*%
%TD*%
%TA.AperFunction,SMDPad,CuDef*%
%ADD17RoundRect,0.225000X0.225000X0.250000X-0.225000X0.250000X-0.225000X-0.250000X0.225000X-0.250000X0*%
%TD*%
%TA.AperFunction,SMDPad,CuDef*%
%ADD18RoundRect,0.200000X0.275000X-0.200000X0.275000X0.200000X-0.275000X0.200000X-0.275000X-0.200000X0*%
%TD*%
%TA.AperFunction,ComponentPad*%
%ADD19R,0.850000X0.850000*%
%TD*%
%TA.AperFunction,ComponentPad*%
%ADD20O,0.850000X0.850000*%
%TD*%
%TA.AperFunction,SMDPad,CuDef*%
%ADD21RoundRect,0.150000X0.150000X-0.587500X0.150000X0.587500X-0.150000X0.587500X-0.150000X-0.587500X0*%
%TD*%
%TA.AperFunction,SMDPad,CuDef*%
%ADD22RoundRect,0.200000X-0.200000X-0.275000X0.200000X-0.275000X0.200000X0.275000X-0.200000X0.275000X0*%
%TD*%
%TA.AperFunction,SMDPad,CuDef*%
%ADD23RoundRect,0.150000X-0.150000X0.587500X-0.150000X-0.587500X0.150000X-0.587500X0.150000X0.587500X0*%
%TD*%
%TA.AperFunction,SMDPad,CuDef*%
%ADD24RoundRect,0.225000X-0.375000X0.225000X-0.375000X-0.225000X0.375000X-0.225000X0.375000X0.225000X0*%
%TD*%
%TA.AperFunction,SMDPad,CuDef*%
%ADD25RoundRect,0.150000X-0.587500X-0.150000X0.587500X-0.150000X0.587500X0.150000X-0.587500X0.150000X0*%
%TD*%
%TA.AperFunction,SMDPad,CuDef*%
%ADD26R,1.600000X0.700000*%
%TD*%
%TA.AperFunction,SMDPad,CuDef*%
%ADD27R,1.800000X1.200000*%
%TD*%
%TA.AperFunction,SMDPad,CuDef*%
%ADD28R,2.200000X1.200000*%
%TD*%
%TA.AperFunction,SMDPad,CuDef*%
%ADD29R,1.500000X1.600000*%
%TD*%
%TA.AperFunction,SMDPad,CuDef*%
%ADD30R,2.700000X1.000000*%
%TD*%
%TA.AperFunction,ViaPad*%
%ADD31C,0.800000*%
%TD*%
%TA.AperFunction,Conductor*%
%ADD32C,0.250000*%
%TD*%
G04 APERTURE END LIST*
D10*
%TO.P,R7,1*%
%TO.N,/SD_PWR*%
X184825000Y-126000000D03*
%TO.P,R7,2*%
%TO.N,Net-(Q4-G)*%
X183175000Y-126000000D03*
%TD*%
D11*
%TO.P,C4,1*%
%TO.N,GND*%
X192475000Y-112250000D03*
%TO.P,C4,2*%
%TO.N,/VCOM*%
X194025000Y-112250000D03*
%TD*%
D12*
%TO.P,C1,1*%
%TO.N,/SC_3V3*%
X187470437Y-122236132D03*
%TO.P,C1,2*%
%TO.N,GND*%
X187470437Y-123786132D03*
%TD*%
D13*
%TO.P,C2,1*%
%TO.N,Net-(D1-K)*%
X192418000Y-121795382D03*
%TO.P,C2,2*%
%TO.N,Net-(D3-A)*%
X192418000Y-120245382D03*
%TD*%
D14*
%TO.P,J2,1,Pin_1*%
%TO.N,unconnected-(J2-Pin_1-Pad1)*%
X199450000Y-126000000D03*
%TO.P,J2,2,Pin_2*%
%TO.N,/GDR*%
X199450000Y-125500000D03*
%TO.P,J2,3,Pin_3*%
%TO.N,/RESE*%
X199450000Y-125000000D03*
%TO.P,J2,4,Pin_4*%
%TO.N,Net-(J2-Pin_4)*%
X199450000Y-124500000D03*
%TO.P,J2,5,Pin_5*%
%TO.N,Net-(J2-Pin_5)*%
X199450000Y-124000000D03*
%TO.P,J2,6,Pin_6*%
%TO.N,unconnected-(J2-Pin_6-Pad6)*%
X199450000Y-123500000D03*
%TO.P,J2,7,Pin_7*%
%TO.N,unconnected-(J2-Pin_7-Pad7)*%
X199450000Y-123000000D03*
%TO.P,J2,8,Pin_8*%
%TO.N,GND*%
X199450000Y-122500000D03*
%TO.P,J2,9,Pin_9*%
%TO.N,/Screen_BUSY*%
X199450000Y-122000000D03*
%TO.P,J2,10,Pin_10*%
%TO.N,/Screen_RES*%
X199450000Y-121500000D03*
%TO.P,J2,11,Pin_11*%
%TO.N,/D{slash}C*%
X199450000Y-121000000D03*
%TO.P,J2,12,Pin_12*%
%TO.N,/Screen_CS*%
X199450000Y-120500000D03*
%TO.P,J2,13,Pin_13*%
%TO.N,/SCK*%
X199450000Y-120000000D03*
%TO.P,J2,14,Pin_14*%
%TO.N,/SDI*%
X199450000Y-119500000D03*
%TO.P,J2,15,Pin_15*%
%TO.N,/SC_3V3*%
X199450000Y-119000000D03*
%TO.P,J2,16,Pin_16*%
%TO.N,Net-(J2-Pin_16)*%
X199450000Y-118500000D03*
%TO.P,J2,17,Pin_17*%
%TO.N,GND*%
X199450000Y-118000000D03*
%TO.P,J2,18,Pin_18*%
%TO.N,Net-(J2-Pin_18)*%
X199450000Y-117500000D03*
%TO.P,J2,19,Pin_19*%
%TO.N,unconnected-(J2-Pin_19-Pad19)*%
X199450000Y-117000000D03*
%TO.P,J2,20,Pin_20*%
%TO.N,Net-(J2-Pin_20)*%
X199450000Y-116500000D03*
%TO.P,J2,21,Pin_21*%
%TO.N,/PREVGH*%
X199450000Y-116000000D03*
%TO.P,J2,22,Pin_22*%
%TO.N,Net-(J2-Pin_22)*%
X199450000Y-115500000D03*
%TO.P,J2,23,Pin_23*%
%TO.N,/PREVGL*%
X199450000Y-115000000D03*
%TO.P,J2,24,Pin_24*%
%TO.N,/VCOM*%
X199450000Y-114500000D03*
D15*
%TO.P,J2,MP,MountPin*%
%TO.N,GND*%
X202700000Y-127900000D03*
X202700000Y-112600000D03*
%TD*%
D16*
%TO.P,D1,1,K*%
%TO.N,Net-(D1-K)*%
X192290086Y-124053780D03*
%TO.P,D1,2,A*%
%TO.N,/PREVGL*%
X188990086Y-124053780D03*
%TD*%
D11*
%TO.P,C10,1*%
%TO.N,GND*%
X195974999Y-112789777D03*
%TO.P,C10,2*%
%TO.N,/PREVGL*%
X197524999Y-112789777D03*
%TD*%
D17*
%TO.P,C3,1*%
%TO.N,/PREVGH*%
X190202665Y-112522265D03*
%TO.P,C3,2*%
%TO.N,GND*%
X188652665Y-112522265D03*
%TD*%
D18*
%TO.P,R3,1*%
%TO.N,/Screen_PWR*%
X192327987Y-127823208D03*
%TO.P,R3,2*%
%TO.N,Net-(Q3-G)*%
X192327987Y-126173208D03*
%TD*%
D13*
%TO.P,C15,1*%
%TO.N,Net-(J3-VDD)*%
X183000000Y-119025000D03*
%TO.P,C15,2*%
%TO.N,GND*%
X183000000Y-117475000D03*
%TD*%
D19*
%TO.P,J1,1,Pin_1*%
%TO.N,/ICSPCLK*%
X185500000Y-129250000D03*
D20*
%TO.P,J1,2,Pin_2*%
%TO.N,/ICSPDAT*%
X186500000Y-129250000D03*
%TO.P,J1,3,Pin_3*%
%TO.N,+3.3V*%
X187500000Y-129250000D03*
%TO.P,J1,4,Pin_4*%
%TO.N,GND*%
X188500000Y-129250000D03*
%TO.P,J1,5,Pin_5*%
%TO.N,/MCLR*%
X189500000Y-129250000D03*
%TD*%
D10*
%TO.P,R4,1*%
%TO.N,GND*%
X187587500Y-120000000D03*
%TO.P,R4,2*%
%TO.N,/RESE*%
X185937500Y-120000000D03*
%TD*%
D11*
%TO.P,C9,1*%
%TO.N,GND*%
X195139234Y-118110744D03*
%TO.P,C9,2*%
%TO.N,Net-(J2-Pin_18)*%
X196689234Y-118110744D03*
%TD*%
%TO.P,C8,1*%
%TO.N,GND*%
X194475000Y-120250000D03*
%TO.P,C8,2*%
%TO.N,Net-(J2-Pin_16)*%
X196025000Y-120250000D03*
%TD*%
D21*
%TO.P,Q4,1,G*%
%TO.N,Net-(Q4-G)*%
X183300000Y-123937500D03*
%TO.P,Q4,2,S*%
%TO.N,+3.3V*%
X185200000Y-123937500D03*
%TO.P,Q4,3,D*%
%TO.N,Net-(J3-VDD)*%
X184250000Y-122062500D03*
%TD*%
D22*
%TO.P,R1,1*%
%TO.N,/GDR*%
X186612500Y-114500000D03*
%TO.P,R1,2*%
%TO.N,GND*%
X188262500Y-114500000D03*
%TD*%
D23*
%TO.P,Q3,1,G*%
%TO.N,Net-(Q3-G)*%
X195849501Y-122834588D03*
%TO.P,Q3,2,S*%
%TO.N,+3.3V*%
X193949501Y-122834588D03*
%TO.P,Q3,3,D*%
%TO.N,/SC_3V3*%
X194899501Y-124709588D03*
%TD*%
D24*
%TO.P,D2,1,K*%
%TO.N,GND*%
X193187500Y-115350000D03*
%TO.P,D2,2,A*%
%TO.N,Net-(D1-K)*%
X193187500Y-118650000D03*
%TD*%
D25*
%TO.P,Q1,1,G*%
%TO.N,/GDR*%
X186062500Y-116300000D03*
%TO.P,Q1,2,S*%
%TO.N,/RESE*%
X186062500Y-118200000D03*
%TO.P,Q1,3,D*%
%TO.N,Net-(D3-A)*%
X187937500Y-117250000D03*
%TD*%
D24*
%TO.P,D3,1,K*%
%TO.N,/PREVGH*%
X190437500Y-114600000D03*
%TO.P,D3,2,A*%
%TO.N,Net-(D3-A)*%
X190437500Y-117900000D03*
%TD*%
D11*
%TO.P,C11,1*%
%TO.N,GND*%
X195683764Y-126585530D03*
%TO.P,C11,2*%
%TO.N,Net-(J2-Pin_4)*%
X197233764Y-126585530D03*
%TD*%
%TO.P,C6,1*%
%TO.N,GND*%
X195778724Y-116574577D03*
%TO.P,C6,2*%
%TO.N,Net-(J2-Pin_20)*%
X197328724Y-116574577D03*
%TD*%
D26*
%TO.P,J3,1,DAT2*%
%TO.N,unconnected-(J3-DAT2-Pad1)*%
X180350000Y-122450000D03*
%TO.P,J3,2,DAT3/CD*%
%TO.N,/SD_CS*%
X180350000Y-121350000D03*
%TO.P,J3,3,CMD*%
%TO.N,/SDI*%
X180350000Y-120250000D03*
%TO.P,J3,4,VDD*%
%TO.N,Net-(J3-VDD)*%
X180350000Y-119150000D03*
%TO.P,J3,5,CLK*%
%TO.N,/SCK*%
X180350000Y-118050000D03*
%TO.P,J3,6,VSS*%
%TO.N,GND*%
X180350000Y-116950000D03*
%TO.P,J3,7,DAT0*%
%TO.N,/SDO*%
X180350000Y-115850000D03*
%TO.P,J3,8,DAT1*%
%TO.N,unconnected-(J3-DAT1-Pad8)*%
X180350000Y-114750000D03*
D27*
%TO.P,J3,9,SHIELD*%
%TO.N,GND*%
X179050000Y-112450000D03*
D28*
X169750000Y-112450000D03*
D26*
X180350000Y-113650000D03*
D29*
X179300000Y-127050000D03*
D28*
X169750000Y-127950000D03*
%TD*%
D13*
%TO.P,C16,1*%
%TO.N,GND*%
X197500000Y-122275000D03*
%TO.P,C16,2*%
%TO.N,/SC_3V3*%
X197500000Y-120725000D03*
%TD*%
D11*
%TO.P,C7,1*%
%TO.N,GND*%
X195725000Y-114500000D03*
%TO.P,C7,2*%
%TO.N,Net-(J2-Pin_22)*%
X197275000Y-114500000D03*
%TD*%
D30*
%TO.P,L1,1,1*%
%TO.N,/SC_3V3*%
X190035350Y-122119676D03*
%TO.P,L1,2,2*%
%TO.N,Net-(D3-A)*%
X190035350Y-119919676D03*
%TD*%
D31*
%TO.N,GND*%
X194774000Y-114500000D03*
X204750000Y-112500000D03*
X190423449Y-115699785D03*
X177500000Y-112500000D03*
X188662500Y-113502353D03*
X184693921Y-119400498D03*
X167000000Y-120000000D03*
X178750000Y-114250000D03*
X202097264Y-121329994D03*
X193097043Y-113025500D03*
X200500000Y-126775500D03*
X178250000Y-124750000D03*
X175750000Y-114000000D03*
X201452998Y-125522404D03*
X191100405Y-128325500D03*
X198000000Y-123500000D03*
X194750000Y-127548639D03*
%TO.N,/SDA*%
X191499500Y-121026507D03*
X188821751Y-121019178D03*
%TO.N,+3.3V*%
X193512299Y-117012299D03*
X186076200Y-126773441D03*
X194074500Y-121524542D03*
X182500000Y-129000000D03*
%TO.N,Net-(J2-Pin_5)*%
X200693201Y-124763313D03*
%TO.N,/ICSPCLK*%
X188283749Y-125974570D03*
%TO.N,/ICSPDAT*%
X191084223Y-127326128D03*
%TO.N,/MCLR*%
X205025500Y-116825612D03*
X199500000Y-129500000D03*
%TO.N,/Screen_BUSY*%
X201860089Y-123835490D03*
%TO.N,/Screen_RES*%
X201779414Y-122839248D03*
%TO.N,/D{slash}C*%
X201125180Y-121097491D03*
%TO.N,/Screen_CS*%
X201931007Y-119016955D03*
%TO.N,/SCK*%
X203750000Y-126250000D03*
X201554496Y-118091080D03*
%TO.N,/SDI*%
X200737701Y-116750000D03*
X177000000Y-120250000D03*
%TO.N,/SD_CS*%
X199250000Y-127274500D03*
%TO.N,/SDO*%
X178250000Y-115750000D03*
%TO.N,/Screen_PWR*%
X196546077Y-128910430D03*
%TO.N,/SD_PWR*%
X183925096Y-128674500D03*
%TD*%
D32*
%TO.N,GND*%
X196250000Y-126500000D02*
X196250000Y-125750000D01*
X200493560Y-122763968D02*
X200493560Y-123493560D01*
X191497265Y-111272265D02*
X189477735Y-111272265D01*
X186275000Y-123739708D02*
X186310292Y-123775000D01*
X198200000Y-111450000D02*
X193275000Y-111450000D01*
X193097043Y-113025500D02*
X192475000Y-112403457D01*
X203000000Y-122232730D02*
X203000000Y-123975402D01*
X196250000Y-125750000D02*
X197500000Y-124500000D01*
X195714776Y-113050000D02*
X195974999Y-112789777D01*
X188662500Y-113502353D02*
X188662500Y-114100000D01*
X197500000Y-123500000D02*
X197500000Y-122275000D01*
X198000000Y-123500000D02*
X197500000Y-123500000D01*
X188662500Y-112500000D02*
X188662500Y-113502353D01*
X195683764Y-126614875D02*
X194750000Y-127548639D01*
X195250000Y-119475000D02*
X195250000Y-118500000D01*
X199450000Y-122500000D02*
X197725000Y-122500000D01*
X191100405Y-128325500D02*
X190925905Y-128500000D01*
X196000000Y-126750000D02*
X196250000Y-126500000D01*
X199450000Y-122500000D02*
X200229592Y-122500000D01*
X193121543Y-113050000D02*
X195714776Y-113050000D01*
X188652665Y-112097335D02*
X188652665Y-112522265D01*
X188648960Y-128500000D02*
X188500000Y-128648960D01*
X198052795Y-118000000D02*
X197142051Y-118910744D01*
X195778724Y-116574577D02*
X195975000Y-116770853D01*
X203000000Y-123975402D02*
X201452998Y-125522404D01*
X194862500Y-118112500D02*
X194862500Y-117490801D01*
X192475000Y-112403457D02*
X192475000Y-112250000D01*
X195939234Y-118910744D02*
X195139234Y-118110744D01*
X201575500Y-126775500D02*
X202700000Y-127900000D01*
X197500000Y-124500000D02*
X197500000Y-123500000D01*
X186681250Y-119093750D02*
X187587500Y-120000000D01*
X192837715Y-115699785D02*
X193187500Y-115350000D01*
X185500000Y-122087500D02*
X185500000Y-122191853D01*
X185500000Y-122191853D02*
X186275000Y-122966853D01*
X200500000Y-126775500D02*
X201575500Y-126775500D01*
X188661645Y-113501498D02*
X188661645Y-112310440D01*
X194862500Y-117490801D02*
X195778724Y-116574577D01*
X201452998Y-124452998D02*
X201452998Y-125522404D01*
X174200000Y-112450000D02*
X175750000Y-114000000D01*
X195297467Y-118609460D02*
X195297467Y-118547467D01*
X186310292Y-123775000D02*
X187306349Y-123775000D01*
X188662500Y-114100000D02*
X188262500Y-114500000D01*
X169750000Y-112450000D02*
X174200000Y-112450000D01*
X190925905Y-128500000D02*
X188648960Y-128500000D01*
X195250000Y-118500000D02*
X194862500Y-118112500D01*
X180350000Y-113650000D02*
X179350000Y-113650000D01*
X199450000Y-118000000D02*
X198052795Y-118000000D01*
X185000669Y-119093750D02*
X186681250Y-119093750D01*
X195297467Y-118547467D02*
X194862500Y-118112500D01*
X202097264Y-121329994D02*
X203000000Y-122232730D01*
X188500000Y-128648960D02*
X188500000Y-129250000D01*
X197725000Y-122500000D02*
X197500000Y-122275000D01*
X194475000Y-120250000D02*
X195250000Y-119475000D01*
X197142051Y-118910744D02*
X195939234Y-118910744D01*
X200493560Y-123493560D02*
X201452998Y-124452998D01*
X194774000Y-114500000D02*
X195725000Y-114500000D01*
X202656007Y-115906007D02*
X198200000Y-111450000D01*
X190423449Y-115699785D02*
X192837715Y-115699785D01*
X179350000Y-113650000D02*
X178750000Y-114250000D01*
X200229592Y-122500000D02*
X200493560Y-122763968D01*
X187587500Y-120000000D02*
X185500000Y-122087500D01*
X195683764Y-126585530D02*
X195683764Y-126614875D01*
X202656007Y-120771251D02*
X202656007Y-115906007D01*
X186275000Y-122966853D02*
X186275000Y-123739708D01*
X195778724Y-116574577D02*
X194412077Y-116574577D01*
X188662500Y-113502353D02*
X188661645Y-113501498D01*
X184693921Y-119400498D02*
X185000669Y-119093750D01*
X193097043Y-113025500D02*
X193121543Y-113050000D01*
X189477735Y-111272265D02*
X188652665Y-112097335D01*
X193275000Y-111450000D02*
X192475000Y-112250000D01*
X192475000Y-112250000D02*
X191497265Y-111272265D01*
X202097264Y-121329994D02*
X202656007Y-120771251D01*
X195725000Y-126750000D02*
X196000000Y-126750000D01*
X194412077Y-116574577D02*
X193187500Y-115350000D01*
%TO.N,/SDA*%
X191499500Y-121026507D02*
X191492171Y-121019178D01*
X191492171Y-121019178D02*
X188821751Y-121019178D01*
%TO.N,+3.3V*%
X186000000Y-127250000D02*
X186000000Y-124737500D01*
X182500000Y-129000000D02*
X183000000Y-129500000D01*
X183000000Y-129500000D02*
X184124901Y-129500000D01*
X193949501Y-121649541D02*
X194074500Y-121524542D01*
X184124901Y-129500000D02*
X184750000Y-128874901D01*
X193700000Y-121200000D02*
X193700000Y-119515317D01*
X186000000Y-124737500D02*
X185200000Y-123937500D01*
X193949501Y-121449501D02*
X193700000Y-121200000D01*
X194250000Y-117750000D02*
X193512299Y-117012299D01*
X186076200Y-127173800D02*
X186000000Y-127250000D01*
X184750000Y-128874901D02*
X184750000Y-128500000D01*
X193949501Y-122834588D02*
X193949501Y-121449501D01*
X186076200Y-126773441D02*
X186076200Y-127173800D01*
X193700000Y-119515317D02*
X194250000Y-118965317D01*
X184750000Y-128500000D02*
X186000000Y-127250000D01*
X194250000Y-118965317D02*
X194250000Y-117750000D01*
X193949501Y-122834588D02*
X193949501Y-121649541D01*
%TO.N,/SC_3V3*%
X190500000Y-122750000D02*
X190500000Y-123641511D01*
X189986132Y-122236132D02*
X190500000Y-122750000D01*
X196600337Y-121624663D02*
X197500000Y-120725000D01*
X194572874Y-125036215D02*
X194899501Y-124709588D01*
X198500000Y-119000000D02*
X197500000Y-120000000D01*
X190500000Y-123641511D02*
X191894704Y-125036215D01*
X194899501Y-121624663D02*
X196600337Y-121624663D01*
X199450000Y-119000000D02*
X198500000Y-119000000D01*
X194899501Y-124709588D02*
X194899501Y-121624663D01*
X187470437Y-122236132D02*
X189986132Y-122236132D01*
X191894704Y-125036215D02*
X194572874Y-125036215D01*
X197500000Y-120000000D02*
X197500000Y-120725000D01*
%TO.N,Net-(D1-K)*%
X193187500Y-118650000D02*
X193250000Y-118712500D01*
X192290086Y-121626113D02*
X192290086Y-124053780D01*
X193250000Y-120666199D02*
X192290086Y-121626113D01*
X193250000Y-118712500D02*
X193250000Y-120666199D01*
%TO.N,Net-(D3-A)*%
X187937500Y-117250000D02*
X188587500Y-117900000D01*
X190437500Y-117900000D02*
X190437500Y-119650000D01*
X190187500Y-119900000D02*
X192112500Y-119900000D01*
X190437500Y-119650000D02*
X190187500Y-119900000D01*
X188587500Y-117900000D02*
X190437500Y-117900000D01*
X192112500Y-119900000D02*
X192687500Y-120475000D01*
%TO.N,/PREVGH*%
X190212500Y-112500000D02*
X190212500Y-114375000D01*
X197888604Y-115750000D02*
X198138604Y-116000000D01*
X194965316Y-115750000D02*
X197888604Y-115750000D01*
X198138604Y-116000000D02*
X199450000Y-116000000D01*
X193465317Y-114250000D02*
X194965316Y-115750000D01*
X190437500Y-114600000D02*
X190787500Y-114250000D01*
X190787500Y-114250000D02*
X193465317Y-114250000D01*
X190212500Y-114375000D02*
X190437500Y-114600000D01*
%TO.N,/VCOM*%
X196427816Y-111989777D02*
X194285223Y-111989777D01*
X197061959Y-112000000D02*
X196438039Y-112000000D01*
X197989777Y-111989777D02*
X197072182Y-111989777D01*
X197072182Y-111989777D02*
X197061959Y-112000000D01*
X199450000Y-113450000D02*
X197989777Y-111989777D01*
X196438039Y-112000000D02*
X196427816Y-111989777D01*
X199450000Y-114500000D02*
X199450000Y-113450000D01*
X194285223Y-111989777D02*
X194025000Y-112250000D01*
%TO.N,Net-(J2-Pin_5)*%
X200250000Y-124000000D02*
X199450000Y-124000000D01*
X200693201Y-124763313D02*
X200693201Y-124443201D01*
X200693201Y-124443201D02*
X200250000Y-124000000D01*
%TO.N,Net-(J2-Pin_20)*%
X199450000Y-116500000D02*
X197403301Y-116500000D01*
X197403301Y-116500000D02*
X197328724Y-116574577D01*
%TO.N,Net-(J2-Pin_22)*%
X199450000Y-115500000D02*
X198275000Y-115500000D01*
X198275000Y-115500000D02*
X197275000Y-114500000D01*
%TO.N,Net-(J2-Pin_16)*%
X199450000Y-118500000D02*
X198363604Y-118500000D01*
X198363604Y-118500000D02*
X196613604Y-120250000D01*
X196613604Y-120250000D02*
X196025000Y-120250000D01*
%TO.N,Net-(J2-Pin_18)*%
X197299978Y-117500000D02*
X196689234Y-118110744D01*
X199450000Y-117500000D02*
X197299978Y-117500000D01*
%TO.N,/PREVGL*%
X186992620Y-123011132D02*
X186670437Y-122688949D01*
X188093153Y-123000000D02*
X187959386Y-123000000D01*
X188478249Y-115300000D02*
X188700000Y-115300000D01*
X188990086Y-123896933D02*
X188093153Y-123000000D01*
X187948254Y-123011132D02*
X186992620Y-123011132D01*
X189749848Y-111722265D02*
X190655482Y-111722265D01*
X196177817Y-113700000D02*
X196227817Y-113750000D01*
X189436645Y-114563355D02*
X189436645Y-114508980D01*
X192683217Y-113750000D02*
X195222183Y-113750000D01*
X189427665Y-114500000D02*
X189427665Y-112044448D01*
X188004962Y-120800000D02*
X188330087Y-120474875D01*
X196227817Y-113750000D02*
X196564776Y-113750000D01*
X198039777Y-112789777D02*
X197524999Y-112789777D01*
X199450000Y-115000000D02*
X198500000Y-115000000D01*
X187653752Y-120800000D02*
X188004962Y-120800000D01*
X198500000Y-115000000D02*
X198409605Y-114909605D01*
X186750000Y-117471751D02*
X186750000Y-117028249D01*
X186750000Y-117028249D02*
X188478249Y-115300000D01*
X195272183Y-113700000D02*
X196177817Y-113700000D01*
X188330087Y-119051838D02*
X186750000Y-117471751D01*
X196564776Y-113750000D02*
X197524999Y-112789777D01*
X198409605Y-114909605D02*
X198409605Y-113159605D01*
X188700000Y-115300000D02*
X189436645Y-114563355D01*
X195222183Y-113750000D02*
X195272183Y-113700000D01*
X189436645Y-114508980D02*
X189427665Y-114500000D01*
X188330087Y-120474875D02*
X188330087Y-119051838D01*
X187959386Y-123000000D02*
X187948254Y-123011132D01*
X186670437Y-122688949D02*
X186670437Y-121783315D01*
X198409605Y-113159605D02*
X198039777Y-112789777D01*
X190655482Y-111722265D02*
X192683217Y-113750000D01*
X189427665Y-112044448D02*
X189749848Y-111722265D01*
X186670437Y-121783315D02*
X187653752Y-120800000D01*
X188990086Y-124053780D02*
X188990086Y-123896933D01*
%TO.N,Net-(J2-Pin_4)*%
X198363604Y-124500000D02*
X197233764Y-125629840D01*
X197233764Y-125629840D02*
X197233764Y-126585530D01*
X199450000Y-124500000D02*
X198363604Y-124500000D01*
%TO.N,/ICSPCLK*%
X186700000Y-127300000D02*
X185500000Y-128500000D01*
X185500000Y-128500000D02*
X185500000Y-129250000D01*
X188283749Y-126845836D02*
X187829585Y-127300000D01*
X187829585Y-127300000D02*
X186700000Y-127300000D01*
X188283749Y-125974570D02*
X188283749Y-126845836D01*
%TO.N,/ICSPDAT*%
X191084223Y-127326128D02*
X188923872Y-127326128D01*
X188923872Y-127326128D02*
X188500000Y-127750000D01*
X187398960Y-127750000D02*
X186500000Y-128648960D01*
X188500000Y-127750000D02*
X187398960Y-127750000D01*
X186500000Y-128648960D02*
X186500000Y-129250000D01*
%TO.N,/MCLR*%
X205025500Y-116825612D02*
X204633306Y-117217806D01*
X204633306Y-128616694D02*
X203750000Y-129500000D01*
X203750000Y-129500000D02*
X199500000Y-129500000D01*
X204633306Y-117217806D02*
X204633306Y-128616694D01*
%TO.N,/GDR*%
X203500000Y-116037427D02*
X203458306Y-116079121D01*
X186612500Y-114500000D02*
X186612500Y-115750000D01*
X187785067Y-110714933D02*
X198101329Y-110714933D01*
X201750000Y-126250000D02*
X201150000Y-126250000D01*
X201150000Y-126250000D02*
X200400000Y-125500000D01*
X201211396Y-113825000D02*
X201688604Y-113825000D01*
X186612500Y-111887500D02*
X187785067Y-110714933D01*
X203500000Y-117094217D02*
X203500000Y-124500000D01*
X200400000Y-125500000D02*
X199450000Y-125500000D01*
X203500000Y-115636396D02*
X203500000Y-116037427D01*
X201688604Y-113825000D02*
X203500000Y-115636396D01*
X198101329Y-110714933D02*
X201211396Y-113825000D01*
X186612500Y-115750000D02*
X186062500Y-116300000D01*
X203458306Y-116079121D02*
X203458306Y-117052523D01*
X203500000Y-124500000D02*
X201750000Y-126250000D01*
X203458306Y-117052523D02*
X203500000Y-117094217D01*
X186612500Y-114500000D02*
X186612500Y-111887500D01*
%TO.N,/RESE*%
X198475000Y-125025000D02*
X198500000Y-125000000D01*
X186450000Y-125200000D02*
X190000098Y-125200000D01*
X183200000Y-120750000D02*
X185187500Y-120750000D01*
X183800000Y-118450000D02*
X183800000Y-119700000D01*
X186450000Y-124551104D02*
X186450000Y-125200000D01*
X192884804Y-126992342D02*
X194165601Y-128273139D01*
X184875000Y-122203249D02*
X185825000Y-123153249D01*
X196476458Y-127998139D02*
X197077068Y-127998139D01*
X198500000Y-125000000D02*
X199450000Y-125000000D01*
X183800000Y-119700000D02*
X183200000Y-120300000D01*
X198475000Y-127413104D02*
X198475000Y-125025000D01*
X196201458Y-128273139D02*
X196476458Y-127998139D01*
X185825000Y-123926104D02*
X186450000Y-124551104D01*
X197483517Y-128404588D02*
X198475000Y-127413104D01*
X184875000Y-121625000D02*
X184875000Y-122203249D01*
X185187500Y-120750000D02*
X185937500Y-120000000D01*
X190000098Y-125200000D02*
X191792440Y-126992342D01*
X185937500Y-120000000D02*
X185937500Y-120562500D01*
X185825000Y-123153249D02*
X185825000Y-123926104D01*
X194165601Y-128273139D02*
X196201458Y-128273139D01*
X186062500Y-118200000D02*
X184050000Y-118200000D01*
X197077068Y-127998139D02*
X197483517Y-128404588D01*
X191792440Y-126992342D02*
X192884804Y-126992342D01*
X184050000Y-118200000D02*
X183800000Y-118450000D01*
X185937500Y-120562500D02*
X184875000Y-121625000D01*
X183200000Y-120300000D02*
X183200000Y-120750000D01*
%TO.N,/Screen_BUSY*%
X200365988Y-122000000D02*
X199450000Y-122000000D01*
X200943560Y-123307164D02*
X200943560Y-122577572D01*
X200943560Y-122577572D02*
X200365988Y-122000000D01*
X201860089Y-123835490D02*
X201471886Y-123835490D01*
X201471886Y-123835490D02*
X200943560Y-123307164D01*
%TO.N,/Screen_RES*%
X201779414Y-122452622D02*
X201149283Y-121822491D01*
X201779414Y-122839248D02*
X201779414Y-122452622D01*
X200824875Y-121822491D02*
X200502384Y-121500000D01*
X200502384Y-121500000D02*
X199450000Y-121500000D01*
X201149283Y-121822491D02*
X200824875Y-121822491D01*
%TO.N,/D{slash}C*%
X201027689Y-121000000D02*
X199450000Y-121000000D01*
X201125180Y-121097491D02*
X201027689Y-121000000D01*
%TO.N,/Screen_CS*%
X201931007Y-119016955D02*
X201931007Y-119284046D01*
X200715053Y-120500000D02*
X199450000Y-120500000D01*
X201931007Y-119284046D02*
X200715053Y-120500000D01*
%TO.N,/SCK*%
X176750000Y-111750000D02*
X178235067Y-110264933D01*
X201197066Y-119339330D02*
X200536396Y-120000000D01*
X201554496Y-118091080D02*
X201197066Y-118448510D01*
X201197066Y-118448510D02*
X201197066Y-119339330D01*
X176750000Y-115500000D02*
X176750000Y-111750000D01*
X179300000Y-118050000D02*
X176750000Y-115500000D01*
X204659178Y-115840822D02*
X204333001Y-115840822D01*
X204183306Y-125816694D02*
X203750000Y-126250000D01*
X199136396Y-110750000D02*
X204750000Y-110750000D01*
X180350000Y-118050000D02*
X179300000Y-118050000D01*
X204333001Y-115840822D02*
X203908306Y-116265517D01*
X178235067Y-110264933D02*
X198651329Y-110264933D01*
X200536396Y-120000000D02*
X199450000Y-120000000D01*
X204750000Y-110750000D02*
X205500000Y-111500000D01*
X204183306Y-117141127D02*
X204183306Y-125816694D01*
X203908306Y-116866127D02*
X204183306Y-117141127D01*
X205500000Y-111500000D02*
X205500000Y-115000000D01*
X205500000Y-115000000D02*
X204659178Y-115840822D01*
X198651329Y-110264933D02*
X199136396Y-110750000D01*
X203908306Y-116265517D02*
X203908306Y-116866127D01*
%TO.N,/SDI*%
X200400000Y-119500000D02*
X199450000Y-119500000D01*
X177000000Y-120250000D02*
X180350000Y-120250000D01*
X200737701Y-116750000D02*
X200737701Y-119162299D01*
X200737701Y-119162299D02*
X200400000Y-119500000D01*
%TO.N,/SD_CS*%
X196524500Y-130000000D02*
X179000000Y-130000000D01*
X177000000Y-128000000D02*
X177000000Y-123750000D01*
X177000000Y-123750000D02*
X179400000Y-121350000D01*
X179000000Y-130000000D02*
X177000000Y-128000000D01*
X179400000Y-121350000D02*
X180350000Y-121350000D01*
X199250000Y-127274500D02*
X196524500Y-130000000D01*
%TO.N,Net-(J3-VDD)*%
X184250000Y-122062500D02*
X183812500Y-122062500D01*
X183812500Y-122062500D02*
X182750000Y-121000000D01*
X183000000Y-119025000D02*
X182875000Y-119150000D01*
X182750000Y-121000000D02*
X182750000Y-119275000D01*
X182750000Y-119275000D02*
X183000000Y-119025000D01*
X182875000Y-119150000D02*
X180350000Y-119150000D01*
%TO.N,/SDO*%
X178250000Y-115750000D02*
X180250000Y-115750000D01*
X180250000Y-115750000D02*
X180350000Y-115850000D01*
%TO.N,Net-(Q3-G)*%
X195849501Y-125168839D02*
X195246252Y-125772088D01*
X195246252Y-125772088D02*
X192729107Y-125772088D01*
X192729107Y-125772088D02*
X192327987Y-126173208D01*
X195849501Y-122834588D02*
X195849501Y-125168839D01*
%TO.N,Net-(Q4-G)*%
X183175000Y-124062500D02*
X183300000Y-123937500D01*
X183175000Y-126000000D02*
X183175000Y-124062500D01*
%TO.N,/Screen_PWR*%
X196358786Y-128723139D02*
X193227918Y-128723139D01*
X196546077Y-128910430D02*
X196358786Y-128723139D01*
X193227918Y-128723139D02*
X192327987Y-127823208D01*
%TO.N,/SD_PWR*%
X184825000Y-127774596D02*
X184825000Y-126000000D01*
X183925096Y-128674500D02*
X184825000Y-127774596D01*
%TD*%
%TA.AperFunction,Conductor*%
%TO.N,GND*%
G36*
X177382587Y-110020185D02*
G01*
X177428342Y-110072989D01*
X177438286Y-110142147D01*
X177409261Y-110205703D01*
X177403233Y-110212176D01*
X177201719Y-110413690D01*
X176366208Y-111249199D01*
X176353951Y-111259020D01*
X176354134Y-111259241D01*
X176348123Y-111264213D01*
X176300772Y-111314636D01*
X176279889Y-111335518D01*
X176279877Y-111335532D01*
X176275621Y-111341017D01*
X176271837Y-111345447D01*
X176239937Y-111379418D01*
X176239936Y-111379420D01*
X176230284Y-111396976D01*
X176219610Y-111413226D01*
X176207329Y-111429061D01*
X176207324Y-111429068D01*
X176188815Y-111471838D01*
X176186245Y-111477084D01*
X176163803Y-111517906D01*
X176158822Y-111537307D01*
X176152521Y-111555710D01*
X176144562Y-111574102D01*
X176144561Y-111574105D01*
X176137271Y-111620127D01*
X176136087Y-111625846D01*
X176124501Y-111670972D01*
X176124499Y-111670984D01*
X176124499Y-111691020D01*
X176122973Y-111710411D01*
X176120365Y-111726879D01*
X176119840Y-111730196D01*
X176121015Y-111742627D01*
X176124225Y-111776583D01*
X176124500Y-111782421D01*
X176124499Y-115417255D01*
X176122776Y-115432872D01*
X176123061Y-115432899D01*
X176122326Y-115440665D01*
X176124500Y-115509814D01*
X176124500Y-115539343D01*
X176124501Y-115539360D01*
X176125368Y-115546231D01*
X176125826Y-115552050D01*
X176127290Y-115598624D01*
X176127291Y-115598627D01*
X176132880Y-115617867D01*
X176136824Y-115636911D01*
X176139193Y-115655657D01*
X176139336Y-115656791D01*
X176156490Y-115700119D01*
X176158382Y-115705647D01*
X176171381Y-115750388D01*
X176181580Y-115767634D01*
X176190138Y-115785103D01*
X176197514Y-115803732D01*
X176224898Y-115841423D01*
X176228106Y-115846307D01*
X176251827Y-115886416D01*
X176251833Y-115886424D01*
X176265990Y-115900580D01*
X176278627Y-115915375D01*
X176290406Y-115931587D01*
X176318670Y-115954969D01*
X176326309Y-115961288D01*
X176330620Y-115965210D01*
X177565054Y-117199644D01*
X178799194Y-118433784D01*
X178809019Y-118446048D01*
X178809240Y-118445866D01*
X178814210Y-118451873D01*
X178814213Y-118451876D01*
X178814214Y-118451877D01*
X178864651Y-118499241D01*
X178885530Y-118520120D01*
X178891004Y-118524366D01*
X178895442Y-118528156D01*
X178929418Y-118560062D01*
X178929422Y-118560064D01*
X178946973Y-118569713D01*
X178963231Y-118580392D01*
X178973714Y-118588524D01*
X178979065Y-118592675D01*
X178985777Y-118596644D01*
X178985117Y-118597758D01*
X179032653Y-118637312D01*
X179053674Y-118703944D01*
X179052989Y-118719674D01*
X179049500Y-118752127D01*
X179049500Y-119145012D01*
X179049501Y-119500500D01*
X179029817Y-119567539D01*
X178977013Y-119613294D01*
X178925501Y-119624500D01*
X177703748Y-119624500D01*
X177636709Y-119604815D01*
X177611600Y-119583474D01*
X177605873Y-119577114D01*
X177605869Y-119577110D01*
X177452734Y-119465851D01*
X177452729Y-119465848D01*
X177279807Y-119388857D01*
X177279802Y-119388855D01*
X177134001Y-119357865D01*
X177094646Y-119349500D01*
X176905354Y-119349500D01*
X176872897Y-119356398D01*
X176720197Y-119388855D01*
X176720192Y-119388857D01*
X176547270Y-119465848D01*
X176547265Y-119465851D01*
X176394129Y-119577111D01*
X176267466Y-119717785D01*
X176172821Y-119881715D01*
X176172818Y-119881722D01*
X176119937Y-120044474D01*
X176114326Y-120061744D01*
X176094540Y-120250000D01*
X176114326Y-120438256D01*
X176114327Y-120438259D01*
X176172818Y-120618277D01*
X176172821Y-120618284D01*
X176267467Y-120782216D01*
X176363627Y-120889012D01*
X176394129Y-120922888D01*
X176547265Y-121034148D01*
X176547270Y-121034151D01*
X176720192Y-121111142D01*
X176720197Y-121111144D01*
X176905354Y-121150500D01*
X176905355Y-121150500D01*
X177094644Y-121150500D01*
X177094646Y-121150500D01*
X177279803Y-121111144D01*
X177452730Y-121034151D01*
X177605871Y-120922888D01*
X177610943Y-120917255D01*
X177611600Y-120916526D01*
X177671087Y-120879879D01*
X177703748Y-120875500D01*
X178690547Y-120875500D01*
X178757586Y-120895185D01*
X178803341Y-120947989D01*
X178813285Y-121017147D01*
X178784260Y-121080703D01*
X178778228Y-121087181D01*
X176616208Y-123249199D01*
X176603951Y-123259020D01*
X176604134Y-123259241D01*
X176598123Y-123264213D01*
X176550772Y-123314636D01*
X176529889Y-123335518D01*
X176529877Y-123335532D01*
X176525621Y-123341017D01*
X176521837Y-123345447D01*
X176489937Y-123379418D01*
X176489936Y-123379420D01*
X176480284Y-123396976D01*
X176469610Y-123413226D01*
X176457329Y-123429061D01*
X176457324Y-123429068D01*
X176438815Y-123471838D01*
X176436245Y-123477084D01*
X176413803Y-123517906D01*
X176408822Y-123537307D01*
X176402521Y-123555710D01*
X176394562Y-123574102D01*
X176394561Y-123574105D01*
X176387271Y-123620127D01*
X176386087Y-123625846D01*
X176374501Y-123670972D01*
X176374499Y-123670984D01*
X176374499Y-123691020D01*
X176372973Y-123710411D01*
X176369840Y-123730194D01*
X176369840Y-123730195D01*
X176374225Y-123776583D01*
X176374500Y-123782421D01*
X176374500Y-127917255D01*
X176372775Y-127932872D01*
X176373061Y-127932899D01*
X176372326Y-127940665D01*
X176374500Y-128009814D01*
X176374500Y-128039343D01*
X176374501Y-128039360D01*
X176375368Y-128046231D01*
X176375826Y-128052050D01*
X176377290Y-128098624D01*
X176377291Y-128098627D01*
X176382880Y-128117867D01*
X176386824Y-128136911D01*
X176389336Y-128156792D01*
X176396026Y-128173689D01*
X176406490Y-128200119D01*
X176408382Y-128205647D01*
X176421381Y-128250388D01*
X176431580Y-128267634D01*
X176440138Y-128285103D01*
X176447514Y-128303732D01*
X176474898Y-128341423D01*
X176478106Y-128346307D01*
X176501827Y-128386416D01*
X176501833Y-128386424D01*
X176515990Y-128400580D01*
X176528628Y-128415376D01*
X176540405Y-128431586D01*
X176540406Y-128431587D01*
X176576309Y-128461288D01*
X176580620Y-128465210D01*
X177974911Y-129859502D01*
X178403228Y-130287819D01*
X178436713Y-130349142D01*
X178431729Y-130418834D01*
X178389857Y-130474767D01*
X178324393Y-130499184D01*
X178315547Y-130499500D01*
X166252024Y-130499500D01*
X166247974Y-130499367D01*
X166209954Y-130496875D01*
X166166350Y-130494017D01*
X165984560Y-130481015D01*
X165976880Y-130479980D01*
X165860579Y-130456846D01*
X165716352Y-130425472D01*
X165709596Y-130423597D01*
X165677881Y-130412831D01*
X165590578Y-130383196D01*
X165555768Y-130370212D01*
X165458257Y-130333841D01*
X165452499Y-130331355D01*
X165337047Y-130274421D01*
X165215091Y-130207828D01*
X165210357Y-130204962D01*
X165103349Y-130133461D01*
X165100639Y-130131543D01*
X165049832Y-130093510D01*
X164991353Y-130049732D01*
X164987648Y-130046729D01*
X164890492Y-129961526D01*
X164887549Y-129958769D01*
X164791228Y-129862448D01*
X164788469Y-129859502D01*
X164755450Y-129821851D01*
X164703265Y-129762345D01*
X164700271Y-129758652D01*
X164618454Y-129649358D01*
X164616537Y-129646649D01*
X164545036Y-129539641D01*
X164542170Y-129534906D01*
X164475578Y-129412952D01*
X164418643Y-129297499D01*
X164416157Y-129291741D01*
X164403076Y-129256671D01*
X164366805Y-129159425D01*
X164326395Y-129040383D01*
X164324531Y-129033666D01*
X164294337Y-128894863D01*
X164293153Y-128889420D01*
X164285070Y-128848784D01*
X164270015Y-128773100D01*
X164268985Y-128765459D01*
X164255986Y-128583708D01*
X164252938Y-128537198D01*
X164250633Y-128502019D01*
X164250500Y-128497964D01*
X164250500Y-128200000D01*
X168150000Y-128200000D01*
X168150000Y-128597844D01*
X168156401Y-128657372D01*
X168156403Y-128657379D01*
X168206645Y-128792086D01*
X168206649Y-128792093D01*
X168292809Y-128907187D01*
X168292812Y-128907190D01*
X168407906Y-128993350D01*
X168407913Y-128993354D01*
X168542620Y-129043596D01*
X168542627Y-129043598D01*
X168602155Y-129049999D01*
X168602172Y-129050000D01*
X169500000Y-129050000D01*
X169500000Y-128200000D01*
X170000000Y-128200000D01*
X170000000Y-129050000D01*
X170897828Y-129050000D01*
X170897844Y-129049999D01*
X170957372Y-129043598D01*
X170957379Y-129043596D01*
X171092086Y-128993354D01*
X171092093Y-128993350D01*
X171207187Y-128907190D01*
X171207190Y-128907187D01*
X171293350Y-128792093D01*
X171293354Y-128792086D01*
X171343596Y-128657379D01*
X171343598Y-128657372D01*
X171349999Y-128597844D01*
X171350000Y-128597827D01*
X171350000Y-128200000D01*
X170000000Y-128200000D01*
X169500000Y-128200000D01*
X168150000Y-128200000D01*
X164250500Y-128200000D01*
X164250500Y-127700000D01*
X168150000Y-127700000D01*
X169500000Y-127700000D01*
X169500000Y-126850000D01*
X170000000Y-126850000D01*
X170000000Y-127700000D01*
X171350000Y-127700000D01*
X171350000Y-127302172D01*
X171349999Y-127302155D01*
X171343598Y-127242627D01*
X171343596Y-127242620D01*
X171293354Y-127107913D01*
X171293350Y-127107906D01*
X171207190Y-126992812D01*
X171207187Y-126992809D01*
X171092093Y-126906649D01*
X171092086Y-126906645D01*
X170957379Y-126856403D01*
X170957372Y-126856401D01*
X170897844Y-126850000D01*
X170000000Y-126850000D01*
X169500000Y-126850000D01*
X168602155Y-126850000D01*
X168542627Y-126856401D01*
X168542620Y-126856403D01*
X168407913Y-126906645D01*
X168407906Y-126906649D01*
X168292812Y-126992809D01*
X168292809Y-126992812D01*
X168206649Y-127107906D01*
X168206645Y-127107913D01*
X168156403Y-127242620D01*
X168156401Y-127242627D01*
X168150000Y-127302155D01*
X168150000Y-127700000D01*
X164250500Y-127700000D01*
X164250500Y-123293933D01*
X168595668Y-123293933D01*
X168625017Y-123460373D01*
X168626135Y-123466711D01*
X168695623Y-123627804D01*
X168695624Y-123627806D01*
X168695626Y-123627809D01*
X168771851Y-123730196D01*
X168800390Y-123768530D01*
X168934786Y-123881302D01*
X168988701Y-123908379D01*
X169091562Y-123960038D01*
X169091563Y-123960038D01*
X169091567Y-123960040D01*
X169262279Y-124000500D01*
X169262282Y-124000500D01*
X169393701Y-124000500D01*
X169393709Y-124000500D01*
X169524255Y-123985241D01*
X169689117Y-123925237D01*
X169835696Y-123828830D01*
X169956092Y-123701218D01*
X170043812Y-123549281D01*
X170094130Y-123381210D01*
X170104331Y-123206065D01*
X170073865Y-123033289D01*
X170004377Y-122872196D01*
X170001468Y-122868289D01*
X169899609Y-122731469D01*
X169765214Y-122618698D01*
X169765212Y-122618697D01*
X169608437Y-122539961D01*
X169608433Y-122539960D01*
X169437721Y-122499500D01*
X169306291Y-122499500D01*
X169201854Y-122511707D01*
X169175743Y-122514759D01*
X169175740Y-122514760D01*
X169010884Y-122574762D01*
X169010880Y-122574764D01*
X168864306Y-122671167D01*
X168864305Y-122671168D01*
X168743910Y-122798778D01*
X168656188Y-122950718D01*
X168605870Y-123118789D01*
X168605869Y-123118794D01*
X168595668Y-123293933D01*
X164250500Y-123293933D01*
X164250500Y-115293933D01*
X168595668Y-115293933D01*
X168623564Y-115452129D01*
X168626135Y-115466711D01*
X168695623Y-115627804D01*
X168695624Y-115627806D01*
X168695626Y-115627809D01*
X168750278Y-115701218D01*
X168800390Y-115768530D01*
X168934786Y-115881302D01*
X168986919Y-115907484D01*
X169091562Y-115960038D01*
X169091563Y-115960038D01*
X169091567Y-115960040D01*
X169262279Y-116000500D01*
X169262282Y-116000500D01*
X169393701Y-116000500D01*
X169393709Y-116000500D01*
X169524255Y-115985241D01*
X169689117Y-115925237D01*
X169835696Y-115828830D01*
X169956092Y-115701218D01*
X170043812Y-115549281D01*
X170094130Y-115381210D01*
X170104331Y-115206065D01*
X170073865Y-115033289D01*
X170004377Y-114872196D01*
X169987480Y-114849500D01*
X169906637Y-114740909D01*
X169899610Y-114731470D01*
X169871122Y-114707566D01*
X169765214Y-114618698D01*
X169765212Y-114618697D01*
X169608437Y-114539961D01*
X169608433Y-114539960D01*
X169437721Y-114499500D01*
X169306291Y-114499500D01*
X169201854Y-114511707D01*
X169175743Y-114514759D01*
X169175740Y-114514760D01*
X169010884Y-114574762D01*
X169010880Y-114574764D01*
X168864306Y-114671167D01*
X168864305Y-114671168D01*
X168743910Y-114798778D01*
X168656188Y-114950718D01*
X168605870Y-115118789D01*
X168605869Y-115118794D01*
X168595668Y-115293933D01*
X164250500Y-115293933D01*
X164250500Y-112700000D01*
X168150000Y-112700000D01*
X168150000Y-113097844D01*
X168156401Y-113157372D01*
X168156403Y-113157379D01*
X168206645Y-113292086D01*
X168206649Y-113292093D01*
X168292809Y-113407187D01*
X168292812Y-113407190D01*
X168407906Y-113493350D01*
X168407913Y-113493354D01*
X168542620Y-113543596D01*
X168542627Y-113543598D01*
X168602155Y-113549999D01*
X168602172Y-113550000D01*
X169500000Y-113550000D01*
X169500000Y-112700000D01*
X170000000Y-112700000D01*
X170000000Y-113550000D01*
X170897828Y-113550000D01*
X170897844Y-113549999D01*
X170957372Y-113543598D01*
X170957379Y-113543596D01*
X171092086Y-113493354D01*
X171092093Y-113493350D01*
X171207187Y-113407190D01*
X171207190Y-113407187D01*
X171293350Y-113292093D01*
X171293354Y-113292086D01*
X171343596Y-113157379D01*
X171343598Y-113157372D01*
X171349999Y-113097844D01*
X171350000Y-113097827D01*
X171350000Y-112700000D01*
X170000000Y-112700000D01*
X169500000Y-112700000D01*
X168150000Y-112700000D01*
X164250500Y-112700000D01*
X164250500Y-112200000D01*
X168150000Y-112200000D01*
X169500000Y-112200000D01*
X169500000Y-111350000D01*
X170000000Y-111350000D01*
X170000000Y-112200000D01*
X171350000Y-112200000D01*
X171350000Y-111802172D01*
X171349999Y-111802155D01*
X171343598Y-111742627D01*
X171343596Y-111742620D01*
X171293354Y-111607913D01*
X171293350Y-111607906D01*
X171207190Y-111492812D01*
X171207187Y-111492809D01*
X171092093Y-111406649D01*
X171092086Y-111406645D01*
X170957379Y-111356403D01*
X170957372Y-111356401D01*
X170897844Y-111350000D01*
X170000000Y-111350000D01*
X169500000Y-111350000D01*
X168602155Y-111350000D01*
X168542627Y-111356401D01*
X168542620Y-111356403D01*
X168407913Y-111406645D01*
X168407906Y-111406649D01*
X168292812Y-111492809D01*
X168292809Y-111492812D01*
X168206649Y-111607906D01*
X168206645Y-111607913D01*
X168156403Y-111742620D01*
X168156401Y-111742627D01*
X168150000Y-111802155D01*
X168150000Y-112200000D01*
X164250500Y-112200000D01*
X164250500Y-112002036D01*
X164250633Y-111997981D01*
X164255982Y-111916360D01*
X164257750Y-111891635D01*
X164268986Y-111734536D01*
X164270014Y-111726903D01*
X164292356Y-111614584D01*
X164293153Y-111610579D01*
X164301088Y-111574102D01*
X164324533Y-111466323D01*
X164326392Y-111459625D01*
X164366815Y-111340543D01*
X164416159Y-111208251D01*
X164418633Y-111202520D01*
X164475583Y-111087036D01*
X164542179Y-110965076D01*
X164545019Y-110960384D01*
X164616563Y-110853311D01*
X164618428Y-110850676D01*
X164700291Y-110741321D01*
X164703244Y-110737678D01*
X164788503Y-110640459D01*
X164791198Y-110637581D01*
X164887581Y-110541198D01*
X164890459Y-110538503D01*
X164987678Y-110453244D01*
X164991321Y-110450291D01*
X165100676Y-110368428D01*
X165103311Y-110366563D01*
X165210384Y-110295019D01*
X165215076Y-110292179D01*
X165337036Y-110225583D01*
X165452520Y-110168633D01*
X165458251Y-110166159D01*
X165590543Y-110116815D01*
X165709625Y-110076392D01*
X165716323Y-110074533D01*
X165860548Y-110043158D01*
X165976903Y-110020014D01*
X165984536Y-110018986D01*
X166166244Y-110005989D01*
X166219211Y-110002517D01*
X166247981Y-110000633D01*
X166252036Y-110000500D01*
X177315548Y-110000500D01*
X177382587Y-110020185D01*
G37*
%TD.AperFunction*%
%TA.AperFunction,Conductor*%
G36*
X182067539Y-119795185D02*
G01*
X182113294Y-119847989D01*
X182124500Y-119899500D01*
X182124500Y-120917255D01*
X182122775Y-120932872D01*
X182123061Y-120932899D01*
X182122326Y-120940665D01*
X182124500Y-121009814D01*
X182124500Y-121039343D01*
X182124501Y-121039360D01*
X182125368Y-121046231D01*
X182125826Y-121052050D01*
X182127290Y-121098624D01*
X182127291Y-121098627D01*
X182132880Y-121117867D01*
X182136824Y-121136911D01*
X182138541Y-121150500D01*
X182139336Y-121156791D01*
X182156490Y-121200119D01*
X182158382Y-121205647D01*
X182171381Y-121250388D01*
X182181580Y-121267634D01*
X182190138Y-121285103D01*
X182197514Y-121303732D01*
X182224898Y-121341423D01*
X182228106Y-121346307D01*
X182251827Y-121386416D01*
X182251833Y-121386424D01*
X182265990Y-121400580D01*
X182278627Y-121415375D01*
X182290406Y-121431587D01*
X182299173Y-121438840D01*
X182326309Y-121461288D01*
X182330620Y-121465210D01*
X183068690Y-122203281D01*
X183311697Y-122446288D01*
X183321522Y-122458551D01*
X183321743Y-122458369D01*
X183326711Y-122464374D01*
X183348790Y-122485108D01*
X183384184Y-122545349D01*
X183381392Y-122615162D01*
X183341298Y-122672384D01*
X183276633Y-122698845D01*
X183263906Y-122699500D01*
X183084304Y-122699500D01*
X183047432Y-122702401D01*
X183047426Y-122702402D01*
X182889606Y-122748254D01*
X182889603Y-122748255D01*
X182748137Y-122831917D01*
X182748129Y-122831923D01*
X182631923Y-122948129D01*
X182631917Y-122948137D01*
X182548255Y-123089603D01*
X182548254Y-123089606D01*
X182502402Y-123247426D01*
X182502401Y-123247432D01*
X182499500Y-123284304D01*
X182499500Y-124590696D01*
X182502401Y-124627567D01*
X182502402Y-124627573D01*
X182544576Y-124772733D01*
X182549500Y-124807328D01*
X182549500Y-125108480D01*
X182529815Y-125175519D01*
X182513181Y-125196161D01*
X182419531Y-125289810D01*
X182419530Y-125289811D01*
X182331522Y-125435393D01*
X182280913Y-125597807D01*
X182274500Y-125668386D01*
X182274500Y-126331613D01*
X182280913Y-126402192D01*
X182280913Y-126402194D01*
X182280914Y-126402196D01*
X182331522Y-126564606D01*
X182413272Y-126699837D01*
X182419530Y-126710188D01*
X182539811Y-126830469D01*
X182539813Y-126830470D01*
X182539815Y-126830472D01*
X182685394Y-126918478D01*
X182847804Y-126969086D01*
X182918384Y-126975500D01*
X182918387Y-126975500D01*
X183431613Y-126975500D01*
X183431616Y-126975500D01*
X183502196Y-126969086D01*
X183664606Y-126918478D01*
X183810185Y-126830472D01*
X183912320Y-126728336D01*
X183973641Y-126694853D01*
X184043333Y-126699837D01*
X184087681Y-126728338D01*
X184163181Y-126803838D01*
X184196666Y-126865161D01*
X184199500Y-126891519D01*
X184199500Y-127464142D01*
X184179815Y-127531181D01*
X184163181Y-127551823D01*
X183977324Y-127737681D01*
X183916001Y-127771166D01*
X183889643Y-127774000D01*
X183830450Y-127774000D01*
X183797993Y-127780898D01*
X183645293Y-127813355D01*
X183645288Y-127813357D01*
X183472366Y-127890348D01*
X183472361Y-127890351D01*
X183319225Y-128001611D01*
X183192561Y-128142285D01*
X183160626Y-128197600D01*
X183110059Y-128245816D01*
X183041452Y-128259039D01*
X182980355Y-128235919D01*
X182952733Y-128215850D01*
X182952729Y-128215848D01*
X182779807Y-128138857D01*
X182779802Y-128138855D01*
X182634000Y-128107865D01*
X182594646Y-128099500D01*
X182405354Y-128099500D01*
X182372897Y-128106398D01*
X182220197Y-128138855D01*
X182220192Y-128138857D01*
X182047270Y-128215848D01*
X182047265Y-128215851D01*
X181894129Y-128327111D01*
X181767466Y-128467785D01*
X181672821Y-128631715D01*
X181672818Y-128631722D01*
X181614327Y-128811740D01*
X181614326Y-128811744D01*
X181601095Y-128937629D01*
X181595239Y-128993354D01*
X181594540Y-129000000D01*
X181614326Y-129188256D01*
X181614327Y-129188259D01*
X181622100Y-129212182D01*
X181624095Y-129282023D01*
X181588015Y-129341856D01*
X181525314Y-129372684D01*
X181504169Y-129374500D01*
X179310453Y-129374500D01*
X179243414Y-129354815D01*
X179222772Y-129338181D01*
X178446272Y-128561681D01*
X178412787Y-128500358D01*
X178417771Y-128430666D01*
X178459643Y-128374733D01*
X178525107Y-128350316D01*
X178533953Y-128350000D01*
X179050000Y-128350000D01*
X179050000Y-127300000D01*
X179550000Y-127300000D01*
X179550000Y-128350000D01*
X180097828Y-128350000D01*
X180097844Y-128349999D01*
X180157372Y-128343598D01*
X180157379Y-128343596D01*
X180292086Y-128293354D01*
X180292093Y-128293350D01*
X180407187Y-128207190D01*
X180407190Y-128207187D01*
X180493350Y-128092093D01*
X180493354Y-128092086D01*
X180543596Y-127957379D01*
X180543598Y-127957372D01*
X180549999Y-127897844D01*
X180550000Y-127897827D01*
X180550000Y-127300000D01*
X179550000Y-127300000D01*
X179050000Y-127300000D01*
X178050000Y-127300000D01*
X178050000Y-127866047D01*
X178030315Y-127933086D01*
X177977511Y-127978841D01*
X177908353Y-127988785D01*
X177844797Y-127959760D01*
X177838319Y-127953728D01*
X177661819Y-127777228D01*
X177628334Y-127715905D01*
X177625500Y-127689547D01*
X177625500Y-126800000D01*
X178050000Y-126800000D01*
X179050000Y-126800000D01*
X179050000Y-125750000D01*
X179550000Y-125750000D01*
X179550000Y-126800000D01*
X180550000Y-126800000D01*
X180550000Y-126202172D01*
X180549999Y-126202155D01*
X180543598Y-126142627D01*
X180543596Y-126142620D01*
X180493354Y-126007913D01*
X180493350Y-126007906D01*
X180407190Y-125892812D01*
X180407187Y-125892809D01*
X180292093Y-125806649D01*
X180292086Y-125806645D01*
X180157379Y-125756403D01*
X180157372Y-125756401D01*
X180097844Y-125750000D01*
X179550000Y-125750000D01*
X179050000Y-125750000D01*
X178502155Y-125750000D01*
X178442627Y-125756401D01*
X178442620Y-125756403D01*
X178307913Y-125806645D01*
X178307906Y-125806649D01*
X178192812Y-125892809D01*
X178192809Y-125892812D01*
X178106649Y-126007906D01*
X178106645Y-126007913D01*
X178056403Y-126142620D01*
X178056401Y-126142627D01*
X178050000Y-126202155D01*
X178050000Y-126800000D01*
X177625500Y-126800000D01*
X177625500Y-124060451D01*
X177645185Y-123993412D01*
X177661814Y-123972775D01*
X178840726Y-122793862D01*
X178902047Y-122760379D01*
X178971739Y-122765363D01*
X179027672Y-122807235D01*
X179051694Y-122868289D01*
X179055907Y-122907480D01*
X179106202Y-123042328D01*
X179106206Y-123042335D01*
X179192452Y-123157544D01*
X179192455Y-123157547D01*
X179307664Y-123243793D01*
X179307671Y-123243797D01*
X179442517Y-123294091D01*
X179442516Y-123294091D01*
X179449444Y-123294835D01*
X179502127Y-123300500D01*
X181197872Y-123300499D01*
X181257483Y-123294091D01*
X181392331Y-123243796D01*
X181507546Y-123157546D01*
X181593796Y-123042331D01*
X181644091Y-122907483D01*
X181650500Y-122847873D01*
X181650499Y-122052128D01*
X181644091Y-121992517D01*
X181625747Y-121943334D01*
X181620762Y-121873643D01*
X181625747Y-121856665D01*
X181644089Y-121807488D01*
X181644091Y-121807483D01*
X181650500Y-121747873D01*
X181650499Y-120952128D01*
X181644091Y-120892517D01*
X181625747Y-120843334D01*
X181620762Y-120773643D01*
X181625747Y-120756665D01*
X181644089Y-120707488D01*
X181644091Y-120707483D01*
X181650500Y-120647873D01*
X181650499Y-119899499D01*
X181670183Y-119832461D01*
X181722987Y-119786706D01*
X181774499Y-119775500D01*
X182000500Y-119775500D01*
X182067539Y-119795185D01*
G37*
%TD.AperFunction*%
%TA.AperFunction,Conductor*%
G36*
X190447514Y-127971313D02*
G01*
X190472623Y-127992654D01*
X190478349Y-127999013D01*
X190478353Y-127999017D01*
X190631488Y-128110276D01*
X190631493Y-128110279D01*
X190804415Y-128187270D01*
X190804420Y-128187272D01*
X190989577Y-128226628D01*
X190989578Y-128226628D01*
X191178867Y-128226628D01*
X191178869Y-128226628D01*
X191259449Y-128209500D01*
X191329115Y-128214816D01*
X191384849Y-128256953D01*
X191403613Y-128293897D01*
X191409506Y-128312809D01*
X191409507Y-128312810D01*
X191409508Y-128312812D01*
X191409509Y-128312814D01*
X191481310Y-128431586D01*
X191497517Y-128458396D01*
X191617798Y-128578677D01*
X191617800Y-128578678D01*
X191617802Y-128578680D01*
X191763381Y-128666686D01*
X191925791Y-128717294D01*
X191996371Y-128723708D01*
X192292535Y-128723708D01*
X192359574Y-128743393D01*
X192380216Y-128760027D01*
X192727112Y-129106923D01*
X192736937Y-129119187D01*
X192737158Y-129119005D01*
X192742128Y-129125013D01*
X192762794Y-129144419D01*
X192778773Y-129159425D01*
X192779501Y-129160108D01*
X192814895Y-129220349D01*
X192812103Y-129290162D01*
X192772009Y-129347384D01*
X192707344Y-129373845D01*
X192694617Y-129374500D01*
X190204466Y-129374500D01*
X190137427Y-129354815D01*
X190091672Y-129302011D01*
X190082093Y-129257983D01*
X190081527Y-129258058D01*
X190080633Y-129251267D01*
X190080466Y-129250500D01*
X190080466Y-129249999D01*
X190064894Y-129131718D01*
X190060687Y-129099764D01*
X190002698Y-128959767D01*
X189910451Y-128839549D01*
X189790233Y-128747302D01*
X189790229Y-128747300D01*
X189650236Y-128689313D01*
X189650234Y-128689312D01*
X189500001Y-128669534D01*
X189499999Y-128669534D01*
X189349765Y-128689312D01*
X189341913Y-128691417D01*
X189341511Y-128689920D01*
X189281203Y-128696399D01*
X189218726Y-128665119D01*
X189211080Y-128657343D01*
X189122360Y-128558809D01*
X189122357Y-128558807D01*
X188965047Y-128444513D01*
X188940023Y-128433372D01*
X188886786Y-128388122D01*
X188866465Y-128321273D01*
X188885511Y-128254049D01*
X188917578Y-128219772D01*
X188931585Y-128209596D01*
X188931587Y-128209594D01*
X188961299Y-128173676D01*
X188965212Y-128169376D01*
X189146644Y-127987944D01*
X189207967Y-127954462D01*
X189234324Y-127951628D01*
X190380475Y-127951628D01*
X190447514Y-127971313D01*
G37*
%TD.AperFunction*%
%TA.AperFunction,Conductor*%
G36*
X202771759Y-126215343D02*
G01*
X202827692Y-126257215D01*
X202851746Y-126318563D01*
X202864326Y-126438256D01*
X202864327Y-126438259D01*
X202922818Y-126618277D01*
X202922819Y-126618279D01*
X202922821Y-126618284D01*
X202933387Y-126636586D01*
X202950000Y-126698584D01*
X202950000Y-128026000D01*
X202930315Y-128093039D01*
X202877511Y-128138794D01*
X202826000Y-128150000D01*
X201100000Y-128150000D01*
X201100000Y-128750500D01*
X201080315Y-128817539D01*
X201027511Y-128863294D01*
X200976000Y-128874500D01*
X200203748Y-128874500D01*
X200136709Y-128854815D01*
X200111600Y-128833474D01*
X200105873Y-128827114D01*
X200105869Y-128827110D01*
X199952734Y-128715851D01*
X199952729Y-128715848D01*
X199779807Y-128638857D01*
X199779802Y-128638855D01*
X199634000Y-128607865D01*
X199594646Y-128599500D01*
X199405354Y-128599500D01*
X199372897Y-128606398D01*
X199220197Y-128638855D01*
X199220192Y-128638857D01*
X199047270Y-128715848D01*
X199047266Y-128715851D01*
X199027292Y-128730363D01*
X198961485Y-128753842D01*
X198893432Y-128738016D01*
X198844737Y-128687909D01*
X198830863Y-128619431D01*
X198856213Y-128554322D01*
X198866722Y-128542368D01*
X199197771Y-128211319D01*
X199259095Y-128177834D01*
X199285453Y-128175000D01*
X199344644Y-128175000D01*
X199344646Y-128175000D01*
X199529803Y-128135644D01*
X199702730Y-128058651D01*
X199855871Y-127947388D01*
X199982533Y-127806716D01*
X200077179Y-127642784D01*
X200135674Y-127462756D01*
X200155460Y-127274500D01*
X200135674Y-127086244D01*
X200077179Y-126906216D01*
X200036928Y-126836499D01*
X200020455Y-126768598D01*
X200043308Y-126702571D01*
X200098229Y-126659381D01*
X200144315Y-126650499D01*
X200147871Y-126650499D01*
X200147872Y-126650499D01*
X200207483Y-126644091D01*
X200342331Y-126593796D01*
X200408937Y-126543934D01*
X200474400Y-126519517D01*
X200542674Y-126534368D01*
X200570929Y-126555520D01*
X200649197Y-126633788D01*
X200659022Y-126646051D01*
X200659243Y-126645869D01*
X200664214Y-126651878D01*
X200685043Y-126671437D01*
X200714635Y-126699226D01*
X200735529Y-126720120D01*
X200741011Y-126724373D01*
X200745443Y-126728157D01*
X200779418Y-126760062D01*
X200796976Y-126769714D01*
X200813235Y-126780395D01*
X200829064Y-126792673D01*
X200871838Y-126811182D01*
X200877056Y-126813738D01*
X200917908Y-126836197D01*
X200937316Y-126841180D01*
X200955717Y-126847480D01*
X200974104Y-126855437D01*
X200995397Y-126858809D01*
X201058530Y-126888735D01*
X201095463Y-126948046D01*
X201100000Y-126981282D01*
X201099999Y-127649999D01*
X201100000Y-127650000D01*
X202450000Y-127650000D01*
X202450000Y-126485950D01*
X202469685Y-126418911D01*
X202486314Y-126398274D01*
X202640746Y-126243842D01*
X202702067Y-126210359D01*
X202771759Y-126215343D01*
G37*
%TD.AperFunction*%
%TA.AperFunction,Conductor*%
G36*
X195876803Y-126355215D02*
G01*
X195922558Y-126408019D01*
X195933764Y-126459530D01*
X195933764Y-126711530D01*
X195914079Y-126778569D01*
X195861275Y-126824324D01*
X195809764Y-126835530D01*
X194733765Y-126835530D01*
X194733765Y-126883852D01*
X194743908Y-126983137D01*
X194797216Y-127144011D01*
X194797221Y-127144022D01*
X194886188Y-127288258D01*
X194886191Y-127288262D01*
X195006032Y-127408103D01*
X195022241Y-127418101D01*
X195068965Y-127470049D01*
X195080186Y-127539012D01*
X195052342Y-127603094D01*
X194994273Y-127641949D01*
X194957143Y-127647639D01*
X194476054Y-127647639D01*
X194409015Y-127627954D01*
X194388373Y-127611320D01*
X193386322Y-126609269D01*
X193352837Y-126547946D01*
X193357821Y-126478254D01*
X193399693Y-126422321D01*
X193465157Y-126397904D01*
X193474003Y-126397588D01*
X195163509Y-126397588D01*
X195179129Y-126399312D01*
X195179156Y-126399027D01*
X195186912Y-126399759D01*
X195186919Y-126399761D01*
X195256066Y-126397588D01*
X195285602Y-126397588D01*
X195292480Y-126396718D01*
X195298293Y-126396260D01*
X195344879Y-126394797D01*
X195364121Y-126389205D01*
X195383164Y-126385262D01*
X195403044Y-126382752D01*
X195446374Y-126365595D01*
X195451898Y-126363705D01*
X195454332Y-126362997D01*
X195496642Y-126350706D01*
X195496646Y-126350703D01*
X195503804Y-126347607D01*
X195504680Y-126349632D01*
X195556226Y-126335530D01*
X195809764Y-126335530D01*
X195876803Y-126355215D01*
G37*
%TD.AperFunction*%
%TA.AperFunction,Conductor*%
G36*
X202154253Y-124713705D02*
G01*
X202209987Y-124755842D01*
X202234092Y-124821422D01*
X202218915Y-124889623D01*
X202198048Y-124917360D01*
X201537681Y-125577728D01*
X201476358Y-125611213D01*
X201406667Y-125606229D01*
X201362319Y-125577728D01*
X201345189Y-125560598D01*
X201311704Y-125499275D01*
X201316688Y-125429583D01*
X201340718Y-125389947D01*
X201425734Y-125295529D01*
X201520380Y-125131597D01*
X201578875Y-124951569D01*
X201590719Y-124838869D01*
X201617303Y-124774257D01*
X201674601Y-124734272D01*
X201739818Y-124730543D01*
X201765443Y-124735990D01*
X201765447Y-124735990D01*
X201954733Y-124735990D01*
X201954735Y-124735990D01*
X202084587Y-124708389D01*
X202154253Y-124713705D01*
G37*
%TD.AperFunction*%
%TA.AperFunction,Conductor*%
G36*
X197693039Y-122044685D02*
G01*
X197738794Y-122097489D01*
X197750000Y-122149000D01*
X197750000Y-123224999D01*
X197798308Y-123224999D01*
X197798322Y-123224998D01*
X197897607Y-123214855D01*
X198058481Y-123161547D01*
X198058483Y-123161546D01*
X198113480Y-123127623D01*
X198180872Y-123109182D01*
X198247536Y-123130103D01*
X198292307Y-123183745D01*
X198301869Y-123219906D01*
X198303679Y-123236742D01*
X198303679Y-123263250D01*
X198299500Y-123302122D01*
X198299500Y-123697869D01*
X198299501Y-123697878D01*
X198303679Y-123736745D01*
X198303679Y-123763251D01*
X198301678Y-123781865D01*
X198274940Y-123846416D01*
X198217548Y-123886265D01*
X198209233Y-123888713D01*
X198206821Y-123889332D01*
X198163488Y-123906488D01*
X198157962Y-123908379D01*
X198113218Y-123921379D01*
X198113214Y-123921381D01*
X198095970Y-123931579D01*
X198078509Y-123940133D01*
X198059878Y-123947510D01*
X198059866Y-123947517D01*
X198022174Y-123974902D01*
X198017291Y-123978109D01*
X197977184Y-124001829D01*
X197963018Y-124015995D01*
X197948228Y-124028627D01*
X197932018Y-124040404D01*
X197932015Y-124040407D01*
X197902314Y-124076309D01*
X197898381Y-124080631D01*
X196849972Y-125129039D01*
X196837715Y-125138860D01*
X196837898Y-125139081D01*
X196831887Y-125144053D01*
X196784536Y-125194476D01*
X196763653Y-125215358D01*
X196763641Y-125215372D01*
X196759385Y-125220857D01*
X196755601Y-125225287D01*
X196723701Y-125259258D01*
X196723700Y-125259260D01*
X196714048Y-125276816D01*
X196703379Y-125293059D01*
X196697491Y-125300652D01*
X196640854Y-125341567D01*
X196571088Y-125345367D01*
X196510342Y-125310845D01*
X196477904Y-125248961D01*
X196477028Y-125205266D01*
X196478737Y-125194475D01*
X196479661Y-125188643D01*
X196475276Y-125142254D01*
X196475001Y-125136416D01*
X196475001Y-123917896D01*
X196494686Y-123850857D01*
X196511319Y-123830215D01*
X196517582Y-123823953D01*
X196601245Y-123682486D01*
X196647099Y-123524657D01*
X196650001Y-123487782D01*
X196650001Y-123203908D01*
X196669684Y-123136873D01*
X196722488Y-123091118D01*
X196791647Y-123081174D01*
X196839097Y-123098374D01*
X196941507Y-123161542D01*
X196941518Y-123161547D01*
X197102393Y-123214855D01*
X197201683Y-123224999D01*
X197249999Y-123224998D01*
X197250000Y-123224998D01*
X197250000Y-122149000D01*
X197269685Y-122081961D01*
X197322489Y-122036206D01*
X197374000Y-122025000D01*
X197626000Y-122025000D01*
X197693039Y-122044685D01*
G37*
%TD.AperFunction*%
%TA.AperFunction,Conductor*%
G36*
X202787693Y-119519615D02*
G01*
X202845742Y-119558502D01*
X202873552Y-119622599D01*
X202874500Y-119637906D01*
X202874500Y-122512590D01*
X202854815Y-122579629D01*
X202802011Y-122625384D01*
X202732853Y-122635328D01*
X202669297Y-122606303D01*
X202632569Y-122550908D01*
X202606595Y-122470970D01*
X202606594Y-122470969D01*
X202606593Y-122470964D01*
X202511947Y-122307032D01*
X202450745Y-122239060D01*
X202385290Y-122166364D01*
X202385281Y-122166357D01*
X202321076Y-122119708D01*
X202287230Y-122082512D01*
X202277586Y-122066205D01*
X202277579Y-122066196D01*
X202263420Y-122052037D01*
X202250782Y-122037241D01*
X202250030Y-122036206D01*
X202239008Y-122021035D01*
X202204535Y-121992517D01*
X202203102Y-121991331D01*
X202198790Y-121987408D01*
X201918907Y-121707525D01*
X201885423Y-121646203D01*
X201890407Y-121576511D01*
X201899202Y-121557845D01*
X201952359Y-121465775D01*
X202010854Y-121285747D01*
X202030640Y-121097491D01*
X202010854Y-120909235D01*
X201952359Y-120729207D01*
X201857713Y-120565275D01*
X201813829Y-120516537D01*
X201783250Y-120482575D01*
X201753020Y-120419583D01*
X201761646Y-120350248D01*
X201787716Y-120311925D01*
X202213909Y-119885732D01*
X202251148Y-119860138D01*
X202383737Y-119801106D01*
X202536878Y-119689843D01*
X202658352Y-119554932D01*
X202717836Y-119518285D01*
X202787693Y-119519615D01*
G37*
%TD.AperFunction*%
%TA.AperFunction,Conductor*%
G36*
X185980324Y-121506778D02*
G01*
X186036258Y-121548649D01*
X186060675Y-121614114D01*
X186059462Y-121642371D01*
X186057707Y-121653449D01*
X186056523Y-121659163D01*
X186044938Y-121704287D01*
X186044937Y-121704297D01*
X186044937Y-121724331D01*
X186043410Y-121743730D01*
X186040277Y-121763509D01*
X186040277Y-121763510D01*
X186044662Y-121809898D01*
X186044937Y-121815736D01*
X186044937Y-122189233D01*
X186025252Y-122256272D01*
X185972448Y-122302027D01*
X185903290Y-122311971D01*
X185839734Y-122282946D01*
X185833256Y-122276914D01*
X185558147Y-122001805D01*
X185524662Y-121940482D01*
X185529646Y-121870790D01*
X185558147Y-121826443D01*
X185686718Y-121697872D01*
X185849312Y-121535277D01*
X185910633Y-121501794D01*
X185980324Y-121506778D01*
G37*
%TD.AperFunction*%
%TA.AperFunction,Conductor*%
G36*
X185046230Y-118845185D02*
G01*
X185066872Y-118861819D01*
X185073129Y-118868076D01*
X185073133Y-118868079D01*
X185073135Y-118868081D01*
X185214602Y-118951744D01*
X185214603Y-118951744D01*
X185214604Y-118951745D01*
X185249977Y-118962022D01*
X185308862Y-118999629D01*
X185338068Y-119063101D01*
X185328322Y-119132288D01*
X185303063Y-119168779D01*
X185182029Y-119289813D01*
X185094022Y-119435393D01*
X185043413Y-119597807D01*
X185038282Y-119654275D01*
X185037074Y-119667577D01*
X185037000Y-119668386D01*
X185037000Y-119964545D01*
X185017315Y-120031584D01*
X185000682Y-120052225D01*
X184964728Y-120088180D01*
X184903406Y-120121666D01*
X184877046Y-120124500D01*
X184490092Y-120124500D01*
X184423053Y-120104815D01*
X184377298Y-120052011D01*
X184367354Y-119982853D01*
X184381430Y-119940762D01*
X184386197Y-119932092D01*
X184391180Y-119912680D01*
X184397481Y-119894280D01*
X184405437Y-119875896D01*
X184412729Y-119829852D01*
X184413906Y-119824171D01*
X184425500Y-119779019D01*
X184425500Y-119758982D01*
X184427027Y-119739582D01*
X184430160Y-119719804D01*
X184425775Y-119673415D01*
X184425500Y-119667577D01*
X184425500Y-118949500D01*
X184445185Y-118882461D01*
X184497989Y-118836706D01*
X184549500Y-118825500D01*
X184979191Y-118825500D01*
X185046230Y-118845185D01*
G37*
%TD.AperFunction*%
%TA.AperFunction,Conductor*%
G36*
X195332273Y-117880429D02*
G01*
X195378028Y-117933233D01*
X195389234Y-117984744D01*
X195389234Y-119085743D01*
X195412542Y-119085743D01*
X195412556Y-119085742D01*
X195500616Y-119076746D01*
X195552552Y-119086400D01*
X195604069Y-119045335D01*
X195611910Y-119042440D01*
X195672713Y-119022292D01*
X195672726Y-119022286D01*
X195816965Y-118933317D01*
X195826193Y-118924089D01*
X195887513Y-118890600D01*
X195957205Y-118895579D01*
X196001561Y-118924083D01*
X196011189Y-118933711D01*
X196011193Y-118933714D01*
X196155528Y-119022742D01*
X196155531Y-119022743D01*
X196155537Y-119022747D01*
X196185858Y-119032794D01*
X196243303Y-119072567D01*
X196270126Y-119137083D01*
X196257811Y-119205858D01*
X196210268Y-119257058D01*
X196146854Y-119274500D01*
X195751662Y-119274500D01*
X195751642Y-119274502D01*
X195663513Y-119283504D01*
X195611578Y-119273849D01*
X195560064Y-119314915D01*
X195552223Y-119317809D01*
X195491311Y-119337993D01*
X195491294Y-119338001D01*
X195346959Y-119427029D01*
X195346953Y-119427033D01*
X195337324Y-119436663D01*
X195276000Y-119470146D01*
X195206308Y-119465159D01*
X195161965Y-119436660D01*
X195152732Y-119427427D01*
X195152728Y-119427424D01*
X195008492Y-119338457D01*
X195008481Y-119338452D01*
X194928584Y-119311977D01*
X194871139Y-119272204D01*
X194844316Y-119207688D01*
X194853791Y-119145015D01*
X194855437Y-119141213D01*
X194855437Y-119141211D01*
X194858541Y-119134041D01*
X194859453Y-119134435D01*
X194886824Y-119088153D01*
X194889234Y-119085742D01*
X194889234Y-117984744D01*
X194908919Y-117917705D01*
X194961723Y-117871950D01*
X195013234Y-117860744D01*
X195265234Y-117860744D01*
X195332273Y-117880429D01*
G37*
%TD.AperFunction*%
%TA.AperFunction,Conductor*%
G36*
X186883538Y-118980045D02*
G01*
X186942208Y-119017986D01*
X186971053Y-119081624D01*
X186960912Y-119150754D01*
X186935946Y-119186603D01*
X186850535Y-119272014D01*
X186789212Y-119305499D01*
X186719520Y-119300515D01*
X186675173Y-119272015D01*
X186615339Y-119212182D01*
X186581854Y-119150859D01*
X186586838Y-119081167D01*
X186628709Y-119025234D01*
X186694173Y-119000816D01*
X186703020Y-119000500D01*
X186715696Y-119000500D01*
X186734131Y-118999049D01*
X186752569Y-118997598D01*
X186813671Y-118979846D01*
X186883538Y-118980045D01*
G37*
%TD.AperFunction*%
%TA.AperFunction,Conductor*%
G36*
X192037779Y-114895185D02*
G01*
X192083534Y-114947989D01*
X192094098Y-115012103D01*
X192087500Y-115076677D01*
X192087500Y-115100000D01*
X193313500Y-115100000D01*
X193380539Y-115119685D01*
X193426294Y-115172489D01*
X193437500Y-115224000D01*
X193437500Y-115476000D01*
X193417815Y-115543039D01*
X193365011Y-115588794D01*
X193313500Y-115600000D01*
X192087501Y-115600000D01*
X192087501Y-115623322D01*
X192097644Y-115722607D01*
X192150952Y-115883481D01*
X192150957Y-115883492D01*
X192239924Y-116027728D01*
X192239927Y-116027732D01*
X192359767Y-116147572D01*
X192359771Y-116147575D01*
X192504007Y-116236542D01*
X192504018Y-116236547D01*
X192664893Y-116289856D01*
X192686516Y-116292065D01*
X192751208Y-116318461D01*
X192791359Y-116375641D01*
X192794223Y-116445452D01*
X192781301Y-116477422D01*
X192685122Y-116644009D01*
X192685117Y-116644021D01*
X192626626Y-116824039D01*
X192626625Y-116824043D01*
X192606839Y-117012299D01*
X192626625Y-117200555D01*
X192626626Y-117200558D01*
X192685117Y-117380576D01*
X192685120Y-117380583D01*
X192767616Y-117523471D01*
X192784089Y-117591372D01*
X192761236Y-117657398D01*
X192706315Y-117700589D01*
X192672838Y-117708828D01*
X192664797Y-117709649D01*
X192664789Y-117709651D01*
X192503805Y-117762996D01*
X192503794Y-117763001D01*
X192359459Y-117852029D01*
X192359455Y-117852032D01*
X192239532Y-117971955D01*
X192239529Y-117971959D01*
X192150501Y-118116294D01*
X192150496Y-118116305D01*
X192097151Y-118277290D01*
X192087000Y-118376647D01*
X192087000Y-118923337D01*
X192087001Y-118923355D01*
X192097150Y-119022707D01*
X192097151Y-119022710D01*
X192126572Y-119111496D01*
X192128974Y-119181325D01*
X192093242Y-119241366D01*
X192030721Y-119272559D01*
X192008866Y-119274500D01*
X191951478Y-119274500D01*
X191884439Y-119254815D01*
X191838684Y-119202011D01*
X191835296Y-119193833D01*
X191829147Y-119177347D01*
X191829143Y-119177340D01*
X191742897Y-119062131D01*
X191742894Y-119062128D01*
X191627685Y-118975882D01*
X191627678Y-118975878D01*
X191492832Y-118925584D01*
X191492833Y-118925584D01*
X191433233Y-118919177D01*
X191433231Y-118919176D01*
X191433223Y-118919176D01*
X191433215Y-118919176D01*
X191342528Y-118919176D01*
X191275489Y-118899491D01*
X191229734Y-118846687D01*
X191219790Y-118777529D01*
X191248815Y-118713973D01*
X191265277Y-118698234D01*
X191265541Y-118697969D01*
X191265544Y-118697968D01*
X191385468Y-118578044D01*
X191474503Y-118433697D01*
X191527849Y-118272708D01*
X191538000Y-118173345D01*
X191537999Y-117626656D01*
X191537460Y-117621383D01*
X191527849Y-117527292D01*
X191527848Y-117527289D01*
X191501659Y-117448255D01*
X191474503Y-117366303D01*
X191474499Y-117366297D01*
X191474498Y-117366294D01*
X191385470Y-117221959D01*
X191385467Y-117221955D01*
X191265544Y-117102032D01*
X191265540Y-117102029D01*
X191121205Y-117013001D01*
X191121199Y-117012998D01*
X191121197Y-117012997D01*
X191074222Y-116997431D01*
X190960209Y-116959651D01*
X190860846Y-116949500D01*
X190014162Y-116949500D01*
X190014144Y-116949501D01*
X189914792Y-116959650D01*
X189914789Y-116959651D01*
X189753805Y-117012996D01*
X189753794Y-117013001D01*
X189609459Y-117102029D01*
X189489532Y-117221955D01*
X189485224Y-117227405D01*
X189428204Y-117267785D01*
X189387953Y-117274500D01*
X189299500Y-117274500D01*
X189232461Y-117254815D01*
X189186706Y-117202011D01*
X189175500Y-117150500D01*
X189175500Y-117034304D01*
X189172598Y-116997432D01*
X189172597Y-116997426D01*
X189126745Y-116839606D01*
X189126744Y-116839603D01*
X189126744Y-116839602D01*
X189043081Y-116698135D01*
X189043079Y-116698133D01*
X189043076Y-116698129D01*
X188926870Y-116581923D01*
X188926862Y-116581917D01*
X188846093Y-116534151D01*
X188785398Y-116498256D01*
X188785397Y-116498255D01*
X188785396Y-116498255D01*
X188785393Y-116498254D01*
X188627573Y-116452402D01*
X188627567Y-116452401D01*
X188590696Y-116449500D01*
X188590694Y-116449500D01*
X188512702Y-116449500D01*
X188445663Y-116429815D01*
X188399908Y-116377011D01*
X188389964Y-116307853D01*
X188418989Y-116244297D01*
X188425021Y-116237819D01*
X188557136Y-116105704D01*
X188703519Y-115959320D01*
X188764840Y-115925837D01*
X188787302Y-115923064D01*
X188798627Y-115922709D01*
X188817869Y-115917117D01*
X188836912Y-115913174D01*
X188856792Y-115910664D01*
X188900122Y-115893507D01*
X188905646Y-115891617D01*
X188912578Y-115889603D01*
X188950390Y-115878618D01*
X188967629Y-115868422D01*
X188985103Y-115859862D01*
X189003727Y-115852488D01*
X189003727Y-115852487D01*
X189003732Y-115852486D01*
X189041449Y-115825082D01*
X189046305Y-115821892D01*
X189086420Y-115798170D01*
X189100589Y-115783999D01*
X189115379Y-115771368D01*
X189131587Y-115759594D01*
X189161299Y-115723676D01*
X189165212Y-115719376D01*
X189464154Y-115420435D01*
X189525476Y-115386951D01*
X189595168Y-115391935D01*
X189616931Y-115402579D01*
X189753794Y-115486998D01*
X189753797Y-115486999D01*
X189753803Y-115487003D01*
X189914792Y-115540349D01*
X190014155Y-115550500D01*
X190860844Y-115550499D01*
X190860852Y-115550498D01*
X190860855Y-115550498D01*
X190933874Y-115543039D01*
X190960208Y-115540349D01*
X191121197Y-115487003D01*
X191265544Y-115397968D01*
X191385468Y-115278044D01*
X191474503Y-115133697D01*
X191527849Y-114972708D01*
X191529979Y-114966281D01*
X191531358Y-114966738D01*
X191560946Y-114912115D01*
X191622156Y-114878424D01*
X191648923Y-114875500D01*
X191970740Y-114875500D01*
X192037779Y-114895185D01*
G37*
%TD.AperFunction*%
%TA.AperFunction,Conductor*%
G36*
X186492653Y-110910118D02*
G01*
X186538408Y-110962922D01*
X186548352Y-111032080D01*
X186519327Y-111095636D01*
X186513314Y-111102094D01*
X186285093Y-111330315D01*
X186228708Y-111386700D01*
X186216451Y-111396520D01*
X186216634Y-111396741D01*
X186210623Y-111401713D01*
X186163272Y-111452136D01*
X186142389Y-111473018D01*
X186142377Y-111473032D01*
X186138121Y-111478517D01*
X186134337Y-111482947D01*
X186102437Y-111516918D01*
X186102436Y-111516920D01*
X186092784Y-111534476D01*
X186082110Y-111550726D01*
X186069829Y-111566561D01*
X186069824Y-111566568D01*
X186051315Y-111609338D01*
X186048745Y-111614584D01*
X186026303Y-111655406D01*
X186021322Y-111674807D01*
X186015021Y-111693210D01*
X186007062Y-111711602D01*
X186007061Y-111711605D01*
X185999771Y-111757627D01*
X185998587Y-111763346D01*
X185987001Y-111808472D01*
X185987000Y-111808482D01*
X185987000Y-111828516D01*
X185985473Y-111847915D01*
X185982340Y-111867694D01*
X185982340Y-111867695D01*
X185986725Y-111914083D01*
X185987000Y-111919921D01*
X185987000Y-113608480D01*
X185967315Y-113675519D01*
X185950681Y-113696161D01*
X185857031Y-113789810D01*
X185857030Y-113789811D01*
X185769022Y-113935393D01*
X185718413Y-114097807D01*
X185712000Y-114168386D01*
X185712000Y-114831613D01*
X185718413Y-114902192D01*
X185718413Y-114902194D01*
X185718414Y-114902196D01*
X185769022Y-115064606D01*
X185857028Y-115210185D01*
X185934663Y-115287820D01*
X185968147Y-115349141D01*
X185963163Y-115418833D01*
X185921292Y-115474767D01*
X185855828Y-115499184D01*
X185846981Y-115499500D01*
X185409304Y-115499500D01*
X185372432Y-115502401D01*
X185372426Y-115502402D01*
X185214606Y-115548254D01*
X185214603Y-115548255D01*
X185073137Y-115631917D01*
X185073129Y-115631923D01*
X184956923Y-115748129D01*
X184956917Y-115748137D01*
X184873255Y-115889603D01*
X184873254Y-115889606D01*
X184827402Y-116047426D01*
X184827401Y-116047432D01*
X184824500Y-116084304D01*
X184824500Y-116515696D01*
X184827401Y-116552567D01*
X184827402Y-116552573D01*
X184873254Y-116710393D01*
X184873255Y-116710396D01*
X184873256Y-116710398D01*
X184910681Y-116773681D01*
X184956917Y-116851862D01*
X184956923Y-116851870D01*
X185073129Y-116968076D01*
X185073133Y-116968079D01*
X185073135Y-116968081D01*
X185214602Y-117051744D01*
X185251063Y-117062337D01*
X185372426Y-117097597D01*
X185372429Y-117097597D01*
X185372431Y-117097598D01*
X185384722Y-117098565D01*
X185409304Y-117100500D01*
X185409306Y-117100500D01*
X186000500Y-117100500D01*
X186067539Y-117120185D01*
X186113294Y-117172989D01*
X186124500Y-117224500D01*
X186124500Y-117275500D01*
X186104815Y-117342539D01*
X186052011Y-117388294D01*
X186000500Y-117399500D01*
X185409304Y-117399500D01*
X185372432Y-117402401D01*
X185372426Y-117402402D01*
X185214606Y-117448254D01*
X185214603Y-117448255D01*
X185073137Y-117531917D01*
X185073129Y-117531923D01*
X185066872Y-117538181D01*
X185005549Y-117571666D01*
X184979191Y-117574500D01*
X184132737Y-117574500D01*
X184117120Y-117572776D01*
X184117093Y-117573062D01*
X184109331Y-117572327D01*
X184040203Y-117574500D01*
X184010650Y-117574500D01*
X184009929Y-117574590D01*
X184003757Y-117575369D01*
X183997945Y-117575826D01*
X183951372Y-117577290D01*
X183951369Y-117577291D01*
X183932126Y-117582881D01*
X183913083Y-117586825D01*
X183893204Y-117589336D01*
X183893203Y-117589337D01*
X183849878Y-117606490D01*
X183844352Y-117608382D01*
X183799608Y-117621383D01*
X183799604Y-117621385D01*
X183782365Y-117631580D01*
X183764898Y-117640137D01*
X183746269Y-117647512D01*
X183746267Y-117647513D01*
X183708564Y-117674906D01*
X183703682Y-117678112D01*
X183656866Y-117705800D01*
X183655549Y-117703573D01*
X183602228Y-117724513D01*
X183591254Y-117725000D01*
X182025001Y-117725000D01*
X182025001Y-117748322D01*
X182035144Y-117847607D01*
X182088452Y-118008481D01*
X182088457Y-118008492D01*
X182177424Y-118152728D01*
X182177427Y-118152732D01*
X182186660Y-118161965D01*
X182220145Y-118223288D01*
X182215161Y-118292980D01*
X182186663Y-118337324D01*
X182177033Y-118346953D01*
X182177029Y-118346959D01*
X182103852Y-118465597D01*
X182051904Y-118512322D01*
X181998314Y-118524500D01*
X181774500Y-118524500D01*
X181707461Y-118504815D01*
X181661706Y-118452011D01*
X181650500Y-118400500D01*
X181650499Y-117652129D01*
X181650498Y-117652123D01*
X181644091Y-117592517D01*
X181626187Y-117544515D01*
X181625480Y-117542618D01*
X181620495Y-117472927D01*
X181625480Y-117455949D01*
X181643597Y-117407375D01*
X181643598Y-117407372D01*
X181649999Y-117347844D01*
X181650000Y-117347827D01*
X181650000Y-117225000D01*
X182025000Y-117225000D01*
X182750000Y-117225000D01*
X182750000Y-116525000D01*
X183250000Y-116525000D01*
X183250000Y-117225000D01*
X183974999Y-117225000D01*
X183974999Y-117201692D01*
X183974998Y-117201677D01*
X183964855Y-117102392D01*
X183911547Y-116941518D01*
X183911542Y-116941507D01*
X183822575Y-116797271D01*
X183822572Y-116797267D01*
X183702732Y-116677427D01*
X183702728Y-116677424D01*
X183558492Y-116588457D01*
X183558481Y-116588452D01*
X183397606Y-116535144D01*
X183298322Y-116525000D01*
X183250000Y-116525000D01*
X182750000Y-116525000D01*
X182749999Y-116524999D01*
X182701693Y-116525000D01*
X182701675Y-116525001D01*
X182602392Y-116535144D01*
X182441518Y-116588452D01*
X182441507Y-116588457D01*
X182297271Y-116677424D01*
X182297267Y-116677427D01*
X182177427Y-116797267D01*
X182177424Y-116797271D01*
X182088457Y-116941507D01*
X182088452Y-116941518D01*
X182035144Y-117102393D01*
X182025000Y-117201677D01*
X182025000Y-117225000D01*
X181650000Y-117225000D01*
X181650000Y-117200000D01*
X181205845Y-117200000D01*
X181199213Y-117199644D01*
X181198798Y-117199599D01*
X181197876Y-117199500D01*
X180224000Y-117199500D01*
X180156961Y-117179815D01*
X180111206Y-117127011D01*
X180100000Y-117075500D01*
X180100000Y-116824499D01*
X180119685Y-116757460D01*
X180172489Y-116711705D01*
X180223997Y-116700499D01*
X181197872Y-116700499D01*
X181197877Y-116700498D01*
X181197882Y-116700498D01*
X181199207Y-116700356D01*
X181205841Y-116700000D01*
X181650000Y-116700000D01*
X181650000Y-116552172D01*
X181649999Y-116552155D01*
X181643598Y-116492627D01*
X181625479Y-116444048D01*
X181620495Y-116374356D01*
X181625476Y-116357391D01*
X181644091Y-116307483D01*
X181650500Y-116247873D01*
X181650499Y-115452128D01*
X181644091Y-115392517D01*
X181635910Y-115370582D01*
X181625747Y-115343334D01*
X181620762Y-115273643D01*
X181625747Y-115256665D01*
X181628530Y-115249204D01*
X181644091Y-115207483D01*
X181650500Y-115147873D01*
X181650499Y-114352128D01*
X181644091Y-114292517D01*
X181625480Y-114242618D01*
X181620495Y-114172927D01*
X181625480Y-114155949D01*
X181643597Y-114107375D01*
X181643598Y-114107372D01*
X181649999Y-114047844D01*
X181650000Y-114047827D01*
X181650000Y-113900000D01*
X181205845Y-113900000D01*
X181199213Y-113899644D01*
X181197873Y-113899500D01*
X181197871Y-113899500D01*
X179502129Y-113899500D01*
X179502116Y-113899501D01*
X179500793Y-113899644D01*
X179494159Y-113900000D01*
X179050000Y-113900000D01*
X179050000Y-114047844D01*
X179056401Y-114107372D01*
X179056403Y-114107383D01*
X179074519Y-114155953D01*
X179079503Y-114225644D01*
X179074520Y-114242616D01*
X179055910Y-114292513D01*
X179055909Y-114292517D01*
X179049500Y-114352127D01*
X179049500Y-114352134D01*
X179049500Y-114352135D01*
X179049500Y-114974428D01*
X179029815Y-115041467D01*
X178977011Y-115087222D01*
X178907853Y-115097166D01*
X178852615Y-115074746D01*
X178702734Y-114965851D01*
X178702729Y-114965848D01*
X178529807Y-114888857D01*
X178529802Y-114888855D01*
X178384001Y-114857865D01*
X178344646Y-114849500D01*
X178155354Y-114849500D01*
X178122897Y-114856398D01*
X177970197Y-114888855D01*
X177970192Y-114888857D01*
X177797270Y-114965848D01*
X177797265Y-114965851D01*
X177644129Y-115077111D01*
X177644128Y-115077112D01*
X177591649Y-115135396D01*
X177532162Y-115172044D01*
X177462305Y-115170713D01*
X177404257Y-115131826D01*
X177376448Y-115067729D01*
X177375500Y-115052423D01*
X177375500Y-112700000D01*
X177650000Y-112700000D01*
X177650000Y-113097844D01*
X177656401Y-113157372D01*
X177656403Y-113157379D01*
X177706645Y-113292086D01*
X177706649Y-113292093D01*
X177792809Y-113407187D01*
X177792812Y-113407190D01*
X177907906Y-113493350D01*
X177907913Y-113493354D01*
X178042620Y-113543596D01*
X178042627Y-113543598D01*
X178102155Y-113549999D01*
X178102172Y-113550000D01*
X179010000Y-113550000D01*
X179010000Y-113524000D01*
X179029685Y-113456961D01*
X179082489Y-113411206D01*
X179134000Y-113400000D01*
X181650000Y-113400000D01*
X181650000Y-113252172D01*
X181649999Y-113252155D01*
X181643598Y-113192627D01*
X181643596Y-113192620D01*
X181593354Y-113057913D01*
X181593350Y-113057906D01*
X181507190Y-112942812D01*
X181507187Y-112942809D01*
X181392093Y-112856649D01*
X181392086Y-112856645D01*
X181257379Y-112806403D01*
X181257372Y-112806401D01*
X181197844Y-112800000D01*
X180574000Y-112800000D01*
X180506961Y-112780315D01*
X180461206Y-112727511D01*
X180456672Y-112706672D01*
X180450000Y-112700000D01*
X177650000Y-112700000D01*
X177375500Y-112700000D01*
X177375500Y-112060451D01*
X177395185Y-111993412D01*
X177411814Y-111972775D01*
X177438321Y-111946268D01*
X177499642Y-111912785D01*
X177569334Y-111917769D01*
X177625267Y-111959641D01*
X177649684Y-112025105D01*
X177650000Y-112033951D01*
X177650000Y-112200000D01*
X178800000Y-112200000D01*
X178800000Y-111350000D01*
X179300000Y-111350000D01*
X179300000Y-112200000D01*
X180450000Y-112200000D01*
X180450000Y-111802172D01*
X180449999Y-111802155D01*
X180443598Y-111742627D01*
X180443596Y-111742620D01*
X180393354Y-111607913D01*
X180393350Y-111607906D01*
X180307190Y-111492812D01*
X180307187Y-111492809D01*
X180192093Y-111406649D01*
X180192086Y-111406645D01*
X180057379Y-111356403D01*
X180057372Y-111356401D01*
X179997844Y-111350000D01*
X179300000Y-111350000D01*
X178800000Y-111350000D01*
X178333952Y-111350000D01*
X178266913Y-111330315D01*
X178221158Y-111277511D01*
X178211214Y-111208353D01*
X178240239Y-111144797D01*
X178246260Y-111138330D01*
X178457838Y-110926752D01*
X178519162Y-110893267D01*
X178545520Y-110890433D01*
X186425614Y-110890433D01*
X186492653Y-110910118D01*
G37*
%TD.AperFunction*%
%TA.AperFunction,Conductor*%
G36*
X200805701Y-114302225D02*
G01*
X200809369Y-114305533D01*
X200840814Y-114335062D01*
X200858372Y-114344714D01*
X200874629Y-114355393D01*
X200890460Y-114367673D01*
X200905691Y-114374264D01*
X200933229Y-114386182D01*
X200938473Y-114388750D01*
X200979304Y-114411197D01*
X200991919Y-114414435D01*
X200998701Y-114416177D01*
X201017115Y-114422481D01*
X201035500Y-114430438D01*
X201081553Y-114437732D01*
X201087222Y-114438906D01*
X201132377Y-114450500D01*
X201152412Y-114450500D01*
X201171809Y-114452026D01*
X201191592Y-114455160D01*
X201237979Y-114450775D01*
X201243818Y-114450500D01*
X201378152Y-114450500D01*
X201445191Y-114470185D01*
X201465833Y-114486819D01*
X202812207Y-115833193D01*
X202845692Y-115894516D01*
X202846997Y-115940284D01*
X202845576Y-115949255D01*
X202844392Y-115954969D01*
X202832805Y-116000104D01*
X202832805Y-116020140D01*
X202831279Y-116039528D01*
X202828146Y-116059313D01*
X202828146Y-116059316D01*
X202832531Y-116105704D01*
X202832806Y-116111542D01*
X202832805Y-116969778D01*
X202831082Y-116985395D01*
X202831367Y-116985422D01*
X202830632Y-116993188D01*
X202832806Y-117062337D01*
X202832806Y-117091866D01*
X202832807Y-117091883D01*
X202833674Y-117098754D01*
X202834132Y-117104573D01*
X202835596Y-117151147D01*
X202835597Y-117151150D01*
X202841186Y-117170390D01*
X202845130Y-117189434D01*
X202845694Y-117193896D01*
X202847641Y-117209313D01*
X202864793Y-117252636D01*
X202866683Y-117258156D01*
X202869572Y-117268097D01*
X202874500Y-117302706D01*
X202874500Y-118396003D01*
X202854815Y-118463042D01*
X202802011Y-118508797D01*
X202732853Y-118518741D01*
X202669297Y-118489716D01*
X202658350Y-118478975D01*
X202536879Y-118344068D01*
X202498628Y-118316277D01*
X202455963Y-118260947D01*
X202448193Y-118202998D01*
X202451309Y-118173352D01*
X202459956Y-118091080D01*
X202440170Y-117902824D01*
X202381675Y-117722796D01*
X202287029Y-117558864D01*
X202160367Y-117418192D01*
X202145479Y-117407375D01*
X202007230Y-117306931D01*
X202007225Y-117306928D01*
X201834303Y-117229937D01*
X201834298Y-117229935D01*
X201701420Y-117201692D01*
X201683056Y-117197788D01*
X201621575Y-117164597D01*
X201587799Y-117103434D01*
X201590906Y-117038181D01*
X201623375Y-116938256D01*
X201643161Y-116750000D01*
X201623375Y-116561744D01*
X201564880Y-116381716D01*
X201470234Y-116217784D01*
X201343572Y-116077112D01*
X201333709Y-116069946D01*
X201190435Y-115965851D01*
X201190430Y-115965848D01*
X201017508Y-115888857D01*
X201017503Y-115888855D01*
X200871701Y-115857865D01*
X200832347Y-115849500D01*
X200722244Y-115849500D01*
X200655205Y-115829815D01*
X200609450Y-115777011D01*
X200598954Y-115712247D01*
X200600500Y-115697873D01*
X200600499Y-115302128D01*
X200600498Y-115302111D01*
X200596320Y-115263253D01*
X200596320Y-115236747D01*
X200600500Y-115197873D01*
X200600499Y-114802128D01*
X200600498Y-114802111D01*
X200596320Y-114763253D01*
X200596320Y-114736747D01*
X200600500Y-114697873D01*
X200600499Y-114395937D01*
X200620183Y-114328899D01*
X200672987Y-114283144D01*
X200742146Y-114273200D01*
X200805701Y-114302225D01*
G37*
%TD.AperFunction*%
%TA.AperFunction,Conductor*%
G36*
X194322952Y-115992936D02*
G01*
X194331184Y-116000459D01*
X194464513Y-116133788D01*
X194474338Y-116146051D01*
X194474559Y-116145869D01*
X194479530Y-116151878D01*
X194504963Y-116175760D01*
X194529951Y-116199226D01*
X194550845Y-116220120D01*
X194556327Y-116224373D01*
X194560759Y-116228157D01*
X194594734Y-116260062D01*
X194612292Y-116269714D01*
X194628549Y-116280393D01*
X194644380Y-116292673D01*
X194662939Y-116300704D01*
X194687149Y-116311182D01*
X194692393Y-116313750D01*
X194733224Y-116336197D01*
X194745743Y-116339411D01*
X194752621Y-116341177D01*
X194771035Y-116347481D01*
X194789420Y-116355438D01*
X194835473Y-116362732D01*
X194841142Y-116363906D01*
X194886297Y-116375500D01*
X194906332Y-116375500D01*
X194925729Y-116377026D01*
X194945512Y-116380160D01*
X194991899Y-116375775D01*
X194997738Y-116375500D01*
X195904724Y-116375500D01*
X195971763Y-116395185D01*
X196017518Y-116447989D01*
X196028724Y-116499500D01*
X196028724Y-116700577D01*
X196009039Y-116767616D01*
X195956235Y-116813371D01*
X195904724Y-116824577D01*
X194828725Y-116824577D01*
X194828725Y-116872899D01*
X194838868Y-116972185D01*
X194844581Y-116989426D01*
X194846983Y-117059254D01*
X194811251Y-117119296D01*
X194765879Y-117146135D01*
X194661856Y-117180605D01*
X194592028Y-117183007D01*
X194535171Y-117150580D01*
X194451259Y-117066668D01*
X194417774Y-117005345D01*
X194415622Y-116991967D01*
X194397973Y-116824043D01*
X194339478Y-116644015D01*
X194244832Y-116480083D01*
X194118170Y-116339411D01*
X194064893Y-116300703D01*
X194022229Y-116245374D01*
X194016250Y-116175760D01*
X194048856Y-116113965D01*
X194050099Y-116112704D01*
X194135072Y-116027731D01*
X194137961Y-116023048D01*
X194189907Y-115976321D01*
X194258869Y-115965096D01*
X194322952Y-115992936D01*
G37*
%TD.AperFunction*%
%TA.AperFunction,Conductor*%
G36*
X201075830Y-111395185D02*
G01*
X201121585Y-111447989D01*
X201131529Y-111517147D01*
X201124973Y-111542834D01*
X201106402Y-111592623D01*
X201106401Y-111592627D01*
X201100000Y-111652155D01*
X201100000Y-112350000D01*
X204300000Y-112350000D01*
X204300000Y-111652172D01*
X204299999Y-111652155D01*
X204293598Y-111592627D01*
X204293597Y-111592623D01*
X204275027Y-111542834D01*
X204270043Y-111473142D01*
X204303528Y-111411819D01*
X204364851Y-111378334D01*
X204391209Y-111375500D01*
X204439548Y-111375500D01*
X204506587Y-111395185D01*
X204527229Y-111411819D01*
X204838181Y-111722771D01*
X204871666Y-111784094D01*
X204874500Y-111810452D01*
X204874500Y-114689546D01*
X204854815Y-114756585D01*
X204838181Y-114777227D01*
X204437296Y-115178111D01*
X204375973Y-115211596D01*
X204353513Y-115214369D01*
X204325683Y-115215244D01*
X204323204Y-115215322D01*
X204293651Y-115215322D01*
X204292930Y-115215412D01*
X204286758Y-115216191D01*
X204280946Y-115216648D01*
X204234373Y-115218112D01*
X204234370Y-115218113D01*
X204215127Y-115223703D01*
X204196084Y-115227647D01*
X204176205Y-115230158D01*
X204176204Y-115230159D01*
X204132878Y-115247312D01*
X204127352Y-115249204D01*
X204099158Y-115257396D01*
X204029289Y-115257199D01*
X203970618Y-115219259D01*
X203964240Y-115211203D01*
X203959595Y-115204810D01*
X203959594Y-115204808D01*
X203923688Y-115175105D01*
X203919376Y-115171182D01*
X203200221Y-114452027D01*
X202959876Y-114211681D01*
X202926391Y-114150358D01*
X202931375Y-114080666D01*
X202973247Y-114024733D01*
X203038711Y-114000316D01*
X203047557Y-114000000D01*
X203847828Y-114000000D01*
X203847844Y-113999999D01*
X203907372Y-113993598D01*
X203907379Y-113993596D01*
X204042086Y-113943354D01*
X204042093Y-113943350D01*
X204157187Y-113857190D01*
X204157190Y-113857187D01*
X204243350Y-113742093D01*
X204243354Y-113742086D01*
X204293596Y-113607379D01*
X204293598Y-113607372D01*
X204299999Y-113547844D01*
X204300000Y-113547827D01*
X204300000Y-112850000D01*
X201172348Y-112850000D01*
X201105309Y-112830315D01*
X201084667Y-112813681D01*
X200543251Y-112272265D01*
X199858168Y-111587181D01*
X199824683Y-111525858D01*
X199829667Y-111456166D01*
X199871539Y-111400233D01*
X199937003Y-111375816D01*
X199945849Y-111375500D01*
X201008791Y-111375500D01*
X201075830Y-111395185D01*
G37*
%TD.AperFunction*%
%TA.AperFunction,Conductor*%
G36*
X195918039Y-114345185D02*
G01*
X195963794Y-114397989D01*
X195975000Y-114449500D01*
X195975000Y-114626000D01*
X195955315Y-114693039D01*
X195902511Y-114738794D01*
X195851000Y-114750000D01*
X195599000Y-114750000D01*
X195531961Y-114730315D01*
X195486206Y-114677511D01*
X195475000Y-114626000D01*
X195475000Y-114449500D01*
X195494685Y-114382461D01*
X195547489Y-114336706D01*
X195599000Y-114325500D01*
X195851000Y-114325500D01*
X195918039Y-114345185D01*
G37*
%TD.AperFunction*%
%TA.AperFunction,Conductor*%
G36*
X187702803Y-111784299D02*
G01*
X187758737Y-111826170D01*
X187783154Y-111891635D01*
X187768910Y-111957111D01*
X187769172Y-111957233D01*
X187768631Y-111958391D01*
X187768302Y-111959908D01*
X187766387Y-111963204D01*
X187766117Y-111963783D01*
X187712809Y-112124658D01*
X187702665Y-112223942D01*
X187702665Y-112272265D01*
X188678165Y-112272265D01*
X188745204Y-112291950D01*
X188790959Y-112344754D01*
X188802165Y-112396265D01*
X188802165Y-112648265D01*
X188782480Y-112715304D01*
X188729676Y-112761059D01*
X188678165Y-112772265D01*
X187702666Y-112772265D01*
X187702666Y-112820587D01*
X187712809Y-112919872D01*
X187766117Y-113080746D01*
X187766122Y-113080757D01*
X187855089Y-113224993D01*
X187855092Y-113224997D01*
X187962742Y-113332647D01*
X187996227Y-113393970D01*
X187991243Y-113463662D01*
X187949371Y-113519595D01*
X187911952Y-113538713D01*
X187773103Y-113581981D01*
X187627622Y-113669927D01*
X187627621Y-113669928D01*
X187525535Y-113772015D01*
X187464212Y-113805500D01*
X187394520Y-113800516D01*
X187350173Y-113772015D01*
X187274319Y-113696161D01*
X187240834Y-113634838D01*
X187238000Y-113608480D01*
X187238000Y-112197952D01*
X187257685Y-112130913D01*
X187274319Y-112110271D01*
X187421386Y-111963204D01*
X187571792Y-111812798D01*
X187633112Y-111779315D01*
X187702803Y-111784299D01*
G37*
%TD.AperFunction*%
%TA.AperFunction,Conductor*%
G36*
X196168038Y-112634962D02*
G01*
X196213793Y-112687766D01*
X196224999Y-112739277D01*
X196224999Y-112950500D01*
X196205314Y-113017539D01*
X196152510Y-113063294D01*
X196100999Y-113074500D01*
X195848999Y-113074500D01*
X195781960Y-113054815D01*
X195736205Y-113002011D01*
X195724999Y-112950500D01*
X195724999Y-112739277D01*
X195744684Y-112672238D01*
X195797488Y-112626483D01*
X195848999Y-112615277D01*
X196100999Y-112615277D01*
X196168038Y-112634962D01*
G37*
%TD.AperFunction*%
%TA.AperFunction,Conductor*%
G36*
X191651939Y-111360118D02*
G01*
X191697694Y-111412922D01*
X191707638Y-111482080D01*
X191680838Y-111540761D01*
X191681905Y-111541605D01*
X191677429Y-111547265D01*
X191640593Y-111606984D01*
X191588644Y-111653707D01*
X191519681Y-111664928D01*
X191455599Y-111637084D01*
X191447374Y-111629566D01*
X191369922Y-111552114D01*
X191336437Y-111490791D01*
X191341421Y-111421099D01*
X191383293Y-111365166D01*
X191448757Y-111340749D01*
X191457603Y-111340433D01*
X191584900Y-111340433D01*
X191651939Y-111360118D01*
G37*
%TD.AperFunction*%
%TD*%
M02*
