%TF.GenerationSoftware,KiCad,Pcbnew,7.0.6*%
%TF.CreationDate,2024-02-06T14:07:09+09:00*%
%TF.ProjectId,CO2_sensor,434f325f-7365-46e7-936f-722e6b696361,rev?*%
%TF.SameCoordinates,Original*%
%TF.FileFunction,Legend,Top*%
%TF.FilePolarity,Positive*%
%FSLAX46Y46*%
G04 Gerber Fmt 4.6, Leading zero omitted, Abs format (unit mm)*
G04 Created by KiCad (PCBNEW 7.0.6) date 2024-02-06 14:07:09*
%MOMM*%
%LPD*%
G01*
G04 APERTURE LIST*
%ADD10C,0.150000*%
%ADD11C,0.254000*%
%ADD12C,0.120000*%
%ADD13C,0.200000*%
%ADD14C,0.100000*%
G04 APERTURE END LIST*
D10*
X187071048Y-127962866D02*
X187832953Y-127962866D01*
X187452000Y-128343819D02*
X187452000Y-127581914D01*
X186301095Y-128343819D02*
X186301095Y-127343819D01*
X186301095Y-127343819D02*
X186539190Y-127343819D01*
X186539190Y-127343819D02*
X186682047Y-127391438D01*
X186682047Y-127391438D02*
X186777285Y-127486676D01*
X186777285Y-127486676D02*
X186824904Y-127581914D01*
X186824904Y-127581914D02*
X186872523Y-127772390D01*
X186872523Y-127772390D02*
X186872523Y-127915247D01*
X186872523Y-127915247D02*
X186824904Y-128105723D01*
X186824904Y-128105723D02*
X186777285Y-128200961D01*
X186777285Y-128200961D02*
X186682047Y-128296200D01*
X186682047Y-128296200D02*
X186539190Y-128343819D01*
X186539190Y-128343819D02*
X186301095Y-128343819D01*
X185729523Y-128248580D02*
X185681904Y-128296200D01*
X185681904Y-128296200D02*
X185539047Y-128343819D01*
X185539047Y-128343819D02*
X185443809Y-128343819D01*
X185443809Y-128343819D02*
X185300952Y-128296200D01*
X185300952Y-128296200D02*
X185205714Y-128200961D01*
X185205714Y-128200961D02*
X185158095Y-128105723D01*
X185158095Y-128105723D02*
X185110476Y-127915247D01*
X185110476Y-127915247D02*
X185110476Y-127772390D01*
X185110476Y-127772390D02*
X185158095Y-127581914D01*
X185158095Y-127581914D02*
X185205714Y-127486676D01*
X185205714Y-127486676D02*
X185300952Y-127391438D01*
X185300952Y-127391438D02*
X185443809Y-127343819D01*
X185443809Y-127343819D02*
X185539047Y-127343819D01*
X185539047Y-127343819D02*
X185681904Y-127391438D01*
X185681904Y-127391438D02*
X185729523Y-127439057D01*
X188729904Y-127391438D02*
X188634666Y-127343819D01*
X188634666Y-127343819D02*
X188491809Y-127343819D01*
X188491809Y-127343819D02*
X188348952Y-127391438D01*
X188348952Y-127391438D02*
X188253714Y-127486676D01*
X188253714Y-127486676D02*
X188206095Y-127581914D01*
X188206095Y-127581914D02*
X188158476Y-127772390D01*
X188158476Y-127772390D02*
X188158476Y-127915247D01*
X188158476Y-127915247D02*
X188206095Y-128105723D01*
X188206095Y-128105723D02*
X188253714Y-128200961D01*
X188253714Y-128200961D02*
X188348952Y-128296200D01*
X188348952Y-128296200D02*
X188491809Y-128343819D01*
X188491809Y-128343819D02*
X188587047Y-128343819D01*
X188587047Y-128343819D02*
X188729904Y-128296200D01*
X188729904Y-128296200D02*
X188777523Y-128248580D01*
X188777523Y-128248580D02*
X188777523Y-127915247D01*
X188777523Y-127915247D02*
X188587047Y-127915247D01*
X189150667Y-128343819D02*
X189150667Y-127343819D01*
X189150667Y-127343819D02*
X189484000Y-128058104D01*
X189484000Y-128058104D02*
X189817333Y-127343819D01*
X189817333Y-127343819D02*
X189817333Y-128343819D01*
X182840333Y-128089819D02*
X182507000Y-127613628D01*
X182268905Y-128089819D02*
X182268905Y-127089819D01*
X182268905Y-127089819D02*
X182649857Y-127089819D01*
X182649857Y-127089819D02*
X182745095Y-127137438D01*
X182745095Y-127137438D02*
X182792714Y-127185057D01*
X182792714Y-127185057D02*
X182840333Y-127280295D01*
X182840333Y-127280295D02*
X182840333Y-127423152D01*
X182840333Y-127423152D02*
X182792714Y-127518390D01*
X182792714Y-127518390D02*
X182745095Y-127566009D01*
X182745095Y-127566009D02*
X182649857Y-127613628D01*
X182649857Y-127613628D02*
X182268905Y-127613628D01*
X183173667Y-127089819D02*
X183840333Y-127089819D01*
X183840333Y-127089819D02*
X183411762Y-128089819D01*
X193083333Y-111179580D02*
X193035714Y-111227200D01*
X193035714Y-111227200D02*
X192892857Y-111274819D01*
X192892857Y-111274819D02*
X192797619Y-111274819D01*
X192797619Y-111274819D02*
X192654762Y-111227200D01*
X192654762Y-111227200D02*
X192559524Y-111131961D01*
X192559524Y-111131961D02*
X192511905Y-111036723D01*
X192511905Y-111036723D02*
X192464286Y-110846247D01*
X192464286Y-110846247D02*
X192464286Y-110703390D01*
X192464286Y-110703390D02*
X192511905Y-110512914D01*
X192511905Y-110512914D02*
X192559524Y-110417676D01*
X192559524Y-110417676D02*
X192654762Y-110322438D01*
X192654762Y-110322438D02*
X192797619Y-110274819D01*
X192797619Y-110274819D02*
X192892857Y-110274819D01*
X192892857Y-110274819D02*
X193035714Y-110322438D01*
X193035714Y-110322438D02*
X193083333Y-110370057D01*
X193940476Y-110608152D02*
X193940476Y-111274819D01*
X193702381Y-110227200D02*
X193464286Y-110941485D01*
X193464286Y-110941485D02*
X194083333Y-110941485D01*
X187657119Y-125379960D02*
X187704739Y-125427579D01*
X187704739Y-125427579D02*
X187752358Y-125570436D01*
X187752358Y-125570436D02*
X187752358Y-125665674D01*
X187752358Y-125665674D02*
X187704739Y-125808531D01*
X187704739Y-125808531D02*
X187609500Y-125903769D01*
X187609500Y-125903769D02*
X187514262Y-125951388D01*
X187514262Y-125951388D02*
X187323786Y-125999007D01*
X187323786Y-125999007D02*
X187180929Y-125999007D01*
X187180929Y-125999007D02*
X186990453Y-125951388D01*
X186990453Y-125951388D02*
X186895215Y-125903769D01*
X186895215Y-125903769D02*
X186799977Y-125808531D01*
X186799977Y-125808531D02*
X186752358Y-125665674D01*
X186752358Y-125665674D02*
X186752358Y-125570436D01*
X186752358Y-125570436D02*
X186799977Y-125427579D01*
X186799977Y-125427579D02*
X186847596Y-125379960D01*
X187752358Y-124427579D02*
X187752358Y-124999007D01*
X187752358Y-124713293D02*
X186752358Y-124713293D01*
X186752358Y-124713293D02*
X186895215Y-124808531D01*
X186895215Y-124808531D02*
X186990453Y-124903769D01*
X186990453Y-124903769D02*
X187038072Y-124999007D01*
X193877761Y-121815526D02*
X193830142Y-121863146D01*
X193830142Y-121863146D02*
X193687285Y-121910765D01*
X193687285Y-121910765D02*
X193592047Y-121910765D01*
X193592047Y-121910765D02*
X193449190Y-121863146D01*
X193449190Y-121863146D02*
X193353952Y-121767907D01*
X193353952Y-121767907D02*
X193306333Y-121672669D01*
X193306333Y-121672669D02*
X193258714Y-121482193D01*
X193258714Y-121482193D02*
X193258714Y-121339336D01*
X193258714Y-121339336D02*
X193306333Y-121148860D01*
X193306333Y-121148860D02*
X193353952Y-121053622D01*
X193353952Y-121053622D02*
X193449190Y-120958384D01*
X193449190Y-120958384D02*
X193592047Y-120910765D01*
X193592047Y-120910765D02*
X193687285Y-120910765D01*
X193687285Y-120910765D02*
X193830142Y-120958384D01*
X193830142Y-120958384D02*
X193877761Y-121006003D01*
X194258714Y-121006003D02*
X194306333Y-120958384D01*
X194306333Y-120958384D02*
X194401571Y-120910765D01*
X194401571Y-120910765D02*
X194639666Y-120910765D01*
X194639666Y-120910765D02*
X194734904Y-120958384D01*
X194734904Y-120958384D02*
X194782523Y-121006003D01*
X194782523Y-121006003D02*
X194830142Y-121101241D01*
X194830142Y-121101241D02*
X194830142Y-121196479D01*
X194830142Y-121196479D02*
X194782523Y-121339336D01*
X194782523Y-121339336D02*
X194211095Y-121910765D01*
X194211095Y-121910765D02*
X194830142Y-121910765D01*
X200082248Y-111157998D02*
X200082248Y-111872283D01*
X200082248Y-111872283D02*
X200034629Y-112015140D01*
X200034629Y-112015140D02*
X199939391Y-112110379D01*
X199939391Y-112110379D02*
X199796534Y-112157998D01*
X199796534Y-112157998D02*
X199701296Y-112157998D01*
X200510820Y-111253236D02*
X200558439Y-111205617D01*
X200558439Y-111205617D02*
X200653677Y-111157998D01*
X200653677Y-111157998D02*
X200891772Y-111157998D01*
X200891772Y-111157998D02*
X200987010Y-111205617D01*
X200987010Y-111205617D02*
X201034629Y-111253236D01*
X201034629Y-111253236D02*
X201082248Y-111348474D01*
X201082248Y-111348474D02*
X201082248Y-111443712D01*
X201082248Y-111443712D02*
X201034629Y-111586569D01*
X201034629Y-111586569D02*
X200463201Y-112157998D01*
X200463201Y-112157998D02*
X201082248Y-112157998D01*
X189156914Y-126386909D02*
X189156914Y-125386909D01*
X189156914Y-125386909D02*
X189395009Y-125386909D01*
X189395009Y-125386909D02*
X189537866Y-125434528D01*
X189537866Y-125434528D02*
X189633104Y-125529766D01*
X189633104Y-125529766D02*
X189680723Y-125625004D01*
X189680723Y-125625004D02*
X189728342Y-125815480D01*
X189728342Y-125815480D02*
X189728342Y-125958337D01*
X189728342Y-125958337D02*
X189680723Y-126148813D01*
X189680723Y-126148813D02*
X189633104Y-126244051D01*
X189633104Y-126244051D02*
X189537866Y-126339290D01*
X189537866Y-126339290D02*
X189395009Y-126386909D01*
X189395009Y-126386909D02*
X189156914Y-126386909D01*
X190680723Y-126386909D02*
X190109295Y-126386909D01*
X190395009Y-126386909D02*
X190395009Y-125386909D01*
X190395009Y-125386909D02*
X190299771Y-125529766D01*
X190299771Y-125529766D02*
X190204533Y-125625004D01*
X190204533Y-125625004D02*
X190109295Y-125672623D01*
X196080722Y-111736034D02*
X196033103Y-111783654D01*
X196033103Y-111783654D02*
X195890246Y-111831273D01*
X195890246Y-111831273D02*
X195795008Y-111831273D01*
X195795008Y-111831273D02*
X195652151Y-111783654D01*
X195652151Y-111783654D02*
X195556913Y-111688415D01*
X195556913Y-111688415D02*
X195509294Y-111593177D01*
X195509294Y-111593177D02*
X195461675Y-111402701D01*
X195461675Y-111402701D02*
X195461675Y-111259844D01*
X195461675Y-111259844D02*
X195509294Y-111069368D01*
X195509294Y-111069368D02*
X195556913Y-110974130D01*
X195556913Y-110974130D02*
X195652151Y-110878892D01*
X195652151Y-110878892D02*
X195795008Y-110831273D01*
X195795008Y-110831273D02*
X195890246Y-110831273D01*
X195890246Y-110831273D02*
X196033103Y-110878892D01*
X196033103Y-110878892D02*
X196080722Y-110926511D01*
X197033103Y-111831273D02*
X196461675Y-111831273D01*
X196747389Y-111831273D02*
X196747389Y-110831273D01*
X196747389Y-110831273D02*
X196652151Y-110974130D01*
X196652151Y-110974130D02*
X196556913Y-111069368D01*
X196556913Y-111069368D02*
X196461675Y-111116987D01*
X197652151Y-110831273D02*
X197747389Y-110831273D01*
X197747389Y-110831273D02*
X197842627Y-110878892D01*
X197842627Y-110878892D02*
X197890246Y-110926511D01*
X197890246Y-110926511D02*
X197937865Y-111021749D01*
X197937865Y-111021749D02*
X197985484Y-111212225D01*
X197985484Y-111212225D02*
X197985484Y-111450320D01*
X197985484Y-111450320D02*
X197937865Y-111640796D01*
X197937865Y-111640796D02*
X197890246Y-111736034D01*
X197890246Y-111736034D02*
X197842627Y-111783654D01*
X197842627Y-111783654D02*
X197747389Y-111831273D01*
X197747389Y-111831273D02*
X197652151Y-111831273D01*
X197652151Y-111831273D02*
X197556913Y-111783654D01*
X197556913Y-111783654D02*
X197509294Y-111736034D01*
X197509294Y-111736034D02*
X197461675Y-111640796D01*
X197461675Y-111640796D02*
X197414056Y-111450320D01*
X197414056Y-111450320D02*
X197414056Y-111212225D01*
X197414056Y-111212225D02*
X197461675Y-111021749D01*
X197461675Y-111021749D02*
X197509294Y-110926511D01*
X197509294Y-110926511D02*
X197556913Y-110878892D01*
X197556913Y-110878892D02*
X197652151Y-110831273D01*
X189221917Y-111572671D02*
X189174298Y-111620291D01*
X189174298Y-111620291D02*
X189031441Y-111667910D01*
X189031441Y-111667910D02*
X188936203Y-111667910D01*
X188936203Y-111667910D02*
X188793346Y-111620291D01*
X188793346Y-111620291D02*
X188698108Y-111525052D01*
X188698108Y-111525052D02*
X188650489Y-111429814D01*
X188650489Y-111429814D02*
X188602870Y-111239338D01*
X188602870Y-111239338D02*
X188602870Y-111096481D01*
X188602870Y-111096481D02*
X188650489Y-110906005D01*
X188650489Y-110906005D02*
X188698108Y-110810767D01*
X188698108Y-110810767D02*
X188793346Y-110715529D01*
X188793346Y-110715529D02*
X188936203Y-110667910D01*
X188936203Y-110667910D02*
X189031441Y-110667910D01*
X189031441Y-110667910D02*
X189174298Y-110715529D01*
X189174298Y-110715529D02*
X189221917Y-110763148D01*
X189555251Y-110667910D02*
X190174298Y-110667910D01*
X190174298Y-110667910D02*
X189840965Y-111048862D01*
X189840965Y-111048862D02*
X189983822Y-111048862D01*
X189983822Y-111048862D02*
X190079060Y-111096481D01*
X190079060Y-111096481D02*
X190126679Y-111144100D01*
X190126679Y-111144100D02*
X190174298Y-111239338D01*
X190174298Y-111239338D02*
X190174298Y-111477433D01*
X190174298Y-111477433D02*
X190126679Y-111572671D01*
X190126679Y-111572671D02*
X190079060Y-111620291D01*
X190079060Y-111620291D02*
X189983822Y-111667910D01*
X189983822Y-111667910D02*
X189698108Y-111667910D01*
X189698108Y-111667910D02*
X189602870Y-111620291D01*
X189602870Y-111620291D02*
X189555251Y-111572671D01*
X192766893Y-129539814D02*
X192433560Y-129063623D01*
X192195465Y-129539814D02*
X192195465Y-128539814D01*
X192195465Y-128539814D02*
X192576417Y-128539814D01*
X192576417Y-128539814D02*
X192671655Y-128587433D01*
X192671655Y-128587433D02*
X192719274Y-128635052D01*
X192719274Y-128635052D02*
X192766893Y-128730290D01*
X192766893Y-128730290D02*
X192766893Y-128873147D01*
X192766893Y-128873147D02*
X192719274Y-128968385D01*
X192719274Y-128968385D02*
X192671655Y-129016004D01*
X192671655Y-129016004D02*
X192576417Y-129063623D01*
X192576417Y-129063623D02*
X192195465Y-129063623D01*
X193100227Y-128539814D02*
X193719274Y-128539814D01*
X193719274Y-128539814D02*
X193385941Y-128920766D01*
X193385941Y-128920766D02*
X193528798Y-128920766D01*
X193528798Y-128920766D02*
X193624036Y-128968385D01*
X193624036Y-128968385D02*
X193671655Y-129016004D01*
X193671655Y-129016004D02*
X193719274Y-129111242D01*
X193719274Y-129111242D02*
X193719274Y-129349337D01*
X193719274Y-129349337D02*
X193671655Y-129444575D01*
X193671655Y-129444575D02*
X193624036Y-129492195D01*
X193624036Y-129492195D02*
X193528798Y-129539814D01*
X193528798Y-129539814D02*
X193243084Y-129539814D01*
X193243084Y-129539814D02*
X193147846Y-129492195D01*
X193147846Y-129492195D02*
X193100227Y-129444575D01*
X182720518Y-116099624D02*
X182768138Y-116147243D01*
X182768138Y-116147243D02*
X182815757Y-116290100D01*
X182815757Y-116290100D02*
X182815757Y-116385338D01*
X182815757Y-116385338D02*
X182768138Y-116528195D01*
X182768138Y-116528195D02*
X182672899Y-116623433D01*
X182672899Y-116623433D02*
X182577661Y-116671052D01*
X182577661Y-116671052D02*
X182387185Y-116718671D01*
X182387185Y-116718671D02*
X182244328Y-116718671D01*
X182244328Y-116718671D02*
X182053852Y-116671052D01*
X182053852Y-116671052D02*
X181958614Y-116623433D01*
X181958614Y-116623433D02*
X181863376Y-116528195D01*
X181863376Y-116528195D02*
X181815757Y-116385338D01*
X181815757Y-116385338D02*
X181815757Y-116290100D01*
X181815757Y-116290100D02*
X181863376Y-116147243D01*
X181863376Y-116147243D02*
X181910995Y-116099624D01*
X182815757Y-115147243D02*
X182815757Y-115718671D01*
X182815757Y-115432957D02*
X181815757Y-115432957D01*
X181815757Y-115432957D02*
X181958614Y-115528195D01*
X181958614Y-115528195D02*
X182053852Y-115623433D01*
X182053852Y-115623433D02*
X182101471Y-115718671D01*
X181815757Y-114242481D02*
X181815757Y-114718671D01*
X181815757Y-114718671D02*
X182291947Y-114766290D01*
X182291947Y-114766290D02*
X182244328Y-114718671D01*
X182244328Y-114718671D02*
X182196709Y-114623433D01*
X182196709Y-114623433D02*
X182196709Y-114385338D01*
X182196709Y-114385338D02*
X182244328Y-114290100D01*
X182244328Y-114290100D02*
X182291947Y-114242481D01*
X182291947Y-114242481D02*
X182387185Y-114194862D01*
X182387185Y-114194862D02*
X182625280Y-114194862D01*
X182625280Y-114194862D02*
X182720518Y-114242481D01*
X182720518Y-114242481D02*
X182768138Y-114290100D01*
X182768138Y-114290100D02*
X182815757Y-114385338D01*
X182815757Y-114385338D02*
X182815757Y-114623433D01*
X182815757Y-114623433D02*
X182768138Y-114718671D01*
X182768138Y-114718671D02*
X182720518Y-114766290D01*
X190674666Y-128867819D02*
X190674666Y-129582104D01*
X190674666Y-129582104D02*
X190627047Y-129724961D01*
X190627047Y-129724961D02*
X190531809Y-129820200D01*
X190531809Y-129820200D02*
X190388952Y-129867819D01*
X190388952Y-129867819D02*
X190293714Y-129867819D01*
X191674666Y-129867819D02*
X191103238Y-129867819D01*
X191388952Y-129867819D02*
X191388952Y-128867819D01*
X191388952Y-128867819D02*
X191293714Y-129010676D01*
X191293714Y-129010676D02*
X191198476Y-129105914D01*
X191198476Y-129105914D02*
X191103238Y-129153533D01*
X185693278Y-121894429D02*
X185359945Y-121418238D01*
X185121850Y-121894429D02*
X185121850Y-120894429D01*
X185121850Y-120894429D02*
X185502802Y-120894429D01*
X185502802Y-120894429D02*
X185598040Y-120942048D01*
X185598040Y-120942048D02*
X185645659Y-120989667D01*
X185645659Y-120989667D02*
X185693278Y-121084905D01*
X185693278Y-121084905D02*
X185693278Y-121227762D01*
X185693278Y-121227762D02*
X185645659Y-121323000D01*
X185645659Y-121323000D02*
X185598040Y-121370619D01*
X185598040Y-121370619D02*
X185502802Y-121418238D01*
X185502802Y-121418238D02*
X185121850Y-121418238D01*
X186550421Y-121227762D02*
X186550421Y-121894429D01*
X186312326Y-120846810D02*
X186074231Y-121561095D01*
X186074231Y-121561095D02*
X186693278Y-121561095D01*
X197368656Y-119892339D02*
X197321037Y-119939959D01*
X197321037Y-119939959D02*
X197178180Y-119987578D01*
X197178180Y-119987578D02*
X197082942Y-119987578D01*
X197082942Y-119987578D02*
X196940085Y-119939959D01*
X196940085Y-119939959D02*
X196844847Y-119844720D01*
X196844847Y-119844720D02*
X196797228Y-119749482D01*
X196797228Y-119749482D02*
X196749609Y-119559006D01*
X196749609Y-119559006D02*
X196749609Y-119416149D01*
X196749609Y-119416149D02*
X196797228Y-119225673D01*
X196797228Y-119225673D02*
X196844847Y-119130435D01*
X196844847Y-119130435D02*
X196940085Y-119035197D01*
X196940085Y-119035197D02*
X197082942Y-118987578D01*
X197082942Y-118987578D02*
X197178180Y-118987578D01*
X197178180Y-118987578D02*
X197321037Y-119035197D01*
X197321037Y-119035197D02*
X197368656Y-119082816D01*
X197844847Y-119987578D02*
X198035323Y-119987578D01*
X198035323Y-119987578D02*
X198130561Y-119939959D01*
X198130561Y-119939959D02*
X198178180Y-119892339D01*
X198178180Y-119892339D02*
X198273418Y-119749482D01*
X198273418Y-119749482D02*
X198321037Y-119559006D01*
X198321037Y-119559006D02*
X198321037Y-119178054D01*
X198321037Y-119178054D02*
X198273418Y-119082816D01*
X198273418Y-119082816D02*
X198225799Y-119035197D01*
X198225799Y-119035197D02*
X198130561Y-118987578D01*
X198130561Y-118987578D02*
X197940085Y-118987578D01*
X197940085Y-118987578D02*
X197844847Y-119035197D01*
X197844847Y-119035197D02*
X197797228Y-119082816D01*
X197797228Y-119082816D02*
X197749609Y-119178054D01*
X197749609Y-119178054D02*
X197749609Y-119416149D01*
X197749609Y-119416149D02*
X197797228Y-119511387D01*
X197797228Y-119511387D02*
X197844847Y-119559006D01*
X197844847Y-119559006D02*
X197940085Y-119606625D01*
X197940085Y-119606625D02*
X198130561Y-119606625D01*
X198130561Y-119606625D02*
X198225799Y-119559006D01*
X198225799Y-119559006D02*
X198273418Y-119511387D01*
X198273418Y-119511387D02*
X198321037Y-119416149D01*
X195691089Y-121831863D02*
X195643470Y-121879483D01*
X195643470Y-121879483D02*
X195500613Y-121927102D01*
X195500613Y-121927102D02*
X195405375Y-121927102D01*
X195405375Y-121927102D02*
X195262518Y-121879483D01*
X195262518Y-121879483D02*
X195167280Y-121784244D01*
X195167280Y-121784244D02*
X195119661Y-121689006D01*
X195119661Y-121689006D02*
X195072042Y-121498530D01*
X195072042Y-121498530D02*
X195072042Y-121355673D01*
X195072042Y-121355673D02*
X195119661Y-121165197D01*
X195119661Y-121165197D02*
X195167280Y-121069959D01*
X195167280Y-121069959D02*
X195262518Y-120974721D01*
X195262518Y-120974721D02*
X195405375Y-120927102D01*
X195405375Y-120927102D02*
X195500613Y-120927102D01*
X195500613Y-120927102D02*
X195643470Y-120974721D01*
X195643470Y-120974721D02*
X195691089Y-121022340D01*
X196262518Y-121355673D02*
X196167280Y-121308054D01*
X196167280Y-121308054D02*
X196119661Y-121260435D01*
X196119661Y-121260435D02*
X196072042Y-121165197D01*
X196072042Y-121165197D02*
X196072042Y-121117578D01*
X196072042Y-121117578D02*
X196119661Y-121022340D01*
X196119661Y-121022340D02*
X196167280Y-120974721D01*
X196167280Y-120974721D02*
X196262518Y-120927102D01*
X196262518Y-120927102D02*
X196452994Y-120927102D01*
X196452994Y-120927102D02*
X196548232Y-120974721D01*
X196548232Y-120974721D02*
X196595851Y-121022340D01*
X196595851Y-121022340D02*
X196643470Y-121117578D01*
X196643470Y-121117578D02*
X196643470Y-121165197D01*
X196643470Y-121165197D02*
X196595851Y-121260435D01*
X196595851Y-121260435D02*
X196548232Y-121308054D01*
X196548232Y-121308054D02*
X196452994Y-121355673D01*
X196452994Y-121355673D02*
X196262518Y-121355673D01*
X196262518Y-121355673D02*
X196167280Y-121403292D01*
X196167280Y-121403292D02*
X196119661Y-121450911D01*
X196119661Y-121450911D02*
X196072042Y-121546149D01*
X196072042Y-121546149D02*
X196072042Y-121736625D01*
X196072042Y-121736625D02*
X196119661Y-121831863D01*
X196119661Y-121831863D02*
X196167280Y-121879483D01*
X196167280Y-121879483D02*
X196262518Y-121927102D01*
X196262518Y-121927102D02*
X196452994Y-121927102D01*
X196452994Y-121927102D02*
X196548232Y-121879483D01*
X196548232Y-121879483D02*
X196595851Y-121831863D01*
X196595851Y-121831863D02*
X196643470Y-121736625D01*
X196643470Y-121736625D02*
X196643470Y-121546149D01*
X196643470Y-121546149D02*
X196595851Y-121450911D01*
X196595851Y-121450911D02*
X196548232Y-121403292D01*
X196548232Y-121403292D02*
X196452994Y-121355673D01*
X182420906Y-124202072D02*
X182373287Y-124297310D01*
X182373287Y-124297310D02*
X182278049Y-124392548D01*
X182278049Y-124392548D02*
X182135191Y-124535405D01*
X182135191Y-124535405D02*
X182087572Y-124630643D01*
X182087572Y-124630643D02*
X182087572Y-124725881D01*
X182325668Y-124678262D02*
X182278049Y-124773500D01*
X182278049Y-124773500D02*
X182182810Y-124868738D01*
X182182810Y-124868738D02*
X181992334Y-124916357D01*
X181992334Y-124916357D02*
X181659001Y-124916357D01*
X181659001Y-124916357D02*
X181468525Y-124868738D01*
X181468525Y-124868738D02*
X181373287Y-124773500D01*
X181373287Y-124773500D02*
X181325668Y-124678262D01*
X181325668Y-124678262D02*
X181325668Y-124487786D01*
X181325668Y-124487786D02*
X181373287Y-124392548D01*
X181373287Y-124392548D02*
X181468525Y-124297310D01*
X181468525Y-124297310D02*
X181659001Y-124249691D01*
X181659001Y-124249691D02*
X181992334Y-124249691D01*
X181992334Y-124249691D02*
X182182810Y-124297310D01*
X182182810Y-124297310D02*
X182278049Y-124392548D01*
X182278049Y-124392548D02*
X182325668Y-124487786D01*
X182325668Y-124487786D02*
X182325668Y-124678262D01*
X181659001Y-123392548D02*
X182325668Y-123392548D01*
X181278049Y-123630643D02*
X181992334Y-123868738D01*
X181992334Y-123868738D02*
X181992334Y-123249691D01*
X187270833Y-113524819D02*
X186937500Y-113048628D01*
X186699405Y-113524819D02*
X186699405Y-112524819D01*
X186699405Y-112524819D02*
X187080357Y-112524819D01*
X187080357Y-112524819D02*
X187175595Y-112572438D01*
X187175595Y-112572438D02*
X187223214Y-112620057D01*
X187223214Y-112620057D02*
X187270833Y-112715295D01*
X187270833Y-112715295D02*
X187270833Y-112858152D01*
X187270833Y-112858152D02*
X187223214Y-112953390D01*
X187223214Y-112953390D02*
X187175595Y-113001009D01*
X187175595Y-113001009D02*
X187080357Y-113048628D01*
X187080357Y-113048628D02*
X186699405Y-113048628D01*
X188223214Y-113524819D02*
X187651786Y-113524819D01*
X187937500Y-113524819D02*
X187937500Y-112524819D01*
X187937500Y-112524819D02*
X187842262Y-112667676D01*
X187842262Y-112667676D02*
X187747024Y-112762914D01*
X187747024Y-112762914D02*
X187651786Y-112810533D01*
X194398449Y-125749611D02*
X194350830Y-125844849D01*
X194350830Y-125844849D02*
X194255592Y-125940087D01*
X194255592Y-125940087D02*
X194112734Y-126082944D01*
X194112734Y-126082944D02*
X194065115Y-126178182D01*
X194065115Y-126178182D02*
X194065115Y-126273420D01*
X194303211Y-126225801D02*
X194255592Y-126321039D01*
X194255592Y-126321039D02*
X194160353Y-126416277D01*
X194160353Y-126416277D02*
X193969877Y-126463896D01*
X193969877Y-126463896D02*
X193636544Y-126463896D01*
X193636544Y-126463896D02*
X193446068Y-126416277D01*
X193446068Y-126416277D02*
X193350830Y-126321039D01*
X193350830Y-126321039D02*
X193303211Y-126225801D01*
X193303211Y-126225801D02*
X193303211Y-126035325D01*
X193303211Y-126035325D02*
X193350830Y-125940087D01*
X193350830Y-125940087D02*
X193446068Y-125844849D01*
X193446068Y-125844849D02*
X193636544Y-125797230D01*
X193636544Y-125797230D02*
X193969877Y-125797230D01*
X193969877Y-125797230D02*
X194160353Y-125844849D01*
X194160353Y-125844849D02*
X194255592Y-125940087D01*
X194255592Y-125940087D02*
X194303211Y-126035325D01*
X194303211Y-126035325D02*
X194303211Y-126225801D01*
X193303211Y-125463896D02*
X193303211Y-124844849D01*
X193303211Y-124844849D02*
X193684163Y-125178182D01*
X193684163Y-125178182D02*
X193684163Y-125035325D01*
X193684163Y-125035325D02*
X193731782Y-124940087D01*
X193731782Y-124940087D02*
X193779401Y-124892468D01*
X193779401Y-124892468D02*
X193874639Y-124844849D01*
X193874639Y-124844849D02*
X194112734Y-124844849D01*
X194112734Y-124844849D02*
X194207972Y-124892468D01*
X194207972Y-124892468D02*
X194255592Y-124940087D01*
X194255592Y-124940087D02*
X194303211Y-125035325D01*
X194303211Y-125035325D02*
X194303211Y-125321039D01*
X194303211Y-125321039D02*
X194255592Y-125416277D01*
X194255592Y-125416277D02*
X194207972Y-125463896D01*
X192473182Y-114363398D02*
X192473182Y-113363398D01*
X192473182Y-113363398D02*
X192711277Y-113363398D01*
X192711277Y-113363398D02*
X192854134Y-113411017D01*
X192854134Y-113411017D02*
X192949372Y-113506255D01*
X192949372Y-113506255D02*
X192996991Y-113601493D01*
X192996991Y-113601493D02*
X193044610Y-113791969D01*
X193044610Y-113791969D02*
X193044610Y-113934826D01*
X193044610Y-113934826D02*
X192996991Y-114125302D01*
X192996991Y-114125302D02*
X192949372Y-114220540D01*
X192949372Y-114220540D02*
X192854134Y-114315779D01*
X192854134Y-114315779D02*
X192711277Y-114363398D01*
X192711277Y-114363398D02*
X192473182Y-114363398D01*
X193425563Y-113458636D02*
X193473182Y-113411017D01*
X193473182Y-113411017D02*
X193568420Y-113363398D01*
X193568420Y-113363398D02*
X193806515Y-113363398D01*
X193806515Y-113363398D02*
X193901753Y-113411017D01*
X193901753Y-113411017D02*
X193949372Y-113458636D01*
X193949372Y-113458636D02*
X193996991Y-113553874D01*
X193996991Y-113553874D02*
X193996991Y-113649112D01*
X193996991Y-113649112D02*
X193949372Y-113791969D01*
X193949372Y-113791969D02*
X193377944Y-114363398D01*
X193377944Y-114363398D02*
X193996991Y-114363398D01*
X184408794Y-115340796D02*
X184313556Y-115293177D01*
X184313556Y-115293177D02*
X184218318Y-115197939D01*
X184218318Y-115197939D02*
X184075461Y-115055081D01*
X184075461Y-115055081D02*
X183980223Y-115007462D01*
X183980223Y-115007462D02*
X183884985Y-115007462D01*
X183932604Y-115245558D02*
X183837366Y-115197939D01*
X183837366Y-115197939D02*
X183742128Y-115102700D01*
X183742128Y-115102700D02*
X183694509Y-114912224D01*
X183694509Y-114912224D02*
X183694509Y-114578891D01*
X183694509Y-114578891D02*
X183742128Y-114388415D01*
X183742128Y-114388415D02*
X183837366Y-114293177D01*
X183837366Y-114293177D02*
X183932604Y-114245558D01*
X183932604Y-114245558D02*
X184123080Y-114245558D01*
X184123080Y-114245558D02*
X184218318Y-114293177D01*
X184218318Y-114293177D02*
X184313556Y-114388415D01*
X184313556Y-114388415D02*
X184361175Y-114578891D01*
X184361175Y-114578891D02*
X184361175Y-114912224D01*
X184361175Y-114912224D02*
X184313556Y-115102700D01*
X184313556Y-115102700D02*
X184218318Y-115197939D01*
X184218318Y-115197939D02*
X184123080Y-115245558D01*
X184123080Y-115245558D02*
X183932604Y-115245558D01*
X185313556Y-115245558D02*
X184742128Y-115245558D01*
X185027842Y-115245558D02*
X185027842Y-114245558D01*
X185027842Y-114245558D02*
X184932604Y-114388415D01*
X184932604Y-114388415D02*
X184837366Y-114483653D01*
X184837366Y-114483653D02*
X184742128Y-114531272D01*
X191836431Y-113486796D02*
X190836431Y-113486796D01*
X190836431Y-113486796D02*
X190836431Y-113248701D01*
X190836431Y-113248701D02*
X190884050Y-113105844D01*
X190884050Y-113105844D02*
X190979288Y-113010606D01*
X190979288Y-113010606D02*
X191074526Y-112962987D01*
X191074526Y-112962987D02*
X191265002Y-112915368D01*
X191265002Y-112915368D02*
X191407859Y-112915368D01*
X191407859Y-112915368D02*
X191598335Y-112962987D01*
X191598335Y-112962987D02*
X191693573Y-113010606D01*
X191693573Y-113010606D02*
X191788812Y-113105844D01*
X191788812Y-113105844D02*
X191836431Y-113248701D01*
X191836431Y-113248701D02*
X191836431Y-113486796D01*
X190836431Y-112582034D02*
X190836431Y-111962987D01*
X190836431Y-111962987D02*
X191217383Y-112296320D01*
X191217383Y-112296320D02*
X191217383Y-112153463D01*
X191217383Y-112153463D02*
X191265002Y-112058225D01*
X191265002Y-112058225D02*
X191312621Y-112010606D01*
X191312621Y-112010606D02*
X191407859Y-111962987D01*
X191407859Y-111962987D02*
X191645954Y-111962987D01*
X191645954Y-111962987D02*
X191741192Y-112010606D01*
X191741192Y-112010606D02*
X191788812Y-112058225D01*
X191788812Y-112058225D02*
X191836431Y-112153463D01*
X191836431Y-112153463D02*
X191836431Y-112439177D01*
X191836431Y-112439177D02*
X191788812Y-112534415D01*
X191788812Y-112534415D02*
X191741192Y-112582034D01*
X196015377Y-128268362D02*
X195967758Y-128315982D01*
X195967758Y-128315982D02*
X195824901Y-128363601D01*
X195824901Y-128363601D02*
X195729663Y-128363601D01*
X195729663Y-128363601D02*
X195586806Y-128315982D01*
X195586806Y-128315982D02*
X195491568Y-128220743D01*
X195491568Y-128220743D02*
X195443949Y-128125505D01*
X195443949Y-128125505D02*
X195396330Y-127935029D01*
X195396330Y-127935029D02*
X195396330Y-127792172D01*
X195396330Y-127792172D02*
X195443949Y-127601696D01*
X195443949Y-127601696D02*
X195491568Y-127506458D01*
X195491568Y-127506458D02*
X195586806Y-127411220D01*
X195586806Y-127411220D02*
X195729663Y-127363601D01*
X195729663Y-127363601D02*
X195824901Y-127363601D01*
X195824901Y-127363601D02*
X195967758Y-127411220D01*
X195967758Y-127411220D02*
X196015377Y-127458839D01*
X196967758Y-128363601D02*
X196396330Y-128363601D01*
X196682044Y-128363601D02*
X196682044Y-127363601D01*
X196682044Y-127363601D02*
X196586806Y-127506458D01*
X196586806Y-127506458D02*
X196491568Y-127601696D01*
X196491568Y-127601696D02*
X196396330Y-127649315D01*
X197920139Y-128363601D02*
X197348711Y-128363601D01*
X197634425Y-128363601D02*
X197634425Y-127363601D01*
X197634425Y-127363601D02*
X197539187Y-127506458D01*
X197539187Y-127506458D02*
X197443949Y-127601696D01*
X197443949Y-127601696D02*
X197348711Y-127649315D01*
X198374101Y-118051274D02*
X198421721Y-118098893D01*
X198421721Y-118098893D02*
X198469340Y-118241750D01*
X198469340Y-118241750D02*
X198469340Y-118336988D01*
X198469340Y-118336988D02*
X198421721Y-118479845D01*
X198421721Y-118479845D02*
X198326482Y-118575083D01*
X198326482Y-118575083D02*
X198231244Y-118622702D01*
X198231244Y-118622702D02*
X198040768Y-118670321D01*
X198040768Y-118670321D02*
X197897911Y-118670321D01*
X197897911Y-118670321D02*
X197707435Y-118622702D01*
X197707435Y-118622702D02*
X197612197Y-118575083D01*
X197612197Y-118575083D02*
X197516959Y-118479845D01*
X197516959Y-118479845D02*
X197469340Y-118336988D01*
X197469340Y-118336988D02*
X197469340Y-118241750D01*
X197469340Y-118241750D02*
X197516959Y-118098893D01*
X197516959Y-118098893D02*
X197564578Y-118051274D01*
X197469340Y-117194131D02*
X197469340Y-117384607D01*
X197469340Y-117384607D02*
X197516959Y-117479845D01*
X197516959Y-117479845D02*
X197564578Y-117527464D01*
X197564578Y-117527464D02*
X197707435Y-117622702D01*
X197707435Y-117622702D02*
X197897911Y-117670321D01*
X197897911Y-117670321D02*
X198278863Y-117670321D01*
X198278863Y-117670321D02*
X198374101Y-117622702D01*
X198374101Y-117622702D02*
X198421721Y-117575083D01*
X198421721Y-117575083D02*
X198469340Y-117479845D01*
X198469340Y-117479845D02*
X198469340Y-117289369D01*
X198469340Y-117289369D02*
X198421721Y-117194131D01*
X198421721Y-117194131D02*
X198374101Y-117146512D01*
X198374101Y-117146512D02*
X198278863Y-117098893D01*
X198278863Y-117098893D02*
X198040768Y-117098893D01*
X198040768Y-117098893D02*
X197945530Y-117146512D01*
X197945530Y-117146512D02*
X197897911Y-117194131D01*
X197897911Y-117194131D02*
X197850292Y-117289369D01*
X197850292Y-117289369D02*
X197850292Y-117479845D01*
X197850292Y-117479845D02*
X197897911Y-117575083D01*
X197897911Y-117575083D02*
X197945530Y-117622702D01*
X197945530Y-117622702D02*
X198040768Y-117670321D01*
D11*
X173067302Y-110991536D02*
X173067302Y-111898679D01*
X173067302Y-111898679D02*
X173006825Y-112080107D01*
X173006825Y-112080107D02*
X172885873Y-112201060D01*
X172885873Y-112201060D02*
X172704444Y-112261536D01*
X172704444Y-112261536D02*
X172583492Y-112261536D01*
X173551111Y-110991536D02*
X174337302Y-110991536D01*
X174337302Y-110991536D02*
X173913968Y-111475345D01*
X173913968Y-111475345D02*
X174095397Y-111475345D01*
X174095397Y-111475345D02*
X174216349Y-111535821D01*
X174216349Y-111535821D02*
X174276825Y-111596298D01*
X174276825Y-111596298D02*
X174337302Y-111717250D01*
X174337302Y-111717250D02*
X174337302Y-112019631D01*
X174337302Y-112019631D02*
X174276825Y-112140583D01*
X174276825Y-112140583D02*
X174216349Y-112201060D01*
X174216349Y-112201060D02*
X174095397Y-112261536D01*
X174095397Y-112261536D02*
X173732540Y-112261536D01*
X173732540Y-112261536D02*
X173611587Y-112201060D01*
X173611587Y-112201060D02*
X173551111Y-112140583D01*
D10*
X197507904Y-124777955D02*
X197555524Y-124825574D01*
X197555524Y-124825574D02*
X197603143Y-124968431D01*
X197603143Y-124968431D02*
X197603143Y-125063669D01*
X197603143Y-125063669D02*
X197555524Y-125206526D01*
X197555524Y-125206526D02*
X197460285Y-125301764D01*
X197460285Y-125301764D02*
X197365047Y-125349383D01*
X197365047Y-125349383D02*
X197174571Y-125397002D01*
X197174571Y-125397002D02*
X197031714Y-125397002D01*
X197031714Y-125397002D02*
X196841238Y-125349383D01*
X196841238Y-125349383D02*
X196746000Y-125301764D01*
X196746000Y-125301764D02*
X196650762Y-125206526D01*
X196650762Y-125206526D02*
X196603143Y-125063669D01*
X196603143Y-125063669D02*
X196603143Y-124968431D01*
X196603143Y-124968431D02*
X196650762Y-124825574D01*
X196650762Y-124825574D02*
X196698381Y-124777955D01*
X197603143Y-123825574D02*
X197603143Y-124397002D01*
X197603143Y-124111288D02*
X196603143Y-124111288D01*
X196603143Y-124111288D02*
X196746000Y-124206526D01*
X196746000Y-124206526D02*
X196841238Y-124301764D01*
X196841238Y-124301764D02*
X196888857Y-124397002D01*
X196603143Y-122968431D02*
X196603143Y-123158907D01*
X196603143Y-123158907D02*
X196650762Y-123254145D01*
X196650762Y-123254145D02*
X196698381Y-123301764D01*
X196698381Y-123301764D02*
X196841238Y-123397002D01*
X196841238Y-123397002D02*
X197031714Y-123444621D01*
X197031714Y-123444621D02*
X197412666Y-123444621D01*
X197412666Y-123444621D02*
X197507904Y-123397002D01*
X197507904Y-123397002D02*
X197555524Y-123349383D01*
X197555524Y-123349383D02*
X197603143Y-123254145D01*
X197603143Y-123254145D02*
X197603143Y-123063669D01*
X197603143Y-123063669D02*
X197555524Y-122968431D01*
X197555524Y-122968431D02*
X197507904Y-122920812D01*
X197507904Y-122920812D02*
X197412666Y-122873193D01*
X197412666Y-122873193D02*
X197174571Y-122873193D01*
X197174571Y-122873193D02*
X197079333Y-122920812D01*
X197079333Y-122920812D02*
X197031714Y-122968431D01*
X197031714Y-122968431D02*
X196984095Y-123063669D01*
X196984095Y-123063669D02*
X196984095Y-123254145D01*
X196984095Y-123254145D02*
X197031714Y-123349383D01*
X197031714Y-123349383D02*
X197079333Y-123397002D01*
X197079333Y-123397002D02*
X197174571Y-123444621D01*
X199157869Y-113340112D02*
X199205489Y-113387731D01*
X199205489Y-113387731D02*
X199253108Y-113530588D01*
X199253108Y-113530588D02*
X199253108Y-113625826D01*
X199253108Y-113625826D02*
X199205489Y-113768683D01*
X199205489Y-113768683D02*
X199110250Y-113863921D01*
X199110250Y-113863921D02*
X199015012Y-113911540D01*
X199015012Y-113911540D02*
X198824536Y-113959159D01*
X198824536Y-113959159D02*
X198681679Y-113959159D01*
X198681679Y-113959159D02*
X198491203Y-113911540D01*
X198491203Y-113911540D02*
X198395965Y-113863921D01*
X198395965Y-113863921D02*
X198300727Y-113768683D01*
X198300727Y-113768683D02*
X198253108Y-113625826D01*
X198253108Y-113625826D02*
X198253108Y-113530588D01*
X198253108Y-113530588D02*
X198300727Y-113387731D01*
X198300727Y-113387731D02*
X198348346Y-113340112D01*
X198253108Y-113006778D02*
X198253108Y-112340112D01*
X198253108Y-112340112D02*
X199253108Y-112768683D01*
D11*
X188507129Y-119122404D02*
X187902367Y-119122404D01*
X187902367Y-119122404D02*
X187902367Y-117852404D01*
X189595701Y-119122404D02*
X188869986Y-119122404D01*
X189232843Y-119122404D02*
X189232843Y-117852404D01*
X189232843Y-117852404D02*
X189111891Y-118033832D01*
X189111891Y-118033832D02*
X188990939Y-118154785D01*
X188990939Y-118154785D02*
X188869986Y-118215261D01*
D12*
%TO.C,R7*%
X184237258Y-126522500D02*
X183762742Y-126522500D01*
X184237258Y-125477500D02*
X183762742Y-125477500D01*
%TO.C,C4*%
X193109420Y-111740000D02*
X193390580Y-111740000D01*
X193109420Y-112760000D02*
X193390580Y-112760000D01*
%TO.C,C1*%
X187980437Y-122870552D02*
X187980437Y-123151712D01*
X186960437Y-122870552D02*
X186960437Y-123151712D01*
%TO.C,C2*%
X191908000Y-121160962D02*
X191908000Y-120879802D01*
X192928000Y-121160962D02*
X192928000Y-120879802D01*
%TO.C,J2*%
X200000000Y-127900000D02*
X201340000Y-127900000D01*
X204060000Y-127900000D02*
X205800000Y-127900000D01*
X205800000Y-127900000D02*
X205800000Y-112600000D01*
X200000000Y-126410000D02*
X200000000Y-127900000D01*
X200000000Y-126410000D02*
X198800000Y-126410000D01*
X200000000Y-114090000D02*
X200000000Y-112600000D01*
X200000000Y-112600000D02*
X201340000Y-112600000D01*
X205800000Y-112600000D02*
X204060000Y-112600000D01*
%TO.C,D1*%
X193000086Y-125053780D02*
X193000086Y-123053780D01*
X193000086Y-125053780D02*
X188990086Y-125053780D01*
X193000086Y-123053780D02*
X188990086Y-123053780D01*
%TO.C,C10*%
X196609419Y-112279777D02*
X196890579Y-112279777D01*
X196609419Y-113299777D02*
X196890579Y-113299777D01*
%TO.C,C3*%
X189568245Y-113032265D02*
X189287085Y-113032265D01*
X189568245Y-112012265D02*
X189287085Y-112012265D01*
%TO.C,R3*%
X191805487Y-127235466D02*
X191805487Y-126760950D01*
X192850487Y-127235466D02*
X192850487Y-126760950D01*
%TO.C,C15*%
X182490000Y-118390580D02*
X182490000Y-118109420D01*
X183510000Y-118390580D02*
X183510000Y-118109420D01*
%TO.C,J1*%
X184815000Y-129945000D02*
X184815000Y-129250000D01*
X185500000Y-129945000D02*
X184815000Y-129945000D01*
X186185000Y-129945000D02*
X190060000Y-129945000D01*
X186185000Y-129945000D02*
X186185000Y-129858276D01*
X190060000Y-129945000D02*
X190060000Y-129644493D01*
X190060000Y-128855507D02*
X190060000Y-128555000D01*
X186185000Y-128641724D02*
X186185000Y-128555000D01*
X186185000Y-128555000D02*
X190060000Y-128555000D01*
%TO.C,R4*%
X186999758Y-120522500D02*
X186525242Y-120522500D01*
X186999758Y-119477500D02*
X186525242Y-119477500D01*
%TO.C,C9*%
X195773654Y-117600744D02*
X196054814Y-117600744D01*
X195773654Y-118620744D02*
X196054814Y-118620744D01*
%TO.C,C8*%
X195109420Y-119740000D02*
X195390580Y-119740000D01*
X195109420Y-120760000D02*
X195390580Y-120760000D01*
%TO.C,Q4*%
X182690000Y-123000000D02*
X182690000Y-124675000D01*
X182690000Y-123000000D02*
X182690000Y-122350000D01*
X185810000Y-123000000D02*
X185810000Y-123650000D01*
X185810000Y-123000000D02*
X185810000Y-122350000D01*
%TO.C,R1*%
X187200242Y-113977500D02*
X187674758Y-113977500D01*
X187200242Y-115022500D02*
X187674758Y-115022500D01*
%TO.C,Q3*%
X196459501Y-123772088D02*
X196459501Y-122097088D01*
X196459501Y-123772088D02*
X196459501Y-124422088D01*
X193339501Y-123772088D02*
X193339501Y-123122088D01*
X193339501Y-123772088D02*
X193339501Y-124422088D01*
%TO.C,D2*%
X194187500Y-114640000D02*
X192187500Y-114640000D01*
X194187500Y-114640000D02*
X194187500Y-118650000D01*
X192187500Y-114640000D02*
X192187500Y-118650000D01*
%TO.C,Q1*%
X187000000Y-115690000D02*
X185325000Y-115690000D01*
X187000000Y-115690000D02*
X187650000Y-115690000D01*
X187000000Y-118810000D02*
X186350000Y-118810000D01*
X187000000Y-118810000D02*
X187650000Y-118810000D01*
%TO.C,D3*%
X191437500Y-113890000D02*
X189437500Y-113890000D01*
X191437500Y-113890000D02*
X191437500Y-117900000D01*
X189437500Y-113890000D02*
X189437500Y-117900000D01*
%TO.C,C11*%
X196318184Y-126075530D02*
X196599344Y-126075530D01*
X196318184Y-127095530D02*
X196599344Y-127095530D01*
%TO.C,C6*%
X196413144Y-116064577D02*
X196694304Y-116064577D01*
X196413144Y-117084577D02*
X196694304Y-117084577D01*
D13*
%TO.C,J3*%
X171050000Y-112775000D02*
X177850000Y-112775000D01*
X165350000Y-112775000D02*
X168450000Y-112775000D01*
D14*
X181750000Y-122450000D02*
X181750000Y-122450000D01*
X181650000Y-122450000D02*
X181650000Y-122450000D01*
D13*
X179850000Y-123000000D02*
X179850000Y-126000000D01*
X178250000Y-127625000D02*
X171050000Y-127625000D01*
X168450000Y-127625000D02*
X165350000Y-127625000D01*
X165350000Y-127625000D02*
X165350000Y-112775000D01*
D14*
X181650000Y-122450000D02*
G75*
G03*
X181750000Y-122450000I50000J0D01*
G01*
X181750000Y-122450000D02*
G75*
G03*
X181650000Y-122450000I-50000J0D01*
G01*
D12*
%TO.C,C16*%
X196990000Y-121640580D02*
X196990000Y-121359420D01*
X198010000Y-121640580D02*
X198010000Y-121359420D01*
%TO.C,C7*%
X196359420Y-113990000D02*
X196640580Y-113990000D01*
X196359420Y-115010000D02*
X196640580Y-115010000D01*
D14*
%TO.C,L1*%
X188535350Y-119519676D02*
X188535350Y-122519676D01*
X191535350Y-119519676D02*
X191535350Y-122519676D01*
%TD*%
M02*
