%TF.GenerationSoftware,KiCad,Pcbnew,7.0.6*%
%TF.CreationDate,2024-02-06T14:07:08+09:00*%
%TF.ProjectId,CO2_sensor,434f325f-7365-46e7-936f-722e6b696361,rev?*%
%TF.SameCoordinates,Original*%
%TF.FileFunction,Copper,L2,Bot*%
%TF.FilePolarity,Positive*%
%FSLAX46Y46*%
G04 Gerber Fmt 4.6, Leading zero omitted, Abs format (unit mm)*
G04 Created by KiCad (PCBNEW 7.0.6) date 2024-02-06 14:07:08*
%MOMM*%
%LPD*%
G01*
G04 APERTURE LIST*
G04 Aperture macros list*
%AMRoundRect*
0 Rectangle with rounded corners*
0 $1 Rounding radius*
0 $2 $3 $4 $5 $6 $7 $8 $9 X,Y pos of 4 corners*
0 Add a 4 corners polygon primitive as box body*
4,1,4,$2,$3,$4,$5,$6,$7,$8,$9,$2,$3,0*
0 Add four circle primitives for the rounded corners*
1,1,$1+$1,$2,$3*
1,1,$1+$1,$4,$5*
1,1,$1+$1,$6,$7*
1,1,$1+$1,$8,$9*
0 Add four rect primitives between the rounded corners*
20,1,$1+$1,$2,$3,$4,$5,0*
20,1,$1+$1,$4,$5,$6,$7,0*
20,1,$1+$1,$6,$7,$8,$9,0*
20,1,$1+$1,$8,$9,$2,$3,0*%
G04 Aperture macros list end*
%TA.AperFunction,ComponentPad*%
%ADD10R,0.850000X0.850000*%
%TD*%
%TA.AperFunction,ComponentPad*%
%ADD11O,0.850000X0.850000*%
%TD*%
%TA.AperFunction,SMDPad,CuDef*%
%ADD12RoundRect,0.225000X0.250000X-0.225000X0.250000X0.225000X-0.250000X0.225000X-0.250000X-0.225000X0*%
%TD*%
%TA.AperFunction,SMDPad,CuDef*%
%ADD13R,0.800000X1.500000*%
%TD*%
%TA.AperFunction,SMDPad,CuDef*%
%ADD14R,1.500000X0.800000*%
%TD*%
%TA.AperFunction,SMDPad,CuDef*%
%ADD15R,4.800000X4.800000*%
%TD*%
%TA.AperFunction,SMDPad,CuDef*%
%ADD16R,1.651000X0.431800*%
%TD*%
%TA.AperFunction,SMDPad,CuDef*%
%ADD17RoundRect,0.200000X0.275000X-0.200000X0.275000X0.200000X-0.275000X0.200000X-0.275000X-0.200000X0*%
%TD*%
%TA.AperFunction,SMDPad,CuDef*%
%ADD18R,0.550000X1.500000*%
%TD*%
%TA.AperFunction,SMDPad,CuDef*%
%ADD19RoundRect,0.225000X-0.250000X0.225000X-0.250000X-0.225000X0.250000X-0.225000X0.250000X0.225000X0*%
%TD*%
%TA.AperFunction,SMDPad,CuDef*%
%ADD20RoundRect,0.150000X0.150000X-0.587500X0.150000X0.587500X-0.150000X0.587500X-0.150000X-0.587500X0*%
%TD*%
%TA.AperFunction,SMDPad,CuDef*%
%ADD21RoundRect,0.200000X-0.275000X0.200000X-0.275000X-0.200000X0.275000X-0.200000X0.275000X0.200000X0*%
%TD*%
%TA.AperFunction,SMDPad,CuDef*%
%ADD22RoundRect,0.200000X0.200000X0.275000X-0.200000X0.275000X-0.200000X-0.275000X0.200000X-0.275000X0*%
%TD*%
%TA.AperFunction,SMDPad,CuDef*%
%ADD23R,3.200000X3.200000*%
%TD*%
%TA.AperFunction,SMDPad,CuDef*%
%ADD24RoundRect,0.225000X-0.225000X-0.250000X0.225000X-0.250000X0.225000X0.250000X-0.225000X0.250000X0*%
%TD*%
%TA.AperFunction,ViaPad*%
%ADD25C,0.800000*%
%TD*%
%TA.AperFunction,Conductor*%
%ADD26C,0.250000*%
%TD*%
G04 APERTURE END LIST*
D10*
%TO.P,J1,1,Pin_1*%
%TO.N,/ICSPCLK*%
X185500000Y-129250000D03*
D11*
%TO.P,J1,2,Pin_2*%
%TO.N,/ICSPDAT*%
X186500000Y-129250000D03*
%TO.P,J1,3,Pin_3*%
%TO.N,+3.3V*%
X187500000Y-129250000D03*
%TO.P,J1,4,Pin_4*%
%TO.N,GND*%
X188500000Y-129250000D03*
%TO.P,J1,5,Pin_5*%
%TO.N,/MCLR*%
X189500000Y-129250000D03*
%TD*%
D12*
%TO.P,C13,1*%
%TO.N,/CO2_3V3*%
X191750000Y-116525000D03*
%TO.P,C13,2*%
%TO.N,GND*%
X191750000Y-114975000D03*
%TD*%
D13*
%TO.P,1,1,DNC_1*%
%TO.N,unconnected-(1-DNC_1-Pad1)*%
X182250000Y-112750000D03*
%TO.P,1,2,DNC_2*%
%TO.N,unconnected-(1-DNC_2-Pad2)*%
X183500000Y-112750000D03*
%TO.P,1,3,DNC_3*%
%TO.N,unconnected-(1-DNC_3-Pad3)*%
X184750000Y-112750000D03*
%TO.P,1,4,DNC_4*%
%TO.N,unconnected-(1-DNC_4-Pad4)*%
X186000000Y-112750000D03*
%TO.P,1,5,DNC_5*%
%TO.N,unconnected-(1-DNC_5-Pad5)*%
X187250000Y-112750000D03*
D14*
%TO.P,1,6,GND_1*%
%TO.N,GND*%
X188750000Y-114250000D03*
%TO.P,1,7,VDD*%
%TO.N,/CO2_3V3*%
X188750000Y-115500000D03*
%TO.P,1,8,DNC_6*%
%TO.N,unconnected-(1-DNC_6-Pad8)*%
X188750000Y-116750000D03*
%TO.P,1,9,SCL*%
%TO.N,/SCL*%
X188750000Y-118000000D03*
%TO.P,1,10,SDA*%
%TO.N,/SDA*%
X188750000Y-119250000D03*
D13*
%TO.P,1,11,DNC_7*%
%TO.N,unconnected-(1-DNC_7-Pad11)*%
X187250000Y-120750000D03*
%TO.P,1,12,DNC_8*%
%TO.N,unconnected-(1-DNC_8-Pad12)*%
X186000000Y-120750000D03*
%TO.P,1,13,DNC_9*%
%TO.N,unconnected-(1-DNC_9-Pad13)*%
X184750000Y-120750000D03*
%TO.P,1,14,DNC_10*%
%TO.N,unconnected-(1-DNC_10-Pad14)*%
X183500000Y-120750000D03*
%TO.P,1,15,DNC_11*%
%TO.N,unconnected-(1-DNC_11-Pad15)*%
X182250000Y-120750000D03*
D14*
%TO.P,1,16,DNC_12*%
%TO.N,unconnected-(1-DNC_12-Pad16)*%
X180750000Y-119250000D03*
%TO.P,1,17,DNC_13*%
%TO.N,unconnected-(1-DNC_13-Pad17)*%
X180750000Y-118000000D03*
%TO.P,1,18,DNC_14*%
%TO.N,unconnected-(1-DNC_14-Pad18)*%
X180750000Y-116750000D03*
%TO.P,1,19,VDDH*%
%TO.N,/CO2_3V3*%
X180750000Y-115500000D03*
%TO.P,1,20,GND_2*%
%TO.N,GND*%
X180750000Y-114250000D03*
D15*
%TO.P,1,21,GND_3*%
X184750000Y-116750000D03*
%TD*%
D16*
%TO.P,U1,1,RE3/\u002AMCLR/VPP*%
%TO.N,/MCLR*%
X203632200Y-116900126D03*
%TO.P,U1,2,RA0*%
%TO.N,+3.3V*%
X203632200Y-117550112D03*
%TO.P,U1,3,RA1*%
%TO.N,/CO2_PWR*%
X203632200Y-118200098D03*
%TO.P,U1,4,RA2*%
%TO.N,/Screen_PWR*%
X203632200Y-118850084D03*
%TO.P,U1,5,RA3*%
%TO.N,/SD_PWR*%
X203632200Y-119500070D03*
%TO.P,U1,6,RA4*%
%TO.N,/SD_CS*%
X203632200Y-120150056D03*
%TO.P,U1,7,RA5*%
%TO.N,/Screen_CS*%
X203632200Y-120800042D03*
%TO.P,U1,8,VSS*%
%TO.N,GND*%
X203632200Y-121450028D03*
%TO.P,U1,9,RA7*%
%TO.N,/D{slash}C*%
X203632200Y-122100014D03*
%TO.P,U1,10,RA6*%
%TO.N,/Screen_RES*%
X203632200Y-122750000D03*
%TO.P,U1,11,RC0*%
%TO.N,/Screen_BUSY*%
X203632200Y-123399986D03*
%TO.P,U1,12,RC1*%
%TO.N,unconnected-(U1-RC1-Pad12)*%
X203632200Y-124049972D03*
%TO.P,U1,13,RC2*%
%TO.N,unconnected-(U1-RC2-Pad13)*%
X203632200Y-124699958D03*
%TO.P,U1,14,RC3*%
%TO.N,/SCK*%
X203632200Y-125349944D03*
%TO.P,U1,15,RC4*%
%TO.N,/SDI*%
X196367800Y-125349944D03*
%TO.P,U1,16,RC5*%
%TO.N,/SDO*%
X196367800Y-124699958D03*
%TO.P,U1,17,RC6*%
%TO.N,unconnected-(U1-RC6-Pad17)*%
X196367800Y-124049972D03*
%TO.P,U1,18,RC7*%
%TO.N,unconnected-(U1-RC7-Pad18)*%
X196367800Y-123399986D03*
%TO.P,U1,19,VSS*%
%TO.N,GND*%
X196367800Y-122750000D03*
%TO.P,U1,20,VDD*%
%TO.N,+3.3V*%
X196367800Y-122100014D03*
%TO.P,U1,21,RB0*%
%TO.N,unconnected-(U1-RB0-Pad21)*%
X196367800Y-121450028D03*
%TO.P,U1,22,RB1*%
%TO.N,/SCL*%
X196367800Y-120800042D03*
%TO.P,U1,23,RB2*%
%TO.N,/SDA*%
X196367800Y-120150056D03*
%TO.P,U1,24,RB3*%
%TO.N,unconnected-(U1-RB3-Pad24)*%
X196367800Y-119500070D03*
%TO.P,U1,25,RB4*%
%TO.N,unconnected-(U1-RB4-Pad25)*%
X196367800Y-118850084D03*
%TO.P,U1,26,RB5*%
%TO.N,unconnected-(U1-RB5-Pad26)*%
X196367800Y-118200098D03*
%TO.P,U1,27,RB6/ICSPCLK*%
%TO.N,/ICSPCLK*%
X196367800Y-117550112D03*
%TO.P,U1,28,RC7/ICSPDAT*%
%TO.N,/ICSPDAT*%
X196367800Y-116900126D03*
%TD*%
D17*
%TO.P,R5,1*%
%TO.N,Net-(C12-Pad2)*%
X200867800Y-112950035D03*
%TO.P,R5,2*%
%TO.N,+3.3V*%
X200867800Y-111300035D03*
%TD*%
D18*
%TO.P,CB1,1*%
%TO.N,Net-(C12-Pad2)*%
X198367800Y-113125035D03*
%TO.P,CB1,2*%
%TO.N,GND*%
X195117800Y-113125035D03*
%TD*%
D19*
%TO.P,C14,1*%
%TO.N,GND*%
X205000000Y-113975000D03*
%TO.P,C14,2*%
%TO.N,+3.3V*%
X205000000Y-115525000D03*
%TD*%
D17*
%TO.P,R8,1*%
%TO.N,/SDA*%
X193000000Y-119825000D03*
%TO.P,R8,2*%
%TO.N,+3.3V*%
X193000000Y-118175000D03*
%TD*%
D20*
%TO.P,Q2,1,G*%
%TO.N,Net-(Q2-G)*%
X185200000Y-125937500D03*
%TO.P,Q2,2,S*%
%TO.N,+3.3V*%
X183300000Y-125937500D03*
%TO.P,Q2,3,D*%
%TO.N,/CO2_3V3*%
X184250000Y-124062500D03*
%TD*%
D19*
%TO.P,C12,1*%
%TO.N,GND*%
X202617800Y-111350035D03*
%TO.P,C12,2*%
%TO.N,Net-(C12-Pad2)*%
X202617800Y-112900035D03*
%TD*%
D21*
%TO.P,R2,1*%
%TO.N,/CO2_PWR*%
X186759249Y-124235911D03*
%TO.P,R2,2*%
%TO.N,Net-(Q2-G)*%
X186759249Y-125885911D03*
%TD*%
%TO.P,R9,1*%
%TO.N,/SCL*%
X193000000Y-121425000D03*
%TO.P,R9,2*%
%TO.N,+3.3V*%
X193000000Y-123075000D03*
%TD*%
D22*
%TO.P,R6,1*%
%TO.N,/MCLR*%
X202442800Y-114625035D03*
%TO.P,R6,2*%
%TO.N,Net-(C12-Pad2)*%
X200792800Y-114625035D03*
%TD*%
D23*
%TO.P,BT1,1,+*%
%TO.N,+3.3V*%
X171500000Y-128300000D03*
X171500000Y-112200000D03*
%TO.P,BT1,2,-*%
%TO.N,GND*%
X171500000Y-120250000D03*
%TD*%
D24*
%TO.P,C5,1*%
%TO.N,GND*%
X194475000Y-126750000D03*
%TO.P,C5,2*%
%TO.N,Net-(J2-Pin_5)*%
X196025000Y-126750000D03*
%TD*%
D25*
%TO.N,GND*%
X194774000Y-114500000D03*
X204750000Y-112500000D03*
X190423449Y-115699785D03*
X177500000Y-112500000D03*
X188662500Y-113502353D03*
X184693921Y-119400498D03*
X167000000Y-120000000D03*
X178750000Y-114250000D03*
X202097264Y-121329994D03*
X193097043Y-113025500D03*
X200500000Y-126775500D03*
X178250000Y-124750000D03*
X175750000Y-114000000D03*
X201452998Y-125522404D03*
X191100405Y-128325500D03*
X198000000Y-123500000D03*
X194750000Y-127548639D03*
%TO.N,/SDA*%
X191499500Y-121026507D03*
X188821751Y-121019178D03*
%TO.N,+3.3V*%
X193512299Y-117012299D03*
X186076200Y-126773441D03*
X194074500Y-121524542D03*
X182500000Y-129000000D03*
%TO.N,Net-(J2-Pin_5)*%
X200693201Y-124763313D03*
%TO.N,/ICSPCLK*%
X188283749Y-125974570D03*
%TO.N,/ICSPDAT*%
X191084223Y-127326128D03*
%TO.N,/MCLR*%
X205025500Y-116825612D03*
X199500000Y-129500000D03*
%TO.N,/Screen_BUSY*%
X201860089Y-123835490D03*
%TO.N,/Screen_RES*%
X201779414Y-122839248D03*
%TO.N,/D{slash}C*%
X201125180Y-121097491D03*
%TO.N,/Screen_CS*%
X201931007Y-119016955D03*
%TO.N,/SCK*%
X203750000Y-126250000D03*
X201554496Y-118091080D03*
%TO.N,/SDI*%
X200737701Y-116750000D03*
X177000000Y-120250000D03*
%TO.N,/SD_CS*%
X199250000Y-127274500D03*
%TO.N,/SDO*%
X178250000Y-115750000D03*
%TO.N,/Screen_PWR*%
X196546077Y-128910430D03*
%TO.N,/SD_PWR*%
X183925096Y-128674500D03*
%TD*%
D26*
%TO.N,GND*%
X180750000Y-114250000D02*
X182250000Y-114250000D01*
X178750000Y-114250000D02*
X180750000Y-114250000D01*
X193973139Y-128325500D02*
X194750000Y-127548639D01*
X194750000Y-127025000D02*
X194475000Y-126750000D01*
X201917800Y-112050035D02*
X202617800Y-111350035D01*
X184693921Y-119400498D02*
X184750000Y-119344419D01*
X187250000Y-114250000D02*
X184750000Y-116750000D01*
X196367800Y-122750000D02*
X197250000Y-122750000D01*
X191025215Y-115699785D02*
X191750000Y-114975000D01*
X184750000Y-119344419D02*
X184750000Y-116750000D01*
X190423449Y-115699785D02*
X191025215Y-115699785D01*
X202217298Y-121450028D02*
X203632200Y-121450028D01*
X202097264Y-121329994D02*
X202217298Y-121450028D01*
X191100405Y-128325500D02*
X193973139Y-128325500D01*
X194072508Y-112050035D02*
X201917800Y-112050035D01*
X201452998Y-125822502D02*
X200500000Y-126775500D01*
X182250000Y-114250000D02*
X184750000Y-116750000D01*
X188750000Y-114250000D02*
X187250000Y-114250000D01*
X193097043Y-113025500D02*
X194072508Y-112050035D01*
X197250000Y-122750000D02*
X198000000Y-123500000D01*
X194750000Y-127548639D02*
X194750000Y-127025000D01*
X201452998Y-125522404D02*
X201452998Y-125822502D01*
X195018265Y-113025500D02*
X195117800Y-113125035D01*
X193097043Y-113025500D02*
X195018265Y-113025500D01*
%TO.N,/CO2_3V3*%
X188175000Y-111675000D02*
X180299695Y-111675000D01*
X182812500Y-124062500D02*
X180250000Y-121500000D01*
X188750000Y-115500000D02*
X189300000Y-115500000D01*
X180225000Y-114975000D02*
X180750000Y-115500000D01*
X180000000Y-121500000D02*
X179250000Y-120750000D01*
X188750000Y-115500000D02*
X189198359Y-115500000D01*
X179250000Y-120750000D02*
X179250000Y-116500000D01*
X180250000Y-121500000D02*
X180000000Y-121500000D01*
X178449695Y-114975000D02*
X180225000Y-114975000D01*
X189300000Y-115500000D02*
X189825000Y-114975000D01*
X189825000Y-113325000D02*
X188175000Y-111675000D01*
X180250000Y-115500000D02*
X180750000Y-115500000D01*
X189198359Y-115500000D02*
X190223359Y-116525000D01*
X179250000Y-116500000D02*
X180250000Y-115500000D01*
X178025000Y-113949695D02*
X178025000Y-114550305D01*
X189825000Y-114975000D02*
X189825000Y-113325000D01*
X190223359Y-116525000D02*
X191750000Y-116525000D01*
X180299695Y-111675000D02*
X178025000Y-113949695D01*
X184250000Y-124062500D02*
X182812500Y-124062500D01*
X178025000Y-114550305D02*
X178449695Y-114975000D01*
%TO.N,/SCL*%
X186466787Y-125160911D02*
X185750000Y-124444124D01*
X186027698Y-123750000D02*
X186266787Y-123510911D01*
X187559249Y-125468449D02*
X187251711Y-125160911D01*
X186266787Y-123510911D02*
X189239089Y-123510911D01*
X192200000Y-122225000D02*
X192200000Y-123050000D01*
X189250000Y-118000000D02*
X188750000Y-118000000D01*
X189008749Y-126241251D02*
X189008749Y-126274875D01*
X189350000Y-123400000D02*
X189350000Y-123377208D01*
X187983444Y-126699570D02*
X187559249Y-126275375D01*
X185750000Y-123750000D02*
X186027698Y-123750000D01*
X189008749Y-126274875D02*
X188584054Y-126699570D01*
X193624958Y-120800042D02*
X193000000Y-121425000D01*
X193000000Y-121425000D02*
X192200000Y-122225000D01*
X189350000Y-123377208D02*
X189875000Y-122852208D01*
X189875000Y-118625000D02*
X189250000Y-118000000D01*
X189875000Y-122852208D02*
X189875000Y-118625000D01*
X192200000Y-123050000D02*
X189008749Y-126241251D01*
X185750000Y-124444124D02*
X185750000Y-123750000D01*
X188584054Y-126699570D02*
X187983444Y-126699570D01*
X187251711Y-125160911D02*
X186466787Y-125160911D01*
X196367800Y-120800042D02*
X193624958Y-120800042D01*
X189239089Y-123510911D02*
X189350000Y-123400000D01*
X187559249Y-126275375D02*
X187559249Y-125468449D01*
%TO.N,/SDA*%
X188821751Y-121019178D02*
X188821751Y-119321751D01*
X196367800Y-120150056D02*
X193325056Y-120150056D01*
X188821751Y-119321751D02*
X188750000Y-119250000D01*
X191499500Y-121026507D02*
X192701007Y-119825000D01*
X193325056Y-120150056D02*
X193000000Y-119825000D01*
X192701007Y-119825000D02*
X193000000Y-119825000D01*
%TO.N,+3.3V*%
X194500000Y-122100014D02*
X193974986Y-122100014D01*
X174250000Y-114950000D02*
X171500000Y-112200000D01*
X205800000Y-114725000D02*
X205000000Y-115525000D01*
X194074500Y-121524542D02*
X194074500Y-121674514D01*
X186000000Y-127150000D02*
X184698693Y-127150000D01*
X205000000Y-115525000D02*
X205750000Y-116275000D01*
X187351040Y-130000000D02*
X183500000Y-130000000D01*
X205750000Y-117250000D02*
X205449888Y-117550112D01*
X171500000Y-112200000D02*
X173200000Y-110500000D01*
X205750000Y-116275000D02*
X205750000Y-117250000D01*
X187500000Y-129851040D02*
X187351040Y-130000000D01*
X184412000Y-127049500D02*
X183300000Y-125937500D01*
X200867800Y-111300035D02*
X201592800Y-110575035D01*
X186076200Y-126773441D02*
X186076200Y-127073800D01*
X200067765Y-110500000D02*
X200867800Y-111300035D01*
X204575035Y-110575035D02*
X205800000Y-111800000D01*
X205449888Y-117550112D02*
X203632200Y-117550112D01*
X184598193Y-127049500D02*
X184412000Y-127049500D01*
X189458749Y-126461271D02*
X188770020Y-127150000D01*
X196367800Y-122100014D02*
X194500000Y-122100014D01*
X191636438Y-124249958D02*
X189458749Y-126427647D01*
X188770020Y-127150000D02*
X186000000Y-127150000D01*
X174250000Y-127250000D02*
X174250000Y-114950000D01*
X193662500Y-122412500D02*
X193000000Y-123075000D01*
X182500000Y-129000000D02*
X181800000Y-128300000D01*
X186076200Y-127073800D02*
X186000000Y-127150000D01*
X193000000Y-124000000D02*
X192750042Y-124249958D01*
X173200000Y-128300000D02*
X174250000Y-127250000D01*
X193512299Y-117012299D02*
X193512299Y-117662701D01*
X181800000Y-128300000D02*
X171500000Y-128300000D01*
X205800000Y-111800000D02*
X205800000Y-114725000D01*
X201592800Y-110575035D02*
X204575035Y-110575035D01*
X171500000Y-128300000D02*
X173200000Y-128300000D01*
X193974986Y-122100014D02*
X193662500Y-122412500D01*
X183500000Y-130000000D02*
X182500000Y-129000000D01*
X184698693Y-127150000D02*
X184598193Y-127049500D01*
X193000000Y-123075000D02*
X193000000Y-124000000D01*
X193512299Y-117662701D02*
X193000000Y-118175000D01*
X189458749Y-126427647D02*
X189458749Y-126461271D01*
X192750042Y-124249958D02*
X191636438Y-124249958D01*
X194074500Y-121674514D02*
X194500000Y-122100014D01*
X173200000Y-110500000D02*
X200067765Y-110500000D01*
X187500000Y-129250000D02*
X187500000Y-129851040D01*
%TO.N,Net-(J2-Pin_5)*%
X200486687Y-124763313D02*
X198500000Y-126750000D01*
X200693201Y-124763313D02*
X200486687Y-124763313D01*
X198500000Y-126750000D02*
X196025000Y-126750000D01*
%TO.N,Net-(C12-Pad2)*%
X200692800Y-113125035D02*
X200867800Y-112950035D01*
X198367800Y-113125035D02*
X200692800Y-113125035D01*
X200917800Y-112900035D02*
X200867800Y-112950035D01*
X202617800Y-112900035D02*
X200917800Y-112900035D01*
X200792800Y-113025035D02*
X200867800Y-112950035D01*
X200792800Y-114625035D02*
X200792800Y-113025035D01*
%TO.N,/ICSPCLK*%
X188283749Y-125974570D02*
X190250000Y-124008319D01*
X191900000Y-119100000D02*
X193492462Y-119100000D01*
X191000000Y-120000000D02*
X191900000Y-119100000D01*
X190775000Y-123225000D02*
X190775000Y-120699695D01*
X195042350Y-117550112D02*
X196367800Y-117550112D01*
X193492462Y-119100000D02*
X195042350Y-117550112D01*
X190250000Y-123750000D02*
X190775000Y-123225000D01*
X191000000Y-120474695D02*
X191000000Y-120000000D01*
X190250000Y-124008319D02*
X190250000Y-123750000D01*
X190775000Y-120699695D02*
X191000000Y-120474695D01*
%TO.N,/ICSPDAT*%
X199500000Y-124050000D02*
X199500000Y-119013006D01*
X191084223Y-127326128D02*
X192460351Y-125950000D01*
X197443300Y-116900126D02*
X196367800Y-116900126D01*
X197600000Y-125950000D02*
X199500000Y-124050000D01*
X199500000Y-119013006D02*
X201462701Y-117050305D01*
X201462701Y-116449695D02*
X201038006Y-116025000D01*
X201038006Y-116025000D02*
X198318426Y-116025000D01*
X198318426Y-116025000D02*
X197443300Y-116900126D01*
X201462701Y-117050305D02*
X201462701Y-116449695D01*
X192460351Y-125950000D02*
X197600000Y-125950000D01*
%TO.N,/MCLR*%
X203632200Y-115814435D02*
X202442800Y-114625035D01*
X199500000Y-129500000D02*
X199250000Y-129750000D01*
X204950986Y-116900126D02*
X203632200Y-116900126D01*
X203632200Y-116900126D02*
X203632200Y-115814435D01*
X199250000Y-129750000D02*
X190000000Y-129750000D01*
X190000000Y-129750000D02*
X189500000Y-129250000D01*
X205025500Y-116825612D02*
X204950986Y-116900126D01*
%TO.N,/Screen_BUSY*%
X202601432Y-123399986D02*
X203632200Y-123399986D01*
X202165928Y-123835490D02*
X202601432Y-123399986D01*
X201860089Y-123835490D02*
X202165928Y-123835490D01*
%TO.N,/Screen_RES*%
X201868662Y-122750000D02*
X203632200Y-122750000D01*
X201779414Y-122839248D02*
X201868662Y-122750000D01*
%TO.N,/D{slash}C*%
X201125180Y-121383215D02*
X201841319Y-122099354D01*
X201125180Y-121097491D02*
X201125180Y-121383215D01*
X202451148Y-122099354D02*
X202451808Y-122100014D01*
X202451808Y-122100014D02*
X203632200Y-122100014D01*
X201841319Y-122099354D02*
X202451148Y-122099354D01*
%TO.N,/Screen_CS*%
X201931007Y-119967607D02*
X201931007Y-119016955D01*
X202763442Y-120800042D02*
X201931007Y-119967607D01*
X203632200Y-120800042D02*
X202763442Y-120800042D01*
%TO.N,/SCK*%
X203750000Y-125467744D02*
X203632200Y-125349944D01*
X203750000Y-126250000D02*
X203750000Y-125467744D01*
X200000000Y-123044807D02*
X202305137Y-125349944D01*
X202305137Y-125349944D02*
X203632200Y-125349944D01*
X200000000Y-119645576D02*
X200000000Y-123044807D01*
X201554496Y-118091080D02*
X200000000Y-119645576D01*
%TO.N,/SDI*%
X184225401Y-127949500D02*
X183624791Y-127949500D01*
X191809244Y-125349944D02*
X190358749Y-126800439D01*
X200737701Y-116750000D02*
X200737701Y-116762299D01*
X190358749Y-126834063D02*
X189142812Y-128050000D01*
X184325901Y-128050000D02*
X184225401Y-127949500D01*
X197409214Y-125349944D02*
X196367800Y-125349944D01*
X200737701Y-116762299D02*
X199000000Y-118500000D01*
X183624791Y-127949500D02*
X183412145Y-128162145D01*
X190358749Y-126800439D02*
X190358749Y-126834063D01*
X196367800Y-125349944D02*
X191809244Y-125349944D01*
X177000000Y-121750000D02*
X177000000Y-120250000D01*
X199000000Y-123759158D02*
X197409214Y-125349944D01*
X183412145Y-128162145D02*
X177000000Y-121750000D01*
X199000000Y-118500000D02*
X199000000Y-123759158D01*
X189142812Y-128050000D02*
X184325901Y-128050000D01*
%TO.N,/SD_CS*%
X204782700Y-120225056D02*
X204782700Y-126330904D01*
X199475500Y-127500000D02*
X199250000Y-127274500D01*
X203632200Y-120150056D02*
X204707700Y-120150056D01*
X204782700Y-126330904D02*
X203613604Y-127500000D01*
X204707700Y-120150056D02*
X204782700Y-120225056D01*
X203613604Y-127500000D02*
X199475500Y-127500000D01*
%TO.N,/SDO*%
X191822834Y-124699958D02*
X189908749Y-126614043D01*
X189908749Y-126647667D02*
X188956416Y-127600000D01*
X183452749Y-127499500D02*
X178250000Y-122296751D01*
X188956416Y-127600000D02*
X184512297Y-127600000D01*
X184512297Y-127600000D02*
X184411797Y-127499500D01*
X184411797Y-127499500D02*
X183452749Y-127499500D01*
X178250000Y-122296751D02*
X178250000Y-115750000D01*
X196367800Y-124699958D02*
X191822834Y-124699958D01*
X189908749Y-126614043D02*
X189908749Y-126647667D01*
%TO.N,Net-(Q2-G)*%
X186707660Y-125937500D02*
X186759249Y-125885911D01*
X185200000Y-125937500D02*
X186707660Y-125937500D01*
%TO.N,/CO2_PWR*%
X189800000Y-123700000D02*
X189075000Y-124425000D01*
X190325000Y-123038604D02*
X189800000Y-123563604D01*
X203632200Y-118200098D02*
X202590786Y-118200098D01*
X202481700Y-118091012D02*
X202481700Y-116481700D01*
X192227817Y-117300000D02*
X192200000Y-117300000D01*
X202481700Y-116481700D02*
X201500000Y-115500000D01*
X189075000Y-124425000D02*
X186750000Y-124425000D01*
X190325000Y-119175000D02*
X190325000Y-123038604D01*
X192550000Y-116977817D02*
X192227817Y-117300000D01*
X192200000Y-117300000D02*
X190325000Y-119175000D01*
X192550000Y-116950000D02*
X192550000Y-116977817D01*
X202590786Y-118200098D02*
X202481700Y-118091012D01*
X189800000Y-123563604D02*
X189800000Y-123700000D01*
X194000000Y-115500000D02*
X192550000Y-116950000D01*
X201500000Y-115500000D02*
X194000000Y-115500000D01*
%TO.N,/Screen_PWR*%
X204051000Y-128449000D02*
X205750000Y-126750000D01*
X205750000Y-126750000D02*
X205750000Y-119905974D01*
X205750000Y-119905974D02*
X204694110Y-118850084D01*
X197007507Y-128449000D02*
X204051000Y-128449000D01*
X204694110Y-118850084D02*
X203632200Y-118850084D01*
X196546077Y-128910430D02*
X197007507Y-128449000D01*
%TO.N,/SD_PWR*%
X196250000Y-127750000D02*
X198700195Y-127750000D01*
X183925096Y-128674500D02*
X184099596Y-128500000D01*
X198700195Y-127750000D02*
X198949695Y-127999500D01*
X190360661Y-129050000D02*
X194950000Y-129050000D01*
X205300000Y-126450000D02*
X205300000Y-120092370D01*
X205300000Y-120092370D02*
X204707700Y-119500070D01*
X194950000Y-129050000D02*
X196250000Y-127750000D01*
X203750500Y-127999500D02*
X205300000Y-126450000D01*
X184099596Y-128500000D02*
X189810661Y-128500000D01*
X198949695Y-127999500D02*
X203750500Y-127999500D01*
X189810661Y-128500000D02*
X190360661Y-129050000D01*
X204707700Y-119500070D02*
X203632200Y-119500070D01*
%TD*%
%TA.AperFunction,Conductor*%
%TO.N,GND*%
G36*
X169560145Y-110020185D02*
G01*
X169605900Y-110072989D01*
X169615844Y-110142147D01*
X169586819Y-110205703D01*
X169567418Y-110223766D01*
X169542452Y-110242455D01*
X169456206Y-110357664D01*
X169456202Y-110357671D01*
X169405908Y-110492517D01*
X169399501Y-110552116D01*
X169399500Y-110552135D01*
X169399500Y-113847870D01*
X169399501Y-113847876D01*
X169405908Y-113907483D01*
X169456202Y-114042328D01*
X169456206Y-114042335D01*
X169542452Y-114157544D01*
X169542455Y-114157547D01*
X169657664Y-114243793D01*
X169657671Y-114243797D01*
X169792517Y-114294091D01*
X169792516Y-114294091D01*
X169799444Y-114294835D01*
X169852127Y-114300500D01*
X172664546Y-114300499D01*
X172731585Y-114320184D01*
X172752227Y-114336818D01*
X173588181Y-115172771D01*
X173621666Y-115234094D01*
X173624500Y-115260452D01*
X173624500Y-118170337D01*
X173604815Y-118237376D01*
X173552011Y-118283131D01*
X173482853Y-118293075D01*
X173426189Y-118269604D01*
X173342089Y-118206647D01*
X173342086Y-118206645D01*
X173207379Y-118156403D01*
X173207372Y-118156401D01*
X173147844Y-118150000D01*
X171750000Y-118150000D01*
X171750000Y-122350000D01*
X173147828Y-122350000D01*
X173147844Y-122349999D01*
X173207372Y-122343598D01*
X173207379Y-122343596D01*
X173342086Y-122293354D01*
X173342089Y-122293352D01*
X173426188Y-122230396D01*
X173491653Y-122205978D01*
X173559926Y-122220829D01*
X173609332Y-122270234D01*
X173624500Y-122329662D01*
X173624500Y-126219713D01*
X173604815Y-126286752D01*
X173552011Y-126332507D01*
X173482853Y-126342451D01*
X173426189Y-126318980D01*
X173413302Y-126309333D01*
X173342331Y-126256204D01*
X173342329Y-126256203D01*
X173342328Y-126256202D01*
X173207482Y-126205908D01*
X173207483Y-126205908D01*
X173147883Y-126199501D01*
X173147881Y-126199500D01*
X173147873Y-126199500D01*
X173147864Y-126199500D01*
X169852129Y-126199500D01*
X169852123Y-126199501D01*
X169792516Y-126205908D01*
X169657671Y-126256202D01*
X169657664Y-126256206D01*
X169542455Y-126342452D01*
X169542452Y-126342455D01*
X169456206Y-126457664D01*
X169456202Y-126457671D01*
X169405908Y-126592517D01*
X169399501Y-126652116D01*
X169399500Y-126652135D01*
X169399500Y-129947870D01*
X169399501Y-129947876D01*
X169405908Y-130007483D01*
X169456202Y-130142328D01*
X169456206Y-130142335D01*
X169542452Y-130257544D01*
X169542453Y-130257544D01*
X169542454Y-130257546D01*
X169564987Y-130274414D01*
X169567418Y-130276234D01*
X169609288Y-130332168D01*
X169614272Y-130401860D01*
X169580786Y-130463182D01*
X169519462Y-130496667D01*
X169493106Y-130499500D01*
X166252024Y-130499500D01*
X166247974Y-130499367D01*
X166206777Y-130496667D01*
X166166350Y-130494017D01*
X165984560Y-130481015D01*
X165976880Y-130479980D01*
X165860579Y-130456846D01*
X165716352Y-130425472D01*
X165709596Y-130423597D01*
X165677881Y-130412831D01*
X165590578Y-130383196D01*
X165555768Y-130370212D01*
X165458257Y-130333841D01*
X165452499Y-130331355D01*
X165337047Y-130274421D01*
X165215091Y-130207828D01*
X165210357Y-130204962D01*
X165103349Y-130133461D01*
X165100639Y-130131543D01*
X165060592Y-130101564D01*
X164991353Y-130049732D01*
X164987648Y-130046729D01*
X164890492Y-129961526D01*
X164887549Y-129958769D01*
X164791228Y-129862448D01*
X164788469Y-129859502D01*
X164755450Y-129821851D01*
X164703265Y-129762345D01*
X164700271Y-129758652D01*
X164618454Y-129649358D01*
X164616537Y-129646649D01*
X164545036Y-129539641D01*
X164542170Y-129534906D01*
X164475578Y-129412952D01*
X164418643Y-129297499D01*
X164416157Y-129291741D01*
X164395671Y-129236818D01*
X164366805Y-129159425D01*
X164326395Y-129040383D01*
X164324531Y-129033666D01*
X164293153Y-128889420D01*
X164288641Y-128866738D01*
X164270015Y-128773100D01*
X164268985Y-128765459D01*
X164255986Y-128583708D01*
X164252938Y-128537198D01*
X164250633Y-128502019D01*
X164250500Y-128497964D01*
X164250500Y-123293933D01*
X168595668Y-123293933D01*
X168625989Y-123465885D01*
X168626135Y-123466711D01*
X168695623Y-123627804D01*
X168695624Y-123627806D01*
X168695626Y-123627809D01*
X168758096Y-123711720D01*
X168800390Y-123768530D01*
X168934786Y-123881302D01*
X169012488Y-123920325D01*
X169091562Y-123960038D01*
X169091563Y-123960038D01*
X169091567Y-123960040D01*
X169262279Y-124000500D01*
X169262282Y-124000500D01*
X169393701Y-124000500D01*
X169393709Y-124000500D01*
X169524255Y-123985241D01*
X169689117Y-123925237D01*
X169835696Y-123828830D01*
X169956092Y-123701218D01*
X170043812Y-123549281D01*
X170094130Y-123381210D01*
X170104331Y-123206065D01*
X170073865Y-123033289D01*
X170004377Y-122872196D01*
X169998531Y-122864344D01*
X169899609Y-122731469D01*
X169765214Y-122618698D01*
X169765212Y-122618697D01*
X169608437Y-122539961D01*
X169608433Y-122539960D01*
X169437721Y-122499500D01*
X169306291Y-122499500D01*
X169201854Y-122511707D01*
X169175743Y-122514759D01*
X169175740Y-122514760D01*
X169010884Y-122574762D01*
X169010880Y-122574764D01*
X168864306Y-122671167D01*
X168864305Y-122671168D01*
X168743910Y-122798778D01*
X168656188Y-122950718D01*
X168605870Y-123118789D01*
X168605869Y-123118794D01*
X168595668Y-123293933D01*
X164250500Y-123293933D01*
X164250500Y-120500000D01*
X169400000Y-120500000D01*
X169400000Y-121897844D01*
X169406401Y-121957372D01*
X169406403Y-121957379D01*
X169456645Y-122092086D01*
X169456649Y-122092093D01*
X169542809Y-122207187D01*
X169542812Y-122207190D01*
X169657906Y-122293350D01*
X169657913Y-122293354D01*
X169792620Y-122343596D01*
X169792627Y-122343598D01*
X169852155Y-122349999D01*
X169852172Y-122350000D01*
X171250000Y-122350000D01*
X171250000Y-120500000D01*
X169400000Y-120500000D01*
X164250500Y-120500000D01*
X164250500Y-120000000D01*
X169400000Y-120000000D01*
X171250000Y-120000000D01*
X171250000Y-118150000D01*
X169852155Y-118150000D01*
X169792627Y-118156401D01*
X169792620Y-118156403D01*
X169657913Y-118206645D01*
X169657906Y-118206649D01*
X169542812Y-118292809D01*
X169542809Y-118292812D01*
X169456649Y-118407906D01*
X169456645Y-118407913D01*
X169406403Y-118542620D01*
X169406401Y-118542627D01*
X169400000Y-118602155D01*
X169400000Y-120000000D01*
X164250500Y-120000000D01*
X164250500Y-115293933D01*
X168595668Y-115293933D01*
X168624855Y-115459452D01*
X168626135Y-115466711D01*
X168695623Y-115627804D01*
X168695624Y-115627806D01*
X168695626Y-115627809D01*
X168766708Y-115723288D01*
X168800390Y-115768530D01*
X168934786Y-115881302D01*
X169012488Y-115920325D01*
X169091562Y-115960038D01*
X169091563Y-115960038D01*
X169091567Y-115960040D01*
X169262279Y-116000500D01*
X169262282Y-116000500D01*
X169393701Y-116000500D01*
X169393709Y-116000500D01*
X169524255Y-115985241D01*
X169689117Y-115925237D01*
X169835696Y-115828830D01*
X169956092Y-115701218D01*
X170043812Y-115549281D01*
X170094130Y-115381210D01*
X170104331Y-115206065D01*
X170073865Y-115033289D01*
X170004377Y-114872196D01*
X169989327Y-114851981D01*
X169899609Y-114731469D01*
X169765214Y-114618698D01*
X169765212Y-114618697D01*
X169608437Y-114539961D01*
X169608433Y-114539960D01*
X169437721Y-114499500D01*
X169306291Y-114499500D01*
X169201854Y-114511707D01*
X169175743Y-114514759D01*
X169175740Y-114514760D01*
X169010884Y-114574762D01*
X169010880Y-114574764D01*
X168864306Y-114671167D01*
X168864305Y-114671168D01*
X168743910Y-114798778D01*
X168656188Y-114950718D01*
X168605870Y-115118789D01*
X168605869Y-115118794D01*
X168595668Y-115293933D01*
X164250500Y-115293933D01*
X164250500Y-112002036D01*
X164250633Y-111997981D01*
X164255982Y-111916360D01*
X164258331Y-111883516D01*
X164268986Y-111734536D01*
X164270014Y-111726903D01*
X164293153Y-111610579D01*
X164299729Y-111580350D01*
X164324533Y-111466323D01*
X164326392Y-111459625D01*
X164366815Y-111340543D01*
X164416159Y-111208251D01*
X164418633Y-111202520D01*
X164475583Y-111087036D01*
X164542179Y-110965076D01*
X164545019Y-110960384D01*
X164616563Y-110853311D01*
X164618428Y-110850676D01*
X164700291Y-110741321D01*
X164703244Y-110737678D01*
X164788503Y-110640459D01*
X164791198Y-110637581D01*
X164887581Y-110541198D01*
X164890459Y-110538503D01*
X164987678Y-110453244D01*
X164991321Y-110450291D01*
X165100676Y-110368428D01*
X165103311Y-110366563D01*
X165210384Y-110295019D01*
X165215076Y-110292179D01*
X165337036Y-110225583D01*
X165452520Y-110168633D01*
X165458251Y-110166159D01*
X165590543Y-110116815D01*
X165709625Y-110076392D01*
X165716323Y-110074533D01*
X165860548Y-110043158D01*
X165976903Y-110020014D01*
X165984536Y-110018986D01*
X166166244Y-110005989D01*
X166219211Y-110002517D01*
X166247981Y-110000633D01*
X166252036Y-110000500D01*
X169493106Y-110000500D01*
X169560145Y-110020185D01*
G37*
%TD.AperFunction*%
%TA.AperFunction,Conductor*%
G36*
X188750000Y-130142524D02*
G01*
X188787412Y-130134573D01*
X188965049Y-130055484D01*
X189122357Y-129941192D01*
X189127190Y-129936842D01*
X189128025Y-129937770D01*
X189181702Y-129904700D01*
X189251559Y-129906029D01*
X189302049Y-129936639D01*
X189499194Y-130133784D01*
X189509019Y-130146048D01*
X189509240Y-130145866D01*
X189514210Y-130151873D01*
X189514213Y-130151876D01*
X189514214Y-130151877D01*
X189564651Y-130199241D01*
X189585530Y-130220120D01*
X189587466Y-130221622D01*
X189591004Y-130224366D01*
X189595446Y-130228160D01*
X189629415Y-130260060D01*
X189629417Y-130260061D01*
X189629418Y-130260062D01*
X189639330Y-130265511D01*
X189641744Y-130266838D01*
X189691008Y-130316385D01*
X189705664Y-130384700D01*
X189681060Y-130450094D01*
X189625007Y-130491805D01*
X189582006Y-130499500D01*
X188035663Y-130499500D01*
X187968624Y-130479815D01*
X187922869Y-130427011D01*
X187912925Y-130357853D01*
X187941950Y-130294297D01*
X187945273Y-130290614D01*
X187949228Y-130286402D01*
X187970115Y-130265516D01*
X187970115Y-130265515D01*
X187970120Y-130265511D01*
X187974379Y-130260018D01*
X187978152Y-130255601D01*
X188010062Y-130221622D01*
X188019713Y-130204064D01*
X188030396Y-130187801D01*
X188042673Y-130171976D01*
X188042672Y-130171976D01*
X188047459Y-130165807D01*
X188049928Y-130167722D01*
X188090380Y-130129921D01*
X188159117Y-130117388D01*
X188196527Y-130127423D01*
X188212587Y-130134573D01*
X188249999Y-130142524D01*
X188250000Y-130142524D01*
X188250000Y-129274623D01*
X188264505Y-129347545D01*
X188319760Y-129430240D01*
X188402455Y-129485495D01*
X188475376Y-129500000D01*
X188524624Y-129500000D01*
X188597545Y-129485495D01*
X188680240Y-129430240D01*
X188735495Y-129347545D01*
X188750000Y-129274623D01*
X188750000Y-130142524D01*
G37*
%TD.AperFunction*%
%TA.AperFunction,Conductor*%
G36*
X190655131Y-128120803D02*
G01*
X190705963Y-128143435D01*
X190804304Y-128187221D01*
X190857541Y-128232472D01*
X190877862Y-128299321D01*
X190858816Y-128366544D01*
X190806450Y-128412799D01*
X190753868Y-128424500D01*
X190671114Y-128424500D01*
X190604075Y-128404815D01*
X190583433Y-128388181D01*
X190517016Y-128321764D01*
X190483531Y-128260441D01*
X190488515Y-128190749D01*
X190530387Y-128134816D01*
X190595851Y-128110399D01*
X190655131Y-128120803D01*
G37*
%TD.AperFunction*%
%TA.AperFunction,Conductor*%
G36*
X194668039Y-126595185D02*
G01*
X194713794Y-126647989D01*
X194725000Y-126699500D01*
X194725000Y-127724999D01*
X194748308Y-127724999D01*
X194748322Y-127724998D01*
X194847607Y-127714855D01*
X195008481Y-127661547D01*
X195008492Y-127661542D01*
X195152731Y-127572573D01*
X195161959Y-127563345D01*
X195223279Y-127529856D01*
X195292971Y-127534835D01*
X195337327Y-127563339D01*
X195352063Y-127578075D01*
X195351156Y-127578981D01*
X195387202Y-127629886D01*
X195390342Y-127699685D01*
X195357596Y-127757812D01*
X194727228Y-128388181D01*
X194665905Y-128421666D01*
X194639547Y-128424500D01*
X191414578Y-128424500D01*
X191347539Y-128404815D01*
X191301784Y-128352011D01*
X191291840Y-128282853D01*
X191320865Y-128219297D01*
X191364142Y-128187221D01*
X191466518Y-128141638D01*
X191536953Y-128110279D01*
X191690094Y-127999016D01*
X191816756Y-127858344D01*
X191911402Y-127694412D01*
X191969897Y-127514384D01*
X191987544Y-127346472D01*
X192014127Y-127281862D01*
X192023173Y-127271767D01*
X192294940Y-127000000D01*
X193525001Y-127000000D01*
X193525001Y-127048322D01*
X193535144Y-127147607D01*
X193588452Y-127308481D01*
X193588457Y-127308492D01*
X193677424Y-127452728D01*
X193677427Y-127452732D01*
X193797267Y-127572572D01*
X193797271Y-127572575D01*
X193941507Y-127661542D01*
X193941518Y-127661547D01*
X194102393Y-127714855D01*
X194201683Y-127724999D01*
X194225000Y-127724998D01*
X194225000Y-127000000D01*
X193525001Y-127000000D01*
X192294940Y-127000000D01*
X192683122Y-126611819D01*
X192744446Y-126578334D01*
X192770804Y-126575500D01*
X194601000Y-126575500D01*
X194668039Y-126595185D01*
G37*
%TD.AperFunction*%
%TA.AperFunction,Conductor*%
G36*
X179732280Y-111145185D02*
G01*
X179778035Y-111197989D01*
X179787979Y-111267147D01*
X179758954Y-111330703D01*
X179752922Y-111337181D01*
X177641208Y-113448894D01*
X177628951Y-113458715D01*
X177629134Y-113458936D01*
X177623123Y-113463908D01*
X177575772Y-113514331D01*
X177554889Y-113535214D01*
X177554877Y-113535227D01*
X177550621Y-113540712D01*
X177546837Y-113545142D01*
X177514937Y-113579113D01*
X177514936Y-113579115D01*
X177505284Y-113596671D01*
X177494610Y-113612921D01*
X177482329Y-113628756D01*
X177482324Y-113628763D01*
X177463815Y-113671533D01*
X177461245Y-113676779D01*
X177438803Y-113717601D01*
X177433822Y-113737002D01*
X177427521Y-113755405D01*
X177419562Y-113773797D01*
X177419561Y-113773800D01*
X177412271Y-113819822D01*
X177411087Y-113825541D01*
X177399501Y-113870667D01*
X177399500Y-113870677D01*
X177399500Y-113890711D01*
X177397973Y-113910110D01*
X177395951Y-113922879D01*
X177394840Y-113929891D01*
X177396766Y-113950260D01*
X177399225Y-113976278D01*
X177399500Y-113982116D01*
X177399500Y-114467560D01*
X177397775Y-114483177D01*
X177398061Y-114483204D01*
X177397326Y-114490970D01*
X177399500Y-114560119D01*
X177399500Y-114589648D01*
X177399501Y-114589665D01*
X177400368Y-114596536D01*
X177400826Y-114602355D01*
X177402290Y-114648929D01*
X177402291Y-114648932D01*
X177407880Y-114668172D01*
X177411824Y-114687216D01*
X177414336Y-114707097D01*
X177429084Y-114744346D01*
X177431490Y-114750424D01*
X177433382Y-114755952D01*
X177446381Y-114800693D01*
X177456580Y-114817939D01*
X177465136Y-114835405D01*
X177471458Y-114851371D01*
X177472514Y-114854037D01*
X177499898Y-114891728D01*
X177503106Y-114896612D01*
X177526827Y-114936721D01*
X177526833Y-114936729D01*
X177540990Y-114950885D01*
X177553628Y-114965681D01*
X177565405Y-114981891D01*
X177570747Y-114987579D01*
X177568377Y-114989804D01*
X177599134Y-115035340D01*
X177600730Y-115105192D01*
X177573136Y-115155957D01*
X177517466Y-115217785D01*
X177422821Y-115381715D01*
X177422818Y-115381722D01*
X177368375Y-115549281D01*
X177364326Y-115561744D01*
X177344540Y-115750000D01*
X177364326Y-115938256D01*
X177364327Y-115938259D01*
X177422818Y-116118277D01*
X177422821Y-116118284D01*
X177517467Y-116282216D01*
X177535396Y-116302128D01*
X177592650Y-116365715D01*
X177622880Y-116428706D01*
X177624500Y-116448687D01*
X177624500Y-119351383D01*
X177604815Y-119418422D01*
X177552011Y-119464177D01*
X177482853Y-119474121D01*
X177450064Y-119464662D01*
X177279807Y-119388857D01*
X177279802Y-119388855D01*
X177134001Y-119357865D01*
X177094646Y-119349500D01*
X176905354Y-119349500D01*
X176872897Y-119356398D01*
X176720197Y-119388855D01*
X176720192Y-119388857D01*
X176547270Y-119465848D01*
X176547265Y-119465851D01*
X176394129Y-119577111D01*
X176267466Y-119717785D01*
X176172821Y-119881715D01*
X176172818Y-119881722D01*
X176128001Y-120019656D01*
X176114326Y-120061744D01*
X176094540Y-120250000D01*
X176114326Y-120438256D01*
X176114327Y-120438259D01*
X176172818Y-120618277D01*
X176172821Y-120618284D01*
X176267467Y-120782216D01*
X176307876Y-120827095D01*
X176342649Y-120865714D01*
X176372879Y-120928705D01*
X176374499Y-120948686D01*
X176374499Y-121667261D01*
X176372776Y-121682878D01*
X176373060Y-121682905D01*
X176372326Y-121690664D01*
X176374500Y-121759814D01*
X176374500Y-121789343D01*
X176374501Y-121789360D01*
X176375368Y-121796231D01*
X176375826Y-121802050D01*
X176377290Y-121848624D01*
X176377291Y-121848627D01*
X176382880Y-121867867D01*
X176386824Y-121886911D01*
X176389336Y-121906792D01*
X176397798Y-121928165D01*
X176406490Y-121950119D01*
X176408382Y-121955647D01*
X176419551Y-121994091D01*
X176421382Y-122000390D01*
X176421633Y-122000815D01*
X176431580Y-122017634D01*
X176440138Y-122035103D01*
X176447514Y-122053732D01*
X176474898Y-122091423D01*
X176478106Y-122096307D01*
X176501827Y-122136416D01*
X176501833Y-122136424D01*
X176515990Y-122150580D01*
X176528627Y-122165375D01*
X176540406Y-122181587D01*
X176571351Y-122207187D01*
X176576309Y-122211288D01*
X176580620Y-122215210D01*
X180517818Y-126152409D01*
X181828228Y-127462819D01*
X181861713Y-127524142D01*
X181856729Y-127593834D01*
X181814857Y-127649767D01*
X181749393Y-127674184D01*
X181740547Y-127674500D01*
X174940092Y-127674500D01*
X174873053Y-127654815D01*
X174827298Y-127602011D01*
X174817354Y-127532853D01*
X174831430Y-127490762D01*
X174836197Y-127482092D01*
X174841180Y-127462680D01*
X174847481Y-127444280D01*
X174855437Y-127425896D01*
X174862729Y-127379852D01*
X174863906Y-127374171D01*
X174875500Y-127329019D01*
X174875500Y-127308982D01*
X174877027Y-127289582D01*
X174878250Y-127281862D01*
X174880160Y-127269804D01*
X174875775Y-127223415D01*
X174875500Y-127217577D01*
X174875500Y-115032737D01*
X174877224Y-115017124D01*
X174876938Y-115017097D01*
X174877671Y-115009335D01*
X174877672Y-115009332D01*
X174875499Y-114940203D01*
X174875500Y-114910650D01*
X174874629Y-114903758D01*
X174874172Y-114897946D01*
X174873977Y-114891728D01*
X174872709Y-114851373D01*
X174867121Y-114832139D01*
X174863174Y-114813081D01*
X174860664Y-114793208D01*
X174845913Y-114755952D01*
X174843507Y-114749875D01*
X174841614Y-114744346D01*
X174829222Y-114701692D01*
X174828617Y-114699610D01*
X174818420Y-114682368D01*
X174809863Y-114664902D01*
X174802486Y-114646268D01*
X174775083Y-114608550D01*
X174771900Y-114603705D01*
X174748170Y-114563579D01*
X174748165Y-114563573D01*
X174734005Y-114549413D01*
X174721370Y-114534620D01*
X174709593Y-114518412D01*
X174673693Y-114488713D01*
X174669381Y-114484790D01*
X173636818Y-113452227D01*
X173603333Y-113390904D01*
X173600499Y-113364546D01*
X173600499Y-111249500D01*
X173620184Y-111182461D01*
X173672988Y-111136706D01*
X173724499Y-111125500D01*
X179665241Y-111125500D01*
X179732280Y-111145185D01*
G37*
%TD.AperFunction*%
%TA.AperFunction,Conductor*%
G36*
X201439401Y-125388679D02*
G01*
X201489891Y-125419289D01*
X201804334Y-125733732D01*
X201814159Y-125745995D01*
X201814380Y-125745813D01*
X201819351Y-125751822D01*
X201845354Y-125776239D01*
X201869772Y-125799170D01*
X201890666Y-125820064D01*
X201896148Y-125824317D01*
X201900580Y-125828101D01*
X201934555Y-125860006D01*
X201952113Y-125869658D01*
X201968370Y-125880337D01*
X201984201Y-125892617D01*
X202003874Y-125901130D01*
X202026970Y-125911126D01*
X202032214Y-125913694D01*
X202073045Y-125936141D01*
X202085660Y-125939379D01*
X202092442Y-125941121D01*
X202110856Y-125947425D01*
X202129241Y-125955382D01*
X202175294Y-125962676D01*
X202180963Y-125963850D01*
X202226118Y-125975444D01*
X202246153Y-125975444D01*
X202265550Y-125976970D01*
X202285333Y-125980104D01*
X202331720Y-125975719D01*
X202337559Y-125975444D01*
X202477417Y-125975444D01*
X202544456Y-125995129D01*
X202551728Y-126000177D01*
X202564368Y-126009639D01*
X202564371Y-126009641D01*
X202699217Y-126059935D01*
X202699215Y-126059935D01*
X202739673Y-126064285D01*
X202804224Y-126091023D01*
X202844072Y-126148416D01*
X202849738Y-126200533D01*
X202844540Y-126249998D01*
X202844540Y-126250000D01*
X202864326Y-126438256D01*
X202864327Y-126438259D01*
X202922818Y-126618277D01*
X202922823Y-126618289D01*
X202963360Y-126688501D01*
X202979833Y-126756401D01*
X202956980Y-126822428D01*
X202902059Y-126865618D01*
X202855973Y-126874500D01*
X200130459Y-126874500D01*
X200063420Y-126854815D01*
X200023072Y-126812499D01*
X199982536Y-126742288D01*
X199982534Y-126742285D01*
X199855870Y-126601611D01*
X199786310Y-126551073D01*
X199743644Y-126495743D01*
X199737665Y-126426130D01*
X199770271Y-126364335D01*
X199771444Y-126363144D01*
X200445570Y-125689018D01*
X200506891Y-125655535D01*
X200559026Y-125655411D01*
X200598555Y-125663813D01*
X200598557Y-125663813D01*
X200787845Y-125663813D01*
X200787847Y-125663813D01*
X200973004Y-125624457D01*
X201145931Y-125547464D01*
X201299072Y-125436201D01*
X201310057Y-125424000D01*
X201369544Y-125387350D01*
X201439401Y-125388679D01*
G37*
%TD.AperFunction*%
%TA.AperFunction,Conductor*%
G36*
X199732585Y-116670185D02*
G01*
X199778340Y-116722989D01*
X199788284Y-116792147D01*
X199759259Y-116855703D01*
X199753227Y-116862181D01*
X198616208Y-117999199D01*
X198603951Y-118009020D01*
X198604134Y-118009241D01*
X198598123Y-118014213D01*
X198550772Y-118064636D01*
X198529889Y-118085518D01*
X198529877Y-118085532D01*
X198525621Y-118091017D01*
X198521837Y-118095447D01*
X198489937Y-118129418D01*
X198489936Y-118129420D01*
X198480284Y-118146976D01*
X198469610Y-118163226D01*
X198457329Y-118179061D01*
X198457324Y-118179068D01*
X198438815Y-118221838D01*
X198436245Y-118227084D01*
X198413803Y-118267906D01*
X198408822Y-118287307D01*
X198402521Y-118305710D01*
X198394562Y-118324102D01*
X198394561Y-118324105D01*
X198387271Y-118370127D01*
X198386087Y-118375846D01*
X198374501Y-118420972D01*
X198374499Y-118420984D01*
X198374499Y-118441020D01*
X198372973Y-118460411D01*
X198369840Y-118480194D01*
X198369839Y-118480197D01*
X198374224Y-118526585D01*
X198374499Y-118532421D01*
X198374500Y-123448703D01*
X198354815Y-123515742D01*
X198338181Y-123536384D01*
X197905480Y-123969086D01*
X197844157Y-124002571D01*
X197774466Y-123997587D01*
X197718532Y-123955716D01*
X197694115Y-123890251D01*
X197693799Y-123881405D01*
X197693799Y-123786201D01*
X197693799Y-123786200D01*
X197688642Y-123738226D01*
X197688643Y-123711720D01*
X197689773Y-123701218D01*
X197693800Y-123663759D01*
X197693799Y-123136214D01*
X197688390Y-123085896D01*
X197688391Y-123059392D01*
X197693299Y-123013744D01*
X197693300Y-123013727D01*
X197693300Y-122965899D01*
X197683347Y-122955947D01*
X197650202Y-122946215D01*
X197617975Y-122916211D01*
X197549178Y-122824311D01*
X197524760Y-122758847D01*
X197539611Y-122690574D01*
X197549178Y-122675689D01*
X197617975Y-122583789D01*
X197673909Y-122541918D01*
X197688029Y-122539370D01*
X197693300Y-122534100D01*
X197693300Y-122486272D01*
X197693299Y-122486255D01*
X197688391Y-122440606D01*
X197688391Y-122414094D01*
X197693799Y-122363794D01*
X197693800Y-122363787D01*
X197693799Y-121836242D01*
X197693798Y-121836240D01*
X197693798Y-121836225D01*
X197688758Y-121789350D01*
X197688642Y-121788277D01*
X197688642Y-121761775D01*
X197693800Y-121713801D01*
X197693799Y-121186256D01*
X197688642Y-121138282D01*
X197688643Y-121111776D01*
X197689485Y-121103950D01*
X197693800Y-121063815D01*
X197693799Y-120536270D01*
X197693798Y-120536268D01*
X197693798Y-120536253D01*
X197688643Y-120488307D01*
X197688642Y-120461803D01*
X197693800Y-120413829D01*
X197693799Y-119886284D01*
X197688642Y-119838310D01*
X197688643Y-119811804D01*
X197689123Y-119807347D01*
X197693800Y-119763843D01*
X197693799Y-119236298D01*
X197693798Y-119236296D01*
X197693798Y-119236281D01*
X197688643Y-119188335D01*
X197688642Y-119161831D01*
X197693800Y-119113857D01*
X197693799Y-118586312D01*
X197688642Y-118538338D01*
X197688643Y-118511832D01*
X197692045Y-118480197D01*
X197693800Y-118463871D01*
X197693799Y-117936326D01*
X197693798Y-117936324D01*
X197693798Y-117936309D01*
X197688643Y-117888363D01*
X197688642Y-117861859D01*
X197693800Y-117813885D01*
X197693799Y-117554468D01*
X197713483Y-117487430D01*
X197744911Y-117454153D01*
X197747032Y-117452612D01*
X197784749Y-117425208D01*
X197789605Y-117422018D01*
X197829720Y-117398296D01*
X197843889Y-117384125D01*
X197858679Y-117371494D01*
X197874887Y-117359720D01*
X197904599Y-117323802D01*
X197908512Y-117319502D01*
X198541197Y-116686819D01*
X198602521Y-116653334D01*
X198628879Y-116650500D01*
X199665546Y-116650500D01*
X199732585Y-116670185D01*
G37*
%TD.AperFunction*%
%TA.AperFunction,Conductor*%
G36*
X199824352Y-111145185D02*
G01*
X199844994Y-111161819D01*
X199855981Y-111172806D01*
X199889466Y-111234129D01*
X199892300Y-111260487D01*
X199892300Y-111556648D01*
X199898713Y-111627227D01*
X199898713Y-111627229D01*
X199898714Y-111627231D01*
X199949322Y-111789641D01*
X200035190Y-111931684D01*
X200037330Y-111935223D01*
X200139461Y-112037354D01*
X200172946Y-112098677D01*
X200167962Y-112168369D01*
X200139461Y-112212716D01*
X200037331Y-112314845D01*
X200037330Y-112314846D01*
X200029885Y-112327162D01*
X199961861Y-112439686D01*
X199910335Y-112486872D01*
X199855746Y-112499535D01*
X199267299Y-112499535D01*
X199200260Y-112479850D01*
X199154505Y-112427046D01*
X199143299Y-112375535D01*
X199143299Y-112327164D01*
X199143298Y-112327158D01*
X199143297Y-112327151D01*
X199136891Y-112267552D01*
X199119897Y-112221990D01*
X199086597Y-112132706D01*
X199086593Y-112132699D01*
X199000347Y-112017490D01*
X199000344Y-112017487D01*
X198885135Y-111931241D01*
X198885128Y-111931237D01*
X198750286Y-111880945D01*
X198750285Y-111880944D01*
X198750283Y-111880944D01*
X198690673Y-111874535D01*
X198690663Y-111874535D01*
X198044929Y-111874535D01*
X198044923Y-111874536D01*
X197985316Y-111880943D01*
X197850471Y-111931237D01*
X197850464Y-111931241D01*
X197735255Y-112017487D01*
X197735252Y-112017490D01*
X197649006Y-112132699D01*
X197649002Y-112132706D01*
X197598708Y-112267552D01*
X197593050Y-112320185D01*
X197592301Y-112327158D01*
X197592300Y-112327170D01*
X197592300Y-113922905D01*
X197592301Y-113922911D01*
X197598708Y-113982518D01*
X197649002Y-114117363D01*
X197649006Y-114117370D01*
X197735252Y-114232579D01*
X197735255Y-114232582D01*
X197850464Y-114318828D01*
X197850471Y-114318832D01*
X197895418Y-114335595D01*
X197985317Y-114369126D01*
X198044927Y-114375535D01*
X198690672Y-114375534D01*
X198750283Y-114369126D01*
X198885131Y-114318831D01*
X199000346Y-114232581D01*
X199086596Y-114117366D01*
X199136891Y-113982518D01*
X199143300Y-113922908D01*
X199143300Y-113874535D01*
X199162985Y-113807496D01*
X199215789Y-113761741D01*
X199267300Y-113750535D01*
X199916803Y-113750535D01*
X199983842Y-113770220D01*
X200029597Y-113823024D01*
X200039541Y-113892182D01*
X200022921Y-113938681D01*
X199998435Y-113979187D01*
X199949322Y-114060428D01*
X199898713Y-114222842D01*
X199892299Y-114293421D01*
X199892300Y-114750500D01*
X199872615Y-114817539D01*
X199819811Y-114863294D01*
X199768300Y-114874500D01*
X194082743Y-114874500D01*
X194067122Y-114872775D01*
X194067095Y-114873061D01*
X194059333Y-114872326D01*
X193990172Y-114874500D01*
X193960649Y-114874500D01*
X193953778Y-114875367D01*
X193947959Y-114875825D01*
X193901374Y-114877289D01*
X193901368Y-114877290D01*
X193882126Y-114882880D01*
X193863087Y-114886823D01*
X193843217Y-114889334D01*
X193843203Y-114889337D01*
X193799883Y-114906488D01*
X193794358Y-114908380D01*
X193749613Y-114921380D01*
X193749610Y-114921381D01*
X193732366Y-114931579D01*
X193714905Y-114940133D01*
X193696274Y-114947510D01*
X193696262Y-114947517D01*
X193658570Y-114974902D01*
X193653687Y-114978109D01*
X193613580Y-115001829D01*
X193599414Y-115015995D01*
X193584624Y-115028627D01*
X193568414Y-115040404D01*
X193568411Y-115040407D01*
X193538710Y-115076309D01*
X193534777Y-115080631D01*
X192757812Y-115857596D01*
X192696489Y-115891081D01*
X192626797Y-115886097D01*
X192578910Y-115851227D01*
X192578075Y-115852063D01*
X192563339Y-115837327D01*
X192529854Y-115776004D01*
X192534838Y-115706312D01*
X192563345Y-115661959D01*
X192572573Y-115652731D01*
X192661542Y-115508492D01*
X192661547Y-115508481D01*
X192714855Y-115347606D01*
X192724999Y-115248322D01*
X192725000Y-115248309D01*
X192725000Y-115225000D01*
X190775001Y-115225000D01*
X190775001Y-115248322D01*
X190785144Y-115347607D01*
X190838452Y-115508481D01*
X190838457Y-115508492D01*
X190927424Y-115652728D01*
X190927427Y-115652732D01*
X190936660Y-115661965D01*
X190970145Y-115723288D01*
X190965161Y-115792980D01*
X190936663Y-115837324D01*
X190927031Y-115846955D01*
X190922720Y-115852409D01*
X190865699Y-115892787D01*
X190825453Y-115899500D01*
X190533811Y-115899500D01*
X190466772Y-115879815D01*
X190446130Y-115863181D01*
X190309981Y-115727032D01*
X190223009Y-115640059D01*
X190189525Y-115578738D01*
X190194509Y-115509046D01*
X190223494Y-115468315D01*
X190221534Y-115466475D01*
X190226875Y-115460786D01*
X190226877Y-115460786D01*
X190266668Y-115418413D01*
X190274227Y-115410364D01*
X190284671Y-115399918D01*
X190295120Y-115389471D01*
X190299379Y-115383978D01*
X190303152Y-115379561D01*
X190335062Y-115345582D01*
X190344713Y-115328024D01*
X190355396Y-115311761D01*
X190367673Y-115295936D01*
X190386185Y-115253153D01*
X190388738Y-115247941D01*
X190411197Y-115207092D01*
X190416180Y-115187680D01*
X190422481Y-115169280D01*
X190430437Y-115150896D01*
X190437729Y-115104852D01*
X190438906Y-115099171D01*
X190450500Y-115054019D01*
X190450500Y-115033983D01*
X190452027Y-115014582D01*
X190455160Y-114994804D01*
X190450775Y-114948415D01*
X190450500Y-114942577D01*
X190450500Y-114725000D01*
X190775000Y-114725000D01*
X191500000Y-114725000D01*
X191500000Y-114025000D01*
X192000000Y-114025000D01*
X192000000Y-114725000D01*
X192724999Y-114725000D01*
X192724999Y-114701692D01*
X192724998Y-114701677D01*
X192714855Y-114602392D01*
X192661547Y-114441518D01*
X192661542Y-114441507D01*
X192572575Y-114297271D01*
X192572572Y-114297267D01*
X192452732Y-114177427D01*
X192452728Y-114177424D01*
X192308492Y-114088457D01*
X192308481Y-114088452D01*
X192147606Y-114035144D01*
X192048322Y-114025000D01*
X192000000Y-114025000D01*
X191500000Y-114025000D01*
X191499999Y-114024999D01*
X191451693Y-114025000D01*
X191451675Y-114025001D01*
X191352392Y-114035144D01*
X191191518Y-114088452D01*
X191191507Y-114088457D01*
X191047271Y-114177424D01*
X191047267Y-114177427D01*
X190927427Y-114297267D01*
X190927424Y-114297271D01*
X190838457Y-114441507D01*
X190838452Y-114441518D01*
X190785144Y-114602393D01*
X190775000Y-114701677D01*
X190775000Y-114725000D01*
X190450500Y-114725000D01*
X190450500Y-113407737D01*
X190452224Y-113392123D01*
X190451938Y-113392096D01*
X190452672Y-113384333D01*
X190452380Y-113375035D01*
X194342800Y-113375035D01*
X194342800Y-113922879D01*
X194349201Y-113982407D01*
X194349203Y-113982414D01*
X194399445Y-114117121D01*
X194399449Y-114117128D01*
X194485609Y-114232222D01*
X194485612Y-114232225D01*
X194600706Y-114318385D01*
X194600713Y-114318389D01*
X194735420Y-114368631D01*
X194735427Y-114368633D01*
X194794955Y-114375034D01*
X194794972Y-114375035D01*
X194867800Y-114375035D01*
X194867800Y-113375035D01*
X195367800Y-113375035D01*
X195367800Y-114375035D01*
X195440628Y-114375035D01*
X195440644Y-114375034D01*
X195500172Y-114368633D01*
X195500179Y-114368631D01*
X195634886Y-114318389D01*
X195634893Y-114318385D01*
X195749987Y-114232225D01*
X195749990Y-114232222D01*
X195836150Y-114117128D01*
X195836154Y-114117121D01*
X195886396Y-113982414D01*
X195886398Y-113982407D01*
X195892799Y-113922879D01*
X195892800Y-113922862D01*
X195892800Y-113375035D01*
X195367800Y-113375035D01*
X194867800Y-113375035D01*
X194342800Y-113375035D01*
X190452380Y-113375035D01*
X190450500Y-113315202D01*
X190450500Y-113285651D01*
X190450500Y-113285650D01*
X190449629Y-113278759D01*
X190449172Y-113272945D01*
X190447709Y-113226374D01*
X190447709Y-113226372D01*
X190442120Y-113207137D01*
X190438174Y-113188084D01*
X190435664Y-113168208D01*
X190418501Y-113124859D01*
X190416614Y-113119346D01*
X190407638Y-113088452D01*
X190403617Y-113074610D01*
X190393421Y-113057369D01*
X190384860Y-113039893D01*
X190378964Y-113025001D01*
X190377486Y-113021268D01*
X190377486Y-113021267D01*
X190367474Y-113007488D01*
X190350083Y-112983550D01*
X190346900Y-112978705D01*
X190323170Y-112938579D01*
X190323165Y-112938573D01*
X190309005Y-112924413D01*
X190296370Y-112909620D01*
X190284593Y-112893412D01*
X190262379Y-112875035D01*
X194342800Y-112875035D01*
X194867800Y-112875035D01*
X194867800Y-111875035D01*
X195367800Y-111875035D01*
X195367800Y-112875035D01*
X195892800Y-112875035D01*
X195892800Y-112327207D01*
X195892799Y-112327190D01*
X195886398Y-112267662D01*
X195886396Y-112267655D01*
X195836154Y-112132948D01*
X195836150Y-112132941D01*
X195749990Y-112017847D01*
X195749987Y-112017844D01*
X195634893Y-111931684D01*
X195634886Y-111931680D01*
X195500179Y-111881438D01*
X195500172Y-111881436D01*
X195440644Y-111875035D01*
X195367800Y-111875035D01*
X194867800Y-111875035D01*
X194794955Y-111875035D01*
X194735427Y-111881436D01*
X194735420Y-111881438D01*
X194600713Y-111931680D01*
X194600706Y-111931684D01*
X194485612Y-112017844D01*
X194485609Y-112017847D01*
X194399449Y-112132941D01*
X194399445Y-112132948D01*
X194349203Y-112267655D01*
X194349201Y-112267662D01*
X194342800Y-112327190D01*
X194342800Y-112875035D01*
X190262379Y-112875035D01*
X190248693Y-112863713D01*
X190244381Y-112859790D01*
X188721772Y-111337181D01*
X188688287Y-111275858D01*
X188693271Y-111206166D01*
X188735143Y-111150233D01*
X188800607Y-111125816D01*
X188809453Y-111125500D01*
X199757313Y-111125500D01*
X199824352Y-111145185D01*
G37*
%TD.AperFunction*%
%TA.AperFunction,Conductor*%
G36*
X204331622Y-111220220D02*
G01*
X204352264Y-111236854D01*
X205138181Y-112022771D01*
X205171666Y-112084094D01*
X205174500Y-112110452D01*
X205174500Y-114101000D01*
X205154815Y-114168039D01*
X205102011Y-114213794D01*
X205050500Y-114225000D01*
X204025001Y-114225000D01*
X204025001Y-114248322D01*
X204035144Y-114347607D01*
X204088452Y-114508481D01*
X204088457Y-114508492D01*
X204177424Y-114652728D01*
X204177427Y-114652732D01*
X204186660Y-114661965D01*
X204220145Y-114723288D01*
X204215161Y-114792980D01*
X204186663Y-114837324D01*
X204177033Y-114846953D01*
X204177029Y-114846959D01*
X204088001Y-114991294D01*
X204087997Y-114991303D01*
X204053083Y-115096665D01*
X204013309Y-115154110D01*
X203948793Y-115180932D01*
X203880018Y-115168616D01*
X203847696Y-115145341D01*
X203379618Y-114677263D01*
X203346133Y-114615940D01*
X203343299Y-114589582D01*
X203343299Y-114467560D01*
X203343300Y-114293419D01*
X203336886Y-114222839D01*
X203286278Y-114060429D01*
X203199655Y-113917138D01*
X203181819Y-113849586D01*
X203203336Y-113783112D01*
X203240671Y-113747454D01*
X203277075Y-113725000D01*
X204025000Y-113725000D01*
X204750000Y-113725000D01*
X204750000Y-113025000D01*
X204749999Y-113024999D01*
X204701693Y-113025000D01*
X204701675Y-113025001D01*
X204602392Y-113035144D01*
X204441518Y-113088452D01*
X204441507Y-113088457D01*
X204297271Y-113177424D01*
X204297267Y-113177427D01*
X204177427Y-113297267D01*
X204177424Y-113297271D01*
X204088457Y-113441507D01*
X204088452Y-113441518D01*
X204035144Y-113602393D01*
X204025000Y-113701677D01*
X204025000Y-113725000D01*
X203277075Y-113725000D01*
X203320844Y-113698003D01*
X203440768Y-113578079D01*
X203529803Y-113433732D01*
X203583149Y-113272743D01*
X203593300Y-113173380D01*
X203593299Y-112626691D01*
X203583149Y-112527327D01*
X203529803Y-112366338D01*
X203529799Y-112366332D01*
X203529798Y-112366329D01*
X203440770Y-112221994D01*
X203440767Y-112221990D01*
X203431139Y-112212362D01*
X203397654Y-112151039D01*
X203402638Y-112081347D01*
X203431145Y-112036994D01*
X203440373Y-112027766D01*
X203529342Y-111883527D01*
X203529347Y-111883516D01*
X203582655Y-111722641D01*
X203592799Y-111623357D01*
X203592800Y-111623344D01*
X203592800Y-111600035D01*
X202491800Y-111600035D01*
X202424761Y-111580350D01*
X202379006Y-111527546D01*
X202367800Y-111476035D01*
X202367800Y-111324535D01*
X202387485Y-111257496D01*
X202440289Y-111211741D01*
X202491800Y-111200535D01*
X204264583Y-111200535D01*
X204331622Y-111220220D01*
G37*
%TD.AperFunction*%
%TA.AperFunction,Conductor*%
G36*
X181292539Y-112320185D02*
G01*
X181338294Y-112372989D01*
X181349500Y-112424500D01*
X181349500Y-112917511D01*
X181349501Y-113226000D01*
X181329817Y-113293039D01*
X181277013Y-113338794D01*
X181225501Y-113350000D01*
X181000000Y-113350000D01*
X181000000Y-114376000D01*
X180980315Y-114443039D01*
X180927511Y-114488794D01*
X180876000Y-114500000D01*
X180682015Y-114500000D01*
X180614976Y-114480315D01*
X180597132Y-114466392D01*
X180595589Y-114464943D01*
X180595583Y-114464939D01*
X180595582Y-114464938D01*
X180578030Y-114455288D01*
X180561763Y-114444604D01*
X180545936Y-114432327D01*
X180545935Y-114432326D01*
X180545933Y-114432325D01*
X180503168Y-114413818D01*
X180497922Y-114411248D01*
X180457093Y-114388803D01*
X180457092Y-114388802D01*
X180437693Y-114383822D01*
X180419281Y-114377518D01*
X180400898Y-114369562D01*
X180400892Y-114369560D01*
X180354874Y-114362272D01*
X180349152Y-114361087D01*
X180304021Y-114349500D01*
X180304019Y-114349500D01*
X180283984Y-114349500D01*
X180264586Y-114347973D01*
X180257162Y-114346797D01*
X180244805Y-114344840D01*
X180244804Y-114344840D01*
X180198416Y-114349225D01*
X180192578Y-114349500D01*
X178809147Y-114349500D01*
X178742108Y-114329815D01*
X178696353Y-114277011D01*
X178686409Y-114207853D01*
X178715434Y-114144297D01*
X178721466Y-114137819D01*
X179011415Y-113847870D01*
X179335175Y-113524109D01*
X179396496Y-113490626D01*
X179466187Y-113495610D01*
X179522121Y-113537481D01*
X179546538Y-113602946D01*
X179539036Y-113655124D01*
X179506403Y-113742616D01*
X179506401Y-113742627D01*
X179500000Y-113802155D01*
X179500000Y-114000000D01*
X180500000Y-114000000D01*
X180500000Y-113350000D01*
X179952155Y-113350000D01*
X179892627Y-113356401D01*
X179892616Y-113356403D01*
X179805124Y-113389036D01*
X179735432Y-113394020D01*
X179674110Y-113360534D01*
X179640625Y-113299211D01*
X179645611Y-113229519D01*
X179674109Y-113185175D01*
X180522466Y-112336818D01*
X180583789Y-112303334D01*
X180610147Y-112300500D01*
X181225500Y-112300500D01*
X181292539Y-112320185D01*
G37*
%TD.AperFunction*%
%TA.AperFunction,Conductor*%
G36*
X188355701Y-112740738D02*
G01*
X188362180Y-112746770D01*
X188963681Y-113348271D01*
X188997166Y-113409594D01*
X189000000Y-113435952D01*
X189000000Y-114376000D01*
X188980315Y-114443039D01*
X188927511Y-114488794D01*
X188876000Y-114500000D01*
X188624000Y-114500000D01*
X188556961Y-114480315D01*
X188511206Y-114427511D01*
X188500000Y-114376000D01*
X188500000Y-113350000D01*
X188274500Y-113350000D01*
X188207461Y-113330315D01*
X188161706Y-113277511D01*
X188150500Y-113226000D01*
X188150499Y-112834451D01*
X188170183Y-112767412D01*
X188222987Y-112721657D01*
X188292146Y-112711713D01*
X188355701Y-112740738D01*
G37*
%TD.AperFunction*%
%TD*%
M02*
