%TF.GenerationSoftware,KiCad,Pcbnew,7.0.6*%
%TF.CreationDate,2024-02-06T14:07:21+09:00*%
%TF.ProjectId,CO2_sensor,434f325f-7365-46e7-936f-722e6b696361,rev?*%
%TF.SameCoordinates,Original*%
%TF.FileFunction,Drillmap*%
%TF.FilePolarity,Positive*%
%FSLAX45Y45*%
G04 Gerber Fmt 4.5, Leading zero omitted, Abs format (unit mm)*
G04 Created by KiCad (PCBNEW 7.0.6) date 2024-02-06 14:07:21*
%MOMM*%
%LPD*%
G01*
G04 APERTURE LIST*
%ADD10C,0.100000*%
%ADD11C,0.200000*%
G04 APERTURE END LIST*
D10*
X16625000Y-11000000D02*
G75*
G03*
X16425000Y-11200000I0J-200000D01*
G01*
X20625000Y-11200000D02*
G75*
G03*
X20425000Y-11000000I-200000J0D01*
G01*
X20425000Y-13050000D02*
G75*
G03*
X20625000Y-12850000I0J200000D01*
G01*
X20625000Y-12850000D02*
X20625000Y-11200000D01*
X20425000Y-11000000D02*
X16625000Y-11000000D01*
X16425000Y-11200000D02*
X16425000Y-12850000D01*
X16625000Y-13050000D02*
X20425000Y-13050000D01*
X16425000Y-12850000D02*
G75*
G03*
X16625000Y-13050000I200000J0D01*
G01*
D11*
D10*
X16885000Y-11475000D02*
X16985000Y-11575000D01*
X16985000Y-11475000D02*
X16885000Y-11575000D01*
X16885000Y-12275000D02*
X16985000Y-12375000D01*
X16985000Y-12275000D02*
X16885000Y-12375000D01*
D11*
X16680777Y-13366484D02*
X16680777Y-13166484D01*
X16680777Y-13166484D02*
X16728396Y-13166484D01*
X16728396Y-13166484D02*
X16756967Y-13176008D01*
X16756967Y-13176008D02*
X16776015Y-13195055D01*
X16776015Y-13195055D02*
X16785539Y-13214103D01*
X16785539Y-13214103D02*
X16795063Y-13252198D01*
X16795063Y-13252198D02*
X16795063Y-13280769D01*
X16795063Y-13280769D02*
X16785539Y-13318865D01*
X16785539Y-13318865D02*
X16776015Y-13337912D01*
X16776015Y-13337912D02*
X16756967Y-13356960D01*
X16756967Y-13356960D02*
X16728396Y-13366484D01*
X16728396Y-13366484D02*
X16680777Y-13366484D01*
X16880777Y-13366484D02*
X16880777Y-13233150D01*
X16880777Y-13271246D02*
X16890301Y-13252198D01*
X16890301Y-13252198D02*
X16899824Y-13242674D01*
X16899824Y-13242674D02*
X16918872Y-13233150D01*
X16918872Y-13233150D02*
X16937920Y-13233150D01*
X17004586Y-13366484D02*
X17004586Y-13233150D01*
X17004586Y-13166484D02*
X16995063Y-13176008D01*
X16995063Y-13176008D02*
X17004586Y-13185531D01*
X17004586Y-13185531D02*
X17014110Y-13176008D01*
X17014110Y-13176008D02*
X17004586Y-13166484D01*
X17004586Y-13166484D02*
X17004586Y-13185531D01*
X17128396Y-13366484D02*
X17109348Y-13356960D01*
X17109348Y-13356960D02*
X17099824Y-13337912D01*
X17099824Y-13337912D02*
X17099824Y-13166484D01*
X17233158Y-13366484D02*
X17214110Y-13356960D01*
X17214110Y-13356960D02*
X17204586Y-13337912D01*
X17204586Y-13337912D02*
X17204586Y-13166484D01*
X17461729Y-13366484D02*
X17461729Y-13166484D01*
X17461729Y-13166484D02*
X17528396Y-13309341D01*
X17528396Y-13309341D02*
X17595063Y-13166484D01*
X17595063Y-13166484D02*
X17595063Y-13366484D01*
X17776015Y-13366484D02*
X17776015Y-13261722D01*
X17776015Y-13261722D02*
X17766491Y-13242674D01*
X17766491Y-13242674D02*
X17747444Y-13233150D01*
X17747444Y-13233150D02*
X17709348Y-13233150D01*
X17709348Y-13233150D02*
X17690301Y-13242674D01*
X17776015Y-13356960D02*
X17756967Y-13366484D01*
X17756967Y-13366484D02*
X17709348Y-13366484D01*
X17709348Y-13366484D02*
X17690301Y-13356960D01*
X17690301Y-13356960D02*
X17680777Y-13337912D01*
X17680777Y-13337912D02*
X17680777Y-13318865D01*
X17680777Y-13318865D02*
X17690301Y-13299817D01*
X17690301Y-13299817D02*
X17709348Y-13290293D01*
X17709348Y-13290293D02*
X17756967Y-13290293D01*
X17756967Y-13290293D02*
X17776015Y-13280769D01*
X17871253Y-13233150D02*
X17871253Y-13433150D01*
X17871253Y-13242674D02*
X17890301Y-13233150D01*
X17890301Y-13233150D02*
X17928396Y-13233150D01*
X17928396Y-13233150D02*
X17947444Y-13242674D01*
X17947444Y-13242674D02*
X17956967Y-13252198D01*
X17956967Y-13252198D02*
X17966491Y-13271246D01*
X17966491Y-13271246D02*
X17966491Y-13328388D01*
X17966491Y-13328388D02*
X17956967Y-13347436D01*
X17956967Y-13347436D02*
X17947444Y-13356960D01*
X17947444Y-13356960D02*
X17928396Y-13366484D01*
X17928396Y-13366484D02*
X17890301Y-13366484D01*
X17890301Y-13366484D02*
X17871253Y-13356960D01*
X18052205Y-13347436D02*
X18061729Y-13356960D01*
X18061729Y-13356960D02*
X18052205Y-13366484D01*
X18052205Y-13366484D02*
X18042682Y-13356960D01*
X18042682Y-13356960D02*
X18052205Y-13347436D01*
X18052205Y-13347436D02*
X18052205Y-13366484D01*
X18052205Y-13242674D02*
X18061729Y-13252198D01*
X18061729Y-13252198D02*
X18052205Y-13261722D01*
X18052205Y-13261722D02*
X18042682Y-13252198D01*
X18042682Y-13252198D02*
X18052205Y-13242674D01*
X18052205Y-13242674D02*
X18052205Y-13261722D01*
D10*
X16320000Y-13645000D02*
X16420000Y-13745000D01*
X16420000Y-13645000D02*
X16320000Y-13745000D01*
D11*
X16785539Y-13786484D02*
X16671253Y-13786484D01*
X16728396Y-13786484D02*
X16728396Y-13586484D01*
X16728396Y-13586484D02*
X16709348Y-13615055D01*
X16709348Y-13615055D02*
X16690301Y-13634103D01*
X16690301Y-13634103D02*
X16671253Y-13643627D01*
X16871253Y-13767436D02*
X16880777Y-13776960D01*
X16880777Y-13776960D02*
X16871253Y-13786484D01*
X16871253Y-13786484D02*
X16861729Y-13776960D01*
X16861729Y-13776960D02*
X16871253Y-13767436D01*
X16871253Y-13767436D02*
X16871253Y-13786484D01*
X17004586Y-13586484D02*
X17023634Y-13586484D01*
X17023634Y-13586484D02*
X17042682Y-13596008D01*
X17042682Y-13596008D02*
X17052205Y-13605531D01*
X17052205Y-13605531D02*
X17061729Y-13624579D01*
X17061729Y-13624579D02*
X17071253Y-13662674D01*
X17071253Y-13662674D02*
X17071253Y-13710293D01*
X17071253Y-13710293D02*
X17061729Y-13748388D01*
X17061729Y-13748388D02*
X17052205Y-13767436D01*
X17052205Y-13767436D02*
X17042682Y-13776960D01*
X17042682Y-13776960D02*
X17023634Y-13786484D01*
X17023634Y-13786484D02*
X17004586Y-13786484D01*
X17004586Y-13786484D02*
X16985539Y-13776960D01*
X16985539Y-13776960D02*
X16976015Y-13767436D01*
X16976015Y-13767436D02*
X16966491Y-13748388D01*
X16966491Y-13748388D02*
X16956967Y-13710293D01*
X16956967Y-13710293D02*
X16956967Y-13662674D01*
X16956967Y-13662674D02*
X16966491Y-13624579D01*
X16966491Y-13624579D02*
X16976015Y-13605531D01*
X16976015Y-13605531D02*
X16985539Y-13596008D01*
X16985539Y-13596008D02*
X17004586Y-13586484D01*
X17195063Y-13586484D02*
X17214110Y-13586484D01*
X17214110Y-13586484D02*
X17233158Y-13596008D01*
X17233158Y-13596008D02*
X17242682Y-13605531D01*
X17242682Y-13605531D02*
X17252205Y-13624579D01*
X17252205Y-13624579D02*
X17261729Y-13662674D01*
X17261729Y-13662674D02*
X17261729Y-13710293D01*
X17261729Y-13710293D02*
X17252205Y-13748388D01*
X17252205Y-13748388D02*
X17242682Y-13767436D01*
X17242682Y-13767436D02*
X17233158Y-13776960D01*
X17233158Y-13776960D02*
X17214110Y-13786484D01*
X17214110Y-13786484D02*
X17195063Y-13786484D01*
X17195063Y-13786484D02*
X17176015Y-13776960D01*
X17176015Y-13776960D02*
X17166491Y-13767436D01*
X17166491Y-13767436D02*
X17156967Y-13748388D01*
X17156967Y-13748388D02*
X17147444Y-13710293D01*
X17147444Y-13710293D02*
X17147444Y-13662674D01*
X17147444Y-13662674D02*
X17156967Y-13624579D01*
X17156967Y-13624579D02*
X17166491Y-13605531D01*
X17166491Y-13605531D02*
X17176015Y-13596008D01*
X17176015Y-13596008D02*
X17195063Y-13586484D01*
X17385539Y-13586484D02*
X17404586Y-13586484D01*
X17404586Y-13586484D02*
X17423634Y-13596008D01*
X17423634Y-13596008D02*
X17433158Y-13605531D01*
X17433158Y-13605531D02*
X17442682Y-13624579D01*
X17442682Y-13624579D02*
X17452205Y-13662674D01*
X17452205Y-13662674D02*
X17452205Y-13710293D01*
X17452205Y-13710293D02*
X17442682Y-13748388D01*
X17442682Y-13748388D02*
X17433158Y-13767436D01*
X17433158Y-13767436D02*
X17423634Y-13776960D01*
X17423634Y-13776960D02*
X17404586Y-13786484D01*
X17404586Y-13786484D02*
X17385539Y-13786484D01*
X17385539Y-13786484D02*
X17366491Y-13776960D01*
X17366491Y-13776960D02*
X17356967Y-13767436D01*
X17356967Y-13767436D02*
X17347444Y-13748388D01*
X17347444Y-13748388D02*
X17337920Y-13710293D01*
X17337920Y-13710293D02*
X17337920Y-13662674D01*
X17337920Y-13662674D02*
X17347444Y-13624579D01*
X17347444Y-13624579D02*
X17356967Y-13605531D01*
X17356967Y-13605531D02*
X17366491Y-13596008D01*
X17366491Y-13596008D02*
X17385539Y-13586484D01*
X17537920Y-13786484D02*
X17537920Y-13653150D01*
X17537920Y-13672198D02*
X17547444Y-13662674D01*
X17547444Y-13662674D02*
X17566491Y-13653150D01*
X17566491Y-13653150D02*
X17595063Y-13653150D01*
X17595063Y-13653150D02*
X17614110Y-13662674D01*
X17614110Y-13662674D02*
X17623634Y-13681722D01*
X17623634Y-13681722D02*
X17623634Y-13786484D01*
X17623634Y-13681722D02*
X17633158Y-13662674D01*
X17633158Y-13662674D02*
X17652205Y-13653150D01*
X17652205Y-13653150D02*
X17680777Y-13653150D01*
X17680777Y-13653150D02*
X17699825Y-13662674D01*
X17699825Y-13662674D02*
X17709348Y-13681722D01*
X17709348Y-13681722D02*
X17709348Y-13786484D01*
X17804586Y-13786484D02*
X17804586Y-13653150D01*
X17804586Y-13672198D02*
X17814110Y-13662674D01*
X17814110Y-13662674D02*
X17833158Y-13653150D01*
X17833158Y-13653150D02*
X17861729Y-13653150D01*
X17861729Y-13653150D02*
X17880777Y-13662674D01*
X17880777Y-13662674D02*
X17890301Y-13681722D01*
X17890301Y-13681722D02*
X17890301Y-13786484D01*
X17890301Y-13681722D02*
X17899825Y-13662674D01*
X17899825Y-13662674D02*
X17918872Y-13653150D01*
X17918872Y-13653150D02*
X17947444Y-13653150D01*
X17947444Y-13653150D02*
X17966491Y-13662674D01*
X17966491Y-13662674D02*
X17976015Y-13681722D01*
X17976015Y-13681722D02*
X17976015Y-13786484D01*
X18366491Y-13576960D02*
X18195063Y-13834103D01*
X18623634Y-13586484D02*
X18642682Y-13586484D01*
X18642682Y-13586484D02*
X18661729Y-13596008D01*
X18661729Y-13596008D02*
X18671253Y-13605531D01*
X18671253Y-13605531D02*
X18680777Y-13624579D01*
X18680777Y-13624579D02*
X18690301Y-13662674D01*
X18690301Y-13662674D02*
X18690301Y-13710293D01*
X18690301Y-13710293D02*
X18680777Y-13748388D01*
X18680777Y-13748388D02*
X18671253Y-13767436D01*
X18671253Y-13767436D02*
X18661729Y-13776960D01*
X18661729Y-13776960D02*
X18642682Y-13786484D01*
X18642682Y-13786484D02*
X18623634Y-13786484D01*
X18623634Y-13786484D02*
X18604587Y-13776960D01*
X18604587Y-13776960D02*
X18595063Y-13767436D01*
X18595063Y-13767436D02*
X18585539Y-13748388D01*
X18585539Y-13748388D02*
X18576015Y-13710293D01*
X18576015Y-13710293D02*
X18576015Y-13662674D01*
X18576015Y-13662674D02*
X18585539Y-13624579D01*
X18585539Y-13624579D02*
X18595063Y-13605531D01*
X18595063Y-13605531D02*
X18604587Y-13596008D01*
X18604587Y-13596008D02*
X18623634Y-13586484D01*
X18776015Y-13767436D02*
X18785539Y-13776960D01*
X18785539Y-13776960D02*
X18776015Y-13786484D01*
X18776015Y-13786484D02*
X18766491Y-13776960D01*
X18766491Y-13776960D02*
X18776015Y-13767436D01*
X18776015Y-13767436D02*
X18776015Y-13786484D01*
X18909348Y-13586484D02*
X18928396Y-13586484D01*
X18928396Y-13586484D02*
X18947444Y-13596008D01*
X18947444Y-13596008D02*
X18956968Y-13605531D01*
X18956968Y-13605531D02*
X18966491Y-13624579D01*
X18966491Y-13624579D02*
X18976015Y-13662674D01*
X18976015Y-13662674D02*
X18976015Y-13710293D01*
X18976015Y-13710293D02*
X18966491Y-13748388D01*
X18966491Y-13748388D02*
X18956968Y-13767436D01*
X18956968Y-13767436D02*
X18947444Y-13776960D01*
X18947444Y-13776960D02*
X18928396Y-13786484D01*
X18928396Y-13786484D02*
X18909348Y-13786484D01*
X18909348Y-13786484D02*
X18890301Y-13776960D01*
X18890301Y-13776960D02*
X18880777Y-13767436D01*
X18880777Y-13767436D02*
X18871253Y-13748388D01*
X18871253Y-13748388D02*
X18861729Y-13710293D01*
X18861729Y-13710293D02*
X18861729Y-13662674D01*
X18861729Y-13662674D02*
X18871253Y-13624579D01*
X18871253Y-13624579D02*
X18880777Y-13605531D01*
X18880777Y-13605531D02*
X18890301Y-13596008D01*
X18890301Y-13596008D02*
X18909348Y-13586484D01*
X19042682Y-13586484D02*
X19166491Y-13586484D01*
X19166491Y-13586484D02*
X19099825Y-13662674D01*
X19099825Y-13662674D02*
X19128396Y-13662674D01*
X19128396Y-13662674D02*
X19147444Y-13672198D01*
X19147444Y-13672198D02*
X19156968Y-13681722D01*
X19156968Y-13681722D02*
X19166491Y-13700769D01*
X19166491Y-13700769D02*
X19166491Y-13748388D01*
X19166491Y-13748388D02*
X19156968Y-13767436D01*
X19156968Y-13767436D02*
X19147444Y-13776960D01*
X19147444Y-13776960D02*
X19128396Y-13786484D01*
X19128396Y-13786484D02*
X19071253Y-13786484D01*
X19071253Y-13786484D02*
X19052206Y-13776960D01*
X19052206Y-13776960D02*
X19042682Y-13767436D01*
X19261729Y-13786484D02*
X19299825Y-13786484D01*
X19299825Y-13786484D02*
X19318872Y-13776960D01*
X19318872Y-13776960D02*
X19328396Y-13767436D01*
X19328396Y-13767436D02*
X19347444Y-13738865D01*
X19347444Y-13738865D02*
X19356968Y-13700769D01*
X19356968Y-13700769D02*
X19356968Y-13624579D01*
X19356968Y-13624579D02*
X19347444Y-13605531D01*
X19347444Y-13605531D02*
X19337920Y-13596008D01*
X19337920Y-13596008D02*
X19318872Y-13586484D01*
X19318872Y-13586484D02*
X19280777Y-13586484D01*
X19280777Y-13586484D02*
X19261729Y-13596008D01*
X19261729Y-13596008D02*
X19252206Y-13605531D01*
X19252206Y-13605531D02*
X19242682Y-13624579D01*
X19242682Y-13624579D02*
X19242682Y-13672198D01*
X19242682Y-13672198D02*
X19252206Y-13691246D01*
X19252206Y-13691246D02*
X19261729Y-13700769D01*
X19261729Y-13700769D02*
X19280777Y-13710293D01*
X19280777Y-13710293D02*
X19318872Y-13710293D01*
X19318872Y-13710293D02*
X19337920Y-13700769D01*
X19337920Y-13700769D02*
X19347444Y-13691246D01*
X19347444Y-13691246D02*
X19356968Y-13672198D01*
X19528396Y-13653150D02*
X19528396Y-13786484D01*
X19480777Y-13576960D02*
X19433158Y-13719817D01*
X19433158Y-13719817D02*
X19556968Y-13719817D01*
X19623634Y-13586484D02*
X19623634Y-13624579D01*
X19699825Y-13586484D02*
X19699825Y-13624579D01*
X19995063Y-13862674D02*
X19985539Y-13853150D01*
X19985539Y-13853150D02*
X19966491Y-13824579D01*
X19966491Y-13824579D02*
X19956968Y-13805531D01*
X19956968Y-13805531D02*
X19947444Y-13776960D01*
X19947444Y-13776960D02*
X19937920Y-13729341D01*
X19937920Y-13729341D02*
X19937920Y-13691246D01*
X19937920Y-13691246D02*
X19947444Y-13643627D01*
X19947444Y-13643627D02*
X19956968Y-13615055D01*
X19956968Y-13615055D02*
X19966491Y-13596008D01*
X19966491Y-13596008D02*
X19985539Y-13567436D01*
X19985539Y-13567436D02*
X19995063Y-13557912D01*
X20061730Y-13605531D02*
X20071253Y-13596008D01*
X20071253Y-13596008D02*
X20090301Y-13586484D01*
X20090301Y-13586484D02*
X20137920Y-13586484D01*
X20137920Y-13586484D02*
X20156968Y-13596008D01*
X20156968Y-13596008D02*
X20166491Y-13605531D01*
X20166491Y-13605531D02*
X20176015Y-13624579D01*
X20176015Y-13624579D02*
X20176015Y-13643627D01*
X20176015Y-13643627D02*
X20166491Y-13672198D01*
X20166491Y-13672198D02*
X20052206Y-13786484D01*
X20052206Y-13786484D02*
X20176015Y-13786484D01*
X20414111Y-13786484D02*
X20414111Y-13586484D01*
X20499825Y-13786484D02*
X20499825Y-13681722D01*
X20499825Y-13681722D02*
X20490301Y-13662674D01*
X20490301Y-13662674D02*
X20471253Y-13653150D01*
X20471253Y-13653150D02*
X20442682Y-13653150D01*
X20442682Y-13653150D02*
X20423634Y-13662674D01*
X20423634Y-13662674D02*
X20414111Y-13672198D01*
X20623634Y-13786484D02*
X20604587Y-13776960D01*
X20604587Y-13776960D02*
X20595063Y-13767436D01*
X20595063Y-13767436D02*
X20585539Y-13748388D01*
X20585539Y-13748388D02*
X20585539Y-13691246D01*
X20585539Y-13691246D02*
X20595063Y-13672198D01*
X20595063Y-13672198D02*
X20604587Y-13662674D01*
X20604587Y-13662674D02*
X20623634Y-13653150D01*
X20623634Y-13653150D02*
X20652206Y-13653150D01*
X20652206Y-13653150D02*
X20671253Y-13662674D01*
X20671253Y-13662674D02*
X20680777Y-13672198D01*
X20680777Y-13672198D02*
X20690301Y-13691246D01*
X20690301Y-13691246D02*
X20690301Y-13748388D01*
X20690301Y-13748388D02*
X20680777Y-13767436D01*
X20680777Y-13767436D02*
X20671253Y-13776960D01*
X20671253Y-13776960D02*
X20652206Y-13786484D01*
X20652206Y-13786484D02*
X20623634Y-13786484D01*
X20804587Y-13786484D02*
X20785539Y-13776960D01*
X20785539Y-13776960D02*
X20776015Y-13757912D01*
X20776015Y-13757912D02*
X20776015Y-13586484D01*
X20956968Y-13776960D02*
X20937920Y-13786484D01*
X20937920Y-13786484D02*
X20899825Y-13786484D01*
X20899825Y-13786484D02*
X20880777Y-13776960D01*
X20880777Y-13776960D02*
X20871253Y-13757912D01*
X20871253Y-13757912D02*
X20871253Y-13681722D01*
X20871253Y-13681722D02*
X20880777Y-13662674D01*
X20880777Y-13662674D02*
X20899825Y-13653150D01*
X20899825Y-13653150D02*
X20937920Y-13653150D01*
X20937920Y-13653150D02*
X20956968Y-13662674D01*
X20956968Y-13662674D02*
X20966492Y-13681722D01*
X20966492Y-13681722D02*
X20966492Y-13700769D01*
X20966492Y-13700769D02*
X20871253Y-13719817D01*
X21042682Y-13776960D02*
X21061730Y-13786484D01*
X21061730Y-13786484D02*
X21099825Y-13786484D01*
X21099825Y-13786484D02*
X21118873Y-13776960D01*
X21118873Y-13776960D02*
X21128396Y-13757912D01*
X21128396Y-13757912D02*
X21128396Y-13748388D01*
X21128396Y-13748388D02*
X21118873Y-13729341D01*
X21118873Y-13729341D02*
X21099825Y-13719817D01*
X21099825Y-13719817D02*
X21071253Y-13719817D01*
X21071253Y-13719817D02*
X21052206Y-13710293D01*
X21052206Y-13710293D02*
X21042682Y-13691246D01*
X21042682Y-13691246D02*
X21042682Y-13681722D01*
X21042682Y-13681722D02*
X21052206Y-13662674D01*
X21052206Y-13662674D02*
X21071253Y-13653150D01*
X21071253Y-13653150D02*
X21099825Y-13653150D01*
X21099825Y-13653150D02*
X21118873Y-13662674D01*
X21195063Y-13862674D02*
X21204587Y-13853150D01*
X21204587Y-13853150D02*
X21223634Y-13824579D01*
X21223634Y-13824579D02*
X21233158Y-13805531D01*
X21233158Y-13805531D02*
X21242682Y-13776960D01*
X21242682Y-13776960D02*
X21252206Y-13729341D01*
X21252206Y-13729341D02*
X21252206Y-13691246D01*
X21252206Y-13691246D02*
X21242682Y-13643627D01*
X21242682Y-13643627D02*
X21233158Y-13615055D01*
X21233158Y-13615055D02*
X21223634Y-13596008D01*
X21223634Y-13596008D02*
X21204587Y-13567436D01*
X21204587Y-13567436D02*
X21195063Y-13557912D01*
X21556968Y-13862674D02*
X21547444Y-13853150D01*
X21547444Y-13853150D02*
X21528396Y-13824579D01*
X21528396Y-13824579D02*
X21518873Y-13805531D01*
X21518873Y-13805531D02*
X21509349Y-13776960D01*
X21509349Y-13776960D02*
X21499825Y-13729341D01*
X21499825Y-13729341D02*
X21499825Y-13691246D01*
X21499825Y-13691246D02*
X21509349Y-13643627D01*
X21509349Y-13643627D02*
X21518873Y-13615055D01*
X21518873Y-13615055D02*
X21528396Y-13596008D01*
X21528396Y-13596008D02*
X21547444Y-13567436D01*
X21547444Y-13567436D02*
X21556968Y-13557912D01*
X21633158Y-13653150D02*
X21633158Y-13786484D01*
X21633158Y-13672198D02*
X21642682Y-13662674D01*
X21642682Y-13662674D02*
X21661730Y-13653150D01*
X21661730Y-13653150D02*
X21690301Y-13653150D01*
X21690301Y-13653150D02*
X21709349Y-13662674D01*
X21709349Y-13662674D02*
X21718873Y-13681722D01*
X21718873Y-13681722D02*
X21718873Y-13786484D01*
X21842682Y-13786484D02*
X21823634Y-13776960D01*
X21823634Y-13776960D02*
X21814111Y-13767436D01*
X21814111Y-13767436D02*
X21804587Y-13748388D01*
X21804587Y-13748388D02*
X21804587Y-13691246D01*
X21804587Y-13691246D02*
X21814111Y-13672198D01*
X21814111Y-13672198D02*
X21823634Y-13662674D01*
X21823634Y-13662674D02*
X21842682Y-13653150D01*
X21842682Y-13653150D02*
X21871254Y-13653150D01*
X21871254Y-13653150D02*
X21890301Y-13662674D01*
X21890301Y-13662674D02*
X21899825Y-13672198D01*
X21899825Y-13672198D02*
X21909349Y-13691246D01*
X21909349Y-13691246D02*
X21909349Y-13748388D01*
X21909349Y-13748388D02*
X21899825Y-13767436D01*
X21899825Y-13767436D02*
X21890301Y-13776960D01*
X21890301Y-13776960D02*
X21871254Y-13786484D01*
X21871254Y-13786484D02*
X21842682Y-13786484D01*
X21966492Y-13653150D02*
X22042682Y-13653150D01*
X21995063Y-13586484D02*
X21995063Y-13757912D01*
X21995063Y-13757912D02*
X22004587Y-13776960D01*
X22004587Y-13776960D02*
X22023634Y-13786484D01*
X22023634Y-13786484D02*
X22042682Y-13786484D01*
X22261730Y-13653150D02*
X22261730Y-13853150D01*
X22261730Y-13662674D02*
X22280777Y-13653150D01*
X22280777Y-13653150D02*
X22318873Y-13653150D01*
X22318873Y-13653150D02*
X22337920Y-13662674D01*
X22337920Y-13662674D02*
X22347444Y-13672198D01*
X22347444Y-13672198D02*
X22356968Y-13691246D01*
X22356968Y-13691246D02*
X22356968Y-13748388D01*
X22356968Y-13748388D02*
X22347444Y-13767436D01*
X22347444Y-13767436D02*
X22337920Y-13776960D01*
X22337920Y-13776960D02*
X22318873Y-13786484D01*
X22318873Y-13786484D02*
X22280777Y-13786484D01*
X22280777Y-13786484D02*
X22261730Y-13776960D01*
X22471253Y-13786484D02*
X22452206Y-13776960D01*
X22452206Y-13776960D02*
X22442682Y-13757912D01*
X22442682Y-13757912D02*
X22442682Y-13586484D01*
X22633158Y-13786484D02*
X22633158Y-13681722D01*
X22633158Y-13681722D02*
X22623634Y-13662674D01*
X22623634Y-13662674D02*
X22604587Y-13653150D01*
X22604587Y-13653150D02*
X22566492Y-13653150D01*
X22566492Y-13653150D02*
X22547444Y-13662674D01*
X22633158Y-13776960D02*
X22614111Y-13786484D01*
X22614111Y-13786484D02*
X22566492Y-13786484D01*
X22566492Y-13786484D02*
X22547444Y-13776960D01*
X22547444Y-13776960D02*
X22537920Y-13757912D01*
X22537920Y-13757912D02*
X22537920Y-13738865D01*
X22537920Y-13738865D02*
X22547444Y-13719817D01*
X22547444Y-13719817D02*
X22566492Y-13710293D01*
X22566492Y-13710293D02*
X22614111Y-13710293D01*
X22614111Y-13710293D02*
X22633158Y-13700769D01*
X22699825Y-13653150D02*
X22776015Y-13653150D01*
X22728396Y-13586484D02*
X22728396Y-13757912D01*
X22728396Y-13757912D02*
X22737920Y-13776960D01*
X22737920Y-13776960D02*
X22756968Y-13786484D01*
X22756968Y-13786484D02*
X22776015Y-13786484D01*
X22918873Y-13776960D02*
X22899825Y-13786484D01*
X22899825Y-13786484D02*
X22861730Y-13786484D01*
X22861730Y-13786484D02*
X22842682Y-13776960D01*
X22842682Y-13776960D02*
X22833158Y-13757912D01*
X22833158Y-13757912D02*
X22833158Y-13681722D01*
X22833158Y-13681722D02*
X22842682Y-13662674D01*
X22842682Y-13662674D02*
X22861730Y-13653150D01*
X22861730Y-13653150D02*
X22899825Y-13653150D01*
X22899825Y-13653150D02*
X22918873Y-13662674D01*
X22918873Y-13662674D02*
X22928396Y-13681722D01*
X22928396Y-13681722D02*
X22928396Y-13700769D01*
X22928396Y-13700769D02*
X22833158Y-13719817D01*
X23099825Y-13786484D02*
X23099825Y-13586484D01*
X23099825Y-13776960D02*
X23080777Y-13786484D01*
X23080777Y-13786484D02*
X23042682Y-13786484D01*
X23042682Y-13786484D02*
X23023634Y-13776960D01*
X23023634Y-13776960D02*
X23014111Y-13767436D01*
X23014111Y-13767436D02*
X23004587Y-13748388D01*
X23004587Y-13748388D02*
X23004587Y-13691246D01*
X23004587Y-13691246D02*
X23014111Y-13672198D01*
X23014111Y-13672198D02*
X23023634Y-13662674D01*
X23023634Y-13662674D02*
X23042682Y-13653150D01*
X23042682Y-13653150D02*
X23080777Y-13653150D01*
X23080777Y-13653150D02*
X23099825Y-13662674D01*
X23176015Y-13862674D02*
X23185539Y-13853150D01*
X23185539Y-13853150D02*
X23204587Y-13824579D01*
X23204587Y-13824579D02*
X23214111Y-13805531D01*
X23214111Y-13805531D02*
X23223634Y-13776960D01*
X23223634Y-13776960D02*
X23233158Y-13729341D01*
X23233158Y-13729341D02*
X23233158Y-13691246D01*
X23233158Y-13691246D02*
X23223634Y-13643627D01*
X23223634Y-13643627D02*
X23214111Y-13615055D01*
X23214111Y-13615055D02*
X23204587Y-13596008D01*
X23204587Y-13596008D02*
X23185539Y-13567436D01*
X23185539Y-13567436D02*
X23176015Y-13557912D01*
M02*
