%TF.GenerationSoftware,KiCad,Pcbnew,7.0.6*%
%TF.CreationDate,2024-02-06T14:07:09+09:00*%
%TF.ProjectId,CO2_sensor,434f325f-7365-46e7-936f-722e6b696361,rev?*%
%TF.SameCoordinates,Original*%
%TF.FileFunction,Legend,Bot*%
%TF.FilePolarity,Positive*%
%FSLAX46Y46*%
G04 Gerber Fmt 4.6, Leading zero omitted, Abs format (unit mm)*
G04 Created by KiCad (PCBNEW 7.0.6) date 2024-02-06 14:07:09*
%MOMM*%
%LPD*%
G01*
G04 APERTURE LIST*
%ADD10C,0.150000*%
%ADD11C,0.254000*%
%ADD12C,0.120000*%
%ADD13C,0.200000*%
%ADD14C,0.152400*%
%ADD15C,0.100000*%
G04 APERTURE END LIST*
D10*
X193539580Y-115107142D02*
X193587200Y-115059523D01*
X193587200Y-115059523D02*
X193634819Y-114916666D01*
X193634819Y-114916666D02*
X193634819Y-114821428D01*
X193634819Y-114821428D02*
X193587200Y-114678571D01*
X193587200Y-114678571D02*
X193491961Y-114583333D01*
X193491961Y-114583333D02*
X193396723Y-114535714D01*
X193396723Y-114535714D02*
X193206247Y-114488095D01*
X193206247Y-114488095D02*
X193063390Y-114488095D01*
X193063390Y-114488095D02*
X192872914Y-114535714D01*
X192872914Y-114535714D02*
X192777676Y-114583333D01*
X192777676Y-114583333D02*
X192682438Y-114678571D01*
X192682438Y-114678571D02*
X192634819Y-114821428D01*
X192634819Y-114821428D02*
X192634819Y-114916666D01*
X192634819Y-114916666D02*
X192682438Y-115059523D01*
X192682438Y-115059523D02*
X192730057Y-115107142D01*
X193634819Y-116059523D02*
X193634819Y-115488095D01*
X193634819Y-115773809D02*
X192634819Y-115773809D01*
X192634819Y-115773809D02*
X192777676Y-115678571D01*
X192777676Y-115678571D02*
X192872914Y-115583333D01*
X192872914Y-115583333D02*
X192920533Y-115488095D01*
X192634819Y-116392857D02*
X192634819Y-117011904D01*
X192634819Y-117011904D02*
X193015771Y-116678571D01*
X193015771Y-116678571D02*
X193015771Y-116821428D01*
X193015771Y-116821428D02*
X193063390Y-116916666D01*
X193063390Y-116916666D02*
X193111009Y-116964285D01*
X193111009Y-116964285D02*
X193206247Y-117011904D01*
X193206247Y-117011904D02*
X193444342Y-117011904D01*
X193444342Y-117011904D02*
X193539580Y-116964285D01*
X193539580Y-116964285D02*
X193587200Y-116916666D01*
X193587200Y-116916666D02*
X193634819Y-116821428D01*
X193634819Y-116821428D02*
X193634819Y-116535714D01*
X193634819Y-116535714D02*
X193587200Y-116440476D01*
X193587200Y-116440476D02*
X193539580Y-116392857D01*
D11*
X179598013Y-123690243D02*
X180323728Y-123690243D01*
X179960871Y-123690243D02*
X179960871Y-122420243D01*
X179960871Y-122420243D02*
X180081823Y-122601671D01*
X180081823Y-122601671D02*
X180202775Y-122722624D01*
X180202775Y-122722624D02*
X180323728Y-122783100D01*
D10*
X202592987Y-126834516D02*
X202592987Y-127644039D01*
X202592987Y-127644039D02*
X202545368Y-127739277D01*
X202545368Y-127739277D02*
X202497749Y-127786897D01*
X202497749Y-127786897D02*
X202402511Y-127834516D01*
X202402511Y-127834516D02*
X202212035Y-127834516D01*
X202212035Y-127834516D02*
X202116797Y-127786897D01*
X202116797Y-127786897D02*
X202069178Y-127739277D01*
X202069178Y-127739277D02*
X202021559Y-127644039D01*
X202021559Y-127644039D02*
X202021559Y-126834516D01*
X201021559Y-127834516D02*
X201592987Y-127834516D01*
X201307273Y-127834516D02*
X201307273Y-126834516D01*
X201307273Y-126834516D02*
X201402511Y-126977373D01*
X201402511Y-126977373D02*
X201497749Y-127072611D01*
X201497749Y-127072611D02*
X201592987Y-127120230D01*
X203749999Y-115704819D02*
X203749999Y-115942914D01*
X203988094Y-115847676D02*
X203749999Y-115942914D01*
X203749999Y-115942914D02*
X203511904Y-115847676D01*
X203892856Y-116133390D02*
X203749999Y-115942914D01*
X203749999Y-115942914D02*
X203607142Y-116133390D01*
X203499999Y-114954819D02*
X203499999Y-115192914D01*
X203738094Y-115097676D02*
X203499999Y-115192914D01*
X203499999Y-115192914D02*
X203261904Y-115097676D01*
X203642856Y-115383390D02*
X203499999Y-115192914D01*
X203499999Y-115192914D02*
X203357142Y-115383390D01*
X200048428Y-111976873D02*
X199572237Y-111643540D01*
X200048428Y-111405445D02*
X199048428Y-111405445D01*
X199048428Y-111405445D02*
X199048428Y-111786397D01*
X199048428Y-111786397D02*
X199096047Y-111881635D01*
X199096047Y-111881635D02*
X199143666Y-111929254D01*
X199143666Y-111929254D02*
X199238904Y-111976873D01*
X199238904Y-111976873D02*
X199381761Y-111976873D01*
X199381761Y-111976873D02*
X199476999Y-111929254D01*
X199476999Y-111929254D02*
X199524618Y-111881635D01*
X199524618Y-111881635D02*
X199572237Y-111786397D01*
X199572237Y-111786397D02*
X199572237Y-111405445D01*
X199048428Y-112881635D02*
X199048428Y-112405445D01*
X199048428Y-112405445D02*
X199524618Y-112357826D01*
X199524618Y-112357826D02*
X199476999Y-112405445D01*
X199476999Y-112405445D02*
X199429380Y-112500683D01*
X199429380Y-112500683D02*
X199429380Y-112738778D01*
X199429380Y-112738778D02*
X199476999Y-112834016D01*
X199476999Y-112834016D02*
X199524618Y-112881635D01*
X199524618Y-112881635D02*
X199619856Y-112929254D01*
X199619856Y-112929254D02*
X199857951Y-112929254D01*
X199857951Y-112929254D02*
X199953189Y-112881635D01*
X199953189Y-112881635D02*
X200000809Y-112834016D01*
X200000809Y-112834016D02*
X200048428Y-112738778D01*
X200048428Y-112738778D02*
X200048428Y-112500683D01*
X200048428Y-112500683D02*
X200000809Y-112405445D01*
X200000809Y-112405445D02*
X199953189Y-112357826D01*
D11*
X197467070Y-111682073D02*
X197527546Y-111742550D01*
X197527546Y-111742550D02*
X197708975Y-111803026D01*
X197708975Y-111803026D02*
X197829927Y-111803026D01*
X197829927Y-111803026D02*
X198011356Y-111742550D01*
X198011356Y-111742550D02*
X198132308Y-111621597D01*
X198132308Y-111621597D02*
X198192785Y-111500645D01*
X198192785Y-111500645D02*
X198253261Y-111258740D01*
X198253261Y-111258740D02*
X198253261Y-111077311D01*
X198253261Y-111077311D02*
X198192785Y-110835407D01*
X198192785Y-110835407D02*
X198132308Y-110714454D01*
X198132308Y-110714454D02*
X198011356Y-110593502D01*
X198011356Y-110593502D02*
X197829927Y-110533026D01*
X197829927Y-110533026D02*
X197708975Y-110533026D01*
X197708975Y-110533026D02*
X197527546Y-110593502D01*
X197527546Y-110593502D02*
X197467070Y-110653978D01*
X196499451Y-111137788D02*
X196318023Y-111198264D01*
X196318023Y-111198264D02*
X196257546Y-111258740D01*
X196257546Y-111258740D02*
X196197070Y-111379692D01*
X196197070Y-111379692D02*
X196197070Y-111561121D01*
X196197070Y-111561121D02*
X196257546Y-111682073D01*
X196257546Y-111682073D02*
X196318023Y-111742550D01*
X196318023Y-111742550D02*
X196438975Y-111803026D01*
X196438975Y-111803026D02*
X196922785Y-111803026D01*
X196922785Y-111803026D02*
X196922785Y-110533026D01*
X196922785Y-110533026D02*
X196499451Y-110533026D01*
X196499451Y-110533026D02*
X196378499Y-110593502D01*
X196378499Y-110593502D02*
X196318023Y-110653978D01*
X196318023Y-110653978D02*
X196257546Y-110774930D01*
X196257546Y-110774930D02*
X196257546Y-110895883D01*
X196257546Y-110895883D02*
X196318023Y-111016835D01*
X196318023Y-111016835D02*
X196378499Y-111077311D01*
X196378499Y-111077311D02*
X196499451Y-111137788D01*
X196499451Y-111137788D02*
X196922785Y-111137788D01*
X194987546Y-111803026D02*
X195713261Y-111803026D01*
X195350404Y-111803026D02*
X195350404Y-110533026D01*
X195350404Y-110533026D02*
X195471356Y-110714454D01*
X195471356Y-110714454D02*
X195592308Y-110835407D01*
X195592308Y-110835407D02*
X195713261Y-110895883D01*
D10*
X205768909Y-118051535D02*
X205816529Y-118003916D01*
X205816529Y-118003916D02*
X205864148Y-117861059D01*
X205864148Y-117861059D02*
X205864148Y-117765821D01*
X205864148Y-117765821D02*
X205816529Y-117622964D01*
X205816529Y-117622964D02*
X205721290Y-117527726D01*
X205721290Y-117527726D02*
X205626052Y-117480107D01*
X205626052Y-117480107D02*
X205435576Y-117432488D01*
X205435576Y-117432488D02*
X205292719Y-117432488D01*
X205292719Y-117432488D02*
X205102243Y-117480107D01*
X205102243Y-117480107D02*
X205007005Y-117527726D01*
X205007005Y-117527726D02*
X204911767Y-117622964D01*
X204911767Y-117622964D02*
X204864148Y-117765821D01*
X204864148Y-117765821D02*
X204864148Y-117861059D01*
X204864148Y-117861059D02*
X204911767Y-118003916D01*
X204911767Y-118003916D02*
X204959386Y-118051535D01*
X205864148Y-119003916D02*
X205864148Y-118432488D01*
X205864148Y-118718202D02*
X204864148Y-118718202D01*
X204864148Y-118718202D02*
X205007005Y-118622964D01*
X205007005Y-118622964D02*
X205102243Y-118527726D01*
X205102243Y-118527726D02*
X205149862Y-118432488D01*
X205197481Y-119861059D02*
X205864148Y-119861059D01*
X204816529Y-119622964D02*
X205530814Y-119384869D01*
X205530814Y-119384869D02*
X205530814Y-120003916D01*
X194884819Y-118833333D02*
X194408628Y-118500000D01*
X194884819Y-118261905D02*
X193884819Y-118261905D01*
X193884819Y-118261905D02*
X193884819Y-118642857D01*
X193884819Y-118642857D02*
X193932438Y-118738095D01*
X193932438Y-118738095D02*
X193980057Y-118785714D01*
X193980057Y-118785714D02*
X194075295Y-118833333D01*
X194075295Y-118833333D02*
X194218152Y-118833333D01*
X194218152Y-118833333D02*
X194313390Y-118785714D01*
X194313390Y-118785714D02*
X194361009Y-118738095D01*
X194361009Y-118738095D02*
X194408628Y-118642857D01*
X194408628Y-118642857D02*
X194408628Y-118261905D01*
X194313390Y-119404762D02*
X194265771Y-119309524D01*
X194265771Y-119309524D02*
X194218152Y-119261905D01*
X194218152Y-119261905D02*
X194122914Y-119214286D01*
X194122914Y-119214286D02*
X194075295Y-119214286D01*
X194075295Y-119214286D02*
X193980057Y-119261905D01*
X193980057Y-119261905D02*
X193932438Y-119309524D01*
X193932438Y-119309524D02*
X193884819Y-119404762D01*
X193884819Y-119404762D02*
X193884819Y-119595238D01*
X193884819Y-119595238D02*
X193932438Y-119690476D01*
X193932438Y-119690476D02*
X193980057Y-119738095D01*
X193980057Y-119738095D02*
X194075295Y-119785714D01*
X194075295Y-119785714D02*
X194122914Y-119785714D01*
X194122914Y-119785714D02*
X194218152Y-119738095D01*
X194218152Y-119738095D02*
X194265771Y-119690476D01*
X194265771Y-119690476D02*
X194313390Y-119595238D01*
X194313390Y-119595238D02*
X194313390Y-119404762D01*
X194313390Y-119404762D02*
X194361009Y-119309524D01*
X194361009Y-119309524D02*
X194408628Y-119261905D01*
X194408628Y-119261905D02*
X194503866Y-119214286D01*
X194503866Y-119214286D02*
X194694342Y-119214286D01*
X194694342Y-119214286D02*
X194789580Y-119261905D01*
X194789580Y-119261905D02*
X194837200Y-119309524D01*
X194837200Y-119309524D02*
X194884819Y-119404762D01*
X194884819Y-119404762D02*
X194884819Y-119595238D01*
X194884819Y-119595238D02*
X194837200Y-119690476D01*
X194837200Y-119690476D02*
X194789580Y-119738095D01*
X194789580Y-119738095D02*
X194694342Y-119785714D01*
X194694342Y-119785714D02*
X194503866Y-119785714D01*
X194503866Y-119785714D02*
X194408628Y-119738095D01*
X194408628Y-119738095D02*
X194361009Y-119690476D01*
X194361009Y-119690476D02*
X194313390Y-119595238D01*
X182521075Y-123970392D02*
X182616313Y-123922773D01*
X182616313Y-123922773D02*
X182711551Y-123827535D01*
X182711551Y-123827535D02*
X182854408Y-123684677D01*
X182854408Y-123684677D02*
X182949646Y-123637058D01*
X182949646Y-123637058D02*
X183044884Y-123637058D01*
X182997265Y-123875154D02*
X183092503Y-123827535D01*
X183092503Y-123827535D02*
X183187741Y-123732296D01*
X183187741Y-123732296D02*
X183235360Y-123541820D01*
X183235360Y-123541820D02*
X183235360Y-123208487D01*
X183235360Y-123208487D02*
X183187741Y-123018011D01*
X183187741Y-123018011D02*
X183092503Y-122922773D01*
X183092503Y-122922773D02*
X182997265Y-122875154D01*
X182997265Y-122875154D02*
X182806789Y-122875154D01*
X182806789Y-122875154D02*
X182711551Y-122922773D01*
X182711551Y-122922773D02*
X182616313Y-123018011D01*
X182616313Y-123018011D02*
X182568694Y-123208487D01*
X182568694Y-123208487D02*
X182568694Y-123541820D01*
X182568694Y-123541820D02*
X182616313Y-123732296D01*
X182616313Y-123732296D02*
X182711551Y-123827535D01*
X182711551Y-123827535D02*
X182806789Y-123875154D01*
X182806789Y-123875154D02*
X182997265Y-123875154D01*
X182187741Y-122970392D02*
X182140122Y-122922773D01*
X182140122Y-122922773D02*
X182044884Y-122875154D01*
X182044884Y-122875154D02*
X181806789Y-122875154D01*
X181806789Y-122875154D02*
X181711551Y-122922773D01*
X181711551Y-122922773D02*
X181663932Y-122970392D01*
X181663932Y-122970392D02*
X181616313Y-123065630D01*
X181616313Y-123065630D02*
X181616313Y-123160868D01*
X181616313Y-123160868D02*
X181663932Y-123303725D01*
X181663932Y-123303725D02*
X182235360Y-123875154D01*
X182235360Y-123875154D02*
X181616313Y-123875154D01*
X204216961Y-111517018D02*
X204264581Y-111469399D01*
X204264581Y-111469399D02*
X204312200Y-111326542D01*
X204312200Y-111326542D02*
X204312200Y-111231304D01*
X204312200Y-111231304D02*
X204264581Y-111088447D01*
X204264581Y-111088447D02*
X204169342Y-110993209D01*
X204169342Y-110993209D02*
X204074104Y-110945590D01*
X204074104Y-110945590D02*
X203883628Y-110897971D01*
X203883628Y-110897971D02*
X203740771Y-110897971D01*
X203740771Y-110897971D02*
X203550295Y-110945590D01*
X203550295Y-110945590D02*
X203455057Y-110993209D01*
X203455057Y-110993209D02*
X203359819Y-111088447D01*
X203359819Y-111088447D02*
X203312200Y-111231304D01*
X203312200Y-111231304D02*
X203312200Y-111326542D01*
X203312200Y-111326542D02*
X203359819Y-111469399D01*
X203359819Y-111469399D02*
X203407438Y-111517018D01*
X204312200Y-112469399D02*
X204312200Y-111897971D01*
X204312200Y-112183685D02*
X203312200Y-112183685D01*
X203312200Y-112183685D02*
X203455057Y-112088447D01*
X203455057Y-112088447D02*
X203550295Y-111993209D01*
X203550295Y-111993209D02*
X203597914Y-111897971D01*
X203407438Y-112850352D02*
X203359819Y-112897971D01*
X203359819Y-112897971D02*
X203312200Y-112993209D01*
X203312200Y-112993209D02*
X203312200Y-113231304D01*
X203312200Y-113231304D02*
X203359819Y-113326542D01*
X203359819Y-113326542D02*
X203407438Y-113374161D01*
X203407438Y-113374161D02*
X203502676Y-113421780D01*
X203502676Y-113421780D02*
X203597914Y-113421780D01*
X203597914Y-113421780D02*
X203740771Y-113374161D01*
X203740771Y-113374161D02*
X204312200Y-112802733D01*
X204312200Y-112802733D02*
X204312200Y-113421780D01*
X188663704Y-124348199D02*
X188187513Y-124014866D01*
X188663704Y-123776771D02*
X187663704Y-123776771D01*
X187663704Y-123776771D02*
X187663704Y-124157723D01*
X187663704Y-124157723D02*
X187711323Y-124252961D01*
X187711323Y-124252961D02*
X187758942Y-124300580D01*
X187758942Y-124300580D02*
X187854180Y-124348199D01*
X187854180Y-124348199D02*
X187997037Y-124348199D01*
X187997037Y-124348199D02*
X188092275Y-124300580D01*
X188092275Y-124300580D02*
X188139894Y-124252961D01*
X188139894Y-124252961D02*
X188187513Y-124157723D01*
X188187513Y-124157723D02*
X188187513Y-123776771D01*
X187758942Y-124729152D02*
X187711323Y-124776771D01*
X187711323Y-124776771D02*
X187663704Y-124872009D01*
X187663704Y-124872009D02*
X187663704Y-125110104D01*
X187663704Y-125110104D02*
X187711323Y-125205342D01*
X187711323Y-125205342D02*
X187758942Y-125252961D01*
X187758942Y-125252961D02*
X187854180Y-125300580D01*
X187854180Y-125300580D02*
X187949418Y-125300580D01*
X187949418Y-125300580D02*
X188092275Y-125252961D01*
X188092275Y-125252961D02*
X188663704Y-124681533D01*
X188663704Y-124681533D02*
X188663704Y-125300580D01*
X192024819Y-122083333D02*
X191548628Y-121750000D01*
X192024819Y-121511905D02*
X191024819Y-121511905D01*
X191024819Y-121511905D02*
X191024819Y-121892857D01*
X191024819Y-121892857D02*
X191072438Y-121988095D01*
X191072438Y-121988095D02*
X191120057Y-122035714D01*
X191120057Y-122035714D02*
X191215295Y-122083333D01*
X191215295Y-122083333D02*
X191358152Y-122083333D01*
X191358152Y-122083333D02*
X191453390Y-122035714D01*
X191453390Y-122035714D02*
X191501009Y-121988095D01*
X191501009Y-121988095D02*
X191548628Y-121892857D01*
X191548628Y-121892857D02*
X191548628Y-121511905D01*
X192024819Y-122559524D02*
X192024819Y-122750000D01*
X192024819Y-122750000D02*
X191977200Y-122845238D01*
X191977200Y-122845238D02*
X191929580Y-122892857D01*
X191929580Y-122892857D02*
X191786723Y-122988095D01*
X191786723Y-122988095D02*
X191596247Y-123035714D01*
X191596247Y-123035714D02*
X191215295Y-123035714D01*
X191215295Y-123035714D02*
X191120057Y-122988095D01*
X191120057Y-122988095D02*
X191072438Y-122940476D01*
X191072438Y-122940476D02*
X191024819Y-122845238D01*
X191024819Y-122845238D02*
X191024819Y-122654762D01*
X191024819Y-122654762D02*
X191072438Y-122559524D01*
X191072438Y-122559524D02*
X191120057Y-122511905D01*
X191120057Y-122511905D02*
X191215295Y-122464286D01*
X191215295Y-122464286D02*
X191453390Y-122464286D01*
X191453390Y-122464286D02*
X191548628Y-122511905D01*
X191548628Y-122511905D02*
X191596247Y-122559524D01*
X191596247Y-122559524D02*
X191643866Y-122654762D01*
X191643866Y-122654762D02*
X191643866Y-122845238D01*
X191643866Y-122845238D02*
X191596247Y-122940476D01*
X191596247Y-122940476D02*
X191548628Y-122988095D01*
X191548628Y-122988095D02*
X191453390Y-123035714D01*
X199433549Y-115359192D02*
X199766882Y-114883001D01*
X200004977Y-115359192D02*
X200004977Y-114359192D01*
X200004977Y-114359192D02*
X199624025Y-114359192D01*
X199624025Y-114359192D02*
X199528787Y-114406811D01*
X199528787Y-114406811D02*
X199481168Y-114454430D01*
X199481168Y-114454430D02*
X199433549Y-114549668D01*
X199433549Y-114549668D02*
X199433549Y-114692525D01*
X199433549Y-114692525D02*
X199481168Y-114787763D01*
X199481168Y-114787763D02*
X199528787Y-114835382D01*
X199528787Y-114835382D02*
X199624025Y-114883001D01*
X199624025Y-114883001D02*
X200004977Y-114883001D01*
X198576406Y-114359192D02*
X198766882Y-114359192D01*
X198766882Y-114359192D02*
X198862120Y-114406811D01*
X198862120Y-114406811D02*
X198909739Y-114454430D01*
X198909739Y-114454430D02*
X199004977Y-114597287D01*
X199004977Y-114597287D02*
X199052596Y-114787763D01*
X199052596Y-114787763D02*
X199052596Y-115168715D01*
X199052596Y-115168715D02*
X199004977Y-115263953D01*
X199004977Y-115263953D02*
X198957358Y-115311573D01*
X198957358Y-115311573D02*
X198862120Y-115359192D01*
X198862120Y-115359192D02*
X198671644Y-115359192D01*
X198671644Y-115359192D02*
X198576406Y-115311573D01*
X198576406Y-115311573D02*
X198528787Y-115263953D01*
X198528787Y-115263953D02*
X198481168Y-115168715D01*
X198481168Y-115168715D02*
X198481168Y-114930620D01*
X198481168Y-114930620D02*
X198528787Y-114835382D01*
X198528787Y-114835382D02*
X198576406Y-114787763D01*
X198576406Y-114787763D02*
X198671644Y-114740144D01*
X198671644Y-114740144D02*
X198862120Y-114740144D01*
X198862120Y-114740144D02*
X198957358Y-114787763D01*
X198957358Y-114787763D02*
X199004977Y-114835382D01*
X199004977Y-114835382D02*
X199052596Y-114930620D01*
D11*
X176837330Y-128283669D02*
X176655902Y-128344145D01*
X176655902Y-128344145D02*
X176595425Y-128404621D01*
X176595425Y-128404621D02*
X176534949Y-128525573D01*
X176534949Y-128525573D02*
X176534949Y-128707002D01*
X176534949Y-128707002D02*
X176595425Y-128827954D01*
X176595425Y-128827954D02*
X176655902Y-128888431D01*
X176655902Y-128888431D02*
X176776854Y-128948907D01*
X176776854Y-128948907D02*
X177260664Y-128948907D01*
X177260664Y-128948907D02*
X177260664Y-127678907D01*
X177260664Y-127678907D02*
X176837330Y-127678907D01*
X176837330Y-127678907D02*
X176716378Y-127739383D01*
X176716378Y-127739383D02*
X176655902Y-127799859D01*
X176655902Y-127799859D02*
X176595425Y-127920811D01*
X176595425Y-127920811D02*
X176595425Y-128041764D01*
X176595425Y-128041764D02*
X176655902Y-128162716D01*
X176655902Y-128162716D02*
X176716378Y-128223192D01*
X176716378Y-128223192D02*
X176837330Y-128283669D01*
X176837330Y-128283669D02*
X177260664Y-128283669D01*
X176172092Y-127678907D02*
X175446378Y-127678907D01*
X175809235Y-128948907D02*
X175809235Y-127678907D01*
X174357806Y-128948907D02*
X175083521Y-128948907D01*
X174720664Y-128948907D02*
X174720664Y-127678907D01*
X174720664Y-127678907D02*
X174841616Y-127860335D01*
X174841616Y-127860335D02*
X174962568Y-127981288D01*
X174962568Y-127981288D02*
X175083521Y-128041764D01*
D10*
X195416666Y-128539580D02*
X195464285Y-128587200D01*
X195464285Y-128587200D02*
X195607142Y-128634819D01*
X195607142Y-128634819D02*
X195702380Y-128634819D01*
X195702380Y-128634819D02*
X195845237Y-128587200D01*
X195845237Y-128587200D02*
X195940475Y-128491961D01*
X195940475Y-128491961D02*
X195988094Y-128396723D01*
X195988094Y-128396723D02*
X196035713Y-128206247D01*
X196035713Y-128206247D02*
X196035713Y-128063390D01*
X196035713Y-128063390D02*
X195988094Y-127872914D01*
X195988094Y-127872914D02*
X195940475Y-127777676D01*
X195940475Y-127777676D02*
X195845237Y-127682438D01*
X195845237Y-127682438D02*
X195702380Y-127634819D01*
X195702380Y-127634819D02*
X195607142Y-127634819D01*
X195607142Y-127634819D02*
X195464285Y-127682438D01*
X195464285Y-127682438D02*
X195416666Y-127730057D01*
X194511904Y-127634819D02*
X194988094Y-127634819D01*
X194988094Y-127634819D02*
X195035713Y-128111009D01*
X195035713Y-128111009D02*
X194988094Y-128063390D01*
X194988094Y-128063390D02*
X194892856Y-128015771D01*
X194892856Y-128015771D02*
X194654761Y-128015771D01*
X194654761Y-128015771D02*
X194559523Y-128063390D01*
X194559523Y-128063390D02*
X194511904Y-128111009D01*
X194511904Y-128111009D02*
X194464285Y-128206247D01*
X194464285Y-128206247D02*
X194464285Y-128444342D01*
X194464285Y-128444342D02*
X194511904Y-128539580D01*
X194511904Y-128539580D02*
X194559523Y-128587200D01*
X194559523Y-128587200D02*
X194654761Y-128634819D01*
X194654761Y-128634819D02*
X194892856Y-128634819D01*
X194892856Y-128634819D02*
X194988094Y-128587200D01*
X194988094Y-128587200D02*
X195035713Y-128539580D01*
D12*
%TO.C,C13*%
X191240000Y-115890580D02*
X191240000Y-115609420D01*
X192260000Y-115890580D02*
X192260000Y-115609420D01*
D13*
%TO.C,1*%
X182350000Y-111150000D02*
X182350000Y-111150000D01*
X182150000Y-111150000D02*
X182150000Y-111150000D01*
X189800000Y-111700000D02*
X188250000Y-111700000D01*
X179700000Y-111700000D02*
X181250000Y-111700000D01*
X189800000Y-113250000D02*
X189800000Y-111700000D01*
X179700000Y-113250000D02*
X179700000Y-111700000D01*
X189800000Y-120250000D02*
X189800000Y-121800000D01*
X179700000Y-120250000D02*
X179700000Y-121800000D01*
X189800000Y-121800000D02*
X188250000Y-121800000D01*
X179700000Y-121800000D02*
X181250000Y-121800000D01*
X182150000Y-111150000D02*
G75*
G03*
X182350000Y-111150000I100000J0D01*
G01*
X182350000Y-111150000D02*
G75*
G03*
X182150000Y-111150000I-100000J0D01*
G01*
D14*
%TO.C,U1*%
X202921000Y-126497135D02*
X197079000Y-126497135D01*
X202921000Y-125898584D02*
X202921000Y-126497135D01*
X202921000Y-115752935D02*
X202921000Y-116351486D01*
X197079000Y-126497135D02*
X197079000Y-125898584D01*
X197079000Y-116351486D02*
X197079000Y-115752935D01*
X197079000Y-115752935D02*
X202921000Y-115752935D01*
G36*
X204965700Y-122940500D02*
G01*
X204711700Y-122940500D01*
X204711700Y-122559500D01*
X204965700Y-122559500D01*
X204965700Y-122940500D01*
G37*
G36*
X195288300Y-122290514D02*
G01*
X195034300Y-122290514D01*
X195034300Y-121909514D01*
X195288300Y-121909514D01*
X195288300Y-122290514D01*
G37*
D12*
%TO.C,R5*%
X200345300Y-112362293D02*
X200345300Y-111887777D01*
X201390300Y-112362293D02*
X201390300Y-111887777D01*
D15*
%TO.C,CB1*%
X198242800Y-114125035D02*
X195242800Y-114125035D01*
X198242800Y-112125035D02*
X195242800Y-112125035D01*
D12*
%TO.C,C14*%
X205510000Y-114609420D02*
X205510000Y-114890580D01*
X204490000Y-114609420D02*
X204490000Y-114890580D01*
%TO.C,R8*%
X192477500Y-119237258D02*
X192477500Y-118762742D01*
X193522500Y-119237258D02*
X193522500Y-118762742D01*
%TO.C,Q2*%
X182690000Y-125000000D02*
X182690000Y-125650000D01*
X182690000Y-125000000D02*
X182690000Y-124350000D01*
X185810000Y-125000000D02*
X185810000Y-126675000D01*
X185810000Y-125000000D02*
X185810000Y-124350000D01*
%TO.C,C12*%
X203127800Y-111984455D02*
X203127800Y-112265615D01*
X202107800Y-111984455D02*
X202107800Y-112265615D01*
%TO.C,R2*%
X187281749Y-124823653D02*
X187281749Y-125298169D01*
X186236749Y-124823653D02*
X186236749Y-125298169D01*
%TO.C,R9*%
X193522500Y-122012742D02*
X193522500Y-122487258D01*
X192477500Y-122012742D02*
X192477500Y-122487258D01*
%TO.C,R6*%
X201855058Y-115147535D02*
X201380542Y-115147535D01*
X201855058Y-114102535D02*
X201380542Y-114102535D01*
D11*
%TO.C,BT1*%
X166200000Y-126850000D02*
X169550000Y-126850000D01*
X166200000Y-126850000D02*
X166200000Y-125028000D01*
X176800000Y-126850000D02*
X173450000Y-126850000D01*
X176800000Y-123853000D02*
X176800000Y-126850000D01*
X166200000Y-115472000D02*
X166200000Y-113650000D01*
X166200000Y-113650000D02*
X169550000Y-113650000D01*
X176800000Y-113650000D02*
X176800000Y-116647000D01*
X176800000Y-113650000D02*
X173450000Y-113650000D01*
X176800590Y-116646193D02*
G75*
G03*
X176800001Y-123852999I4941205J-3603807D01*
G01*
X166203420Y-125024721D02*
G75*
G03*
X166200000Y-115472000I-4582073J4774721D01*
G01*
X171619930Y-130935000D02*
G75*
G03*
X171619930Y-130935000I-82930J0D01*
G01*
D12*
%TO.C,C5*%
X195109420Y-126240000D02*
X195390580Y-126240000D01*
X195109420Y-127260000D02*
X195390580Y-127260000D01*
%TD*%
M02*
