%TF.GenerationSoftware,KiCad,Pcbnew,8.0.0*%
%TF.CreationDate,2024-05-28T16:04:12+09:00*%
%TF.ProjectId,Panel,50616e65-6c2e-46b6-9963-61645f706362,rev?*%
%TF.SameCoordinates,Original*%
%TF.FileFunction,Soldermask,Top*%
%TF.FilePolarity,Negative*%
%FSLAX46Y46*%
G04 Gerber Fmt 4.6, Leading zero omitted, Abs format (unit mm)*
G04 Created by KiCad (PCBNEW 8.0.0) date 2024-05-28 16:04:12*
%MOMM*%
%LPD*%
G01*
G04 APERTURE LIST*
G04 Aperture macros list*
%AMRoundRect*
0 Rectangle with rounded corners*
0 $1 Rounding radius*
0 $2 $3 $4 $5 $6 $7 $8 $9 X,Y pos of 4 corners*
0 Add a 4 corners polygon primitive as box body*
4,1,4,$2,$3,$4,$5,$6,$7,$8,$9,$2,$3,0*
0 Add four circle primitives for the rounded corners*
1,1,$1+$1,$2,$3*
1,1,$1+$1,$4,$5*
1,1,$1+$1,$6,$7*
1,1,$1+$1,$8,$9*
0 Add four rect primitives between the rounded corners*
20,1,$1+$1,$2,$3,$4,$5,0*
20,1,$1+$1,$4,$5,$6,$7,0*
20,1,$1+$1,$6,$7,$8,$9,0*
20,1,$1+$1,$8,$9,$2,$3,0*%
G04 Aperture macros list end*
%ADD10C,0.500000*%
%ADD11RoundRect,0.225000X-0.375000X0.225000X-0.375000X-0.225000X0.375000X-0.225000X0.375000X0.225000X0*%
%ADD12RoundRect,0.225000X-0.225000X-0.250000X0.225000X-0.250000X0.225000X0.250000X-0.225000X0.250000X0*%
%ADD13C,1.000000*%
%ADD14R,1.600000X0.700000*%
%ADD15R,1.800000X1.200000*%
%ADD16R,2.200000X1.200000*%
%ADD17R,1.500000X1.600000*%
%ADD18RoundRect,0.200000X0.200000X0.275000X-0.200000X0.275000X-0.200000X-0.275000X0.200000X-0.275000X0*%
%ADD19RoundRect,0.225000X0.250000X-0.225000X0.250000X0.225000X-0.250000X0.225000X-0.250000X-0.225000X0*%
%ADD20RoundRect,0.150000X-0.150000X0.587500X-0.150000X-0.587500X0.150000X-0.587500X0.150000X0.587500X0*%
%ADD21R,1.350000X1.350000*%
%ADD22O,1.350000X1.350000*%
%ADD23RoundRect,0.225000X0.225000X0.375000X-0.225000X0.375000X-0.225000X-0.375000X0.225000X-0.375000X0*%
%ADD24C,2.000000*%
%ADD25RoundRect,0.225000X-0.250000X0.225000X-0.250000X-0.225000X0.250000X-0.225000X0.250000X0.225000X0*%
%ADD26RoundRect,0.150000X0.150000X-0.587500X0.150000X0.587500X-0.150000X0.587500X-0.150000X-0.587500X0*%
%ADD27R,2.700000X1.000000*%
%ADD28RoundRect,0.200000X-0.200000X-0.275000X0.200000X-0.275000X0.200000X0.275000X-0.200000X0.275000X0*%
%ADD29R,1.100000X0.300000*%
%ADD30R,3.100000X2.300000*%
%ADD31RoundRect,0.225000X0.225000X0.250000X-0.225000X0.250000X-0.225000X-0.250000X0.225000X-0.250000X0*%
%ADD32RoundRect,0.150000X-0.587500X-0.150000X0.587500X-0.150000X0.587500X0.150000X-0.587500X0.150000X0*%
G04 APERTURE END LIST*
D10*
%TO.C,KiKit_MB_13_2*%
X115500000Y-42200000D03*
%TD*%
D11*
%TO.C,D2*%
X134087670Y-70154695D03*
X134087670Y-73454695D03*
%TD*%
D10*
%TO.C,KiKit_MB_17_3*%
X126000000Y-63300000D03*
%TD*%
%TO.C,KiKit_MB_14_4*%
X128000000Y-42200000D03*
%TD*%
D12*
%TO.C,C4*%
X133725000Y-67250000D03*
X135275000Y-67250000D03*
%TD*%
D10*
%TO.C,KiKit_MB_37_2*%
X159500000Y-64700000D03*
%TD*%
%TO.C,KiKit_MB_25_3*%
X170000000Y-63300000D03*
%TD*%
D13*
%TO.C,J3*%
X154600000Y-92750000D03*
X154600000Y-100750000D03*
D14*
X165600000Y-99950000D03*
X165600000Y-98850000D03*
X165600000Y-97750000D03*
X165600000Y-96650000D03*
X165600000Y-95550000D03*
X165600000Y-94450000D03*
X165600000Y-93350000D03*
X165600000Y-92250000D03*
D15*
X164300000Y-89950000D03*
D16*
X155000000Y-89950000D03*
D14*
X165600000Y-91150000D03*
D17*
X164550000Y-104550000D03*
D16*
X155000000Y-105450000D03*
%TD*%
D18*
%TO.C,R7*%
X170075000Y-58500000D03*
X168425000Y-58500000D03*
%TD*%
D19*
%TO.C,C15*%
X124250000Y-51525000D03*
X124250000Y-49975000D03*
%TD*%
D10*
%TO.C,KiKit_MB_27_2*%
X105200000Y-75750000D03*
%TD*%
%TO.C,KiKit_MB_22_4*%
X172000000Y-42200000D03*
%TD*%
%TO.C,KiKit_MB_33_3*%
X126000000Y-85800000D03*
%TD*%
%TO.C,KiKit_MB_25_1*%
X172000000Y-63300000D03*
%TD*%
%TO.C,KiKit_MB_7_1*%
X191800000Y-28750000D03*
%TD*%
D20*
%TO.C,Q3*%
X137069832Y-55321634D03*
X135169832Y-55321634D03*
X136119832Y-57196634D03*
%TD*%
D10*
%TO.C,KiKit_MB_35_2*%
X149200000Y-75750000D03*
%TD*%
D12*
%TO.C,C11*%
X136933764Y-104085530D03*
X138483764Y-104085530D03*
%TD*%
D19*
%TO.C,C16*%
X138750000Y-99775000D03*
X138750000Y-98225000D03*
%TD*%
D10*
%TO.C,KiKit_MB_6_1*%
X149200000Y-31750000D03*
%TD*%
%TO.C,KiKit_MB_11_3*%
X105200000Y-52250000D03*
%TD*%
%TO.C,KiKit_MB_30_2*%
X126000000Y-64700000D03*
%TD*%
%TO.C,KiKit_MB_42_4*%
X179500000Y-85800000D03*
%TD*%
D12*
%TO.C,C11*%
X180933764Y-36585530D03*
X182483764Y-36585530D03*
%TD*%
D21*
%TO.C,J1*%
X125851363Y-106343235D03*
D22*
X127851363Y-106343235D03*
X129851363Y-106343235D03*
X131851363Y-106343235D03*
X133851363Y-106343235D03*
%TD*%
D10*
%TO.C,KiKit_MB_49_2*%
X191800000Y-97250000D03*
%TD*%
D12*
%TO.C,C9*%
X180389234Y-73110744D03*
X181939234Y-73110744D03*
%TD*%
D10*
%TO.C,KiKit_MB_13_1*%
X114500000Y-42200000D03*
%TD*%
%TO.C,KiKit_MB_14_3*%
X127000000Y-42200000D03*
%TD*%
D19*
%TO.C,C16*%
X138750000Y-54775000D03*
X138750000Y-53225000D03*
%TD*%
D10*
%TO.C,KiKit_MB_1_1*%
X105200000Y-31750000D03*
%TD*%
D13*
%TO.C,J3*%
X110600000Y-70250000D03*
X110600000Y-78250000D03*
D14*
X121600000Y-77450000D03*
X121600000Y-76350000D03*
X121600000Y-75250000D03*
X121600000Y-74150000D03*
X121600000Y-73050000D03*
X121600000Y-71950000D03*
X121600000Y-70850000D03*
X121600000Y-69750000D03*
D15*
X120300000Y-67450000D03*
D16*
X111000000Y-67450000D03*
D14*
X121600000Y-68650000D03*
D17*
X120550000Y-82050000D03*
D16*
X111000000Y-82950000D03*
%TD*%
D10*
%TO.C,KiKit_MB_13_3*%
X116500000Y-42200000D03*
%TD*%
D23*
%TO.C,D1*%
X133540086Y-56553780D03*
X130240086Y-56553780D03*
%TD*%
D10*
%TO.C,KiKit_MB_46_2*%
X126000000Y-87200000D03*
%TD*%
D12*
%TO.C,C4*%
X133725000Y-44750000D03*
X135275000Y-44750000D03*
%TD*%
D10*
%TO.C,KiKit_MB_12_2*%
X147800000Y-52250000D03*
%TD*%
%TO.C,KiKit_MB_46_3*%
X127000000Y-87200000D03*
%TD*%
D12*
%TO.C,C7*%
X136975000Y-24500000D03*
X138525000Y-24500000D03*
%TD*%
D10*
%TO.C,KiKit_MB_30_3*%
X127000000Y-64700000D03*
%TD*%
D24*
%TO.C,KiKit_TO_2*%
X195751000Y-22250000D03*
%TD*%
D10*
%TO.C,KiKit_MB_38_3*%
X171000000Y-64700000D03*
%TD*%
%TO.C,KiKit_MB_21_1*%
X158500000Y-42200000D03*
%TD*%
%TO.C,KiKit_MB_39_3*%
X181500000Y-64700000D03*
%TD*%
%TO.C,KiKit_MB_42_1*%
X182500000Y-85800000D03*
%TD*%
D21*
%TO.C,J1*%
X125851363Y-61343235D03*
D22*
X127851363Y-61343235D03*
X129851363Y-61343235D03*
X131851363Y-61343235D03*
X133851363Y-61343235D03*
%TD*%
D25*
%TO.C,C1*%
X172682865Y-99408032D03*
X172682865Y-100958032D03*
%TD*%
D12*
%TO.C,C7*%
X136975000Y-69500000D03*
X138525000Y-69500000D03*
%TD*%
%TO.C,C10*%
X181224999Y-90289777D03*
X182774999Y-90289777D03*
%TD*%
D10*
%TO.C,KiKit_MB_29_4*%
X117500000Y-64700000D03*
%TD*%
D26*
%TO.C,Q4*%
X124323000Y-78937500D03*
X126223000Y-78937500D03*
X125273000Y-77062500D03*
%TD*%
D10*
%TO.C,KiKit_MB_24_2*%
X160500000Y-63300000D03*
%TD*%
D19*
%TO.C,C16*%
X182750000Y-32275000D03*
X182750000Y-30725000D03*
%TD*%
D27*
%TO.C,L1*%
X131285350Y-54619676D03*
X131285350Y-52419676D03*
%TD*%
D28*
%TO.C,R1*%
X127862500Y-92000000D03*
X129512500Y-92000000D03*
%TD*%
D10*
%TO.C,KiKit_MB_50_3*%
X160500000Y-87200000D03*
%TD*%
%TO.C,KiKit_MB_16_2*%
X116500000Y-63300000D03*
%TD*%
D27*
%TO.C,L1*%
X131285350Y-77119676D03*
X131285350Y-74919676D03*
%TD*%
D10*
%TO.C,KiKit_MB_25_2*%
X171000000Y-63300000D03*
%TD*%
%TO.C,KiKit_MB_40_1*%
X161500000Y-85800000D03*
%TD*%
%TO.C,KiKit_MB_32_3*%
X115500000Y-85800000D03*
%TD*%
D23*
%TO.C,D1*%
X177540086Y-101553780D03*
X174240086Y-101553780D03*
%TD*%
D10*
%TO.C,KiKit_MB_19_2*%
X149200000Y-53250000D03*
%TD*%
D29*
%TO.C,J2*%
X184767000Y-103500000D03*
X184767000Y-103000000D03*
X184767000Y-102500000D03*
X184767000Y-102000000D03*
X184767000Y-101500000D03*
X184767000Y-101000000D03*
X184767000Y-100500000D03*
X184767000Y-100000000D03*
X184767000Y-99500000D03*
X184767000Y-99000000D03*
X184767000Y-98500000D03*
X184767000Y-98000000D03*
X184767000Y-97500000D03*
X184767000Y-97000000D03*
X184767000Y-96500000D03*
X184767000Y-96000000D03*
X184767000Y-95500000D03*
X184767000Y-95000000D03*
X184767000Y-94500000D03*
X184767000Y-94000000D03*
X184767000Y-93500000D03*
X184767000Y-93000000D03*
X184767000Y-92500000D03*
X184767000Y-92000000D03*
D30*
X186467000Y-105170000D03*
X186467000Y-90330000D03*
%TD*%
D10*
%TO.C,KiKit_MB_31_4*%
X138500000Y-64700000D03*
%TD*%
D12*
%TO.C,C8*%
X135364645Y-74966744D03*
X136914645Y-74966744D03*
%TD*%
D29*
%TO.C,J2*%
X184767000Y-36000000D03*
X184767000Y-35500000D03*
X184767000Y-35000000D03*
X184767000Y-34500000D03*
X184767000Y-34000000D03*
X184767000Y-33500000D03*
X184767000Y-33000000D03*
X184767000Y-32500000D03*
X184767000Y-32000000D03*
X184767000Y-31500000D03*
X184767000Y-31000000D03*
X184767000Y-30500000D03*
X184767000Y-30000000D03*
X184767000Y-29500000D03*
X184767000Y-29000000D03*
X184767000Y-28500000D03*
X184767000Y-28000000D03*
X184767000Y-27500000D03*
X184767000Y-27000000D03*
X184767000Y-26500000D03*
X184767000Y-26000000D03*
X184767000Y-25500000D03*
X184767000Y-25000000D03*
X184767000Y-24500000D03*
D30*
X186467000Y-37670000D03*
X186467000Y-22830000D03*
%TD*%
D28*
%TO.C,R1*%
X127862500Y-69500000D03*
X129512500Y-69500000D03*
%TD*%
D10*
%TO.C,KiKit_MB_49_1*%
X191800000Y-96250000D03*
%TD*%
D25*
%TO.C,C1*%
X172682865Y-31908032D03*
X172682865Y-33458032D03*
%TD*%
D10*
%TO.C,KiKit_MB_51_3*%
X171000000Y-87200000D03*
%TD*%
D13*
%TO.C,KiKit_FID_T_2*%
X195751000Y-26000000D03*
%TD*%
D10*
%TO.C,KiKit_MB_8_3*%
X159500000Y-40800000D03*
%TD*%
D12*
%TO.C,C11*%
X180933764Y-59085530D03*
X182483764Y-59085530D03*
%TD*%
D10*
%TO.C,KiKit_MB_42_2*%
X181500000Y-85800000D03*
%TD*%
D18*
%TO.C,R4*%
X128837500Y-30000000D03*
X127187500Y-30000000D03*
%TD*%
%TO.C,R4*%
X128837500Y-75000000D03*
X127187500Y-75000000D03*
%TD*%
D10*
%TO.C,KiKit_MB_15_4*%
X138500000Y-42200000D03*
%TD*%
D28*
%TO.C,R1*%
X127862500Y-47000000D03*
X129512500Y-47000000D03*
%TD*%
D10*
%TO.C,KiKit_MB_5_4*%
X135500000Y-40800000D03*
%TD*%
%TO.C,KiKit_MB_24_4*%
X158500000Y-63300000D03*
%TD*%
%TO.C,KiKit_MB_27_4*%
X105200000Y-73750000D03*
%TD*%
%TO.C,KiKit_MB_31_2*%
X136500000Y-64700000D03*
%TD*%
%TO.C,KiKit_MB_27_1*%
X105200000Y-76750000D03*
%TD*%
D11*
%TO.C,D3*%
X175687500Y-24600000D03*
X175687500Y-27900000D03*
%TD*%
D20*
%TO.C,Q3*%
X137069832Y-100321634D03*
X135169832Y-100321634D03*
X136119832Y-102196634D03*
%TD*%
D10*
%TO.C,KiKit_MB_49_4*%
X191800000Y-99250000D03*
%TD*%
%TO.C,KiKit_MB_38_4*%
X172000000Y-64700000D03*
%TD*%
%TO.C,KiKit_MB_15_1*%
X135500000Y-42200000D03*
%TD*%
D29*
%TO.C,J2*%
X184767000Y-81000000D03*
X184767000Y-80500000D03*
X184767000Y-80000000D03*
X184767000Y-79500000D03*
X184767000Y-79000000D03*
X184767000Y-78500000D03*
X184767000Y-78000000D03*
X184767000Y-77500000D03*
X184767000Y-77000000D03*
X184767000Y-76500000D03*
X184767000Y-76000000D03*
X184767000Y-75500000D03*
X184767000Y-75000000D03*
X184767000Y-74500000D03*
X184767000Y-74000000D03*
X184767000Y-73500000D03*
X184767000Y-73000000D03*
X184767000Y-72500000D03*
X184767000Y-72000000D03*
X184767000Y-71500000D03*
X184767000Y-71000000D03*
X184767000Y-70500000D03*
X184767000Y-70000000D03*
X184767000Y-69500000D03*
D30*
X186467000Y-82670000D03*
X186467000Y-67830000D03*
%TD*%
D10*
%TO.C,KiKit_MB_24_3*%
X159500000Y-63300000D03*
%TD*%
%TO.C,KiKit_MB_3_3*%
X115500000Y-40800000D03*
%TD*%
D19*
%TO.C,C16*%
X182750000Y-54775000D03*
X182750000Y-53225000D03*
%TD*%
D10*
%TO.C,KiKit_MB_44_4*%
X147800000Y-99250000D03*
%TD*%
%TO.C,KiKit_MB_20_1*%
X191800000Y-51250000D03*
%TD*%
D12*
%TO.C,C7*%
X180975000Y-24500000D03*
X182525000Y-24500000D03*
%TD*%
D28*
%TO.C,R1*%
X171862500Y-24500000D03*
X173512500Y-24500000D03*
%TD*%
D12*
%TO.C,C10*%
X181224999Y-22789777D03*
X182774999Y-22789777D03*
%TD*%
D10*
%TO.C,KiKit_MB_47_3*%
X137500000Y-87200000D03*
%TD*%
%TO.C,KiKit_MB_29_2*%
X115500000Y-64700000D03*
%TD*%
D24*
%TO.C,KiKit_TO_4*%
X195751000Y-105750000D03*
%TD*%
D12*
%TO.C,C10*%
X137224999Y-45289777D03*
X138774999Y-45289777D03*
%TD*%
D10*
%TO.C,KiKit_MB_28_2*%
X147800000Y-74750000D03*
%TD*%
%TO.C,KiKit_MB_47_2*%
X136500000Y-87200000D03*
%TD*%
D23*
%TO.C,D1*%
X177540086Y-34053780D03*
X174240086Y-34053780D03*
%TD*%
D10*
%TO.C,KiKit_MB_45_4*%
X117500000Y-87200000D03*
%TD*%
%TO.C,KiKit_MB_17_1*%
X128000000Y-63300000D03*
%TD*%
%TO.C,KiKit_MB_37_4*%
X161500000Y-64700000D03*
%TD*%
%TO.C,KiKit_MB_21_3*%
X160500000Y-42200000D03*
%TD*%
%TO.C,KiKit_MB_41_1*%
X172000000Y-85800000D03*
%TD*%
%TO.C,KiKit_MB_39_4*%
X182500000Y-64700000D03*
%TD*%
%TO.C,KiKit_MB_41_3*%
X170000000Y-85800000D03*
%TD*%
%TO.C,KiKit_MB_38_2*%
X170000000Y-64700000D03*
%TD*%
D12*
%TO.C,C6*%
X137028724Y-71574577D03*
X138578724Y-71574577D03*
%TD*%
D10*
%TO.C,KiKit_MB_13_4*%
X117500000Y-42200000D03*
%TD*%
%TO.C,KiKit_MB_36_1*%
X191800000Y-73750000D03*
%TD*%
D18*
%TO.C,R3*%
X138036000Y-61151000D03*
X136386000Y-61151000D03*
%TD*%
D21*
%TO.C,J1*%
X169851363Y-106343235D03*
D22*
X171851363Y-106343235D03*
X173851363Y-106343235D03*
X175851363Y-106343235D03*
X177851363Y-106343235D03*
%TD*%
D25*
%TO.C,C1*%
X128682865Y-99408032D03*
X128682865Y-100958032D03*
%TD*%
D12*
%TO.C,C4*%
X177725000Y-89750000D03*
X179275000Y-89750000D03*
%TD*%
D10*
%TO.C,KiKit_MB_19_1*%
X149200000Y-54250000D03*
%TD*%
%TO.C,KiKit_MB_1_4*%
X105200000Y-28750000D03*
%TD*%
%TO.C,KiKit_MB_39_2*%
X180500000Y-64700000D03*
%TD*%
%TO.C,KiKit_MB_43_1*%
X105200000Y-99250000D03*
%TD*%
D12*
%TO.C,C6*%
X181028724Y-94074577D03*
X182578724Y-94074577D03*
%TD*%
%TO.C,C9*%
X136389234Y-73110744D03*
X137939234Y-73110744D03*
%TD*%
D11*
%TO.C,D2*%
X134087670Y-92654695D03*
X134087670Y-95954695D03*
%TD*%
D10*
%TO.C,KiKit_MB_2_4*%
X147800000Y-31750000D03*
%TD*%
D11*
%TO.C,D3*%
X131687500Y-24600000D03*
X131687500Y-27900000D03*
%TD*%
D13*
%TO.C,J3*%
X154600000Y-47750000D03*
X154600000Y-55750000D03*
D14*
X165600000Y-54950000D03*
X165600000Y-53850000D03*
X165600000Y-52750000D03*
X165600000Y-51650000D03*
X165600000Y-50550000D03*
X165600000Y-49450000D03*
X165600000Y-48350000D03*
X165600000Y-47250000D03*
D15*
X164300000Y-44950000D03*
D16*
X155000000Y-44950000D03*
D14*
X165600000Y-46150000D03*
D17*
X164550000Y-59550000D03*
D16*
X155000000Y-60450000D03*
%TD*%
D18*
%TO.C,R3*%
X182036000Y-106151000D03*
X180386000Y-106151000D03*
%TD*%
%TO.C,R4*%
X172837500Y-52500000D03*
X171187500Y-52500000D03*
%TD*%
%TO.C,R7*%
X126075000Y-36000000D03*
X124425000Y-36000000D03*
%TD*%
D31*
%TO.C,C3*%
X131763000Y-67776000D03*
X130213000Y-67776000D03*
%TD*%
D10*
%TO.C,KiKit_MB_23_3*%
X181500000Y-42200000D03*
%TD*%
%TO.C,KiKit_MB_51_1*%
X169000000Y-87200000D03*
%TD*%
%TO.C,KiKit_MB_32_4*%
X114500000Y-85800000D03*
%TD*%
D18*
%TO.C,R4*%
X172837500Y-75000000D03*
X171187500Y-75000000D03*
%TD*%
D31*
%TO.C,C3*%
X175763000Y-90276000D03*
X174213000Y-90276000D03*
%TD*%
D27*
%TO.C,L1*%
X175285350Y-99619676D03*
X175285350Y-97419676D03*
%TD*%
D10*
%TO.C,KiKit_MB_26_2*%
X181500000Y-63300000D03*
%TD*%
%TO.C,KiKit_MB_29_1*%
X114500000Y-64700000D03*
%TD*%
D29*
%TO.C,J2*%
X140767000Y-81000000D03*
X140767000Y-80500000D03*
X140767000Y-80000000D03*
X140767000Y-79500000D03*
X140767000Y-79000000D03*
X140767000Y-78500000D03*
X140767000Y-78000000D03*
X140767000Y-77500000D03*
X140767000Y-77000000D03*
X140767000Y-76500000D03*
X140767000Y-76000000D03*
X140767000Y-75500000D03*
X140767000Y-75000000D03*
X140767000Y-74500000D03*
X140767000Y-74000000D03*
X140767000Y-73500000D03*
X140767000Y-73000000D03*
X140767000Y-72500000D03*
X140767000Y-72000000D03*
X140767000Y-71500000D03*
X140767000Y-71000000D03*
X140767000Y-70500000D03*
X140767000Y-70000000D03*
X140767000Y-69500000D03*
D30*
X142467000Y-82670000D03*
X142467000Y-67830000D03*
%TD*%
D10*
%TO.C,KiKit_MB_5_3*%
X136500000Y-40800000D03*
%TD*%
D18*
%TO.C,R4*%
X128837500Y-97500000D03*
X127187500Y-97500000D03*
%TD*%
D10*
%TO.C,KiKit_MB_18_3*%
X136500000Y-63300000D03*
%TD*%
D25*
%TO.C,C1*%
X172682865Y-76908032D03*
X172682865Y-78458032D03*
%TD*%
D26*
%TO.C,Q4*%
X124323000Y-101437500D03*
X126223000Y-101437500D03*
X125273000Y-99562500D03*
%TD*%
D10*
%TO.C,KiKit_MB_3_2*%
X116500000Y-40800000D03*
%TD*%
D19*
%TO.C,C2*%
X133668000Y-54295382D03*
X133668000Y-52745382D03*
%TD*%
D10*
%TO.C,KiKit_MB_3_4*%
X114500000Y-40800000D03*
%TD*%
D12*
%TO.C,C8*%
X135364645Y-52466744D03*
X136914645Y-52466744D03*
%TD*%
%TO.C,C7*%
X180975000Y-69500000D03*
X182525000Y-69500000D03*
%TD*%
D23*
%TO.C,D1*%
X133540086Y-101553780D03*
X130240086Y-101553780D03*
%TD*%
D10*
%TO.C,KiKit_MB_46_4*%
X128000000Y-87200000D03*
%TD*%
%TO.C,KiKit_MB_12_4*%
X147800000Y-54250000D03*
%TD*%
D25*
%TO.C,C1*%
X172682865Y-54408032D03*
X172682865Y-55958032D03*
%TD*%
D10*
%TO.C,KiKit_MB_4_4*%
X125000000Y-40800000D03*
%TD*%
%TO.C,KiKit_MB_50_1*%
X158500000Y-87200000D03*
%TD*%
D28*
%TO.C,R1*%
X127862500Y-24500000D03*
X129512500Y-24500000D03*
%TD*%
D19*
%TO.C,C2*%
X177668000Y-31795382D03*
X177668000Y-30245382D03*
%TD*%
D18*
%TO.C,R3*%
X182036000Y-38651000D03*
X180386000Y-38651000D03*
%TD*%
D10*
%TO.C,KiKit_MB_29_3*%
X116500000Y-64700000D03*
%TD*%
%TO.C,KiKit_MB_22_3*%
X171000000Y-42200000D03*
%TD*%
D19*
%TO.C,C2*%
X177668000Y-99295382D03*
X177668000Y-97745382D03*
%TD*%
D10*
%TO.C,KiKit_MB_39_1*%
X179500000Y-64700000D03*
%TD*%
%TO.C,KiKit_MB_7_4*%
X191800000Y-31750000D03*
%TD*%
D12*
%TO.C,C10*%
X137224999Y-90289777D03*
X138774999Y-90289777D03*
%TD*%
%TO.C,C9*%
X136389234Y-50610744D03*
X137939234Y-50610744D03*
%TD*%
D10*
%TO.C,KiKit_MB_18_2*%
X137500000Y-63300000D03*
%TD*%
D21*
%TO.C,J1*%
X125851363Y-83843235D03*
D22*
X127851363Y-83843235D03*
X129851363Y-83843235D03*
X131851363Y-83843235D03*
X133851363Y-83843235D03*
%TD*%
D11*
%TO.C,D2*%
X178087670Y-70154695D03*
X178087670Y-73454695D03*
%TD*%
D10*
%TO.C,KiKit_MB_6_2*%
X149200000Y-30750000D03*
%TD*%
%TO.C,KiKit_MB_19_4*%
X149200000Y-51250000D03*
%TD*%
%TO.C,KiKit_MB_2_3*%
X147800000Y-30750000D03*
%TD*%
%TO.C,KiKit_MB_45_3*%
X116500000Y-87200000D03*
%TD*%
D12*
%TO.C,C4*%
X133725000Y-89750000D03*
X135275000Y-89750000D03*
%TD*%
D10*
%TO.C,KiKit_MB_26_3*%
X180500000Y-63300000D03*
%TD*%
D12*
%TO.C,C8*%
X179364645Y-52466744D03*
X180914645Y-52466744D03*
%TD*%
%TO.C,C10*%
X181224999Y-45289777D03*
X182774999Y-45289777D03*
%TD*%
D32*
%TO.C,Q1*%
X171312500Y-48800000D03*
X171312500Y-50700000D03*
X173187500Y-49750000D03*
%TD*%
D10*
%TO.C,KiKit_MB_51_2*%
X170000000Y-87200000D03*
%TD*%
D19*
%TO.C,C15*%
X168250000Y-96525000D03*
X168250000Y-94975000D03*
%TD*%
%TO.C,C16*%
X182750000Y-77275000D03*
X182750000Y-75725000D03*
%TD*%
D10*
%TO.C,KiKit_MB_1_2*%
X105200000Y-30750000D03*
%TD*%
D12*
%TO.C,C9*%
X180389234Y-95610744D03*
X181939234Y-95610744D03*
%TD*%
D13*
%TO.C,J3*%
X110600000Y-47750000D03*
X110600000Y-55750000D03*
D14*
X121600000Y-54950000D03*
X121600000Y-53850000D03*
X121600000Y-52750000D03*
X121600000Y-51650000D03*
X121600000Y-50550000D03*
X121600000Y-49450000D03*
X121600000Y-48350000D03*
X121600000Y-47250000D03*
D15*
X120300000Y-44950000D03*
D16*
X111000000Y-44950000D03*
D14*
X121600000Y-46150000D03*
D17*
X120550000Y-59550000D03*
D16*
X111000000Y-60450000D03*
%TD*%
D21*
%TO.C,J1*%
X169851363Y-61343235D03*
D22*
X171851363Y-61343235D03*
X173851363Y-61343235D03*
X175851363Y-61343235D03*
X177851363Y-61343235D03*
%TD*%
D18*
%TO.C,R3*%
X182036000Y-61151000D03*
X180386000Y-61151000D03*
%TD*%
D21*
%TO.C,J1*%
X169851363Y-38843235D03*
D22*
X171851363Y-38843235D03*
X173851363Y-38843235D03*
X175851363Y-38843235D03*
X177851363Y-38843235D03*
%TD*%
D12*
%TO.C,C4*%
X177725000Y-67250000D03*
X179275000Y-67250000D03*
%TD*%
D10*
%TO.C,KiKit_MB_32_2*%
X116500000Y-85800000D03*
%TD*%
D12*
%TO.C,C4*%
X177725000Y-44750000D03*
X179275000Y-44750000D03*
%TD*%
D10*
%TO.C,KiKit_MB_1_3*%
X105200000Y-29750000D03*
%TD*%
D27*
%TO.C,L1*%
X175285350Y-54619676D03*
X175285350Y-52419676D03*
%TD*%
D18*
%TO.C,R3*%
X182036000Y-83651000D03*
X180386000Y-83651000D03*
%TD*%
D12*
%TO.C,C7*%
X136975000Y-47000000D03*
X138525000Y-47000000D03*
%TD*%
%TO.C,C6*%
X137028724Y-26574577D03*
X138578724Y-26574577D03*
%TD*%
D10*
%TO.C,KiKit_MB_5_1*%
X138500000Y-40800000D03*
%TD*%
D19*
%TO.C,C16*%
X182750000Y-99775000D03*
X182750000Y-98225000D03*
%TD*%
D10*
%TO.C,KiKit_MB_50_2*%
X159500000Y-87200000D03*
%TD*%
%TO.C,KiKit_MB_20_2*%
X191800000Y-52250000D03*
%TD*%
D29*
%TO.C,J2*%
X184767000Y-58500000D03*
X184767000Y-58000000D03*
X184767000Y-57500000D03*
X184767000Y-57000000D03*
X184767000Y-56500000D03*
X184767000Y-56000000D03*
X184767000Y-55500000D03*
X184767000Y-55000000D03*
X184767000Y-54500000D03*
X184767000Y-54000000D03*
X184767000Y-53500000D03*
X184767000Y-53000000D03*
X184767000Y-52500000D03*
X184767000Y-52000000D03*
X184767000Y-51500000D03*
X184767000Y-51000000D03*
X184767000Y-50500000D03*
X184767000Y-50000000D03*
X184767000Y-49500000D03*
X184767000Y-49000000D03*
X184767000Y-48500000D03*
X184767000Y-48000000D03*
X184767000Y-47500000D03*
X184767000Y-47000000D03*
D30*
X186467000Y-60170000D03*
X186467000Y-45330000D03*
%TD*%
D27*
%TO.C,L1*%
X175285350Y-32119676D03*
X175285350Y-29919676D03*
%TD*%
D10*
%TO.C,KiKit_MB_37_1*%
X158500000Y-64700000D03*
%TD*%
%TO.C,KiKit_MB_47_4*%
X138500000Y-87200000D03*
%TD*%
%TO.C,KiKit_MB_36_4*%
X191800000Y-76750000D03*
%TD*%
D13*
%TO.C,KiKit_FID_T_3*%
X101249000Y-102000000D03*
%TD*%
D10*
%TO.C,KiKit_MB_35_3*%
X149200000Y-74750000D03*
%TD*%
%TO.C,KiKit_MB_16_4*%
X114500000Y-63300000D03*
%TD*%
D12*
%TO.C,C11*%
X136933764Y-59085530D03*
X138483764Y-59085530D03*
%TD*%
D23*
%TO.C,D1*%
X133540086Y-79053780D03*
X130240086Y-79053780D03*
%TD*%
D12*
%TO.C,C8*%
X135364645Y-29966744D03*
X136914645Y-29966744D03*
%TD*%
%TO.C,C9*%
X180389234Y-28110744D03*
X181939234Y-28110744D03*
%TD*%
D28*
%TO.C,R1*%
X171862500Y-47000000D03*
X173512500Y-47000000D03*
%TD*%
D10*
%TO.C,KiKit_MB_18_1*%
X138500000Y-63300000D03*
%TD*%
D11*
%TO.C,D3*%
X131687500Y-47100000D03*
X131687500Y-50400000D03*
%TD*%
D10*
%TO.C,KiKit_MB_6_3*%
X149200000Y-29750000D03*
%TD*%
%TO.C,KiKit_MB_35_4*%
X149200000Y-73750000D03*
%TD*%
D12*
%TO.C,C11*%
X136933764Y-36585530D03*
X138483764Y-36585530D03*
%TD*%
D20*
%TO.C,Q3*%
X137069832Y-77821634D03*
X135169832Y-77821634D03*
X136119832Y-79696634D03*
%TD*%
D10*
%TO.C,KiKit_MB_7_3*%
X191800000Y-30750000D03*
%TD*%
D29*
%TO.C,J2*%
X140767000Y-36000000D03*
X140767000Y-35500000D03*
X140767000Y-35000000D03*
X140767000Y-34500000D03*
X140767000Y-34000000D03*
X140767000Y-33500000D03*
X140767000Y-33000000D03*
X140767000Y-32500000D03*
X140767000Y-32000000D03*
X140767000Y-31500000D03*
X140767000Y-31000000D03*
X140767000Y-30500000D03*
X140767000Y-30000000D03*
X140767000Y-29500000D03*
X140767000Y-29000000D03*
X140767000Y-28500000D03*
X140767000Y-28000000D03*
X140767000Y-27500000D03*
X140767000Y-27000000D03*
X140767000Y-26500000D03*
X140767000Y-26000000D03*
X140767000Y-25500000D03*
X140767000Y-25000000D03*
X140767000Y-24500000D03*
D30*
X142467000Y-37670000D03*
X142467000Y-22830000D03*
%TD*%
D18*
%TO.C,R7*%
X126075000Y-103500000D03*
X124425000Y-103500000D03*
%TD*%
D19*
%TO.C,C2*%
X177668000Y-54295382D03*
X177668000Y-52745382D03*
%TD*%
D10*
%TO.C,KiKit_MB_31_3*%
X137500000Y-64700000D03*
%TD*%
D31*
%TO.C,C3*%
X131763000Y-90276000D03*
X130213000Y-90276000D03*
%TD*%
D10*
%TO.C,KiKit_MB_47_1*%
X135500000Y-87200000D03*
%TD*%
%TO.C,KiKit_MB_26_1*%
X182500000Y-63300000D03*
%TD*%
D19*
%TO.C,C15*%
X124250000Y-74025000D03*
X124250000Y-72475000D03*
%TD*%
D12*
%TO.C,C8*%
X179364645Y-97466744D03*
X180914645Y-97466744D03*
%TD*%
D10*
%TO.C,KiKit_MB_9_3*%
X170000000Y-40800000D03*
%TD*%
D24*
%TO.C,KiKit_TO_3*%
X101249000Y-105750000D03*
%TD*%
D11*
%TO.C,D2*%
X178087670Y-92654695D03*
X178087670Y-95954695D03*
%TD*%
D13*
%TO.C,KiKit_FID_T_1*%
X101249000Y-26000000D03*
%TD*%
D10*
%TO.C,KiKit_MB_51_4*%
X172000000Y-87200000D03*
%TD*%
%TO.C,KiKit_MB_40_2*%
X160500000Y-85800000D03*
%TD*%
%TO.C,KiKit_MB_20_3*%
X191800000Y-53250000D03*
%TD*%
%TO.C,KiKit_MB_36_2*%
X191800000Y-74750000D03*
%TD*%
D12*
%TO.C,C11*%
X180933764Y-81585530D03*
X182483764Y-81585530D03*
%TD*%
D10*
%TO.C,KiKit_MB_23_4*%
X182500000Y-42200000D03*
%TD*%
%TO.C,KiKit_MB_43_2*%
X105200000Y-98250000D03*
%TD*%
D11*
%TO.C,D3*%
X175687500Y-69600000D03*
X175687500Y-72900000D03*
%TD*%
D10*
%TO.C,KiKit_MB_44_1*%
X147800000Y-96250000D03*
%TD*%
%TO.C,KiKit_MB_10_4*%
X179500000Y-40800000D03*
%TD*%
D32*
%TO.C,Q1*%
X127312500Y-71300000D03*
X127312500Y-73200000D03*
X129187500Y-72250000D03*
%TD*%
D10*
%TO.C,KiKit_MB_8_1*%
X161500000Y-40800000D03*
%TD*%
D19*
%TO.C,C15*%
X124250000Y-96525000D03*
X124250000Y-94975000D03*
%TD*%
D10*
%TO.C,KiKit_MB_40_4*%
X158500000Y-85800000D03*
%TD*%
D28*
%TO.C,R1*%
X171862500Y-92000000D03*
X173512500Y-92000000D03*
%TD*%
D10*
%TO.C,KiKit_MB_52_4*%
X182500000Y-87200000D03*
%TD*%
D31*
%TO.C,C3*%
X175763000Y-67776000D03*
X174213000Y-67776000D03*
%TD*%
D32*
%TO.C,Q1*%
X127312500Y-93800000D03*
X127312500Y-95700000D03*
X129187500Y-94750000D03*
%TD*%
D10*
%TO.C,KiKit_MB_6_4*%
X149200000Y-28750000D03*
%TD*%
%TO.C,KiKit_MB_10_2*%
X181500000Y-40800000D03*
%TD*%
D12*
%TO.C,C10*%
X137224999Y-22789777D03*
X138774999Y-22789777D03*
%TD*%
D10*
%TO.C,KiKit_MB_33_1*%
X128000000Y-85800000D03*
%TD*%
D13*
%TO.C,J3*%
X154600000Y-70250000D03*
X154600000Y-78250000D03*
D14*
X165600000Y-77450000D03*
X165600000Y-76350000D03*
X165600000Y-75250000D03*
X165600000Y-74150000D03*
X165600000Y-73050000D03*
X165600000Y-71950000D03*
X165600000Y-70850000D03*
X165600000Y-69750000D03*
D15*
X164300000Y-67450000D03*
D16*
X155000000Y-67450000D03*
D14*
X165600000Y-68650000D03*
D17*
X164550000Y-82050000D03*
D16*
X155000000Y-82950000D03*
%TD*%
D12*
%TO.C,C9*%
X136389234Y-95610744D03*
X137939234Y-95610744D03*
%TD*%
D10*
%TO.C,KiKit_MB_40_3*%
X159500000Y-85800000D03*
%TD*%
D19*
%TO.C,C2*%
X133668000Y-76795382D03*
X133668000Y-75245382D03*
%TD*%
D20*
%TO.C,Q3*%
X181069832Y-77821634D03*
X179169832Y-77821634D03*
X180119832Y-79696634D03*
%TD*%
D10*
%TO.C,KiKit_MB_42_3*%
X180500000Y-85800000D03*
%TD*%
D31*
%TO.C,C3*%
X175763000Y-22776000D03*
X174213000Y-22776000D03*
%TD*%
D18*
%TO.C,R7*%
X126075000Y-58500000D03*
X124425000Y-58500000D03*
%TD*%
D26*
%TO.C,Q4*%
X168323000Y-56437500D03*
X170223000Y-56437500D03*
X169273000Y-54562500D03*
%TD*%
D32*
%TO.C,Q1*%
X171312500Y-93800000D03*
X171312500Y-95700000D03*
X173187500Y-94750000D03*
%TD*%
D21*
%TO.C,J1*%
X169851363Y-83843235D03*
D22*
X171851363Y-83843235D03*
X173851363Y-83843235D03*
X175851363Y-83843235D03*
X177851363Y-83843235D03*
%TD*%
D10*
%TO.C,KiKit_MB_48_3*%
X149200000Y-97250000D03*
%TD*%
%TO.C,KiKit_MB_9_4*%
X169000000Y-40800000D03*
%TD*%
D12*
%TO.C,C6*%
X181028724Y-26574577D03*
X182578724Y-26574577D03*
%TD*%
D10*
%TO.C,KiKit_MB_8_4*%
X158500000Y-40800000D03*
%TD*%
%TO.C,KiKit_MB_34_3*%
X136500000Y-85800000D03*
%TD*%
D13*
%TO.C,J3*%
X110600000Y-25250000D03*
X110600000Y-33250000D03*
D14*
X121600000Y-32450000D03*
X121600000Y-31350000D03*
X121600000Y-30250000D03*
X121600000Y-29150000D03*
X121600000Y-28050000D03*
X121600000Y-26950000D03*
X121600000Y-25850000D03*
X121600000Y-24750000D03*
D15*
X120300000Y-22450000D03*
D16*
X111000000Y-22450000D03*
D14*
X121600000Y-23650000D03*
D17*
X120550000Y-37050000D03*
D16*
X111000000Y-37950000D03*
%TD*%
D10*
%TO.C,KiKit_MB_17_4*%
X125000000Y-63300000D03*
%TD*%
D18*
%TO.C,R4*%
X128837500Y-52500000D03*
X127187500Y-52500000D03*
%TD*%
D10*
%TO.C,KiKit_MB_14_2*%
X126000000Y-42200000D03*
%TD*%
%TO.C,KiKit_MB_28_1*%
X147800000Y-73750000D03*
%TD*%
D26*
%TO.C,Q4*%
X168323000Y-101437500D03*
X170223000Y-101437500D03*
X169273000Y-99562500D03*
%TD*%
D10*
%TO.C,KiKit_MB_9_1*%
X172000000Y-40800000D03*
%TD*%
D11*
%TO.C,D3*%
X175687500Y-47100000D03*
X175687500Y-50400000D03*
%TD*%
D10*
%TO.C,KiKit_MB_12_1*%
X147800000Y-51250000D03*
%TD*%
D32*
%TO.C,Q1*%
X127312500Y-48800000D03*
X127312500Y-50700000D03*
X129187500Y-49750000D03*
%TD*%
D12*
%TO.C,C10*%
X181224999Y-67789777D03*
X182774999Y-67789777D03*
%TD*%
D20*
%TO.C,Q3*%
X181069832Y-55321634D03*
X179169832Y-55321634D03*
X180119832Y-57196634D03*
%TD*%
D25*
%TO.C,C1*%
X128682865Y-54408032D03*
X128682865Y-55958032D03*
%TD*%
D19*
%TO.C,C15*%
X168250000Y-29025000D03*
X168250000Y-27475000D03*
%TD*%
D10*
%TO.C,KiKit_MB_18_4*%
X135500000Y-63300000D03*
%TD*%
D25*
%TO.C,C1*%
X128682865Y-31908032D03*
X128682865Y-33458032D03*
%TD*%
D10*
%TO.C,KiKit_MB_43_4*%
X105200000Y-96250000D03*
%TD*%
%TO.C,KiKit_MB_12_3*%
X147800000Y-53250000D03*
%TD*%
%TO.C,KiKit_MB_26_4*%
X179500000Y-63300000D03*
%TD*%
%TO.C,KiKit_MB_34_1*%
X138500000Y-85800000D03*
%TD*%
%TO.C,KiKit_MB_10_1*%
X182500000Y-40800000D03*
%TD*%
D20*
%TO.C,Q3*%
X137069832Y-32821634D03*
X135169832Y-32821634D03*
X136119832Y-34696634D03*
%TD*%
D12*
%TO.C,C6*%
X181028724Y-49074577D03*
X182578724Y-49074577D03*
%TD*%
D11*
%TO.C,D3*%
X175687500Y-92100000D03*
X175687500Y-95400000D03*
%TD*%
D27*
%TO.C,L1*%
X131285350Y-32119676D03*
X131285350Y-29919676D03*
%TD*%
D10*
%TO.C,KiKit_MB_5_2*%
X137500000Y-40800000D03*
%TD*%
D31*
%TO.C,C3*%
X131763000Y-45276000D03*
X130213000Y-45276000D03*
%TD*%
D10*
%TO.C,KiKit_MB_30_1*%
X125000000Y-64700000D03*
%TD*%
D26*
%TO.C,Q4*%
X124323000Y-56437500D03*
X126223000Y-56437500D03*
X125273000Y-54562500D03*
%TD*%
D10*
%TO.C,KiKit_MB_49_3*%
X191800000Y-98250000D03*
%TD*%
%TO.C,KiKit_MB_34_4*%
X135500000Y-85800000D03*
%TD*%
%TO.C,KiKit_MB_34_2*%
X137500000Y-85800000D03*
%TD*%
D12*
%TO.C,C4*%
X133725000Y-22250000D03*
X135275000Y-22250000D03*
%TD*%
D10*
%TO.C,KiKit_MB_25_4*%
X169000000Y-63300000D03*
%TD*%
%TO.C,KiKit_MB_16_3*%
X115500000Y-63300000D03*
%TD*%
%TO.C,KiKit_MB_52_3*%
X181500000Y-87200000D03*
%TD*%
%TO.C,KiKit_MB_28_3*%
X147800000Y-75750000D03*
%TD*%
%TO.C,KiKit_MB_15_3*%
X137500000Y-42200000D03*
%TD*%
D18*
%TO.C,R4*%
X172837500Y-97500000D03*
X171187500Y-97500000D03*
%TD*%
%TO.C,R7*%
X170075000Y-36000000D03*
X168425000Y-36000000D03*
%TD*%
D10*
%TO.C,KiKit_MB_8_2*%
X160500000Y-40800000D03*
%TD*%
D26*
%TO.C,Q4*%
X168323000Y-33937500D03*
X170223000Y-33937500D03*
X169273000Y-32062500D03*
%TD*%
D31*
%TO.C,C3*%
X175763000Y-45276000D03*
X174213000Y-45276000D03*
%TD*%
D18*
%TO.C,R7*%
X126075000Y-81000000D03*
X124425000Y-81000000D03*
%TD*%
D19*
%TO.C,C15*%
X168250000Y-51525000D03*
X168250000Y-49975000D03*
%TD*%
D10*
%TO.C,KiKit_MB_4_1*%
X128000000Y-40800000D03*
%TD*%
%TO.C,KiKit_MB_7_2*%
X191800000Y-29750000D03*
%TD*%
D12*
%TO.C,C9*%
X136389234Y-28110744D03*
X137939234Y-28110744D03*
%TD*%
D31*
%TO.C,C3*%
X131763000Y-22776000D03*
X130213000Y-22776000D03*
%TD*%
D12*
%TO.C,C6*%
X181028724Y-71574577D03*
X182578724Y-71574577D03*
%TD*%
D13*
%TO.C,J3*%
X154600000Y-25250000D03*
X154600000Y-33250000D03*
D14*
X165600000Y-32450000D03*
X165600000Y-31350000D03*
X165600000Y-30250000D03*
X165600000Y-29150000D03*
X165600000Y-28050000D03*
X165600000Y-26950000D03*
X165600000Y-25850000D03*
X165600000Y-24750000D03*
D15*
X164300000Y-22450000D03*
D16*
X155000000Y-22450000D03*
D14*
X165600000Y-23650000D03*
D17*
X164550000Y-37050000D03*
D16*
X155000000Y-37950000D03*
%TD*%
D10*
%TO.C,KiKit_MB_11_1*%
X105200000Y-54250000D03*
%TD*%
%TO.C,KiKit_MB_44_3*%
X147800000Y-98250000D03*
%TD*%
D19*
%TO.C,C15*%
X168250000Y-74025000D03*
X168250000Y-72475000D03*
%TD*%
D12*
%TO.C,C8*%
X135364645Y-97466744D03*
X136914645Y-97466744D03*
%TD*%
D10*
%TO.C,KiKit_MB_9_2*%
X171000000Y-40800000D03*
%TD*%
%TO.C,KiKit_MB_48_1*%
X149200000Y-99250000D03*
%TD*%
%TO.C,KiKit_MB_4_3*%
X126000000Y-40800000D03*
%TD*%
%TO.C,KiKit_MB_36_3*%
X191800000Y-75750000D03*
%TD*%
D27*
%TO.C,L1*%
X175285350Y-77119676D03*
X175285350Y-74919676D03*
%TD*%
D26*
%TO.C,Q4*%
X124323000Y-33937500D03*
X126223000Y-33937500D03*
X125273000Y-32062500D03*
%TD*%
D12*
%TO.C,C7*%
X180975000Y-92000000D03*
X182525000Y-92000000D03*
%TD*%
D10*
%TO.C,KiKit_MB_33_4*%
X125000000Y-85800000D03*
%TD*%
D19*
%TO.C,C16*%
X138750000Y-77275000D03*
X138750000Y-75725000D03*
%TD*%
D10*
%TO.C,KiKit_MB_41_4*%
X169000000Y-85800000D03*
%TD*%
%TO.C,KiKit_MB_21_2*%
X159500000Y-42200000D03*
%TD*%
%TO.C,KiKit_MB_23_2*%
X180500000Y-42200000D03*
%TD*%
D13*
%TO.C,J3*%
X110600000Y-92750000D03*
X110600000Y-100750000D03*
D14*
X121600000Y-99950000D03*
X121600000Y-98850000D03*
X121600000Y-97750000D03*
X121600000Y-96650000D03*
X121600000Y-95550000D03*
X121600000Y-94450000D03*
X121600000Y-93350000D03*
X121600000Y-92250000D03*
D15*
X120300000Y-89950000D03*
D16*
X111000000Y-89950000D03*
D14*
X121600000Y-91150000D03*
D17*
X120550000Y-104550000D03*
D16*
X111000000Y-105450000D03*
%TD*%
D25*
%TO.C,C1*%
X128682865Y-76908032D03*
X128682865Y-78458032D03*
%TD*%
D10*
%TO.C,KiKit_MB_10_3*%
X180500000Y-40800000D03*
%TD*%
%TO.C,KiKit_MB_21_4*%
X161500000Y-42200000D03*
%TD*%
D19*
%TO.C,C15*%
X124250000Y-29025000D03*
X124250000Y-27475000D03*
%TD*%
D27*
%TO.C,L1*%
X131285350Y-99619676D03*
X131285350Y-97419676D03*
%TD*%
D18*
%TO.C,R4*%
X172837500Y-30000000D03*
X171187500Y-30000000D03*
%TD*%
D10*
%TO.C,KiKit_MB_41_2*%
X171000000Y-85800000D03*
%TD*%
%TO.C,KiKit_MB_32_1*%
X117500000Y-85800000D03*
%TD*%
%TO.C,KiKit_MB_19_3*%
X149200000Y-52250000D03*
%TD*%
D12*
%TO.C,C11*%
X136933764Y-81585530D03*
X138483764Y-81585530D03*
%TD*%
D11*
%TO.C,D2*%
X134087670Y-25154695D03*
X134087670Y-28454695D03*
%TD*%
D20*
%TO.C,Q3*%
X181069832Y-100321634D03*
X179169832Y-100321634D03*
X180119832Y-102196634D03*
%TD*%
D11*
%TO.C,D2*%
X178087670Y-47654695D03*
X178087670Y-50954695D03*
%TD*%
D29*
%TO.C,J2*%
X140767000Y-103500000D03*
X140767000Y-103000000D03*
X140767000Y-102500000D03*
X140767000Y-102000000D03*
X140767000Y-101500000D03*
X140767000Y-101000000D03*
X140767000Y-100500000D03*
X140767000Y-100000000D03*
X140767000Y-99500000D03*
X140767000Y-99000000D03*
X140767000Y-98500000D03*
X140767000Y-98000000D03*
X140767000Y-97500000D03*
X140767000Y-97000000D03*
X140767000Y-96500000D03*
X140767000Y-96000000D03*
X140767000Y-95500000D03*
X140767000Y-95000000D03*
X140767000Y-94500000D03*
X140767000Y-94000000D03*
X140767000Y-93500000D03*
X140767000Y-93000000D03*
X140767000Y-92500000D03*
X140767000Y-92000000D03*
D30*
X142467000Y-105170000D03*
X142467000Y-90330000D03*
%TD*%
D10*
%TO.C,KiKit_MB_43_3*%
X105200000Y-97250000D03*
%TD*%
D12*
%TO.C,C9*%
X180389234Y-50610744D03*
X181939234Y-50610744D03*
%TD*%
D19*
%TO.C,C2*%
X177668000Y-76795382D03*
X177668000Y-75245382D03*
%TD*%
D12*
%TO.C,C7*%
X136975000Y-92000000D03*
X138525000Y-92000000D03*
%TD*%
D18*
%TO.C,R3*%
X138036000Y-38651000D03*
X136386000Y-38651000D03*
%TD*%
D12*
%TO.C,C8*%
X179364645Y-74966744D03*
X180914645Y-74966744D03*
%TD*%
D18*
%TO.C,R7*%
X170075000Y-81000000D03*
X168425000Y-81000000D03*
%TD*%
D10*
%TO.C,KiKit_MB_17_2*%
X127000000Y-63300000D03*
%TD*%
%TO.C,KiKit_MB_37_3*%
X160500000Y-64700000D03*
%TD*%
%TO.C,KiKit_MB_33_2*%
X127000000Y-85800000D03*
%TD*%
D12*
%TO.C,C11*%
X180933764Y-104085530D03*
X182483764Y-104085530D03*
%TD*%
%TO.C,C7*%
X180975000Y-47000000D03*
X182525000Y-47000000D03*
%TD*%
D32*
%TO.C,Q1*%
X127312500Y-26300000D03*
X127312500Y-28200000D03*
X129187500Y-27250000D03*
%TD*%
D10*
%TO.C,KiKit_MB_30_4*%
X128000000Y-64700000D03*
%TD*%
%TO.C,KiKit_MB_20_4*%
X191800000Y-54250000D03*
%TD*%
D18*
%TO.C,R7*%
X170075000Y-103500000D03*
X168425000Y-103500000D03*
%TD*%
D10*
%TO.C,KiKit_MB_52_1*%
X179500000Y-87200000D03*
%TD*%
D11*
%TO.C,D2*%
X178087670Y-25154695D03*
X178087670Y-28454695D03*
%TD*%
D10*
%TO.C,KiKit_MB_23_1*%
X179500000Y-42200000D03*
%TD*%
%TO.C,KiKit_MB_44_2*%
X147800000Y-97250000D03*
%TD*%
D12*
%TO.C,C10*%
X137224999Y-67789777D03*
X138774999Y-67789777D03*
%TD*%
D10*
%TO.C,KiKit_MB_48_2*%
X149200000Y-98250000D03*
%TD*%
D12*
%TO.C,C6*%
X137028724Y-49074577D03*
X138578724Y-49074577D03*
%TD*%
D10*
%TO.C,KiKit_MB_4_2*%
X127000000Y-40800000D03*
%TD*%
D11*
%TO.C,D3*%
X131687500Y-92100000D03*
X131687500Y-95400000D03*
%TD*%
D10*
%TO.C,KiKit_MB_22_2*%
X170000000Y-42200000D03*
%TD*%
%TO.C,KiKit_MB_27_3*%
X105200000Y-74750000D03*
%TD*%
D32*
%TO.C,Q1*%
X171312500Y-71300000D03*
X171312500Y-73200000D03*
X173187500Y-72250000D03*
%TD*%
D10*
%TO.C,KiKit_MB_22_1*%
X169000000Y-42200000D03*
%TD*%
D12*
%TO.C,C8*%
X179364645Y-29966744D03*
X180914645Y-29966744D03*
%TD*%
D10*
%TO.C,KiKit_MB_11_4*%
X105200000Y-51250000D03*
%TD*%
%TO.C,KiKit_MB_24_1*%
X161500000Y-63300000D03*
%TD*%
%TO.C,KiKit_MB_38_1*%
X169000000Y-64700000D03*
%TD*%
D23*
%TO.C,D1*%
X177540086Y-79053780D03*
X174240086Y-79053780D03*
%TD*%
D10*
%TO.C,KiKit_MB_48_4*%
X149200000Y-96250000D03*
%TD*%
%TO.C,KiKit_MB_35_1*%
X149200000Y-76750000D03*
%TD*%
D23*
%TO.C,D1*%
X177540086Y-56553780D03*
X174240086Y-56553780D03*
%TD*%
D10*
%TO.C,KiKit_MB_45_1*%
X114500000Y-87200000D03*
%TD*%
%TO.C,KiKit_MB_2_1*%
X147800000Y-28750000D03*
%TD*%
D11*
%TO.C,D2*%
X134087670Y-47654695D03*
X134087670Y-50954695D03*
%TD*%
D10*
%TO.C,KiKit_MB_16_1*%
X117500000Y-63300000D03*
%TD*%
D32*
%TO.C,Q1*%
X171312500Y-26300000D03*
X171312500Y-28200000D03*
X173187500Y-27250000D03*
%TD*%
D12*
%TO.C,C6*%
X137028724Y-94074577D03*
X138578724Y-94074577D03*
%TD*%
D10*
%TO.C,KiKit_MB_15_2*%
X136500000Y-42200000D03*
%TD*%
D21*
%TO.C,J1*%
X125851363Y-38843235D03*
D22*
X127851363Y-38843235D03*
X129851363Y-38843235D03*
X131851363Y-38843235D03*
X133851363Y-38843235D03*
%TD*%
D24*
%TO.C,KiKit_TO_1*%
X101249000Y-22250000D03*
%TD*%
D19*
%TO.C,C2*%
X133668000Y-99295382D03*
X133668000Y-97745382D03*
%TD*%
D18*
%TO.C,R3*%
X138036000Y-106151000D03*
X136386000Y-106151000D03*
%TD*%
D10*
%TO.C,KiKit_MB_14_1*%
X125000000Y-42200000D03*
%TD*%
D26*
%TO.C,Q4*%
X168323000Y-78937500D03*
X170223000Y-78937500D03*
X169273000Y-77062500D03*
%TD*%
D10*
%TO.C,KiKit_MB_52_2*%
X180500000Y-87200000D03*
%TD*%
D20*
%TO.C,Q3*%
X181069832Y-32821634D03*
X179169832Y-32821634D03*
X180119832Y-34696634D03*
%TD*%
D29*
%TO.C,J2*%
X140767000Y-58500000D03*
X140767000Y-58000000D03*
X140767000Y-57500000D03*
X140767000Y-57000000D03*
X140767000Y-56500000D03*
X140767000Y-56000000D03*
X140767000Y-55500000D03*
X140767000Y-55000000D03*
X140767000Y-54500000D03*
X140767000Y-54000000D03*
X140767000Y-53500000D03*
X140767000Y-53000000D03*
X140767000Y-52500000D03*
X140767000Y-52000000D03*
X140767000Y-51500000D03*
X140767000Y-51000000D03*
X140767000Y-50500000D03*
X140767000Y-50000000D03*
X140767000Y-49500000D03*
X140767000Y-49000000D03*
X140767000Y-48500000D03*
X140767000Y-48000000D03*
X140767000Y-47500000D03*
X140767000Y-47000000D03*
D30*
X142467000Y-60170000D03*
X142467000Y-45330000D03*
%TD*%
D10*
%TO.C,KiKit_MB_31_1*%
X135500000Y-64700000D03*
%TD*%
D19*
%TO.C,C2*%
X133668000Y-31795382D03*
X133668000Y-30245382D03*
%TD*%
D10*
%TO.C,KiKit_MB_28_4*%
X147800000Y-76750000D03*
%TD*%
%TO.C,KiKit_MB_50_4*%
X161500000Y-87200000D03*
%TD*%
D18*
%TO.C,R3*%
X138036000Y-83651000D03*
X136386000Y-83651000D03*
%TD*%
D10*
%TO.C,KiKit_MB_11_2*%
X105200000Y-53250000D03*
%TD*%
D28*
%TO.C,R1*%
X171862500Y-69500000D03*
X173512500Y-69500000D03*
%TD*%
D10*
%TO.C,KiKit_MB_3_1*%
X117500000Y-40800000D03*
%TD*%
D11*
%TO.C,D3*%
X131687500Y-69600000D03*
X131687500Y-72900000D03*
%TD*%
D10*
%TO.C,KiKit_MB_46_1*%
X125000000Y-87200000D03*
%TD*%
D12*
%TO.C,C4*%
X177725000Y-22250000D03*
X179275000Y-22250000D03*
%TD*%
D10*
%TO.C,KiKit_MB_45_2*%
X115500000Y-87200000D03*
%TD*%
D23*
%TO.C,D1*%
X133540086Y-34053780D03*
X130240086Y-34053780D03*
%TD*%
D19*
%TO.C,C16*%
X138750000Y-32275000D03*
X138750000Y-30725000D03*
%TD*%
D10*
%TO.C,KiKit_MB_2_2*%
X147800000Y-29750000D03*
%TD*%
M02*
