%TF.GenerationSoftware,KiCad,Pcbnew,8.0.0*%
%TF.CreationDate,2024-05-28T16:04:12+09:00*%
%TF.ProjectId,Panel,50616e65-6c2e-46b6-9963-61645f706362,rev?*%
%TF.SameCoordinates,Original*%
%TF.FileFunction,Profile,NP*%
%FSLAX46Y46*%
G04 Gerber Fmt 4.6, Leading zero omitted, Abs format (unit mm)*
G04 Created by KiCad (PCBNEW 8.0.0) date 2024-05-28 16:04:12*
%MOMM*%
%LPD*%
G01*
G04 APERTURE LIST*
%TA.AperFunction,Profile*%
%ADD10C,0.100000*%
%TD*%
G04 APERTURE END LIST*
D10*
X147141526Y-65857463D02*
X147081551Y-65775788D01*
X191295609Y-43619211D02*
X191248693Y-43529396D01*
X146380788Y-87704390D02*
X146288711Y-87662084D01*
X191141526Y-107142536D02*
X191197288Y-107057928D01*
X146557928Y-87802711D02*
X146470603Y-87751306D01*
X106357463Y-87858473D02*
X106275788Y-87918448D01*
X145702336Y-40489738D02*
X145802855Y-40476936D01*
X146724211Y-85081551D02*
X146802744Y-85017516D01*
X125000000Y-87500000D02*
X117500000Y-87500000D01*
X105751306Y-66029396D02*
X105704390Y-66119211D01*
X190949585Y-88122066D02*
X190877933Y-88050414D01*
X190557928Y-62697288D02*
X190642536Y-62641526D01*
X107500000Y-63000000D02*
X114500000Y-63000000D01*
X106357463Y-65358473D02*
X106275788Y-65418448D01*
X146724211Y-40081551D02*
X146802744Y-40017516D01*
X149502566Y-89398701D02*
X149500000Y-89500000D01*
X149540940Y-66597402D02*
X149523063Y-66697144D01*
X189500000Y-85500000D02*
X189601298Y-85497433D01*
X106197255Y-87982483D02*
X106122066Y-88050414D01*
X150619211Y-85295609D02*
X150711288Y-85337915D01*
X149500000Y-67000000D02*
X149500000Y-73750000D01*
X179500000Y-87500000D02*
X172000000Y-87500000D01*
X147500000Y-76750000D02*
X148499000Y-76750000D01*
X147500000Y-73750000D02*
X147500000Y-67000000D01*
X105982483Y-65697255D02*
X105918448Y-65775788D01*
X106050414Y-20622066D02*
X105982483Y-20697255D01*
X191248693Y-21029396D02*
X191197288Y-20942071D01*
X105540940Y-83902597D02*
X105563845Y-84001305D01*
X145601298Y-42502566D02*
X145500000Y-42500000D01*
X190557928Y-87802711D02*
X190470603Y-87751306D01*
X146724211Y-87918448D02*
X146642536Y-87858473D01*
X103499000Y-20000000D02*
X98999000Y-20000000D01*
X150122066Y-62449585D02*
X150197255Y-62517516D01*
X147497433Y-89398701D02*
X147489738Y-89297663D01*
X138500000Y-86501000D02*
X138500000Y-86499000D01*
X147017516Y-107302744D02*
X147081551Y-107224211D01*
X105704390Y-66119211D02*
X105662084Y-66211288D01*
X191476936Y-89197144D02*
X191459059Y-89097402D01*
X105662084Y-84288711D02*
X105704390Y-84380788D01*
X191375504Y-39194610D02*
X191408278Y-39098726D01*
X149858473Y-43357463D02*
X149802711Y-43442071D01*
X190194610Y-65124495D02*
X190098726Y-65091721D01*
X151398701Y-20002566D02*
X151297663Y-20010261D01*
X151500000Y-65000000D02*
X151398701Y-65002566D01*
X147408278Y-21401273D02*
X147375504Y-21305389D01*
X128000000Y-63999000D02*
X128000000Y-63000000D01*
X105662084Y-61788711D02*
X105704390Y-61880788D01*
X191375504Y-43805389D02*
X191337915Y-43711288D01*
X161500000Y-42500000D02*
X161500000Y-41501500D01*
X150357463Y-107641526D02*
X150442071Y-107697288D01*
X147017516Y-62302744D02*
X147081551Y-62224211D01*
X135500000Y-40500000D02*
X135500000Y-41499500D01*
X191295609Y-61880788D02*
X191337915Y-61788711D01*
X189802855Y-20023063D02*
X189702336Y-20010261D01*
X147337915Y-84288711D02*
X147375504Y-84194610D01*
X106442071Y-65302711D02*
X106357463Y-65358473D01*
X151097402Y-107959059D02*
X151197144Y-107976936D01*
X148501000Y-73750000D02*
X148499000Y-73750000D01*
X147476936Y-83802855D02*
X147489738Y-83702336D01*
X107197144Y-87523063D02*
X107097402Y-87540940D01*
X172000000Y-63000000D02*
X179500000Y-63000000D01*
X106122066Y-107449585D02*
X106197255Y-107517516D01*
X105502566Y-21898701D02*
X105500000Y-22000000D01*
X190380788Y-85295609D02*
X190470603Y-85248693D01*
X150357463Y-85141526D02*
X150442071Y-85197288D01*
X147500000Y-51250000D02*
X147500000Y-44500000D01*
X105523063Y-83802855D02*
X105540940Y-83902597D01*
X147500000Y-89500000D02*
X147497433Y-89398701D01*
X107097402Y-87540940D02*
X106998694Y-87563845D01*
X147081551Y-20775788D02*
X147017516Y-20697255D01*
X149982483Y-107302744D02*
X150050414Y-107377933D01*
X106050414Y-65622066D02*
X105982483Y-65697255D01*
X145702336Y-65010261D02*
X145601298Y-65002566D01*
X169000000Y-40500000D02*
X169000000Y-41499500D01*
X145702336Y-85489738D02*
X145802855Y-85476936D01*
X190724211Y-42918448D02*
X190642536Y-42858473D01*
X105563845Y-39001305D02*
X105591721Y-39098726D01*
X106901273Y-62908278D02*
X106998694Y-62936154D01*
X114500000Y-40500000D02*
X114500000Y-41499500D01*
X191408278Y-21401273D02*
X191375504Y-21305389D01*
X147489738Y-66797663D02*
X147476936Y-66697144D01*
X103499000Y-28750000D02*
X103499000Y-20000000D01*
X189601298Y-40497433D02*
X189702336Y-40489738D01*
X146877933Y-107449585D02*
X146949585Y-107377933D01*
X190642536Y-87858473D02*
X190557928Y-87802711D01*
X147017516Y-84802744D02*
X147081551Y-84724211D01*
X106122066Y-84949585D02*
X106197255Y-85017516D01*
X147081551Y-88275788D02*
X147017516Y-88197255D01*
X146001305Y-87563845D02*
X145902597Y-87540940D01*
X147248693Y-21029396D02*
X147197288Y-20942071D01*
X149624495Y-43805389D02*
X149591721Y-43901273D01*
X105510261Y-106202336D02*
X105523063Y-106302855D01*
X147408278Y-106598726D02*
X147436154Y-106501305D01*
X190288711Y-62837915D02*
X190380788Y-62795609D01*
X145902597Y-65040940D02*
X145802855Y-65023063D01*
X149500000Y-44500000D02*
X149500000Y-51250000D01*
X105802711Y-39557928D02*
X105858473Y-39642536D01*
X150122066Y-65550414D02*
X150050414Y-65622066D01*
X105802711Y-20942071D02*
X105751306Y-21029396D01*
X135500000Y-86501000D02*
X135500000Y-87500000D01*
X193501000Y-54250000D02*
X193501000Y-73750000D01*
X106442071Y-85197288D02*
X106529396Y-85248693D01*
X103499000Y-51250000D02*
X103499000Y-31750000D01*
X146380788Y-62795609D02*
X146470603Y-62748693D01*
X106711288Y-85337915D02*
X106805389Y-85375504D01*
X147459059Y-44097402D02*
X147436154Y-43998694D01*
X191017516Y-88197255D02*
X190949585Y-88122066D01*
X147436154Y-21498694D02*
X147408278Y-21401273D01*
X149918448Y-62224211D02*
X149982483Y-62302744D01*
X105591721Y-84098726D02*
X105624495Y-84194610D01*
X147500000Y-67000000D02*
X147497433Y-66898701D01*
X191500000Y-28750000D02*
X191500000Y-22000000D01*
X105500000Y-83500000D02*
X105502566Y-83601298D01*
X190642536Y-40141526D02*
X190724211Y-40081551D01*
X138500000Y-63999000D02*
X138500000Y-63000000D01*
X105591721Y-66401273D02*
X105563845Y-66498694D01*
X106050414Y-88122066D02*
X105982483Y-88197255D01*
X147017516Y-39802744D02*
X147081551Y-39724211D01*
X107097402Y-62959059D02*
X107197144Y-62976936D01*
X150357463Y-20358473D02*
X150275788Y-20418448D01*
X158500000Y-41501500D02*
X158500000Y-42500000D01*
X150122066Y-88050414D02*
X150050414Y-88122066D01*
X149502566Y-83601298D02*
X149510261Y-83702336D01*
X169000000Y-86499000D02*
X169000000Y-86501000D01*
X105563845Y-66498694D02*
X105540940Y-66597402D01*
X149751306Y-106970603D02*
X149802711Y-107057928D01*
X135500000Y-41501500D02*
X135500000Y-42500000D01*
X147408278Y-61598726D02*
X147436154Y-61501305D01*
X179500000Y-40500000D02*
X179500000Y-41499500D01*
X106122066Y-43050414D02*
X106050414Y-43122066D01*
X106442071Y-40197288D02*
X106529396Y-40248693D01*
X151398701Y-65002566D02*
X151297663Y-65010261D01*
X190877933Y-43050414D02*
X190802744Y-42982483D01*
X190470603Y-85248693D02*
X190557928Y-85197288D01*
X146098726Y-87591721D02*
X146001305Y-87563845D01*
X150619211Y-87704390D02*
X150529396Y-87751306D01*
X161500000Y-41501500D02*
X161500000Y-41499500D01*
X105502566Y-44398701D02*
X105500000Y-44500000D01*
X191476936Y-38802855D02*
X191489738Y-38702336D01*
X103499000Y-96250000D02*
X103499000Y-76750000D01*
X149563845Y-88998694D02*
X149540940Y-89097402D01*
X147295609Y-66119211D02*
X147248693Y-66029396D01*
X147197288Y-39557928D02*
X147248693Y-39470603D01*
X146802744Y-20482483D02*
X146724211Y-20418448D01*
X107398701Y-85497433D02*
X107500000Y-85500000D01*
X117500000Y-86499000D02*
X117500000Y-85500000D01*
X193501000Y-96250000D02*
X191500000Y-96250000D01*
X105500000Y-99250000D02*
X105500000Y-106000000D01*
X190802744Y-42982483D02*
X190724211Y-42918448D01*
X150529396Y-20251306D02*
X150442071Y-20302711D01*
X149704390Y-39380788D02*
X149751306Y-39470603D01*
X147408278Y-88901273D02*
X147375504Y-88805389D01*
X105918448Y-84724211D02*
X105982483Y-84802744D01*
X149510261Y-106202336D02*
X149523063Y-106302855D01*
X147375504Y-39194610D02*
X147408278Y-39098726D01*
X191337915Y-61788711D02*
X191375504Y-61694610D01*
X105624495Y-21305389D02*
X105591721Y-21401273D01*
X146001305Y-40436154D02*
X146098726Y-40408278D01*
X105540940Y-61402597D02*
X105563845Y-61501305D01*
X191476936Y-106302855D02*
X191489738Y-106202336D01*
X191081551Y-84724211D02*
X191141526Y-84642536D01*
X191197288Y-107057928D02*
X191248693Y-106970603D01*
X190949585Y-20622066D02*
X190877933Y-20550414D01*
X149802711Y-65942071D02*
X149751306Y-66029396D01*
X147081551Y-43275788D02*
X147017516Y-43197255D01*
X149918448Y-43275788D02*
X149858473Y-43357463D01*
X106357463Y-40141526D02*
X106442071Y-40197288D01*
X191017516Y-107302744D02*
X191081551Y-107224211D01*
X106619211Y-85295609D02*
X106711288Y-85337915D01*
X147500000Y-54250000D02*
X148499000Y-54250000D01*
X151097402Y-42540940D02*
X150998694Y-42563845D01*
X146380788Y-107795609D02*
X146470603Y-107748693D01*
X193501000Y-28750000D02*
X191500000Y-28750000D01*
X107500000Y-85500000D02*
X114500000Y-85500000D01*
X190288711Y-87662084D02*
X190194610Y-87624495D01*
X149918448Y-107224211D02*
X149982483Y-107302744D01*
X145500000Y-63000000D02*
X145601298Y-62997433D01*
X191375504Y-61694610D02*
X191408278Y-61598726D01*
X106275788Y-107581551D02*
X106357463Y-107641526D01*
X150998694Y-62936154D02*
X151097402Y-62959059D01*
X147408278Y-43901273D02*
X147375504Y-43805389D01*
X105591721Y-39098726D02*
X105624495Y-39194610D01*
X191476936Y-66697144D02*
X191459059Y-66597402D01*
X147500000Y-99250000D02*
X148499000Y-99250000D01*
X149540940Y-38902597D02*
X149563845Y-39001305D01*
X190642536Y-42858473D02*
X190557928Y-42802711D01*
X147295609Y-61880788D02*
X147337915Y-61788711D01*
X114500000Y-42500000D02*
X107500000Y-42500000D01*
X114500000Y-63000000D02*
X114500000Y-63999000D01*
X161500000Y-64001000D02*
X161500000Y-63999000D01*
X125000000Y-41501500D02*
X125000000Y-42500000D01*
X190877933Y-88050414D02*
X190802744Y-87982483D01*
X98999000Y-108000000D02*
X103499000Y-108000000D01*
X147081551Y-65775788D02*
X147017516Y-65697255D01*
X150998694Y-42563845D02*
X150901273Y-42591721D01*
X146470603Y-65251306D02*
X146380788Y-65204390D01*
X191248693Y-106970603D02*
X191295609Y-106880788D01*
X146642536Y-107641526D02*
X146724211Y-107581551D01*
X106711288Y-107837915D02*
X106805389Y-107875504D01*
X106901273Y-20091721D02*
X106805389Y-20124495D01*
X158500000Y-42500000D02*
X151500000Y-42500000D01*
X191497433Y-106101298D02*
X191500000Y-106000000D01*
X106050414Y-43122066D02*
X105982483Y-43197255D01*
X114500000Y-86501000D02*
X114500000Y-87500000D01*
X193501000Y-20000000D02*
X193501000Y-28750000D01*
X106442071Y-42802711D02*
X106357463Y-42858473D01*
X149918448Y-88275788D02*
X149858473Y-88357463D01*
X190470603Y-62748693D02*
X190557928Y-62697288D01*
X106529396Y-65251306D02*
X106442071Y-65302711D01*
X149502566Y-44398701D02*
X149500000Y-44500000D01*
X149500000Y-76750000D02*
X149500000Y-83500000D01*
X106275788Y-40081551D02*
X106357463Y-40141526D01*
X191500000Y-61000000D02*
X191500000Y-54250000D01*
X191017516Y-43197255D02*
X190949585Y-43122066D01*
X147500000Y-96250000D02*
X147500000Y-89500000D01*
X147497433Y-66898701D02*
X147489738Y-66797663D01*
X105704390Y-84380788D02*
X105751306Y-84470603D01*
X190949585Y-65622066D02*
X190877933Y-65550414D01*
X150805389Y-87624495D02*
X150711288Y-87662084D01*
X190288711Y-40337915D02*
X190380788Y-40295609D01*
X191081551Y-43275788D02*
X191017516Y-43197255D01*
X146877933Y-43050414D02*
X146802744Y-42982483D01*
X145601298Y-62997433D02*
X145702336Y-62989738D01*
X147476936Y-21697144D02*
X147459059Y-21597402D01*
X189500000Y-65000000D02*
X182500000Y-65000000D01*
X190724211Y-85081551D02*
X190802744Y-85017516D01*
X147459059Y-83902597D02*
X147476936Y-83802855D01*
X150805389Y-65124495D02*
X150711288Y-65162084D01*
X149751306Y-66029396D02*
X149704390Y-66119211D01*
X150275788Y-62581551D02*
X150357463Y-62641526D01*
X189802855Y-62976936D02*
X189902597Y-62959059D01*
X151197144Y-87523063D02*
X151097402Y-87540940D01*
X145902597Y-42540940D02*
X145802855Y-42523063D01*
X147497433Y-106101298D02*
X147500000Y-106000000D01*
X179500000Y-85500000D02*
X179500000Y-86499000D01*
X147295609Y-39380788D02*
X147337915Y-39288711D01*
X105802711Y-62057928D02*
X105858473Y-62142536D01*
X150805389Y-20124495D02*
X150711288Y-20162084D01*
X146877933Y-62449585D02*
X146949585Y-62377933D01*
X125000000Y-86501000D02*
X125000000Y-87500000D01*
X147476936Y-44197144D02*
X147459059Y-44097402D01*
X151500000Y-63000000D02*
X158500000Y-63000000D01*
X191337915Y-106788711D02*
X191375504Y-106694610D01*
X190098726Y-42591721D02*
X190001305Y-42563845D01*
X190724211Y-107581551D02*
X190802744Y-107517516D01*
X190194610Y-20124495D02*
X190098726Y-20091721D01*
X117500000Y-41499500D02*
X117500000Y-40500000D01*
X105982483Y-84802744D02*
X106050414Y-84877933D01*
X150711288Y-42662084D02*
X150619211Y-42704390D01*
X161500000Y-86501000D02*
X161500000Y-86499000D01*
X191500000Y-31750000D02*
X193501000Y-31750000D01*
X190557928Y-40197288D02*
X190642536Y-40141526D01*
X190288711Y-85337915D02*
X190380788Y-85295609D01*
X150050414Y-62377933D02*
X150122066Y-62449585D01*
X106122066Y-39949585D02*
X106197255Y-40017516D01*
X151297663Y-65010261D02*
X151197144Y-65023063D01*
X107398701Y-40497433D02*
X107500000Y-40500000D01*
X146001305Y-85436154D02*
X146098726Y-85408278D01*
X114500000Y-86499000D02*
X114500000Y-86501000D01*
X150275788Y-87918448D02*
X150197255Y-87982483D01*
X135500000Y-41499500D02*
X135500000Y-41501500D01*
X106619211Y-20204390D02*
X106529396Y-20251306D01*
X107097402Y-40459059D02*
X107197144Y-40476936D01*
X147337915Y-39288711D02*
X147375504Y-39194610D01*
X149500000Y-73750000D02*
X148501000Y-73750000D01*
X146194610Y-62875504D02*
X146288711Y-62837915D01*
X190724211Y-65418448D02*
X190642536Y-65358473D01*
X106711288Y-40337915D02*
X106805389Y-40375504D01*
X105802711Y-107057928D02*
X105858473Y-107142536D01*
X147436154Y-106501305D02*
X147459059Y-106402597D01*
X150275788Y-65418448D02*
X150197255Y-65482483D01*
X145802855Y-20023063D02*
X145702336Y-20010261D01*
X117500000Y-63999000D02*
X117500000Y-63000000D01*
X117500000Y-64001000D02*
X117500000Y-63999000D01*
X146380788Y-40295609D02*
X146470603Y-40248693D01*
X147476936Y-38802855D02*
X147489738Y-38702336D01*
X149563845Y-106501305D02*
X149591721Y-106598726D01*
X106529396Y-85248693D02*
X106619211Y-85295609D01*
X150998694Y-65063845D02*
X150901273Y-65091721D01*
X146470603Y-20251306D02*
X146380788Y-20204390D01*
X147489738Y-89297663D02*
X147476936Y-89197144D01*
X106998694Y-107936154D02*
X107097402Y-107959059D01*
X148501000Y-54250000D02*
X149500000Y-54250000D01*
X150122066Y-39949585D02*
X150197255Y-40017516D01*
X105510261Y-44297663D02*
X105502566Y-44398701D01*
X149662084Y-43711288D02*
X149624495Y-43805389D01*
X125000000Y-41499500D02*
X125000000Y-41501500D01*
X105858473Y-65857463D02*
X105802711Y-65942071D01*
X149982483Y-88197255D02*
X149918448Y-88275788D01*
X151297663Y-85489738D02*
X151398701Y-85497433D01*
X125000000Y-85500000D02*
X125000000Y-86499000D01*
X105510261Y-89297663D02*
X105502566Y-89398701D01*
X191459059Y-61402597D02*
X191476936Y-61302855D01*
X107297663Y-62989738D02*
X107398701Y-62997433D01*
X190724211Y-20418448D02*
X190642536Y-20358473D01*
X190098726Y-65091721D02*
X190001305Y-65063845D01*
X149982483Y-43197255D02*
X149918448Y-43275788D01*
X105563845Y-21498694D02*
X105540940Y-21597402D01*
X179500000Y-65000000D02*
X172000000Y-65000000D01*
X148499000Y-54250000D02*
X148501000Y-54250000D01*
X105502566Y-106101298D02*
X105510261Y-106202336D01*
X191497433Y-89398701D02*
X191489738Y-89297663D01*
X147248693Y-43529396D02*
X147197288Y-43442071D01*
X147476936Y-66697144D02*
X147459059Y-66597402D01*
X106529396Y-40248693D02*
X106619211Y-40295609D01*
X189500000Y-108000000D02*
X189601298Y-107997433D01*
X146557928Y-42802711D02*
X146470603Y-42751306D01*
X146557928Y-65302711D02*
X146470603Y-65251306D01*
X189702336Y-87510261D02*
X189601298Y-87502566D01*
X190098726Y-20091721D02*
X190001305Y-20063845D01*
X106619211Y-62795609D02*
X106711288Y-62837915D01*
X190724211Y-87918448D02*
X190642536Y-87858473D01*
X146557928Y-20302711D02*
X146470603Y-20251306D01*
X146194610Y-40375504D02*
X146288711Y-40337915D01*
X191489738Y-21797663D02*
X191476936Y-21697144D01*
X147337915Y-106788711D02*
X147375504Y-106694610D01*
X150619211Y-20204390D02*
X150529396Y-20251306D01*
X146380788Y-20204390D02*
X146288711Y-20162084D01*
X146877933Y-84949585D02*
X146949585Y-84877933D01*
X117500000Y-85500000D02*
X125000000Y-85500000D01*
X146557928Y-62697288D02*
X146642536Y-62641526D01*
X147295609Y-106880788D02*
X147337915Y-106788711D01*
X189601298Y-62997433D02*
X189702336Y-62989738D01*
X107097402Y-20040940D02*
X106998694Y-20063845D01*
X105500000Y-67000000D02*
X105500000Y-73750000D01*
X161500000Y-86499000D02*
X161500000Y-85500000D01*
X191436154Y-84001305D02*
X191459059Y-83902597D01*
X151398701Y-107997433D02*
X151500000Y-108000000D01*
X106197255Y-20482483D02*
X106122066Y-20550414D01*
X105540940Y-44097402D02*
X105523063Y-44197144D01*
X147489738Y-61202336D02*
X147497433Y-61101298D01*
X105591721Y-61598726D02*
X105624495Y-61694610D01*
X149523063Y-44197144D02*
X149510261Y-44297663D01*
X191497433Y-38601298D02*
X191500000Y-38500000D01*
X105591721Y-43901273D02*
X105563845Y-43998694D01*
X105523063Y-61302855D02*
X105540940Y-61402597D01*
X151297663Y-40489738D02*
X151398701Y-40497433D01*
X106805389Y-20124495D02*
X106711288Y-20162084D01*
X146288711Y-87662084D02*
X146194610Y-87624495D01*
X150711288Y-65162084D02*
X150619211Y-65204390D01*
X128000000Y-41499500D02*
X128000000Y-40500000D01*
X149982483Y-39802744D02*
X150050414Y-39877933D01*
X146642536Y-42858473D02*
X146557928Y-42802711D01*
X147197288Y-84557928D02*
X147248693Y-84470603D01*
X105563845Y-88998694D02*
X105540940Y-89097402D01*
X149510261Y-83702336D02*
X149523063Y-83802855D01*
X150122066Y-84949585D02*
X150197255Y-85017516D01*
X105500000Y-61000000D02*
X105502566Y-61101298D01*
X191500000Y-106000000D02*
X191500000Y-99250000D01*
X105662084Y-88711288D02*
X105624495Y-88805389D01*
X145802855Y-107976936D02*
X145902597Y-107959059D01*
X106275788Y-62581551D02*
X106357463Y-62641526D01*
X149500000Y-89500000D02*
X149500000Y-96250000D01*
X106275788Y-20418448D02*
X106197255Y-20482483D01*
X106998694Y-85436154D02*
X107097402Y-85459059D01*
X182500000Y-41501500D02*
X182500000Y-41499500D01*
X191500000Y-76750000D02*
X193501000Y-76750000D01*
X149982483Y-62302744D02*
X150050414Y-62377933D01*
X146098726Y-42591721D02*
X146001305Y-42563845D01*
X149591721Y-43901273D02*
X149563845Y-43998694D01*
X146557928Y-40197288D02*
X146642536Y-40141526D01*
X161500000Y-63999000D02*
X161500000Y-63000000D01*
X191295609Y-88619211D02*
X191248693Y-88529396D01*
X106998694Y-42563845D02*
X106901273Y-42591721D01*
X145902597Y-62959059D02*
X146001305Y-62936154D01*
X149751306Y-84470603D02*
X149802711Y-84557928D01*
X151097402Y-62959059D02*
X151197144Y-62976936D01*
X147141526Y-20857463D02*
X147081551Y-20775788D01*
X145702336Y-107989738D02*
X145802855Y-107976936D01*
X145500000Y-20000000D02*
X107500000Y-20000000D01*
X147500000Y-44500000D02*
X147497433Y-44398701D01*
X198001000Y-20000000D02*
X193501000Y-20000000D01*
X190802744Y-40017516D02*
X190877933Y-39949585D01*
X190098726Y-87591721D02*
X190001305Y-87563845D01*
X149624495Y-39194610D02*
X149662084Y-39288711D01*
X148501000Y-28750000D02*
X148499000Y-28750000D01*
X191500000Y-51250000D02*
X191500000Y-44500000D01*
X106711288Y-65162084D02*
X106619211Y-65204390D01*
X149662084Y-66211288D02*
X149624495Y-66305389D01*
X105662084Y-39288711D02*
X105704390Y-39380788D01*
X149502566Y-106101298D02*
X149510261Y-106202336D01*
X149502566Y-61101298D02*
X149510261Y-61202336D01*
X147141526Y-107142536D02*
X147197288Y-107057928D01*
X151398701Y-87502566D02*
X151297663Y-87510261D01*
X138500000Y-86499000D02*
X138500000Y-85500000D01*
X106275788Y-85081551D02*
X106357463Y-85141526D01*
X191500000Y-67000000D02*
X191497433Y-66898701D01*
X138500000Y-87500000D02*
X138500000Y-86501000D01*
X145500000Y-42500000D02*
X138500000Y-42500000D01*
X161500000Y-65000000D02*
X161500000Y-64001000D01*
X191197288Y-88442071D02*
X191141526Y-88357463D01*
X149591721Y-88901273D02*
X149563845Y-88998694D01*
X189601298Y-85497433D02*
X189702336Y-85489738D01*
X191500000Y-44500000D02*
X191497433Y-44398701D01*
X149802711Y-20942071D02*
X149751306Y-21029396D01*
X147141526Y-84642536D02*
X147197288Y-84557928D01*
X149523063Y-61302855D02*
X149540940Y-61402597D01*
X106442071Y-20302711D02*
X106357463Y-20358473D01*
X145902597Y-85459059D02*
X146001305Y-85436154D01*
X105802711Y-88442071D02*
X105751306Y-88529396D01*
X103499000Y-76750000D02*
X105500000Y-76750000D01*
X105982483Y-62302744D02*
X106050414Y-62377933D01*
X150901273Y-20091721D02*
X150805389Y-20124495D01*
X189702336Y-42510261D02*
X189601298Y-42502566D01*
X147141526Y-62142536D02*
X147197288Y-62057928D01*
X189902597Y-42540940D02*
X189802855Y-42523063D01*
X149540940Y-106402597D02*
X149563845Y-106501305D01*
X158500000Y-40500000D02*
X158500000Y-41499500D01*
X150805389Y-85375504D02*
X150901273Y-85408278D01*
X191489738Y-61202336D02*
X191497433Y-61101298D01*
X147248693Y-39470603D02*
X147295609Y-39380788D01*
X147197288Y-43442071D02*
X147141526Y-43357463D01*
X146194610Y-65124495D02*
X146098726Y-65091721D01*
X189601298Y-20002566D02*
X189500000Y-20000000D01*
X190802744Y-87982483D02*
X190724211Y-87918448D01*
X190949585Y-107377933D02*
X191017516Y-107302744D01*
X189902597Y-40459059D02*
X190001305Y-40436154D01*
X105802711Y-65942071D02*
X105751306Y-66029396D01*
X147497433Y-44398701D02*
X147489738Y-44297663D01*
X106050414Y-107377933D02*
X106122066Y-107449585D01*
X146949585Y-20622066D02*
X146877933Y-20550414D01*
X147459059Y-66597402D02*
X147436154Y-66498694D01*
X105624495Y-43805389D02*
X105591721Y-43901273D01*
X146194610Y-87624495D02*
X146098726Y-87591721D01*
X149523063Y-66697144D02*
X149510261Y-66797663D01*
X149563845Y-61501305D02*
X149591721Y-61598726D01*
X191408278Y-66401273D02*
X191375504Y-66305389D01*
X107398701Y-62997433D02*
X107500000Y-63000000D01*
X107500000Y-65000000D02*
X107398701Y-65002566D01*
X149624495Y-66305389D02*
X149591721Y-66401273D01*
X107097402Y-65040940D02*
X106998694Y-65063845D01*
X107398701Y-87502566D02*
X107297663Y-87510261D01*
X128000000Y-87500000D02*
X128000000Y-86501000D01*
X189601298Y-42502566D02*
X189500000Y-42500000D01*
X148501000Y-51250000D02*
X148499000Y-51250000D01*
X191459059Y-44097402D02*
X191436154Y-43998694D01*
X151197144Y-40476936D02*
X151297663Y-40489738D01*
X105751306Y-39470603D02*
X105802711Y-39557928D01*
X147436154Y-39001305D02*
X147459059Y-38902597D01*
X149523063Y-83802855D02*
X149540940Y-83902597D01*
X150442071Y-62697288D02*
X150529396Y-62748693D01*
X148501000Y-99250000D02*
X149500000Y-99250000D01*
X191141526Y-65857463D02*
X191081551Y-65775788D01*
X105540940Y-89097402D02*
X105523063Y-89197144D01*
X147081551Y-62224211D02*
X147141526Y-62142536D01*
X145500000Y-65000000D02*
X138500000Y-65000000D01*
X145500000Y-108000000D02*
X145601298Y-107997433D01*
X150998694Y-20063845D02*
X150901273Y-20091721D01*
X151500000Y-40500000D02*
X158500000Y-40500000D01*
X147459059Y-106402597D02*
X147476936Y-106302855D01*
X189802855Y-65023063D02*
X189702336Y-65010261D01*
X190288711Y-20162084D02*
X190194610Y-20124495D01*
X106122066Y-20550414D02*
X106050414Y-20622066D01*
X146380788Y-85295609D02*
X146470603Y-85248693D01*
X150619211Y-107795609D02*
X150711288Y-107837915D01*
X149704390Y-66119211D02*
X149662084Y-66211288D01*
X191489738Y-38702336D02*
X191497433Y-38601298D01*
X150805389Y-42624495D02*
X150711288Y-42662084D01*
X191337915Y-66211288D02*
X191295609Y-66119211D01*
X147497433Y-83601298D02*
X147500000Y-83500000D01*
X105918448Y-43275788D02*
X105858473Y-43357463D01*
X106357463Y-20358473D02*
X106275788Y-20418448D01*
X147489738Y-83702336D02*
X147497433Y-83601298D01*
X106619211Y-107795609D02*
X106711288Y-107837915D01*
X190642536Y-85141526D02*
X190724211Y-85081551D01*
X147017516Y-43197255D02*
X146949585Y-43122066D01*
X145601298Y-40497433D02*
X145702336Y-40489738D01*
X179500000Y-86499000D02*
X179500000Y-86501000D01*
X147500000Y-61000000D02*
X147500000Y-54250000D01*
X149751306Y-21029396D02*
X149704390Y-21119211D01*
X151097402Y-20040940D02*
X150998694Y-20063845D01*
X150197255Y-107517516D02*
X150275788Y-107581551D01*
X107500000Y-42500000D02*
X107398701Y-42502566D01*
X149858473Y-20857463D02*
X149802711Y-20942071D01*
X190380788Y-65204390D02*
X190288711Y-65162084D01*
X151398701Y-40497433D02*
X151500000Y-40500000D01*
X146642536Y-65358473D02*
X146557928Y-65302711D01*
X151197144Y-85476936D02*
X151297663Y-85489738D01*
X158500000Y-41499500D02*
X158500000Y-41501500D01*
X191408278Y-88901273D02*
X191375504Y-88805389D01*
X145802855Y-40476936D02*
X145902597Y-40459059D01*
X149500000Y-28750000D02*
X148501000Y-28750000D01*
X191497433Y-83601298D02*
X191500000Y-83500000D01*
X106998694Y-65063845D02*
X106901273Y-65091721D01*
X190380788Y-20204390D02*
X190288711Y-20162084D01*
X147408278Y-66401273D02*
X147375504Y-66305389D01*
X150998694Y-40436154D02*
X151097402Y-40459059D01*
X147489738Y-44297663D02*
X147476936Y-44197144D01*
X191497433Y-61101298D02*
X191500000Y-61000000D01*
X107500000Y-20000000D02*
X107398701Y-20002566D01*
X146194610Y-20124495D02*
X146098726Y-20091721D01*
X147081551Y-107224211D02*
X147141526Y-107142536D01*
X172000000Y-86501000D02*
X172000000Y-86499000D01*
X148499000Y-28750000D02*
X147500000Y-28750000D01*
X105858473Y-20857463D02*
X105802711Y-20942071D01*
X107197144Y-40476936D02*
X107297663Y-40489738D01*
X158500000Y-63999000D02*
X158500000Y-64001000D01*
X105523063Y-89197144D02*
X105510261Y-89297663D01*
X147197288Y-88442071D02*
X147141526Y-88357463D01*
X182500000Y-63000000D02*
X189500000Y-63000000D01*
X190001305Y-107936154D02*
X190098726Y-107908278D01*
X150901273Y-107908278D02*
X150998694Y-107936154D01*
X149500000Y-22000000D02*
X149500000Y-28750000D01*
X149500000Y-54250000D02*
X149500000Y-61000000D01*
X149982483Y-20697255D02*
X149918448Y-20775788D01*
X106197255Y-40017516D02*
X106275788Y-40081551D01*
X105500000Y-28750000D02*
X103499000Y-28750000D01*
X147459059Y-61402597D02*
X147476936Y-61302855D01*
X147295609Y-21119211D02*
X147248693Y-21029396D01*
X146194610Y-107875504D02*
X146288711Y-107837915D01*
X191436154Y-106501305D02*
X191459059Y-106402597D01*
X106901273Y-40408278D02*
X106998694Y-40436154D01*
X149523063Y-21697144D02*
X149510261Y-21797663D01*
X191408278Y-61598726D02*
X191436154Y-61501305D01*
X149624495Y-84194610D02*
X149662084Y-84288711D01*
X147459059Y-38902597D02*
X147476936Y-38802855D01*
X169000000Y-85500000D02*
X169000000Y-86499000D01*
X179500000Y-41501500D02*
X179500000Y-42500000D01*
X191017516Y-20697255D02*
X190949585Y-20622066D01*
X169000000Y-63999000D02*
X169000000Y-64001000D01*
X149802711Y-88442071D02*
X149751306Y-88529396D01*
X190949585Y-62377933D02*
X191017516Y-62302744D01*
X107297663Y-87510261D02*
X107197144Y-87523063D01*
X151197144Y-65023063D02*
X151097402Y-65040940D01*
X190877933Y-84949585D02*
X190949585Y-84877933D01*
X193501000Y-31750000D02*
X193501000Y-51250000D01*
X117500000Y-41501500D02*
X117500000Y-41499500D01*
X105624495Y-88805389D02*
X105591721Y-88901273D01*
X107197144Y-107976936D02*
X107297663Y-107989738D01*
X147489738Y-21797663D02*
X147476936Y-21697144D01*
X117500000Y-42500000D02*
X117500000Y-41501500D01*
X114500000Y-64001000D02*
X114500000Y-65000000D01*
X190724211Y-62581551D02*
X190802744Y-62517516D01*
X191489738Y-44297663D02*
X191476936Y-44197144D01*
X191295609Y-106880788D02*
X191337915Y-106788711D01*
X105500000Y-44500000D02*
X105500000Y-51250000D01*
X146288711Y-107837915D02*
X146380788Y-107795609D01*
X189500000Y-42500000D02*
X182500000Y-42500000D01*
X105563845Y-43998694D02*
X105540940Y-44097402D01*
X106357463Y-85141526D02*
X106442071Y-85197288D01*
X151197144Y-42523063D02*
X151097402Y-42540940D01*
X193501000Y-99250000D02*
X193501000Y-108000000D01*
X149802711Y-84557928D02*
X149858473Y-84642536D01*
X151297663Y-20010261D02*
X151197144Y-20023063D01*
X172000000Y-86499000D02*
X172000000Y-85500000D01*
X106805389Y-85375504D02*
X106901273Y-85408278D01*
X125000000Y-63000000D02*
X125000000Y-63999000D01*
X146877933Y-20550414D02*
X146802744Y-20482483D01*
X191476936Y-61302855D02*
X191489738Y-61202336D01*
X107500000Y-40500000D02*
X114500000Y-40500000D01*
X151398701Y-42502566D02*
X151297663Y-42510261D01*
X148499000Y-96250000D02*
X147500000Y-96250000D01*
X147476936Y-61302855D02*
X147489738Y-61202336D01*
X191500000Y-73750000D02*
X191500000Y-67000000D01*
X106805389Y-87624495D02*
X106711288Y-87662084D01*
X150275788Y-20418448D02*
X150197255Y-20482483D01*
X105704390Y-88619211D02*
X105662084Y-88711288D01*
X189500000Y-20000000D02*
X151500000Y-20000000D01*
X125000000Y-64001000D02*
X125000000Y-65000000D01*
X147459059Y-89097402D02*
X147436154Y-88998694D01*
X146001305Y-62936154D02*
X146098726Y-62908278D01*
X147375504Y-66305389D02*
X147337915Y-66211288D01*
X105858473Y-39642536D02*
X105918448Y-39724211D01*
X149502566Y-38601298D02*
X149510261Y-38702336D01*
X189802855Y-87523063D02*
X189702336Y-87510261D01*
X191248693Y-43529396D02*
X191197288Y-43442071D01*
X149858473Y-39642536D02*
X149918448Y-39724211D01*
X190098726Y-85408278D02*
X190194610Y-85375504D01*
X190877933Y-65550414D02*
X190802744Y-65482483D01*
X128000000Y-86501000D02*
X128000000Y-86499000D01*
X105540940Y-66597402D02*
X105523063Y-66697144D01*
X105624495Y-66305389D02*
X105591721Y-66401273D01*
X107500000Y-87500000D02*
X107398701Y-87502566D01*
X146802744Y-40017516D02*
X146877933Y-39949585D01*
X147017516Y-65697255D02*
X146949585Y-65622066D01*
X151500000Y-42500000D02*
X151398701Y-42502566D01*
X105751306Y-43529396D02*
X105704390Y-43619211D01*
X149510261Y-21797663D02*
X149502566Y-21898701D01*
X149591721Y-106598726D02*
X149624495Y-106694610D01*
X149563845Y-39001305D02*
X149591721Y-39098726D01*
X106805389Y-62875504D02*
X106901273Y-62908278D01*
X147197288Y-62057928D02*
X147248693Y-61970603D01*
X107097402Y-107959059D02*
X107197144Y-107976936D01*
X172000000Y-41501500D02*
X172000000Y-41499500D01*
X150442071Y-42802711D02*
X150357463Y-42858473D01*
X149510261Y-44297663D02*
X149502566Y-44398701D01*
X190001305Y-85436154D02*
X190098726Y-85408278D01*
X146194610Y-85375504D02*
X146288711Y-85337915D01*
X145601298Y-87502566D02*
X145500000Y-87500000D01*
X149591721Y-39098726D02*
X149624495Y-39194610D01*
X191248693Y-66029396D02*
X191197288Y-65942071D01*
X105802711Y-43442071D02*
X105751306Y-43529396D01*
X149500000Y-38500000D02*
X149502566Y-38601298D01*
X106998694Y-40436154D02*
X107097402Y-40459059D01*
X191500000Y-38500000D02*
X191500000Y-31750000D01*
X149918448Y-65775788D02*
X149858473Y-65857463D01*
X149591721Y-61598726D02*
X149624495Y-61694610D01*
X191197288Y-39557928D02*
X191248693Y-39470603D01*
X191436154Y-39001305D02*
X191459059Y-38902597D01*
X190288711Y-42662084D02*
X190194610Y-42624495D01*
X148499000Y-51250000D02*
X147500000Y-51250000D01*
X148501000Y-76750000D02*
X149500000Y-76750000D01*
X190288711Y-107837915D02*
X190380788Y-107795609D01*
X150275788Y-85081551D02*
X150357463Y-85141526D01*
X138500000Y-41499500D02*
X138500000Y-40500000D01*
X106901273Y-65091721D02*
X106805389Y-65124495D01*
X191500000Y-54250000D02*
X193501000Y-54250000D01*
X146001305Y-20063845D02*
X145902597Y-20040940D01*
X149500000Y-106000000D02*
X149502566Y-106101298D01*
X145500000Y-85500000D02*
X145601298Y-85497433D01*
X105500000Y-54250000D02*
X105500000Y-61000000D01*
X114500000Y-41501500D02*
X114500000Y-42500000D01*
X105502566Y-61101298D02*
X105510261Y-61202336D01*
X106711288Y-87662084D02*
X106619211Y-87704390D01*
X150050414Y-39877933D02*
X150122066Y-39949585D01*
X105563845Y-61501305D02*
X105591721Y-61598726D01*
X190724211Y-40081551D02*
X190802744Y-40017516D01*
X114500000Y-63999000D02*
X114500000Y-64001000D01*
X190470603Y-107748693D02*
X190557928Y-107697288D01*
X149523063Y-89197144D02*
X149510261Y-89297663D01*
X191375504Y-84194610D02*
X191408278Y-84098726D01*
X105591721Y-88901273D02*
X105563845Y-88998694D01*
X135500000Y-63000000D02*
X135500000Y-63999000D01*
X135500000Y-64001000D02*
X135500000Y-65000000D01*
X191337915Y-21211288D02*
X191295609Y-21119211D01*
X105500000Y-76750000D02*
X105500000Y-83500000D01*
X105523063Y-44197144D02*
X105510261Y-44297663D01*
X150901273Y-42591721D02*
X150805389Y-42624495D01*
X172000000Y-64001000D02*
X172000000Y-63999000D01*
X149500000Y-31750000D02*
X149500000Y-38500000D01*
X190470603Y-20251306D02*
X190380788Y-20204390D01*
X105500000Y-31750000D02*
X105500000Y-38500000D01*
X128000000Y-42500000D02*
X128000000Y-41501500D01*
X150197255Y-62517516D02*
X150275788Y-62581551D01*
X150050414Y-65622066D02*
X149982483Y-65697255D01*
X190802744Y-62517516D02*
X190877933Y-62449585D01*
X150357463Y-62641526D02*
X150442071Y-62697288D01*
X107297663Y-65010261D02*
X107197144Y-65023063D01*
X105662084Y-21211288D02*
X105624495Y-21305389D01*
X150275788Y-40081551D02*
X150357463Y-40141526D01*
X106998694Y-87563845D02*
X106901273Y-87591721D01*
X150122066Y-43050414D02*
X150050414Y-43122066D01*
X146557928Y-107697288D02*
X146642536Y-107641526D01*
X107500000Y-108000000D02*
X145500000Y-108000000D01*
X190557928Y-20302711D02*
X190470603Y-20251306D01*
X147375504Y-43805389D02*
X147337915Y-43711288D01*
X147141526Y-88357463D02*
X147081551Y-88275788D01*
X149591721Y-84098726D02*
X149624495Y-84194610D01*
X146001305Y-42563845D02*
X145902597Y-42540940D01*
X149500000Y-51250000D02*
X148501000Y-51250000D01*
X146380788Y-42704390D02*
X146288711Y-42662084D01*
X149662084Y-84288711D02*
X149704390Y-84380788D01*
X147436154Y-84001305D02*
X147459059Y-83902597D01*
X150711288Y-107837915D02*
X150805389Y-107875504D01*
X150442071Y-40197288D02*
X150529396Y-40248693D01*
X105751306Y-84470603D02*
X105802711Y-84557928D01*
X150805389Y-62875504D02*
X150901273Y-62908278D01*
X106901273Y-107908278D02*
X106998694Y-107936154D01*
X117500000Y-40500000D02*
X125000000Y-40500000D01*
X150050414Y-20622066D02*
X149982483Y-20697255D01*
X151097402Y-87540940D02*
X150998694Y-87563845D01*
X138500000Y-41501500D02*
X138500000Y-41499500D01*
X158500000Y-64001000D02*
X158500000Y-65000000D01*
X179500000Y-63000000D02*
X179500000Y-63999000D01*
X150998694Y-107936154D02*
X151097402Y-107959059D01*
X147337915Y-21211288D02*
X147295609Y-21119211D01*
X147476936Y-106302855D02*
X147489738Y-106202336D01*
X179500000Y-41499500D02*
X179500000Y-41501500D01*
X147500000Y-28750000D02*
X147500000Y-22000000D01*
X191197288Y-43442071D02*
X191141526Y-43357463D01*
X191081551Y-62224211D02*
X191141526Y-62142536D01*
X149802711Y-43442071D02*
X149751306Y-43529396D01*
X146557928Y-85197288D02*
X146642536Y-85141526D01*
X150619211Y-62795609D02*
X150711288Y-62837915D01*
X146098726Y-62908278D02*
X146194610Y-62875504D01*
X191295609Y-39380788D02*
X191337915Y-39288711D01*
X107398701Y-107997433D02*
X107500000Y-108000000D01*
X191459059Y-83902597D02*
X191476936Y-83802855D01*
X147436154Y-88998694D02*
X147408278Y-88901273D01*
X158500000Y-65000000D02*
X151500000Y-65000000D01*
X191017516Y-39802744D02*
X191081551Y-39724211D01*
X147197288Y-65942071D02*
X147141526Y-65857463D01*
X148501000Y-31750000D02*
X149500000Y-31750000D01*
X105704390Y-21119211D02*
X105662084Y-21211288D01*
X145902597Y-87540940D02*
X145802855Y-87523063D01*
X149982483Y-65697255D02*
X149918448Y-65775788D01*
X146642536Y-85141526D02*
X146724211Y-85081551D01*
X147337915Y-61788711D02*
X147375504Y-61694610D01*
X146098726Y-85408278D02*
X146194610Y-85375504D01*
X189702336Y-65010261D02*
X189601298Y-65002566D01*
X150711288Y-87662084D02*
X150619211Y-87704390D01*
X105982483Y-39802744D02*
X106050414Y-39877933D01*
X149500000Y-99250000D02*
X149500000Y-106000000D01*
X149540940Y-83902597D02*
X149563845Y-84001305D01*
X191248693Y-61970603D02*
X191295609Y-61880788D01*
X145702336Y-87510261D02*
X145601298Y-87502566D01*
X147375504Y-61694610D02*
X147408278Y-61598726D01*
X149662084Y-106788711D02*
X149704390Y-106880788D01*
X191489738Y-106202336D02*
X191497433Y-106101298D01*
X105858473Y-84642536D02*
X105918448Y-84724211D01*
X145802855Y-65023063D02*
X145702336Y-65010261D01*
X151197144Y-62976936D02*
X151297663Y-62989738D01*
X191459059Y-66597402D02*
X191436154Y-66498694D01*
X105510261Y-38702336D02*
X105523063Y-38802855D01*
X105540940Y-21597402D02*
X105523063Y-21697144D01*
X161500000Y-40500000D02*
X169000000Y-40500000D01*
X149918448Y-20775788D02*
X149858473Y-20857463D01*
X150442071Y-20302711D02*
X150357463Y-20358473D01*
X138500000Y-64001000D02*
X138500000Y-63999000D01*
X107097402Y-85459059D02*
X107197144Y-85476936D01*
X190877933Y-39949585D02*
X190949585Y-39877933D01*
X107398701Y-65002566D02*
X107297663Y-65010261D01*
X150275788Y-107581551D02*
X150357463Y-107641526D01*
X106619211Y-42704390D02*
X106529396Y-42751306D01*
X190949585Y-84877933D02*
X191017516Y-84802744D01*
X105704390Y-39380788D02*
X105751306Y-39470603D01*
X106122066Y-88050414D02*
X106050414Y-88122066D01*
X106357463Y-42858473D02*
X106275788Y-42918448D01*
X161500000Y-41499500D02*
X161500000Y-40500000D01*
X146877933Y-65550414D02*
X146802744Y-65482483D01*
X172000000Y-40500000D02*
X179500000Y-40500000D01*
X106529396Y-62748693D02*
X106619211Y-62795609D01*
X193501000Y-73750000D02*
X191500000Y-73750000D01*
X191500000Y-22000000D02*
X191497433Y-21898701D01*
X105858473Y-107142536D02*
X105918448Y-107224211D01*
X147337915Y-88711288D02*
X147295609Y-88619211D01*
X191081551Y-65775788D02*
X191017516Y-65697255D01*
X150711288Y-85337915D02*
X150805389Y-85375504D01*
X106197255Y-42982483D02*
X106122066Y-43050414D01*
X190001305Y-62936154D02*
X190098726Y-62908278D01*
X105502566Y-66898701D02*
X105500000Y-67000000D01*
X114500000Y-87500000D02*
X107500000Y-87500000D01*
X106901273Y-87591721D02*
X106805389Y-87624495D01*
X146470603Y-107748693D02*
X146557928Y-107697288D01*
X191337915Y-39288711D02*
X191375504Y-39194610D01*
X161500000Y-85500000D02*
X169000000Y-85500000D01*
X149704390Y-84380788D02*
X149751306Y-84470603D01*
X145902597Y-40459059D02*
X146001305Y-40436154D01*
X150357463Y-42858473D02*
X150275788Y-42918448D01*
X190470603Y-40248693D02*
X190557928Y-40197288D01*
X190557928Y-85197288D02*
X190642536Y-85141526D01*
X105918448Y-88275788D02*
X105858473Y-88357463D01*
X179500000Y-63999000D02*
X179500000Y-64001000D01*
X189601298Y-107997433D02*
X189702336Y-107989738D01*
X147375504Y-21305389D02*
X147337915Y-21211288D01*
X149502566Y-66898701D02*
X149500000Y-67000000D01*
X146098726Y-40408278D02*
X146194610Y-40375504D01*
X125000000Y-86499000D02*
X125000000Y-86501000D01*
X98999000Y-20000000D02*
X98999000Y-108000000D01*
X106122066Y-65550414D02*
X106050414Y-65622066D01*
X146288711Y-42662084D02*
X146194610Y-42624495D01*
X150050414Y-43122066D02*
X149982483Y-43197255D01*
X145802855Y-87523063D02*
X145702336Y-87510261D01*
X105662084Y-43711288D02*
X105624495Y-43805389D01*
X106805389Y-40375504D02*
X106901273Y-40408278D01*
X106998694Y-62936154D02*
X107097402Y-62959059D01*
X128000000Y-41501500D02*
X128000000Y-41499500D01*
X145601298Y-65002566D02*
X145500000Y-65000000D01*
X105510261Y-66797663D02*
X105502566Y-66898701D01*
X105662084Y-66211288D02*
X105624495Y-66305389D01*
X146642536Y-40141526D02*
X146724211Y-40081551D01*
X150442071Y-107697288D02*
X150529396Y-107748693D01*
X117500000Y-87500000D02*
X117500000Y-86501000D01*
X147248693Y-88529396D02*
X147197288Y-88442071D01*
X105500000Y-73750000D02*
X103499000Y-73750000D01*
X150711288Y-40337915D02*
X150805389Y-40375504D01*
X106619211Y-40295609D02*
X106711288Y-40337915D01*
X135500000Y-65000000D02*
X128000000Y-65000000D01*
X147248693Y-84470603D02*
X147295609Y-84380788D01*
X150529396Y-62748693D02*
X150619211Y-62795609D01*
X190288711Y-65162084D02*
X190194610Y-65124495D01*
X146949585Y-88122066D02*
X146877933Y-88050414D01*
X189802855Y-85476936D02*
X189902597Y-85459059D01*
X190877933Y-107449585D02*
X190949585Y-107377933D01*
X147497433Y-38601298D02*
X147500000Y-38500000D01*
X169000000Y-41501500D02*
X169000000Y-42500000D01*
X146001305Y-107936154D02*
X146098726Y-107908278D01*
X149858473Y-65857463D02*
X149802711Y-65942071D01*
X189702336Y-40489738D02*
X189802855Y-40476936D01*
X106805389Y-65124495D02*
X106711288Y-65162084D01*
X149510261Y-61202336D02*
X149523063Y-61302855D01*
X191436154Y-66498694D02*
X191408278Y-66401273D01*
X105918448Y-107224211D02*
X105982483Y-107302744D01*
X149751306Y-43529396D02*
X149704390Y-43619211D01*
X150901273Y-40408278D02*
X150998694Y-40436154D01*
X145601298Y-20002566D02*
X145500000Y-20000000D01*
X106529396Y-107748693D02*
X106619211Y-107795609D01*
X190949585Y-43122066D02*
X190877933Y-43050414D01*
X149510261Y-66797663D02*
X149502566Y-66898701D01*
X182500000Y-86501000D02*
X182500000Y-86499000D01*
X105500000Y-51250000D02*
X103499000Y-51250000D01*
X191459059Y-106402597D02*
X191476936Y-106302855D01*
X150805389Y-107875504D02*
X150901273Y-107908278D01*
X105510261Y-83702336D02*
X105523063Y-83802855D01*
X149624495Y-61694610D02*
X149662084Y-61788711D01*
X138500000Y-85500000D02*
X145500000Y-85500000D01*
X149704390Y-43619211D02*
X149662084Y-43711288D01*
X190557928Y-42802711D02*
X190470603Y-42751306D01*
X106619211Y-65204390D02*
X106529396Y-65251306D01*
X191375504Y-88805389D02*
X191337915Y-88711288D01*
X191295609Y-21119211D02*
X191248693Y-21029396D01*
X106275788Y-87918448D02*
X106197255Y-87982483D01*
X107398701Y-42502566D02*
X107297663Y-42510261D01*
X161500000Y-63000000D02*
X169000000Y-63000000D01*
X147489738Y-106202336D02*
X147497433Y-106101298D01*
X147500000Y-106000000D02*
X147500000Y-99250000D01*
X146724211Y-107581551D02*
X146802744Y-107517516D01*
X179500000Y-64001000D02*
X179500000Y-65000000D01*
X150357463Y-65358473D02*
X150275788Y-65418448D01*
X191436154Y-88998694D02*
X191408278Y-88901273D01*
X106357463Y-62641526D02*
X106442071Y-62697288D01*
X150901273Y-87591721D02*
X150805389Y-87624495D01*
X189902597Y-65040940D02*
X189802855Y-65023063D01*
X146949585Y-107377933D02*
X147017516Y-107302744D01*
X103499000Y-31750000D02*
X105500000Y-31750000D01*
X147375504Y-84194610D02*
X147408278Y-84098726D01*
X191081551Y-20775788D02*
X191017516Y-20697255D01*
X191497433Y-66898701D02*
X191489738Y-66797663D01*
X146098726Y-107908278D02*
X146194610Y-107875504D01*
X151097402Y-65040940D02*
X150998694Y-65063845D01*
X117500000Y-86501000D02*
X117500000Y-86499000D01*
X150357463Y-40141526D02*
X150442071Y-40197288D01*
X105591721Y-21401273D02*
X105563845Y-21498694D01*
X105502566Y-89398701D02*
X105500000Y-89500000D01*
X151297663Y-62989738D02*
X151398701Y-62997433D01*
X146724211Y-20418448D02*
X146642536Y-20358473D01*
X105563845Y-106501305D02*
X105591721Y-106598726D01*
X150619211Y-65204390D02*
X150529396Y-65251306D01*
X182500000Y-86499000D02*
X182500000Y-85500000D01*
X149662084Y-61788711D02*
X149704390Y-61880788D01*
X103499000Y-73750000D02*
X103499000Y-54250000D01*
X149563845Y-21498694D02*
X149540940Y-21597402D01*
X151398701Y-62997433D02*
X151500000Y-63000000D01*
X190001305Y-20063845D02*
X189902597Y-20040940D01*
X148499000Y-73750000D02*
X147500000Y-73750000D01*
X191141526Y-62142536D02*
X191197288Y-62057928D01*
X149540940Y-61402597D02*
X149563845Y-61501305D01*
X125000000Y-40500000D02*
X125000000Y-41499500D01*
X189500000Y-63000000D02*
X189601298Y-62997433D01*
X190380788Y-87704390D02*
X190288711Y-87662084D01*
X189702336Y-20010261D02*
X189601298Y-20002566D01*
X149510261Y-38702336D02*
X149523063Y-38802855D01*
X149540940Y-44097402D02*
X149523063Y-44197144D01*
X147436154Y-66498694D02*
X147408278Y-66401273D01*
X189802855Y-40476936D02*
X189902597Y-40459059D01*
X135500000Y-63999000D02*
X135500000Y-64001000D01*
X190001305Y-65063845D02*
X189902597Y-65040940D01*
X190877933Y-62449585D02*
X190949585Y-62377933D01*
X146470603Y-62748693D02*
X146557928Y-62697288D01*
X151197144Y-107976936D02*
X151297663Y-107989738D01*
X191500000Y-96250000D02*
X191500000Y-89500000D01*
X169000000Y-87500000D02*
X161500000Y-87500000D01*
X190098726Y-107908278D02*
X190194610Y-107875504D01*
X147375504Y-88805389D02*
X147337915Y-88711288D01*
X128000000Y-85500000D02*
X135500000Y-85500000D01*
X150529396Y-42751306D02*
X150442071Y-42802711D01*
X191408278Y-106598726D02*
X191436154Y-106501305D01*
X125000000Y-65000000D02*
X117500000Y-65000000D01*
X191436154Y-61501305D02*
X191459059Y-61402597D01*
X191476936Y-44197144D02*
X191459059Y-44097402D01*
X158500000Y-85500000D02*
X158500000Y-86499000D01*
X150442071Y-65302711D02*
X150357463Y-65358473D01*
X105751306Y-88529396D02*
X105704390Y-88619211D01*
X190194610Y-85375504D02*
X190288711Y-85337915D01*
X190380788Y-42704390D02*
X190288711Y-42662084D01*
X146724211Y-65418448D02*
X146642536Y-65358473D01*
X146802744Y-107517516D02*
X146877933Y-107449585D01*
X146949585Y-62377933D02*
X147017516Y-62302744D01*
X145601298Y-107997433D02*
X145702336Y-107989738D01*
X114500000Y-85500000D02*
X114500000Y-86499000D01*
X150050414Y-88122066D02*
X149982483Y-88197255D01*
X189500000Y-40500000D02*
X189601298Y-40497433D01*
X189902597Y-20040940D02*
X189802855Y-20023063D01*
X191197288Y-65942071D02*
X191141526Y-65857463D01*
X105523063Y-66697144D02*
X105510261Y-66797663D01*
X149662084Y-39288711D02*
X149704390Y-39380788D01*
X106901273Y-42591721D02*
X106805389Y-42624495D01*
X150442071Y-85197288D02*
X150529396Y-85248693D01*
X150619211Y-40295609D02*
X150711288Y-40337915D01*
X128000000Y-63000000D02*
X135500000Y-63000000D01*
X151500000Y-20000000D02*
X151398701Y-20002566D01*
X191497433Y-21898701D02*
X191489738Y-21797663D01*
X107297663Y-20010261D02*
X107197144Y-20023063D01*
X145902597Y-107959059D02*
X146001305Y-107936154D01*
X191197288Y-62057928D02*
X191248693Y-61970603D01*
X190380788Y-62795609D02*
X190470603Y-62748693D01*
X148501000Y-96250000D02*
X148499000Y-96250000D01*
X190642536Y-62641526D02*
X190724211Y-62581551D01*
X149500000Y-61000000D02*
X149502566Y-61101298D01*
X146949585Y-84877933D02*
X147017516Y-84802744D01*
X147248693Y-66029396D02*
X147197288Y-65942071D01*
X149704390Y-61880788D02*
X149751306Y-61970603D01*
X128000000Y-86499000D02*
X128000000Y-85500000D01*
X105918448Y-65775788D02*
X105858473Y-65857463D01*
X147081551Y-84724211D02*
X147141526Y-84642536D01*
X106442071Y-87802711D02*
X106357463Y-87858473D01*
X189500000Y-87500000D02*
X182500000Y-87500000D01*
X189601298Y-87502566D02*
X189500000Y-87500000D01*
X191141526Y-84642536D02*
X191197288Y-84557928D01*
X190802744Y-65482483D02*
X190724211Y-65418448D01*
X172000000Y-41499500D02*
X172000000Y-40500000D01*
X106442071Y-107697288D02*
X106529396Y-107748693D01*
X198001000Y-108000000D02*
X198001000Y-20000000D01*
X145702336Y-62989738D02*
X145802855Y-62976936D01*
X105704390Y-61880788D02*
X105751306Y-61970603D01*
X189802855Y-42523063D02*
X189702336Y-42510261D01*
X149540940Y-21597402D02*
X149523063Y-21697144D01*
X146380788Y-65204390D02*
X146288711Y-65162084D01*
X148499000Y-31750000D02*
X148501000Y-31750000D01*
X147017516Y-20697255D02*
X146949585Y-20622066D01*
X191197288Y-84557928D02*
X191248693Y-84470603D01*
X182500000Y-42500000D02*
X182500000Y-41501500D01*
X149523063Y-106302855D02*
X149540940Y-106402597D01*
X190949585Y-39877933D02*
X191017516Y-39802744D01*
X105500000Y-106000000D02*
X105502566Y-106101298D01*
X149500000Y-96250000D02*
X148501000Y-96250000D01*
X150122066Y-20550414D02*
X150050414Y-20622066D01*
X149918448Y-84724211D02*
X149982483Y-84802744D01*
X191375504Y-106694610D02*
X191408278Y-106598726D01*
X191500000Y-83500000D02*
X191500000Y-76750000D01*
X105624495Y-106694610D02*
X105662084Y-106788711D01*
X150529396Y-87751306D02*
X150442071Y-87802711D01*
X149802711Y-39557928D02*
X149858473Y-39642536D01*
X145702336Y-42510261D02*
X145601298Y-42502566D01*
X106197255Y-85017516D02*
X106275788Y-85081551D01*
X190642536Y-65358473D02*
X190557928Y-65302711D01*
X135500000Y-87500000D02*
X128000000Y-87500000D01*
X146098726Y-65091721D02*
X146001305Y-65063845D01*
X149662084Y-88711288D02*
X149624495Y-88805389D01*
X190802744Y-20482483D02*
X190724211Y-20418448D01*
X150529396Y-40248693D02*
X150619211Y-40295609D01*
X193501000Y-51250000D02*
X191500000Y-51250000D01*
X147197288Y-20942071D02*
X147141526Y-20857463D01*
X149624495Y-88805389D02*
X149591721Y-88901273D01*
X172000000Y-87500000D02*
X172000000Y-86501000D01*
X190877933Y-20550414D02*
X190802744Y-20482483D01*
X128000000Y-64001000D02*
X128000000Y-63999000D01*
X149591721Y-21401273D02*
X149563845Y-21498694D01*
X191141526Y-43357463D02*
X191081551Y-43275788D01*
X146949585Y-43122066D02*
X146877933Y-43050414D01*
X191408278Y-84098726D02*
X191436154Y-84001305D01*
X182500000Y-85500000D02*
X189500000Y-85500000D01*
X179500000Y-42500000D02*
X172000000Y-42500000D01*
X172000000Y-65000000D02*
X172000000Y-64001000D01*
X147141526Y-43357463D02*
X147081551Y-43275788D01*
X105982483Y-88197255D02*
X105918448Y-88275788D01*
X146288711Y-62837915D02*
X146380788Y-62795609D01*
X172000000Y-85500000D02*
X179500000Y-85500000D01*
X146470603Y-87751306D02*
X146380788Y-87704390D01*
X147500000Y-31750000D02*
X148499000Y-31750000D01*
X147436154Y-61501305D02*
X147459059Y-61402597D01*
X107197144Y-62976936D02*
X107297663Y-62989738D01*
X146288711Y-85337915D02*
X146380788Y-85295609D01*
X151097402Y-40459059D02*
X151197144Y-40476936D01*
X138500000Y-65000000D02*
X138500000Y-64001000D01*
X106619211Y-87704390D02*
X106529396Y-87751306D01*
X146877933Y-88050414D02*
X146802744Y-87982483D01*
X193501000Y-76750000D02*
X193501000Y-96250000D01*
X191017516Y-65697255D02*
X190949585Y-65622066D01*
X105540940Y-38902597D02*
X105563845Y-39001305D01*
X105662084Y-106788711D02*
X105704390Y-106880788D01*
X169000000Y-64001000D02*
X169000000Y-65000000D01*
X191459059Y-21597402D02*
X191436154Y-21498694D01*
X190470603Y-42751306D02*
X190380788Y-42704390D01*
X146642536Y-62641526D02*
X146724211Y-62581551D01*
X191017516Y-62302744D02*
X191081551Y-62224211D01*
X191081551Y-88275788D02*
X191017516Y-88197255D01*
X191375504Y-66305389D02*
X191337915Y-66211288D01*
X145802855Y-42523063D02*
X145702336Y-42510261D01*
X150901273Y-65091721D02*
X150805389Y-65124495D01*
X106711288Y-62837915D02*
X106805389Y-62875504D01*
X107297663Y-107989738D02*
X107398701Y-107997433D01*
X149858473Y-62142536D02*
X149918448Y-62224211D01*
X147248693Y-61970603D02*
X147295609Y-61880788D01*
X191295609Y-66119211D02*
X191248693Y-66029396D01*
X190470603Y-87751306D02*
X190380788Y-87704390D01*
X149523063Y-38802855D02*
X149540940Y-38902597D01*
X106442071Y-62697288D02*
X106529396Y-62748693D01*
X106197255Y-65482483D02*
X106122066Y-65550414D01*
X150998694Y-87563845D02*
X150901273Y-87591721D01*
X189902597Y-85459059D02*
X190001305Y-85436154D01*
X147500000Y-22000000D02*
X147497433Y-21898701D01*
X145500000Y-40500000D02*
X145601298Y-40497433D01*
X191408278Y-39098726D02*
X191436154Y-39001305D01*
X149500000Y-83500000D02*
X149502566Y-83601298D01*
X146802744Y-65482483D02*
X146724211Y-65418448D01*
X190802744Y-85017516D02*
X190877933Y-84949585D01*
X169000000Y-42500000D02*
X161500000Y-42500000D01*
X151097402Y-85459059D02*
X151197144Y-85476936D01*
X191489738Y-83702336D02*
X191497433Y-83601298D01*
X106122066Y-62449585D02*
X106197255Y-62517516D01*
X105982483Y-20697255D02*
X105918448Y-20775788D01*
X150619211Y-42704390D02*
X150529396Y-42751306D01*
X190380788Y-107795609D02*
X190470603Y-107748693D01*
X150050414Y-107377933D02*
X150122066Y-107449585D01*
X150901273Y-62908278D02*
X150998694Y-62936154D01*
X150197255Y-20482483D02*
X150122066Y-20550414D01*
X172000000Y-63999000D02*
X172000000Y-63000000D01*
X147408278Y-84098726D02*
X147436154Y-84001305D01*
X191248693Y-39470603D02*
X191295609Y-39380788D01*
X147141526Y-39642536D02*
X147197288Y-39557928D01*
X150529396Y-107748693D02*
X150619211Y-107795609D01*
X149704390Y-106880788D02*
X149751306Y-106970603D01*
X146470603Y-42751306D02*
X146380788Y-42704390D01*
X105918448Y-62224211D02*
X105982483Y-62302744D01*
X105918448Y-20775788D02*
X105858473Y-20857463D01*
X190001305Y-40436154D02*
X190098726Y-40408278D01*
X107197144Y-20023063D02*
X107097402Y-20040940D01*
X147459059Y-21597402D02*
X147436154Y-21498694D01*
X169000000Y-65000000D02*
X161500000Y-65000000D01*
X191500000Y-89500000D02*
X191497433Y-89398701D01*
X138500000Y-40500000D02*
X145500000Y-40500000D01*
X146724211Y-42918448D02*
X146642536Y-42858473D01*
X191436154Y-21498694D02*
X191408278Y-21401273D01*
X191337915Y-88711288D02*
X191295609Y-88619211D01*
X146642536Y-87858473D02*
X146557928Y-87802711D01*
X146288711Y-65162084D02*
X146194610Y-65124495D01*
X106711288Y-42662084D02*
X106619211Y-42704390D01*
X169000000Y-41499500D02*
X169000000Y-41501500D01*
X146877933Y-39949585D02*
X146949585Y-39877933D01*
X191197288Y-20942071D02*
X191141526Y-20857463D01*
X146802744Y-42982483D02*
X146724211Y-42918448D01*
X106805389Y-107875504D02*
X106901273Y-107908278D01*
X147500000Y-83500000D02*
X147500000Y-76750000D01*
X149858473Y-84642536D02*
X149918448Y-84724211D01*
X106275788Y-42918448D02*
X106197255Y-42982483D01*
X145601298Y-85497433D02*
X145702336Y-85489738D01*
X190470603Y-65251306D02*
X190380788Y-65204390D01*
X191500000Y-99250000D02*
X193501000Y-99250000D01*
X191375504Y-21305389D02*
X191337915Y-21211288D01*
X191337915Y-84288711D02*
X191375504Y-84194610D01*
X189802855Y-107976936D02*
X189902597Y-107959059D01*
X169000000Y-86501000D02*
X169000000Y-87500000D01*
X182500000Y-87500000D02*
X182500000Y-86501000D01*
X145902597Y-20040940D02*
X145802855Y-20023063D01*
X149540940Y-89097402D02*
X149523063Y-89197144D01*
X158500000Y-87500000D02*
X151500000Y-87500000D01*
X190001305Y-87563845D02*
X189902597Y-87540940D01*
X107297663Y-40489738D02*
X107398701Y-40497433D01*
X193501000Y-108000000D02*
X198001000Y-108000000D01*
X106901273Y-85408278D02*
X106998694Y-85436154D01*
X145802855Y-62976936D02*
X145902597Y-62959059D01*
X106197255Y-107517516D02*
X106275788Y-107581551D01*
X150197255Y-42982483D02*
X150122066Y-43050414D01*
X147295609Y-84380788D02*
X147337915Y-84288711D01*
X106805389Y-42624495D02*
X106711288Y-42662084D01*
X190194610Y-40375504D02*
X190288711Y-40337915D01*
X145702336Y-20010261D02*
X145601298Y-20002566D01*
X105510261Y-61202336D02*
X105523063Y-61302855D01*
X182500000Y-63999000D02*
X182500000Y-63000000D01*
X146288711Y-40337915D02*
X146380788Y-40295609D01*
X190001305Y-42563845D02*
X189902597Y-42540940D01*
X146949585Y-39877933D02*
X147017516Y-39802744D01*
X150197255Y-40017516D02*
X150275788Y-40081551D01*
X191141526Y-39642536D02*
X191197288Y-39557928D01*
X191489738Y-89297663D02*
X191476936Y-89197144D01*
X106529396Y-20251306D02*
X106442071Y-20302711D01*
X147337915Y-66211288D02*
X147295609Y-66119211D01*
X151297663Y-42510261D02*
X151197144Y-42523063D01*
X146724211Y-62581551D02*
X146802744Y-62517516D01*
X149802711Y-107057928D02*
X149858473Y-107142536D01*
X149918448Y-39724211D02*
X149982483Y-39802744D01*
X150711288Y-62837915D02*
X150805389Y-62875504D01*
X191141526Y-20857463D02*
X191081551Y-20775788D01*
X191436154Y-43998694D02*
X191408278Y-43901273D01*
X107197144Y-85476936D02*
X107297663Y-85489738D01*
X105751306Y-21029396D02*
X105704390Y-21119211D01*
X107297663Y-85489738D02*
X107398701Y-85497433D01*
X105500000Y-96250000D02*
X103499000Y-96250000D01*
X150357463Y-87858473D02*
X150275788Y-87918448D01*
X150197255Y-65482483D02*
X150122066Y-65550414D01*
X150197255Y-87982483D02*
X150122066Y-88050414D01*
X151197144Y-20023063D02*
X151097402Y-20040940D01*
X105591721Y-106598726D02*
X105624495Y-106694610D01*
X146098726Y-20091721D02*
X146001305Y-20063845D01*
X189902597Y-62959059D02*
X190001305Y-62936154D01*
X147497433Y-21898701D02*
X147489738Y-21797663D01*
X146194610Y-42624495D02*
X146098726Y-42591721D01*
X150050414Y-84877933D02*
X150122066Y-84949585D01*
X105502566Y-83601298D02*
X105510261Y-83702336D01*
X103499000Y-99250000D02*
X105500000Y-99250000D01*
X150998694Y-85436154D02*
X151097402Y-85459059D01*
X147497433Y-61101298D02*
X147500000Y-61000000D01*
X149563845Y-43998694D02*
X149540940Y-44097402D01*
X107197144Y-65023063D02*
X107097402Y-65040940D01*
X147295609Y-43619211D02*
X147248693Y-43529396D01*
X149751306Y-88529396D02*
X149704390Y-88619211D01*
X146288711Y-20162084D02*
X146194610Y-20124495D01*
X149704390Y-21119211D02*
X149662084Y-21211288D01*
X105858473Y-88357463D02*
X105802711Y-88442071D01*
X191248693Y-84470603D02*
X191295609Y-84380788D01*
X150122066Y-107449585D02*
X150197255Y-107517516D01*
X150275788Y-42918448D02*
X150197255Y-42982483D01*
X150197255Y-85017516D02*
X150275788Y-85081551D01*
X191295609Y-84380788D02*
X191337915Y-84288711D01*
X105802711Y-84557928D02*
X105858473Y-84642536D01*
X189702336Y-62989738D02*
X189802855Y-62976936D01*
X146802744Y-62517516D02*
X146877933Y-62449585D01*
X105704390Y-43619211D02*
X105662084Y-43711288D01*
X191476936Y-21697144D02*
X191459059Y-21597402D01*
X147375504Y-106694610D02*
X147408278Y-106598726D01*
X106050414Y-39877933D02*
X106122066Y-39949585D01*
X149662084Y-21211288D02*
X149624495Y-21305389D01*
X106197255Y-62517516D02*
X106275788Y-62581551D01*
X149858473Y-88357463D02*
X149802711Y-88442071D01*
X150529396Y-65251306D02*
X150442071Y-65302711D01*
X105510261Y-21797663D02*
X105502566Y-21898701D01*
X182500000Y-40500000D02*
X189500000Y-40500000D01*
X114500000Y-65000000D02*
X107500000Y-65000000D01*
X182500000Y-65000000D02*
X182500000Y-64001000D01*
X149624495Y-106694610D02*
X149662084Y-106788711D01*
X190642536Y-107641526D02*
X190724211Y-107581551D01*
X191248693Y-88529396D02*
X191197288Y-88442071D01*
X150805389Y-40375504D02*
X150901273Y-40408278D01*
X149510261Y-89297663D02*
X149502566Y-89398701D01*
X135500000Y-86499000D02*
X135500000Y-86501000D01*
X105624495Y-39194610D02*
X105662084Y-39288711D01*
X146949585Y-65622066D02*
X146877933Y-65550414D01*
X128000000Y-65000000D02*
X128000000Y-64001000D01*
X106529396Y-87751306D02*
X106442071Y-87802711D01*
X146802744Y-85017516D02*
X146877933Y-84949585D01*
X147337915Y-43711288D02*
X147295609Y-43619211D01*
X150442071Y-87802711D02*
X150357463Y-87858473D01*
X191497433Y-44398701D02*
X191489738Y-44297663D01*
X158500000Y-86499000D02*
X158500000Y-86501000D01*
X151398701Y-85497433D02*
X151500000Y-85500000D01*
X105982483Y-43197255D02*
X105918448Y-43275788D01*
X191459059Y-89097402D02*
X191436154Y-88998694D01*
X105624495Y-61694610D02*
X105662084Y-61788711D01*
X191337915Y-43711288D02*
X191295609Y-43619211D01*
X147197288Y-107057928D02*
X147248693Y-106970603D01*
X147500000Y-38500000D02*
X147500000Y-31750000D01*
X135500000Y-42500000D02*
X128000000Y-42500000D01*
X191408278Y-43901273D02*
X191375504Y-43805389D01*
X149563845Y-84001305D02*
X149591721Y-84098726D01*
X189902597Y-87540940D02*
X189802855Y-87523063D01*
X107097402Y-42540940D02*
X106998694Y-42563845D01*
X103499000Y-108000000D02*
X103499000Y-99250000D01*
X151500000Y-87500000D02*
X151398701Y-87502566D01*
X190557928Y-107697288D02*
X190642536Y-107641526D01*
X149624495Y-21305389D02*
X149591721Y-21401273D01*
X145500000Y-87500000D02*
X138500000Y-87500000D01*
X149563845Y-66498694D02*
X149540940Y-66597402D01*
X146802744Y-87982483D02*
X146724211Y-87918448D01*
X105500000Y-38500000D02*
X105502566Y-38601298D01*
X149751306Y-61970603D02*
X149802711Y-62057928D01*
X191459059Y-38902597D02*
X191476936Y-38802855D01*
X189702336Y-85489738D02*
X189802855Y-85476936D01*
X128000000Y-40500000D02*
X135500000Y-40500000D01*
X189702336Y-107989738D02*
X189802855Y-107976936D01*
X105858473Y-43357463D02*
X105802711Y-43442071D01*
X138500000Y-42500000D02*
X138500000Y-41501500D01*
X117500000Y-63000000D02*
X125000000Y-63000000D01*
X149982483Y-84802744D02*
X150050414Y-84877933D01*
X106050414Y-62377933D02*
X106122066Y-62449585D01*
X105523063Y-21697144D02*
X105510261Y-21797663D01*
X106050414Y-84877933D02*
X106122066Y-84949585D01*
X147017516Y-88197255D02*
X146949585Y-88122066D01*
X190194610Y-42624495D02*
X190098726Y-42591721D01*
X146470603Y-40248693D02*
X146557928Y-40197288D01*
X107197144Y-42523063D02*
X107097402Y-42540940D01*
X147408278Y-39098726D02*
X147436154Y-39001305D01*
X117500000Y-65000000D02*
X117500000Y-64001000D01*
X190194610Y-62875504D02*
X190288711Y-62837915D01*
X106529396Y-42751306D02*
X106442071Y-42802711D01*
X147295609Y-88619211D02*
X147248693Y-88529396D01*
X158500000Y-63000000D02*
X158500000Y-63999000D01*
X138500000Y-63000000D02*
X145500000Y-63000000D01*
X107398701Y-20002566D02*
X107297663Y-20010261D01*
X149858473Y-107142536D02*
X149918448Y-107224211D01*
X161500000Y-87500000D02*
X161500000Y-86501000D01*
X190802744Y-107517516D02*
X190877933Y-107449585D01*
X106998694Y-20063845D02*
X106901273Y-20091721D01*
X147476936Y-89197144D02*
X147459059Y-89097402D01*
X191081551Y-107224211D02*
X191141526Y-107142536D01*
X105751306Y-106970603D02*
X105802711Y-107057928D01*
X151297663Y-87510261D02*
X151197144Y-87523063D01*
X105500000Y-22000000D02*
X105500000Y-28750000D01*
X103499000Y-54250000D02*
X105500000Y-54250000D01*
X179500000Y-86501000D02*
X179500000Y-87500000D01*
X151500000Y-85500000D02*
X158500000Y-85500000D01*
X106357463Y-107641526D02*
X106442071Y-107697288D01*
X190098726Y-62908278D02*
X190194610Y-62875504D01*
X190380788Y-40295609D02*
X190470603Y-40248693D01*
X190557928Y-65302711D02*
X190470603Y-65251306D01*
X172000000Y-42500000D02*
X172000000Y-41501500D01*
X149802711Y-62057928D02*
X149858473Y-62142536D01*
X147436154Y-43998694D02*
X147408278Y-43901273D01*
X148499000Y-76750000D02*
X148501000Y-76750000D01*
X169000000Y-63000000D02*
X169000000Y-63999000D01*
X190194610Y-87624495D02*
X190098726Y-87591721D01*
X125000000Y-42500000D02*
X117500000Y-42500000D01*
X158500000Y-86501000D02*
X158500000Y-87500000D01*
X146001305Y-65063845D02*
X145902597Y-65040940D01*
X146642536Y-20358473D02*
X146557928Y-20302711D01*
X149591721Y-66401273D02*
X149563845Y-66498694D01*
X105523063Y-106302855D02*
X105540940Y-106402597D01*
X105500000Y-89500000D02*
X105500000Y-96250000D01*
X105502566Y-38601298D02*
X105510261Y-38702336D01*
X105523063Y-38802855D02*
X105540940Y-38902597D01*
X190098726Y-40408278D02*
X190194610Y-40375504D01*
X147248693Y-106970603D02*
X147295609Y-106880788D01*
X182500000Y-64001000D02*
X182500000Y-63999000D01*
X191476936Y-83802855D02*
X191489738Y-83702336D01*
X146470603Y-85248693D02*
X146557928Y-85197288D01*
X191489738Y-66797663D02*
X191476936Y-66697144D01*
X105982483Y-107302744D02*
X106050414Y-107377933D01*
X149502566Y-21898701D02*
X149500000Y-22000000D01*
X189601298Y-65002566D02*
X189500000Y-65000000D01*
X190642536Y-20358473D02*
X190557928Y-20302711D01*
X191081551Y-39724211D02*
X191141526Y-39642536D01*
X182500000Y-41499500D02*
X182500000Y-40500000D01*
X135500000Y-85500000D02*
X135500000Y-86499000D01*
X105704390Y-106880788D02*
X105751306Y-106970603D01*
X105563845Y-84001305D02*
X105591721Y-84098726D01*
X191017516Y-84802744D02*
X191081551Y-84724211D01*
X151500000Y-108000000D02*
X189500000Y-108000000D01*
X150711288Y-20162084D02*
X150619211Y-20204390D01*
X106275788Y-65418448D02*
X106197255Y-65482483D01*
X147081551Y-39724211D02*
X147141526Y-39642536D01*
X150529396Y-85248693D02*
X150619211Y-85295609D01*
X151297663Y-107989738D02*
X151398701Y-107997433D01*
X149751306Y-39470603D02*
X149802711Y-39557928D01*
X190194610Y-107875504D02*
X190288711Y-107837915D01*
X150901273Y-85408278D02*
X150998694Y-85436154D01*
X105624495Y-84194610D02*
X105662084Y-84288711D01*
X148499000Y-99250000D02*
X148501000Y-99250000D01*
X189902597Y-107959059D02*
X190001305Y-107936154D01*
X149704390Y-88619211D02*
X149662084Y-88711288D01*
X106711288Y-20162084D02*
X106619211Y-20204390D01*
X145802855Y-85476936D02*
X145902597Y-85459059D01*
X105540940Y-106402597D02*
X105563845Y-106501305D01*
X125000000Y-63999000D02*
X125000000Y-64001000D01*
X107297663Y-42510261D02*
X107197144Y-42523063D01*
X191141526Y-88357463D02*
X191081551Y-88275788D01*
X147489738Y-38702336D02*
X147497433Y-38601298D01*
X105858473Y-62142536D02*
X105918448Y-62224211D01*
X105751306Y-61970603D02*
X105802711Y-62057928D01*
X114500000Y-41499500D02*
X114500000Y-41501500D01*
X105918448Y-39724211D02*
X105982483Y-39802744D01*
M02*
