%TF.GenerationSoftware,KiCad,Pcbnew,8.0.0*%
%TF.CreationDate,2024-05-28T16:04:05+09:00*%
%TF.ProjectId,Panel,50616e65-6c2e-46b6-9963-61645f706362,rev?*%
%TF.SameCoordinates,Original*%
%TF.FileFunction,Plated,1,2,PTH,Drill*%
%TF.FilePolarity,Positive*%
%FSLAX46Y46*%
G04 Gerber Fmt 4.6, Leading zero omitted, Abs format (unit mm)*
G04 Created by KiCad (PCBNEW 8.0.0) date 2024-05-28 16:04:05*
%MOMM*%
%LPD*%
G01*
G04 APERTURE LIST*
%TA.AperFunction,ViaDrill*%
%ADD10C,0.300000*%
%TD*%
%TA.AperFunction,ComponentDrill*%
%ADD11C,0.800000*%
%TD*%
G04 APERTURE END LIST*
D10*
X108250000Y-30000000D03*
X108250000Y-52500000D03*
X108250000Y-75000000D03*
X108250000Y-97500000D03*
X117000000Y-24000000D03*
X117000000Y-46500000D03*
X117000000Y-69000000D03*
X117000000Y-91500000D03*
X118725000Y-25438347D03*
X118725000Y-47938347D03*
X118725000Y-70438347D03*
X118725000Y-92938347D03*
X118750000Y-22500000D03*
X118750000Y-45000000D03*
X118750000Y-67500000D03*
X118750000Y-90000000D03*
X119431000Y-30396000D03*
X119431000Y-52896000D03*
X119431000Y-75396000D03*
X119431000Y-97896000D03*
X119500000Y-34750000D03*
X119500000Y-57250000D03*
X119500000Y-79750000D03*
X119500000Y-102250000D03*
X120000000Y-24250000D03*
X120000000Y-46750000D03*
X120000000Y-69250000D03*
X120000000Y-91750000D03*
X123114000Y-38905000D03*
X123114000Y-61405000D03*
X123114000Y-83905000D03*
X123114000Y-106405000D03*
X124086871Y-38673639D03*
X124086871Y-61173639D03*
X124086871Y-83673639D03*
X124086871Y-106173639D03*
X125223000Y-33952000D03*
X125223000Y-56452000D03*
X125223000Y-78952000D03*
X125223000Y-101452000D03*
X125943921Y-29400498D03*
X125943921Y-51900498D03*
X125943921Y-74400498D03*
X125943921Y-96900498D03*
X127129843Y-35704262D03*
X127129843Y-58204262D03*
X127129843Y-80704262D03*
X127129843Y-103204262D03*
X128702000Y-35058000D03*
X128702000Y-57558000D03*
X128702000Y-80058000D03*
X128702000Y-102558000D03*
X129500002Y-23488204D03*
X129500002Y-45988204D03*
X129500002Y-68488204D03*
X129500002Y-90988204D03*
X130226000Y-31019178D03*
X130226000Y-53519178D03*
X130226000Y-76019178D03*
X130226000Y-98519178D03*
X131673449Y-25699785D03*
X131673449Y-48199785D03*
X131673449Y-70699785D03*
X131673449Y-93199785D03*
X132445865Y-36933865D03*
X132445865Y-59433865D03*
X132445865Y-81933865D03*
X132445865Y-104433865D03*
X132749500Y-31026507D03*
X132749500Y-53526507D03*
X132749500Y-76026507D03*
X132749500Y-98526507D03*
X134036000Y-36873000D03*
X134036000Y-59373000D03*
X134036000Y-81873000D03*
X134036000Y-104373000D03*
X134410345Y-23025606D03*
X134410345Y-45525606D03*
X134410345Y-68025606D03*
X134410345Y-90525606D03*
X135068081Y-31525455D03*
X135068081Y-54025455D03*
X135068081Y-76525455D03*
X135068081Y-99025455D03*
X136024000Y-24500000D03*
X136024000Y-47000000D03*
X136024000Y-69500000D03*
X136024000Y-92000000D03*
X136395960Y-37576000D03*
X136395960Y-60076000D03*
X136395960Y-82576000D03*
X136395960Y-105076000D03*
X136518081Y-31512047D03*
X136518081Y-54012047D03*
X136518081Y-76512047D03*
X136518081Y-99012047D03*
X138618149Y-34470149D03*
X138618149Y-56970149D03*
X138618149Y-79470149D03*
X138618149Y-101970149D03*
X139300000Y-38778000D03*
X139300000Y-61278000D03*
X139300000Y-83778000D03*
X139300000Y-106278000D03*
X140316998Y-37274500D03*
X140316998Y-59774500D03*
X140316998Y-82274500D03*
X140316998Y-104774500D03*
X140750000Y-39500000D03*
X140750000Y-62000000D03*
X140750000Y-84500000D03*
X140750000Y-107000000D03*
X141884929Y-36337461D03*
X141884929Y-58837461D03*
X141884929Y-81337461D03*
X141884929Y-103837461D03*
X141916203Y-34824255D03*
X141916203Y-57324255D03*
X141916203Y-79824255D03*
X141916203Y-102324255D03*
X141986000Y-28008400D03*
X141986000Y-50508400D03*
X141986000Y-73008400D03*
X141986000Y-95508400D03*
X142075850Y-26838150D03*
X142075850Y-49338150D03*
X142075850Y-71838150D03*
X142075850Y-94338150D03*
X142291000Y-29888000D03*
X142291000Y-52388000D03*
X142291000Y-74888000D03*
X142291000Y-97388000D03*
X142695346Y-35274044D03*
X142695346Y-57774044D03*
X142695346Y-80274044D03*
X142695346Y-102774044D03*
X143053000Y-32809000D03*
X143053000Y-55309000D03*
X143053000Y-77809000D03*
X143053000Y-100309000D03*
X143121153Y-31343847D03*
X143121153Y-53843847D03*
X143121153Y-76343847D03*
X143121153Y-98843847D03*
X144066587Y-33184831D03*
X144066587Y-55684831D03*
X144066587Y-78184831D03*
X144066587Y-100684831D03*
X144710951Y-35990951D03*
X144710951Y-58490951D03*
X144710951Y-80990951D03*
X144710951Y-103490951D03*
X145212000Y-22776000D03*
X145212000Y-45276000D03*
X145212000Y-67776000D03*
X145212000Y-90276000D03*
X145991493Y-26825112D03*
X145991493Y-49325112D03*
X145991493Y-71825112D03*
X145991493Y-94325112D03*
X145993707Y-30176769D03*
X145993707Y-52676769D03*
X145993707Y-75176769D03*
X145993707Y-97676769D03*
X152250000Y-30000000D03*
X152250000Y-52500000D03*
X152250000Y-75000000D03*
X152250000Y-97500000D03*
X161000000Y-24000000D03*
X161000000Y-46500000D03*
X161000000Y-69000000D03*
X161000000Y-91500000D03*
X162725000Y-25438347D03*
X162725000Y-47938347D03*
X162725000Y-70438347D03*
X162725000Y-92938347D03*
X162750000Y-22500000D03*
X162750000Y-45000000D03*
X162750000Y-67500000D03*
X162750000Y-90000000D03*
X163431000Y-30396000D03*
X163431000Y-52896000D03*
X163431000Y-75396000D03*
X163431000Y-97896000D03*
X163500000Y-34750000D03*
X163500000Y-57250000D03*
X163500000Y-79750000D03*
X163500000Y-102250000D03*
X164000000Y-24250000D03*
X164000000Y-46750000D03*
X164000000Y-69250000D03*
X164000000Y-91750000D03*
X167114000Y-38905000D03*
X167114000Y-61405000D03*
X167114000Y-83905000D03*
X167114000Y-106405000D03*
X168086871Y-38673639D03*
X168086871Y-61173639D03*
X168086871Y-83673639D03*
X168086871Y-106173639D03*
X169223000Y-33952000D03*
X169223000Y-56452000D03*
X169223000Y-78952000D03*
X169223000Y-101452000D03*
X169943921Y-29400498D03*
X169943921Y-51900498D03*
X169943921Y-74400498D03*
X169943921Y-96900498D03*
X171129843Y-35704262D03*
X171129843Y-58204262D03*
X171129843Y-80704262D03*
X171129843Y-103204262D03*
X172702000Y-35058000D03*
X172702000Y-57558000D03*
X172702000Y-80058000D03*
X172702000Y-102558000D03*
X173500002Y-23488204D03*
X173500002Y-45988204D03*
X173500002Y-68488204D03*
X173500002Y-90988204D03*
X174226000Y-31019178D03*
X174226000Y-53519178D03*
X174226000Y-76019178D03*
X174226000Y-98519178D03*
X175673449Y-25699785D03*
X175673449Y-48199785D03*
X175673449Y-70699785D03*
X175673449Y-93199785D03*
X176445865Y-36933865D03*
X176445865Y-59433865D03*
X176445865Y-81933865D03*
X176445865Y-104433865D03*
X176749500Y-31026507D03*
X176749500Y-53526507D03*
X176749500Y-76026507D03*
X176749500Y-98526507D03*
X178036000Y-36873000D03*
X178036000Y-59373000D03*
X178036000Y-81873000D03*
X178036000Y-104373000D03*
X178410345Y-23025606D03*
X178410345Y-45525606D03*
X178410345Y-68025606D03*
X178410345Y-90525606D03*
X179068081Y-31525455D03*
X179068081Y-54025455D03*
X179068081Y-76525455D03*
X179068081Y-99025455D03*
X180024000Y-24500000D03*
X180024000Y-47000000D03*
X180024000Y-69500000D03*
X180024000Y-92000000D03*
X180395960Y-37576000D03*
X180395960Y-60076000D03*
X180395960Y-82576000D03*
X180395960Y-105076000D03*
X180518081Y-31512047D03*
X180518081Y-54012047D03*
X180518081Y-76512047D03*
X180518081Y-99012047D03*
X182618149Y-34470149D03*
X182618149Y-56970149D03*
X182618149Y-79470149D03*
X182618149Y-101970149D03*
X183300000Y-38778000D03*
X183300000Y-61278000D03*
X183300000Y-83778000D03*
X183300000Y-106278000D03*
X184316998Y-37274500D03*
X184316998Y-59774500D03*
X184316998Y-82274500D03*
X184316998Y-104774500D03*
X184750000Y-39500000D03*
X184750000Y-62000000D03*
X184750000Y-84500000D03*
X184750000Y-107000000D03*
X185884929Y-36337461D03*
X185884929Y-58837461D03*
X185884929Y-81337461D03*
X185884929Y-103837461D03*
X185916203Y-34824255D03*
X185916203Y-57324255D03*
X185916203Y-79824255D03*
X185916203Y-102324255D03*
X185986000Y-28008400D03*
X185986000Y-50508400D03*
X185986000Y-73008400D03*
X185986000Y-95508400D03*
X186075850Y-26838150D03*
X186075850Y-49338150D03*
X186075850Y-71838150D03*
X186075850Y-94338150D03*
X186291000Y-29888000D03*
X186291000Y-52388000D03*
X186291000Y-74888000D03*
X186291000Y-97388000D03*
X186695346Y-35274044D03*
X186695346Y-57774044D03*
X186695346Y-80274044D03*
X186695346Y-102774044D03*
X187053000Y-32809000D03*
X187053000Y-55309000D03*
X187053000Y-77809000D03*
X187053000Y-100309000D03*
X187121153Y-31343847D03*
X187121153Y-53843847D03*
X187121153Y-76343847D03*
X187121153Y-98843847D03*
X188066587Y-33184831D03*
X188066587Y-55684831D03*
X188066587Y-78184831D03*
X188066587Y-100684831D03*
X188710951Y-35990951D03*
X188710951Y-58490951D03*
X188710951Y-80990951D03*
X188710951Y-103490951D03*
X189212000Y-22776000D03*
X189212000Y-45276000D03*
X189212000Y-67776000D03*
X189212000Y-90276000D03*
X189991493Y-26825112D03*
X189991493Y-49325112D03*
X189991493Y-71825112D03*
X189991493Y-94325112D03*
X189993707Y-30176769D03*
X189993707Y-52676769D03*
X189993707Y-75176769D03*
X189993707Y-97676769D03*
D11*
%TO.C,J1*%
X125851363Y-38843235D03*
X125851363Y-61343235D03*
X125851363Y-83843235D03*
X125851363Y-106343235D03*
X127851363Y-38843235D03*
X127851363Y-61343235D03*
X127851363Y-83843235D03*
X127851363Y-106343235D03*
X129851363Y-38843235D03*
X129851363Y-61343235D03*
X129851363Y-83843235D03*
X129851363Y-106343235D03*
X131851363Y-38843235D03*
X131851363Y-61343235D03*
X131851363Y-83843235D03*
X131851363Y-106343235D03*
X133851363Y-38843235D03*
X133851363Y-61343235D03*
X133851363Y-83843235D03*
X133851363Y-106343235D03*
X169851363Y-38843235D03*
X169851363Y-61343235D03*
X169851363Y-83843235D03*
X169851363Y-106343235D03*
X171851363Y-38843235D03*
X171851363Y-61343235D03*
X171851363Y-83843235D03*
X171851363Y-106343235D03*
X173851363Y-38843235D03*
X173851363Y-61343235D03*
X173851363Y-83843235D03*
X173851363Y-106343235D03*
X175851363Y-38843235D03*
X175851363Y-61343235D03*
X175851363Y-83843235D03*
X175851363Y-106343235D03*
X177851363Y-38843235D03*
X177851363Y-61343235D03*
X177851363Y-83843235D03*
X177851363Y-106343235D03*
M02*
